<svg xmlns="http://www.w3.org/2000/svg" xmlns:xlink="http://www.w3.org/1999/xlink" width="76.884" height="289.321" viewBox="0 0 76.884 289.321">
  <defs>
    <linearGradient id="linear-gradient" x1="0.5" x2="0.5" y2="1" gradientUnits="objectBoundingBox">
      <stop offset="0" stop-color="#6588e3"/>
      <stop offset="1" stop-color="#6debff"/>
    </linearGradient>
  </defs>
  <path id="blue-bubble" d="M14.581,14c0,7.732,6.528,14,14.581,14s14.581-6.268,14.581-14S37.216,0,29.163,0,14.581,6.268,14.581,14ZM30.489,86.663c0,7.364,5.638,13.333,12.593,13.333s12.593-5.969,12.593-13.333S50.036,73.331,43.082,73.331,30.489,79.3,30.489,86.663ZM0,129.328c0,12.518,9.792,22.666,21.873,22.666s21.872-10.147,21.872-22.666-9.793-22.666-21.872-22.666S0,116.81,0,129.328Zm39.768,64.664c0,9.941,8.308,18,18.559,18s18.558-8.059,18.558-18-8.309-18-18.558-18S39.768,184.051,39.768,193.992ZM11.931,262.655c0,14.728,11.276,26.666,25.186,26.666S62.3,277.383,62.3,262.655,51.027,235.99,37.117,235.99,11.931,247.928,11.931,262.655Z" transform="translate(76.884 289.321) rotate(-180)" fill="url(#linear-gradient)"/>
</svg>
