<svg xmlns="http://www.w3.org/2000/svg"  viewBox="0 0 27.174 27.175">
  <g id="call" transform="translate(0 0)">
    <path id="Subtraction_28" data-name="Subtraction 28" d="M22.066,27.175h0a12.791,12.791,0,0,1-5.82-1.636,34.987,34.987,0,0,1-8.228-6.381C.126,11.267-.554,6.052.266,3.066A2.493,2.493,0,0,1,1.415,1.585L3.879.106a.742.742,0,0,1,1,.225l2.135,3.2L8.806,6.224a.751.751,0,0,1-.162,1L6.439,8.94a1.707,1.707,0,0,0-.45,2.18l.175.318A20.588,20.588,0,0,0,10.369,16.8a20.612,20.612,0,0,0,5.363,4.2l.322.177a1.7,1.7,0,0,0,2.179-.449l1.716-2.207a.748.748,0,0,1,1-.162l5.892,3.93a.74.74,0,0,1,.225,1l-1.479,2.464a2.5,2.5,0,0,1-1.48,1.148A7.722,7.722,0,0,1,22.066,27.175Z" transform="translate(0 0)" fill=/>
    <path id="Path_170" data-name="Path 170" d="M283.113,70.294a8.258,8.258,0,0,1,8.248,8.248.485.485,0,1,0,.97,0,9.229,9.229,0,0,0-9.219-9.219.485.485,0,0,0,0,.97Z" transform="translate(-267.583 -66.413)" />
    <path id="Path_171" data-name="Path 171" d="M283.113,121.494a5.343,5.343,0,0,1,5.337,5.337.485.485,0,0,0,.97,0,6.315,6.315,0,0,0-6.308-6.307.485.485,0,0,0,0,.97Z" transform="translate(-267.583 -114.702)" />
    <path id="Path_172" data-name="Path 172" d="M283.113,172.694a2.429,2.429,0,0,1,2.426,2.426.485.485,0,0,0,.97,0,3.4,3.4,0,0,0-3.4-3.4.485.485,0,0,0,0,.97Z" transform="translate(-267.583 -162.991)" />
  </g>
</svg>
