<svg xmlns="http://www.w3.org/2000/svg" xmlns:xlink="http://www.w3.org/1999/xlink" viewBox="0 0 2233.847 158.446">
  <defs>
    <linearGradient id="linear-gradient" x1="0.5" x2="0.5" y2="1.351" gradientUnits="objectBoundingBox">
      <stop offset="0" stop-color="#000654"/>
      <stop offset="1" stop-color="#ba00ae"/>
    </linearGradient>
  </defs>
  <g id="Clouds" transform="translate(-634.417 -103.545)">
    <path id="Path_213" data-name="Path 213" d="M3272.511,173.364c0,5.653,9.469-16.227-250.323-24.247s-403.72,26.964-399.628,8.262S2843.4,88.038,2947.891,92.42s-369.522,45.04-228.159,56.7c45.8,3.777,233.945-25.1,302.456-22.611C3165.073,131.687,3272.511,167.711,3272.511,173.364Z" transform="translate(-1287.394 87.706)" fill="url(#linear-gradient)"/>
    <path id="Path_214" data-name="Path 214" d="M3118.531,121.538c-28.655,10.28-493.949,9.053-493.949,9.053s154.081-4.387,244.91-14.071,35.973-29.084,114.62-27.05S3147.186,111.257,3118.531,121.538Z" transform="translate(-255.983 84.34)" opacity="0.59" fill="url(#linear-gradient)"/>
    <path id="Path_215" data-name="Path 215" d="M3393.5,70.283s-302.343,65.247-459.3,76.722,188.922-41.185,85.388-52.7-392.339,32-392.339,32,129.6-18.218,199.091-45.38S3070.149,38.878,3167.9,38.139s-111.879,50.73-43.369,53.214C3267.413,96.534,3393.5,70.283,3393.5,70.283Z" transform="translate(-1992.835 65.414)" fill="url(#linear-gradient)"/>
  </g>
</svg>
