<svg xmlns="http://www.w3.org/2000/svg" xmlns:xlink="http://www.w3.org/1999/xlink" viewBox="0 0 1177 1221.879">
  <defs>
    <radialGradient id="radial-gradient" cx="0.5" cy="0.5" r="0.5" gradientUnits="objectBoundingBox">
      <stop offset="0" stop-color="#0cf"/>
      <stop offset="1" stop-color="#6588e3"/>
    </radialGradient>
    <linearGradient id="linear-gradient" x1="0.5" x2="0.5" y2="1" gradientUnits="objectBoundingBox">
      <stop offset="0" stop-color="#ff7bbd"/>
      <stop offset="1" stop-color="#6debff"/>
    </linearGradient>
  </defs>
  <g id="contact-form" transform="translate(-379 -112)">
    <path id="Path_63" data-name="Path 63" d="M20,0H1157c11.046,0,20,12.767,20,28.515V1193.364c0,15.748-8.954,28.515-20,28.515H20c-11.046,0-20-12.767-20-28.515V28.515C0,12.767,8.954,0,20,0Z" transform="translate(379 112)" fill="url(#radial-gradient)"/>
    <path id="Union_24" data-name="Union 24" d="M-6987.86-1389c0-7.732,6.528-14,14.581-14s14.581,6.269,14.581,14-6.529,14-14.581,14S-6987.86-1381.269-6987.86-1389Zm-11.931-72.665c0-7.364,5.639-13.332,12.593-13.332s12.593,5.968,12.593,13.332-5.639,13.333-12.593,13.333S-6999.791-1454.3-6999.791-1461.664Zm11.931-42.664c0-12.519,9.793-22.665,21.871-22.665s21.874,10.146,21.874,22.665-9.793,22.665-21.874,22.665S-6987.86-1491.811-6987.86-1504.328Zm-33.14-64.663c0-9.941,8.31-18,18.558-18s18.56,8.06,18.56,18-8.308,18-18.56,18S-7021-1559.052-7021-1568.992Zm14.581-68.663c0-14.729,11.277-26.667,25.187-26.667s25.187,11.938,25.187,26.667-11.277,26.665-25.187,26.665S-7006.419-1622.929-7006.419-1637.655Zm1046.4-602.834a14.952,14.952,0,0,1,15.217-14.671,14.951,14.951,0,0,1,15.217,14.671,14.95,14.95,0,0,1-15.217,14.669A14.951,14.951,0,0,1-5960.017-2240.489Zm16.6-76.145c0-7.718,5.884-13.971,13.142-13.971s13.141,6.253,13.141,13.971-5.885,13.971-13.141,13.971S-5943.415-2308.917-5943.415-2316.633Zm-31.817-44.71c0-13.117,10.22-23.75,22.826-23.75s22.823,10.634,22.823,23.75-10.22,23.752-22.823,23.752S-5975.232-2348.225-5975.232-2361.343Zm41.5-67.761a19.118,19.118,0,0,1,19.367-18.861A19.119,19.119,0,0,1-5895-2429.1a19.12,19.12,0,0,1-19.367,18.863A19.119,19.119,0,0,1-5933.732-2429.1Zm-29.049-71.953c0-15.432,11.767-27.942,26.282-27.942s26.283,12.51,26.283,27.942-11.767,27.944-26.283,27.944S-5962.781-2485.624-5962.781-2501.057Z" transform="translate(7421 2690)" fill="url(#linear-gradient)"/>
  </g>
</svg>
