<svg xmlns="http://www.w3.org/2000/svg" xmlns:xlink="http://www.w3.org/1999/xlink" width="126.855" height="126.854" viewBox="0 0 126.855 126.854">
  <defs>
    <radialGradient id="radial-gradient" cx="0.893" cy="1" r="0.807" gradientTransform="translate(0 0.07) scale(1 0.93)" gradientUnits="objectBoundingBox">
      <stop offset="0" stop-color="#f0c"/>
      <stop offset="1" stop-opacity="0"/>
    </radialGradient>
    <linearGradient id="linear-gradient" x1="0.5" x2="0.5" y2="1" gradientUnits="objectBoundingBox">
      <stop offset="0" stop-color="#fd1c33"/>
      <stop offset="1" stop-color="#d50037"/>
    </linearGradient>
    <radialGradient id="radial-gradient-2" cx="0.268" cy="0.197" r="0.773" gradientTransform="matrix(0.716, 0.698, -0.889, 0.913, 0.252, -0.17)" gradientUnits="objectBoundingBox">
      <stop offset="0" stop-color="#fff"/>
      <stop offset="0.079" stop-color="#fff"/>
      <stop offset="0.084" stop-color="#65eaff"/>
      <stop offset="0.764" stop-color="#5ea0e3"/>
      <stop offset="0.767" stop-color="#0047ff"/>
      <stop offset="0.893" stop-color="#1b5aff"/>
      <stop offset="1" stop-color="#0080ff"/>
    </radialGradient>
  </defs>
  <g id="ERP_Icon" data-name="ERP Icon" transform="translate(-346.623 -1826.619)" style="isolation: isolate">
    <path id="bubble_base" data-name="bubble base" d="M63.427,0a63.427,63.427,0,1,1-44.85,18.577A63.427,63.427,0,0,1,63.427,0Z" transform="translate(346.623 1826.619)" fill="#8ccec3"/>
    <path id="reflect" d="M63.427,0a63.427,63.427,0,1,1-44.85,18.577A63.427,63.427,0,0,1,63.427,0Z" transform="translate(346.623 1826.619)" fill="url(#radial-gradient)" style="mix-blend-mode: color;isolation: isolate"/>
    <path id="ERP" d="M22.861-22.124a8.932,8.932,0,0,1-.057,1.106,2.849,2.849,0,0,1-.171.718.917.917,0,0,1-.285.4.622.622,0,0,1-.376.125H7.149a1.864,1.864,0,0,1-1.266-.445,1.823,1.823,0,0,1-.513-1.448V-47.39a1.823,1.823,0,0,1,.513-1.448,1.864,1.864,0,0,1,1.266-.445H21.88a.612.612,0,0,1,.365.114.876.876,0,0,1,.274.4,3.039,3.039,0,0,1,.171.73,9.163,9.163,0,0,1,.057,1.129,8.706,8.706,0,0,1-.057,1.083,2.849,2.849,0,0,1-.171.718.97.97,0,0,1-.274.4.574.574,0,0,1-.365.125H11.345v7.206h8.916a.622.622,0,0,1,.376.125.922.922,0,0,1,.285.388,2.669,2.669,0,0,1,.171.707,8.706,8.706,0,0,1,.057,1.083,8.649,8.649,0,0,1-.057,1.095,2.648,2.648,0,0,1-.171.7.836.836,0,0,1-.285.376.664.664,0,0,1-.376.114H11.345v8.323H21.971a.622.622,0,0,1,.376.125.917.917,0,0,1,.285.4,2.849,2.849,0,0,1,.171.718A8.933,8.933,0,0,1,22.861-22.124ZM57.655-20.55a.888.888,0,0,1-.091.422.728.728,0,0,1-.433.285,4.3,4.3,0,0,1-1,.16q-.661.046-1.8.046-.958,0-1.528-.046a3.381,3.381,0,0,1-.9-.171.976.976,0,0,1-.467-.319,1.785,1.785,0,0,1-.228-.467l-2.645-6.59q-.479-1.117-.935-1.984a6.329,6.329,0,0,0-1.015-1.448,3.7,3.7,0,0,0-1.288-.878,4.459,4.459,0,0,0-1.687-.3h-1.87V-20.6a.634.634,0,0,1-.148.41,1.04,1.04,0,0,1-.49.3,4.784,4.784,0,0,1-.912.182,12.677,12.677,0,0,1-1.459.068,12.737,12.737,0,0,1-1.448-.068,4.8,4.8,0,0,1-.924-.182.961.961,0,0,1-.479-.3.667.667,0,0,1-.137-.41V-47.39a1.823,1.823,0,0,1,.513-1.448,1.864,1.864,0,0,1,1.266-.445h7.639q1.163,0,1.916.046t1.368.114a12.431,12.431,0,0,1,3.2.867,7.681,7.681,0,0,1,2.417,1.608A6.69,6.69,0,0,1,55.6-44.3a8.591,8.591,0,0,1,.524,3.113,9.142,9.142,0,0,1-.376,2.7,6.927,6.927,0,0,1-1.106,2.178,7.275,7.275,0,0,1-1.8,1.665A9.752,9.752,0,0,1,50.4-33.5a6.8,6.8,0,0,1,1.243.775,6.563,6.563,0,0,1,1.095,1.106,10.634,10.634,0,0,1,.969,1.482,19.1,19.1,0,0,1,.889,1.881l2.486,5.815q.342.867.456,1.266A2.446,2.446,0,0,1,57.655-20.55Zm-7.73-20.022a4.379,4.379,0,0,0-.661-2.463A3.6,3.6,0,0,0,47.1-44.449a8.312,8.312,0,0,0-1.038-.182,14.57,14.57,0,0,0-1.608-.068H41.761v8.369h3.056a7.317,7.317,0,0,0,2.235-.308,4.463,4.463,0,0,0,1.6-.867,3.545,3.545,0,0,0,.958-1.334A4.513,4.513,0,0,0,49.925-40.572Zm39.948.251a11.66,11.66,0,0,1-.775,4.4,8.492,8.492,0,0,1-2.258,3.227,9.951,9.951,0,0,1-3.637,2,16.829,16.829,0,0,1-5.074.684H75.666V-20.6a.634.634,0,0,1-.148.41,1.04,1.04,0,0,1-.49.3,4.784,4.784,0,0,1-.912.182,12.677,12.677,0,0,1-1.459.068,12.737,12.737,0,0,1-1.448-.068,4.8,4.8,0,0,1-.924-.182.961.961,0,0,1-.479-.3.667.667,0,0,1-.137-.41V-47.14a2.129,2.129,0,0,1,.559-1.608,2.036,2.036,0,0,1,1.471-.536h6.955q1.049,0,2,.08a21.034,21.034,0,0,1,2.269.342,10.026,10.026,0,0,1,2.679.969,7.968,7.968,0,0,1,2.315,1.79,7.464,7.464,0,0,1,1.459,2.531A9.885,9.885,0,0,1,89.873-40.321Zm-6.271.433a5.3,5.3,0,0,0-.547-2.554,3.779,3.779,0,0,0-1.345-1.482,4.459,4.459,0,0,0-1.676-.6,12.809,12.809,0,0,0-1.813-.125H75.666v10.011h2.691a6.51,6.51,0,0,0,2.406-.388,4.115,4.115,0,0,0,1.585-1.083,4.69,4.69,0,0,0,.935-1.665A6.706,6.706,0,0,0,83.6-39.888Z" transform="translate(362.746 1925.505)" fill="url(#linear-gradient)"/>
    <path id="bubble_overlay" data-name="bubble overlay" d="M63.427,0a63.427,63.427,0,1,1-44.85,18.577A63.427,63.427,0,0,1,63.427,0Z" transform="translate(346.623 1826.619)" fill="url(#radial-gradient-2)" style="mix-blend-mode: overlay;isolation: isolate"/>
  </g>
</svg>
