<?xml version="1.0" encoding="UTF-8" standalone="no"?>
<!-- Created with Inkscape (http://www.inkscape.org/) -->

<svg
   xmlns:dc="http://purl.org/dc/elements/1.1/"
   xmlns:cc="http://creativecommons.org/ns#"
   xmlns:rdf="http://www.w3.org/1999/02/22-rdf-syntax-ns#"
   xmlns:svg="http://www.w3.org/2000/svg"
   xmlns="http://www.w3.org/2000/svg"
   xmlns:sodipodi="http://sodipodi.sourceforge.net/DTD/sodipodi-0.dtd"
   xmlns:inkscape="http://www.inkscape.org/namespaces/inkscape"
   width="210mm"
   height="297mm"
   viewBox="0 0 210 297"
   version="1.1"
   id="svg8"
   sodipodi:docname="erp morph.svg"
   inkscape:version="0.92.3 (2405546, 2018-03-11)">
  <defs
     id="defs2">
    <radialGradient
       id="radial-gradient"
       cx="0.893"
       cy="1"
       r="0.807"
       gradientTransform="translate(0 0.07) scale(1 0.93)"
       gradientUnits="objectBoundingBox">
      <stop
         offset="0"
         stop-color="#f0c"
         id="stop815" />
      <stop
         offset="1"
         stop-opacity="0"
         id="stop817" />
    </radialGradient>
    <linearGradient
       id="linear-gradient"
       x1="0.5"
       x2="0.5"
       y2="1"
       gradientUnits="objectBoundingBox">
      <stop
         offset="0"
         stop-color="#fd1c33"
         id="stop820" />
      <stop
         offset="1"
         stop-color="#d50037"
         id="stop822" />
    </linearGradient>
    <radialGradient
       id="radial-gradient-2"
       cx="0.268"
       cy="0.197"
       r="0.773"
       gradientTransform="matrix(0.716, 0.698, -0.889, 0.913, 0.252, -0.17)"
       gradientUnits="objectBoundingBox">
      <stop
         offset="0"
         stop-color="#fff"
         id="stop825" />
      <stop
         offset="0.079"
         stop-color="#fff"
         id="stop827" />
      <stop
         offset="0.084"
         stop-color="#65eaff"
         id="stop829" />
      <stop
         offset="0.764"
         stop-color="#5ea0e3"
         id="stop831" />
      <stop
         offset="0.767"
         stop-color="#0047ff"
         id="stop833" />
      <stop
         offset="0.893"
         stop-color="#1b5aff"
         id="stop835" />
      <stop
         offset="1"
         stop-color="#0080ff"
         id="stop837" />
    </radialGradient>
    <radialGradient
       id="radial-gradient-4"
       cx="0.893"
       cy="1"
       r="0.807"
       gradientTransform="translate(0 0.07) scale(1 0.93)"
       gradientUnits="objectBoundingBox">
      <stop
         offset="0"
         stop-color="#f0c"
         id="stop815-8" />
      <stop
         offset="1"
         stop-opacity="0"
         id="stop817-0" />
    </radialGradient>
    <linearGradient
       id="linear-gradient-4"
       x1="0.5"
       x2="0.5"
       y2="1"
       gradientUnits="objectBoundingBox">
      <stop
         offset="0"
         stop-color="#fd1c33"
         id="stop820-5" />
      <stop
         offset="1"
         stop-color="#d50037"
         id="stop822-8" />
    </linearGradient>
    <radialGradient
       id="radial-gradient-2-7"
       cx="0.268"
       cy="0.197"
       r="0.773"
       gradientTransform="matrix(0.716, 0.698, -0.889, 0.913, 0.252, -0.17)"
       gradientUnits="objectBoundingBox">
      <stop
         offset="0"
         stop-color="#fff"
         id="stop825-8" />
      <stop
         offset="0.079"
         stop-color="#fff"
         id="stop827-9" />
      <stop
         offset="0.084"
         stop-color="#65eaff"
         id="stop829-9" />
      <stop
         offset="0.764"
         stop-color="#5ea0e3"
         id="stop831-6" />
      <stop
         offset="0.767"
         stop-color="#0047ff"
         id="stop833-6" />
      <stop
         offset="0.893"
         stop-color="#1b5aff"
         id="stop835-3" />
      <stop
         offset="1"
         stop-color="#0080ff"
         id="stop837-1" />
    </radialGradient>
  </defs>
  <sodipodi:namedview
     id="base"
     pagecolor="#ffffff"
     bordercolor="#666666"
     borderopacity="1.0"
     inkscape:pageopacity="0.0"
     inkscape:pageshadow="2"
     inkscape:zoom="7.9195959"
     inkscape:cx="493.60235"
     inkscape:cy="543.47496"
     inkscape:document-units="mm"
     inkscape:current-layer="ERP_Icon"
     showgrid="false"
     inkscape:window-width="1366"
     inkscape:window-height="745"
     inkscape:window-x="-8"
     inkscape:window-y="-8"
     inkscape:window-maximized="1" />
  <metadata
     id="metadata5">
    <rdf:RDF>
      <cc:Work
         rdf:about="">
        <dc:format>image/svg+xml</dc:format>
        <dc:type
           rdf:resource="http://purl.org/dc/dcmitype/StillImage" />
      </cc:Work>
    </rdf:RDF>
  </metadata>
  <g
     inkscape:label="Layer 1"
     inkscape:groupmode="layer"
     id="layer1">
    <g
       id="layer1-0"
       inkscape:label="Layer 1"
       transform="translate(-12.461498,-27.767966)"
       style="fill:#d634e7;fill-opacity:1">
      <g
         id="ERP_Icon"
         data-name="ERP Icon"
         transform="matrix(0.26458333,0,0,0.26458333,36.650642,-320.24728)"
         style="isolation:isolate;fill:#d634e7;fill-opacity:1">
        <path
           style="fill:#d634e7;fill-opacity:1"
           d="M 21.972,-19.775 H 7.149 c -1.289449,0 -1.779,-0.864242 -1.779,-1.893 V -47.39 c 0,-1.2949 0.7053603,-1.893 1.779,-1.893 H 21.88 c 1.499593,0 1.213606,4.699 0,4.699 H 11.345 v 7.206 h 8.916 c 1.566371,0 1.242086,4.588 0,4.588 h -8.916 v 8.323 h 10.626 c 1.943783,0 1.557139,4.692 0.001,4.692 z"
           transform="translate(362.746,1925.505)"
           id="path946" />
        <path
           id="path942"
           transform="translate(362.746,1925.505)"
           style="fill:#d634e7;fill-opacity:1"
           d="m 47.1,-44.449 c -1.815036,-0.346445 -3.463383,-0.25 -5.339,-0.25 v 8.369 c 1.761133,0.05865 3.710987,0.039 5.291,-0.308 3.777215,-1.4558 2.854463,-6.71175 0.048,-7.811 z m 10.555,23.899 c 0.02587,1.820533 -5.647671,1.432752 -6.447,-0.09 -2.5879,-4.930053 -4.711487,-11.142546 -9.44,-11.2 v 11.24 c -0.88397,1.99098 -5.814143,1.598614 -5.997,0 v -26.79 c 0.05579,-1.293696 0.731769,-1.656336 1.779,-1.893 3.158644,0.03498 6.463147,-0.140233 9.555,0.046 2.621776,0.157918 5.20101,0.859476 6.985,2.589 2.620752,3.035383 2.547582,7.160188 0.552,10.339 -1.133892,1.389828 -2.663928,2.312712 -4.242,2.809 3.874465,3.687507 7.189964,8.373563 7.255,12.95 z" />
        <path
           id="ERP"
           transform="translate(362.746,1925.505)"
           style="fill:#d634e7;fill-opacity:1"
           d="m 81.71,-43.924 c -1.933426,-1.007128 -3.905862,-0.725 -6.044,-0.725 v 10.011 c 2.290768,0.03534 5.318367,0.09334 6.682,-1.471 2.003347,-2.40017 1.54592,-6.077639 -0.638,-7.815 z m 7.388,8.003 c -1.166172,2.629164 -3.365678,4.442629 -5.895,5.227 -2.703695,0.743797 -4.820201,0.684 -7.537,0.684 v 9.41 c -1.564232,2.190081 -4.749085,1.627759 -5.997,0 v -26.54 c 0.06644,-1.463972 0.854828,-1.874551 2.03,-2.144 2.940667,0.0305 6.146555,-0.188231 8.955,0.08 2.84103,0.271343 5.448624,1.093793 7.263,3.101 2.28917,2.943871 2.405011,6.927712 1.181,10.182 z" />
      </g>
    </g>
  </g>
</svg>
