<?xml version="1.0" encoding="UTF-8" standalone="no"?>
<!-- Created with Inkscape (http://www.inkscape.org/) -->

<svg
   xmlns:dc="http://purl.org/dc/elements/1.1/"
   xmlns:cc="http://creativecommons.org/ns#"
   xmlns:rdf="http://www.w3.org/1999/02/22-rdf-syntax-ns#"
   xmlns:svg="http://www.w3.org/2000/svg"
   xmlns="http://www.w3.org/2000/svg"
   xmlns:sodipodi="http://sodipodi.sourceforge.net/DTD/sodipodi-0.dtd"
   xmlns:inkscape="http://www.inkscape.org/namespaces/inkscape"
   width="210mm"
   height="297mm"
   viewBox="0 0 210 297"
   version="1.1"
   id="svg8"
   inkscape:version="0.92.3 (2405546, 2018-03-11)"
   sodipodi:docname="erp morph.svg">
  <defs
     id="defs2">
    <radialGradient
       gradientUnits="objectBoundingBox"
       gradientTransform="translate(0 0.07) scale(1 0.93)"
       r="0.807"
       cy="1"
       cx="0.893"
       id="radial-gradient">
      <stop
         id="stop815"
         stop-color="#f0c"
         offset="0" />
      <stop
         id="stop817"
         stop-opacity="0"
         offset="1" />
    </radialGradient>
    <linearGradient
       gradientUnits="objectBoundingBox"
       y2="1"
       x2="0.5"
       x1="0.5"
       id="linear-gradient">
      <stop
         id="stop820"
         stop-color="#fd1c33"
         offset="0" />
      <stop
         id="stop822"
         stop-color="#d50037"
         offset="1" />
    </linearGradient>
    <radialGradient
       gradientUnits="objectBoundingBox"
       gradientTransform="matrix(0.716, 0.698, -0.889, 0.913, 0.252, -0.17)"
       r="0.773"
       cy="0.197"
       cx="0.268"
       id="radial-gradient-2">
      <stop
         id="stop829"
         stop-color="#65eaff"
         offset="0" />
      <stop
         id="stop831"
         stop-color="#5ea0e3"
         offset="0.764" />
      <stop
         id="stop833"
         stop-color="#0047ff"
         offset="0.767" />
      <stop
         id="stop835"
         stop-color="#1b5aff"
         offset="0.893" />
      <stop
         id="stop837"
         stop-color="#0080ff"
         offset="1" />
    </radialGradient>
  </defs>
  <sodipodi:namedview
     id="base"
     pagecolor="#ffffff"
     bordercolor="#666666"
     borderopacity="1.0"
     inkscape:pageopacity="0.0"
     inkscape:pageshadow="2"
     inkscape:zoom="11.2"
     inkscape:cx="544.94536"
     inkscape:cy="655.86844"
     inkscape:document-units="mm"
     inkscape:current-layer="ERP_Icon"
     showgrid="false"
     inkscape:window-width="1366"
     inkscape:window-height="745"
     inkscape:window-x="-8"
     inkscape:window-y="-8"
     inkscape:window-maximized="1" />
  <metadata
     id="metadata5">
    <rdf:RDF>
      <cc:Work
         rdf:about="">
        <dc:format>image/svg+xml</dc:format>
        <dc:type
           rdf:resource="http://purl.org/dc/dcmitype/StillImage" />
        <dc:title></dc:title>
      </cc:Work>
    </rdf:RDF>
  </metadata>
  <g
     inkscape:label="Layer 1"
     inkscape:groupmode="layer"
     id="layer1">
    <g
       style="isolation:isolate"
       transform="matrix(0.26458333,0,0,0.26458333,35.138737,-374.67586)"
       data-name="ERP Icon"
       id="ERP_Icon">
      <path
         transform="translate(346.623,1826.619)"
         d="m 18.577,18.577 c -332.00522,462.28097 -166.00261,231.14049 0,0 z"
         data-name="bubble base"
         id="bubble_base"
         inkscape:connector-curvature="0"
         style="fill:#8ccec3"
         sodipodi:nodetypes="cc" />
      <path
         d="m 74.974609,-41.595703 c -0.683942,0.06571 -1.35695,0.182559 -2.021643,0.335506 -0.615987,0.14174 -1.224833,0.314478 -1.828621,0.506233 -1.255319,0.398673 -2.488779,0.879549 -3.719111,1.334963 -0.937361,0.361174 -1.871146,0.733782 -2.798165,1.122519 -0.696841,0.292215 -1.389859,0.593545 -2.077698,0.905985 -1.60288,0.728083 -3.177633,1.516499 -4.707105,2.390497 -0.494583,0.328162 -0.97269,0.679513 -1.450891,1.030716 -0.478202,0.351204 -0.956496,0.70226 -1.451453,1.029831 -0.04891,0.13306 -1.261334,0.241177 -1.12199,0.320645 0.139345,0.07947 0.480901,0.02984 0.571195,0.0037 0.04307,-0.07699 0.423843,-0.03319 0.321514,-0.07608 -0.102328,-0.04289 0.461797,-0.07201 0.67069,-0.09393 1.628849,0.09069 3.257353,0.199896 4.886636,0.289766 0.878219,0.04844 1.756663,0.09126 2.63551,0.12253 0.751603,0.02674 1.503499,0.04503 2.2558,0.05117 1.387875,0.0098 2.785376,-0.01957 4.171263,-0.147337 0.36309,-0.03348 0.725382,-0.07371 1.086495,-0.121764 1.017229,-0.135372 2.025101,-0.332833 3.015077,-0.616242 0.699219,-0.206464 1.393265,-0.456076 2.051329,-0.774788 0.658064,-0.318711 1.280146,-0.706522 1.835438,-1.189381 0.448907,-0.377862 0.859156,-0.809318 1.203719,-1.286501 0.344564,-0.477182 0.623442,-1.000091 0.809606,-1.560857 0.09943,-0.31355 0.189187,-0.649378 0.219989,-0.985365 0.0308,-0.335987 0.0026,-0.672131 -0.133752,-0.986311 -0.21736,-0.442656 -0.56811,-0.781093 -0.981149,-1.028883 -0.41304,-0.24779 -0.888369,-0.404935 -1.354888,-0.485009 -0.343697,-0.06239 -0.69184,-0.0853 -1.040961,-0.09261 -0.349121,-0.0073 -0.699221,9.93e-4 -1.046831,10e-4 z m -47.410156,5.191406 c 0.01211,-0.351155 -0.09267,0.591946 0.103941,0.8258 0.09173,0.109103 0.210153,0.199066 0.335929,0.275433 0.143817,0.08732 0.297243,0.156864 0.431349,0.216917 0.283934,0.127147 0.5678,0.254447 0.851605,0.381879 0.238756,0.107205 0.47747,0.214504 0.716146,0.321884 0.133587,0.0601 0.267163,0.120227 0.400728,0.180377 0.320969,0.144546 0.641876,0.289229 0.962736,0.434018 0.334783,0.151073 0.669514,0.302263 1.004207,0.453536 0.104471,0.04722 0.0713,0.189574 0.01709,0.345971 -0.04055,0.116971 -0.09286,0.241797 -0.108168,0.340549 -0.03576,0.230789 -0.01832,0.528829 0.286389,0.510745 0.283787,-0.01684 0.566305,-0.04391 0.847998,-0.07765 0.19902,-0.02384 0.397629,-0.051 0.595983,-0.08025 0.282518,-0.04165 0.56452,-0.08752 0.846459,-0.13397 0.221741,-0.03654 0.443442,-0.07343 0.665325,-0.108936 0.236758,-0.03788 0.473722,-0.07417 0.711161,-0.10673 0.302779,-0.04152 0.60633,-0.07697 0.91121,-0.101904 0.282067,-0.02307 0.572483,-0.07945 0.863875,-0.09622 0.291392,-0.01678 0.576725,-0.0376 0.827521,-0.120508 0.0086,-0.160619 -0.108836,-0.18251 -0.252661,-0.179424 -0.143824,0.0031 -0.314076,0.03115 -0.411223,-0.02956 -0.376322,-0.04761 -0.751898,-0.100431 -1.127122,-0.155709 -0.170075,-0.02506 -0.340078,-0.05062 -0.510044,-0.07643 -0.205019,-0.03113 -0.409987,-0.06263 -0.614966,-0.09404 l 1.120117,0.109375 0.517474,0.05053 0.602643,0.05885 c 0.377754,0.03689 -0.629548,-0.376719 -0.986082,-0.47349 -0.356534,-0.09677 -0.727247,-0.161745 -1.071154,-0.282709 l -0.411222,-0.1193 -0.299614,-0.08692 -0.312284,-0.0906 -0.362519,-0.105171 -0.524549,-0.152177 -0.662132,-0.192092 -0.383189,-0.111167 -0.699696,-0.202989 -0.450942,-0.130823 -0.896329,-0.260034 -0.730701,-0.211984 -0.785159,-0.227783 -0.587005,-0.170296 -0.264386,-0.0767 -0.541443,-0.157079 -0.301125,-0.08736 c -0.05341,-0.0155 -0.108952,0.0019 -0.1632,-0.0056 -0.05425,-0.0075 -0.10846,-0.0141 -0.162972,-2.3e-4 z m 39.300781,0.158203 c 0.251093,0.141399 0.344592,0.408721 0.313134,0.66825 -0.03146,0.259528 -0.187876,0.511264 -0.436616,0.621491 -0.25692,0.13677 -0.508516,0.284487 -0.763312,0.425993 -0.254795,0.141507 -0.512792,0.276804 -0.782515,0.388735 -0.752025,0.323843 -1.541824,0.513035 -2.344683,0.642573 -0.802859,0.129538 -1.61878,0.199422 -2.423048,0.284646 -0.883843,0.08181 -1.768978,0.149885 -2.654461,0.212733 -0.885482,0.06285 -1.771312,0.120467 -2.656545,0.181361 0.817347,-0.175038 1.614943,-0.424101 2.40291,-0.704336 0.787968,-0.280235 1.566306,-0.591642 2.345136,-0.891368 0.854908,-0.311322 1.714859,-0.61153 2.582009,-0.888558 0.86715,-0.277027 1.741499,-0.530874 2.625203,-0.749474 0.283532,-0.0535 0.572444,-0.135994 0.862679,-0.190408 0.290234,-0.05441 0.581793,-0.08075 0.870617,-0.02195 l 0.02975,0.01016 z m -21.691406,2.541016 c -0.464026,0.0048 -0.927813,0.06918 -1.391832,0.104177 -0.343964,0.02594 -0.687882,0.05269 -1.031559,0.08171 -0.807308,0.06819 -1.613285,0.148953 -2.415405,0.261369 -0.175383,0.01801 -0.352354,0.02595 -0.528961,0.02176 -0.176607,-0.0042 -0.352848,-0.02052 -0.526774,-0.05105 0.664145,0.132019 1.330841,0.251262 1.999198,0.360842 0.154958,0.02541 0.310005,0.05029 0.465131,0.0747 0.521498,0.08205 1.043879,0.158661 1.566722,0.231315 0.303488,0.04217 0.607132,0.08301 0.910849,0.122803 1.277336,0.157993 2.566815,0.271846 3.85637,0.298204 1.289554,0.02636 2.579184,-0.03478 3.856819,-0.226773 0.202246,-0.03077 0.402659,-0.07146 0.601131,-0.120216 0.198472,-0.04876 0.395003,-0.105578 0.589483,-0.168609 -0.872586,0.122683 -1.750255,0.149859 -2.629,0.141662 -0.878745,-0.0082 -1.758565,-0.05177 -2.635452,-0.07057 -0.376628,-0.01729 -0.753427,-0.03376 -1.129798,-0.05632 -0.376372,-0.02256 -0.752315,-0.05122 -1.127234,-0.09289 l 3.745117,0.03516 3.745117,0.03516 c -1.034057,-0.216067 -2.073358,-0.427866 -3.11819,-0.599569 -0.226625,-0.03724 -0.453509,-0.0726 -0.680657,-0.105702 -0.689464,-0.100481 -1.381352,-0.180214 -2.075744,-0.228975 -0.589111,-0.04137 -1.180024,-0.06045 -1.77279,-0.05099 l -0.13627,0.0014 z m -0.783203,0.603516 c 0.03194,0.04516 -0.06742,0.07573 -0.190807,0.09766 -0.123391,0.02193 -0.270812,0.03522 -0.334992,0.04581 -0.41911,0.02635 -0.83795,0.0093 -1.256689,-0.01823 -0.418738,-0.02755 -0.837375,-0.06561 -1.256075,-0.08134 l -0.537359,-0.03465 -0.537359,-0.03465 2.056641,0.0127 z m 10.685547,0.287109 c -0.05207,0.04078 -0.05239,-0.0035 -0.03954,-0.0359 0.01286,-0.03235 0.03889,-0.05274 0.03954,0.0359 z"
         id="ERP"
         inkscape:connector-curvature="0"
         style="fill:url(#linear-gradient)"
         transform="translate(362.746,1925.505)"
         sodipodi:nodetypes="csscsscscscscsscsscscscscscsccscsssscssscssscssscscscscccscccccccccccccccccsccssscscscscscsccccsssscscssscscscscccscscsccsssccccccsccc" />
      <path
         style="isolation:isolate;mix-blend-mode:overlay;fill:url(#radial-gradient-2)"
         transform="translate(346.623,1826.619)"
         d="m 87.690926,122.00844 c -378.081166,393.32668 -189.040586,196.66334 0,0 z"
         data-name="bubble overlay"
         id="bubble_overlay"
         inkscape:connector-curvature="0"
         sodipodi:nodetypes="cc" />
    </g>
  </g>
</svg>
