<svg xmlns="http://www.w3.org/2000/svg" xmlns:xlink="http://www.w3.org/1999/xlink" width="547.919" height="470.599" viewBox="0 0 547.919 470.599">
  <defs>
    <linearGradient id="linear-gradient" x1="0.5" x2="0.5" y2="1" gradientUnits="objectBoundingBox">
      <stop offset="0" stop-color="#0071ff"/>
      <stop offset="0.53" stop-color="#f1ea0e"/>
      <stop offset="1" stop-color="#ff3cb1"/>
    </linearGradient>
  </defs>
  <g id="fish" transform="translate(-245.429 -1735.356)">
    <path id="Union_16" data-name="Union 16" d="M139.017,466.5a51.666,51.666,0,0,0-9.1-3.495c-3.182-.857-5.656-.526-8.519-.143a39.049,39.049,0,0,1-11.542.165c-2.023-4.634-3.923-9.148-5.809-13.8a30.608,30.608,0,0,0,7.483,5.39,19.579,19.579,0,0,0,2.668,1.074c3.042.962,5.242.759,6.924-.64,1.535-1.275,2.507-3.391,3.635-5.84v0l0,0a30.533,30.533,0,0,1,4.539-7.666,60.652,60.652,0,0,1,7.961-7.665A28.7,28.7,0,0,1,140.5,431.6a33.146,33.146,0,0,0-3.058,5.41,29.646,29.646,0,0,0-2.825,12.846c.011.363-.964,1.467-2,2.636-1.194,1.353-2.429,2.751-2.354,3.229a.21.21,0,0,0,.125.163,5.332,5.332,0,0,0,2.367-.429l.073-.021a5.442,5.442,0,0,1,2.5-.423.259.259,0,0,1,.147.167,30.1,30.1,0,0,0,6.367,11.209,32.978,32.978,0,0,0,4.379,4.215A61.922,61.922,0,0,0,139.017,466.5ZM77.025,451.283c-6.323-3.084-13.219-6.719-20.5-10.805-5.809-3.262-10.176-5.869-11.785-6.838.318-2.006.819-3.234,1.532-3.753a2.682,2.682,0,0,1,2.142-.067,19.444,19.444,0,0,1,3.542,1.4,142.2,142.2,0,0,1,14.931,9.185c1.606,1.092,3.134,2.146,4.482,3.075l0,0c2.8,1.933,5.017,3.46,5.77,3.827.168.082.261.106.284.073.055-.079-.319-.5-1.143-1.3-1.95-1.876-5.926-6.155-10.959-11.575l-.012-.013c-7.433-8-16.683-17.963-25.4-26.68a40.651,40.651,0,0,0,13.076,3.352A124.679,124.679,0,0,0,67.237,411a158.486,158.486,0,0,1,17.255-.2c6.162.387,9.229,1.334,10.718,2.059,1.191.581,1.44,1.053,1.442,1.057a17.276,17.276,0,0,0-5.614,3.03,8.608,8.608,0,0,0-3.379-3.622,4.64,4.64,0,0,0-.984-.349c-3.8-.881-11.408-.68-17.257-.2-7.287.6-12.861,1.66-14.2,2.7a.47.47,0,0,0-.129.433,11.342,11.342,0,0,0,2.114,3.954,67.751,67.751,0,0,0,5.041,6.2C67,431.3,71.813,435.32,75.451,437.094a9.448,9.448,0,0,0,3.616,1.072,1.074,1.074,0,0,0,.952-.42c.606-.789.588-2.672-.053-5.757-.554-2.661-1.472-5.762-2.283-8.5l0-.007c-1.048-3.532-1.876-6.322-1.478-6.671.055-.049.134-.048.238,0a1.432,1.432,0,0,1,.323.244c.978.922,6.248,8.305,11.575,16.439,2.848,4.349,5.26,8.226,6.974,11.213,2.064,3.6,3.121,5.9,3.146,6.838a.381.381,0,0,1-.153.353c-.314.211-1.1,0-2.407-.634a91.165,91.165,0,0,1-7.908-4.752l-.782-.506-.039-.024c-2.485-1.607-4.831-3.122-6.09-3.737-.571-.278-.889-.36-.977-.251s.027.346.327.757A133.527,133.527,0,0,0,95.306,459.21,190.962,190.962,0,0,1,77.025,451.283Zm-39.161.784a36.569,36.569,0,0,0-2.006-6.7c-2.042-5.1-6.337-12.9-15.192-21.052a98.078,98.078,0,0,1-9.165-9.641,75.385,75.385,0,0,1-6.728-9.458A40.742,40.742,0,0,1,.862,396.8a13.7,13.7,0,0,1-.717-6.491,4.718,4.718,0,0,1,2.933-3.734,4.445,4.445,0,0,1,2.456-.207,10.808,10.808,0,0,1,2.933,1.015,41.04,41.04,0,0,1,5.9,3.742c.278,1.533,1.4,3.947,3.442,7.384,1.818,3.065,4.19,6.665,6.485,10.146l.007.012c2.06,3.123,4.19,6.353,5.961,9.259,4.327,7.1,6.02,17.335,7.38,25.562.477,2.89.928,5.619,1.437,7.846l-.886,3.236h0A18.115,18.115,0,0,0,37.864,452.067Zm206.9-51.226c-.492-.063-.71-.132-.731-.23-.026-.127.282-.309.747-.584a8.836,8.836,0,0,0,4.929-6.887c.365-3.478-1.112-7.873-4.393-13.063-4.132-6.536-11.172-14.4-20.925-23.377-19.809-18.23-50.809-37.247-80.788-55.637-19.177-11.764-37.29-22.874-50.691-32.767-7.172-5.294-12.418-9.811-16.038-13.808a31.25,31.25,0,0,1-4.431-6.035,11.579,11.579,0,0,1-1.557-5.369c0-1.872.875-4.093,2.6-6.6a51.321,51.321,0,0,1,7.32-8.095c5.917-5.491,14.388-11.933,25.9-19.695,21.306-14.363,49.4-30.763,76.565-46.624l.005,0c29.386-17.155,57.141-33.358,74.6-45.919,11.128-8.006,19.15-15.468,23.846-22.18,3.787-5.414,5.436-10.364,4.9-14.711a13.417,13.417,0,0,0-4.858-8.569,16.905,16.905,0,0,0-4.121-2.586h0l.013,0a26.772,26.772,0,0,1,5.081,1.588,20.092,20.092,0,0,1,4.2,2.378,11.911,11.911,0,0,1,3.376,3.778c1.546,2.848,1.516,6.215-.091,10.007-3.28,7.746-7.159,11.089-13.587,16.628a199.023,199.023,0,0,0-23.465,23.4c-10.3,11.991-20.516,32.454-27.335,54.742a153.211,153.211,0,0,0-6,27.386c-.887,8.21-.372,14.194,1.49,17.306a4.787,4.787,0,0,0,4.317,2.626c2.462,0,5.68-1.528,10.123-4.809,4.017-2.965,8.716-7.13,13.691-11.54,2.83-2.507,5.755-5.1,8.823-7.718,8.923-7.613,15.919-12.716,22.683-16.546a65.663,65.663,0,0,1,12.151-5.452,40.714,40.714,0,0,1,12.393-2.068c.772,0,1.548.026,2.308.078a47.532,47.532,0,0,1,13.833,3.161,65.136,65.136,0,0,1,12.679,6.693,107.643,107.643,0,0,1,21.048,19.111,167.268,167.268,0,0,1,13.88,18.619c3.227,5.015,4.988,8.339,5.006,8.373a64.424,64.424,0,0,0-6.758-2.643,47.633,47.633,0,0,0-14.132-2.643,20.038,20.038,0,0,0-6.141.868c-5.482,1.771-9.382,6.61-11.687,10.356a41.1,41.1,0,0,0-3.729,7.784,23.124,23.124,0,0,0-24,9.918c-4.537,7.081-7.322,18.916-8.86,27.6-1.666,9.4-2.267,17.24-2.272,17.317a.089.089,0,0,1-.017-.022c-.665-1.021-4.19-6.5-8.239-14.244-2.581-4.934-4.851-9.784-6.747-14.416a107.919,107.919,0,0,1-5.319-16.232c-2.588-11.128.031-22.566,1.944-30.917,1.278-5.581,2.2-9.613,1-11.12a1.825,1.825,0,0,0-1.529-.639,5.419,5.419,0,0,0-1.416.224c-4.354,1.206-6.377,8.439-8.939,17.6a133.544,133.544,0,0,1-6.4,19c-3.316,7.374-7.361,12.949-12.367,17.046a20.126,20.126,0,0,0-4.184,7.07c-1.152,3.165-2.039,7.836.285,12.108,4.406,8.1,13.9,17.536,14,17.63h-.02a75.931,75.931,0,0,1-10.635-2.057,52.722,52.722,0,0,1-8.97-3.226,24.179,24.179,0,0,1-7.532-5.271,15.316,15.316,0,0,1-4.085-9.543,22.313,22.313,0,0,1,.816-6.977c.186-.749.31-1.244.215-1.365a.078.078,0,0,0-.065-.03.174.174,0,0,0-.045.006c-2.526.727-4.749,1.212-6.71,1.641-3.852.841-6.635,1.447-8.554,3.2-1.983,1.811-2.979,4.819-3.331,10.06-1.229,18.311,7.375,34.725,15.693,50.6l.1.188q.387.738.774,1.477c3.494,6.678,5.605,7.6,7.366,7.6a8.9,8.9,0,0,0,2.019-.313l.087-.02a10.008,10.008,0,0,1,2.291-.334,6.742,6.742,0,0,1,3.779,1.246,22.956,22.956,0,0,1,5.251,5.259c4.834,6.253,5.859,13.982,5.868,19.365a45.619,45.619,0,0,1-1.022,9.607,34.058,34.058,0,0,1-2.544,7.634,13.5,13.5,0,0,1-2.229,3.388,3.325,3.325,0,0,1-2.278,1.238A1.786,1.786,0,0,1,244.761,400.841ZM80.688,250.932c-.75,2.1,2.574,6.192,9.878,12.154,15.663,12.782,49.052,34.058,74.3,49.655,27.324,16.877,51.324,30.956,51.564,31.1l-.016-.014a133.9,133.9,0,0,1-11.536-14.512,82.033,82.033,0,0,1-7.725-13.673c-2.263-5.278-3.29-9.974-3.056-13.959a19.3,19.3,0,0,1,4.531-11.153,34,34,0,0,1,8.967-7.5,55.832,55.832,0,0,1,12.727-5.549c-.209-.034-21.829-3.553-36.57-3.553a38.252,38.252,0,0,0-10.3,1.028c-1.287.392-1.98.941-2.061,1.63-.246,2.1,5.055,5.2,9.732,7.934,3.711,2.169,6.914,4.042,6.656,4.994-.118.437-.96.65-2.575.65-.366,0-.78-.012-1.23-.033-10.979-.549-24.709-8.6-39.244-17.12-5.762-3.378-11.719-6.87-17.574-9.918a165.128,165.128,0,0,0-22.229-9.224c-8.71-2.92-15.816-4.528-20.008-4.528C82.49,249.333,81.066,249.872,80.688,250.932Zm150.12,29.277a33.918,33.918,0,0,0,.125,5.391c.278,2.763,1.031,6.637,3.037,9.393s6.489,4.748,9.9,5.934a57.521,57.521,0,0,0,6.981,1.931l-.014-.01a36.264,36.264,0,0,1-3.568-3.178,28.085,28.085,0,0,1-5.666-7.88,14.865,14.865,0,0,1-.941-8.2c.212-2.177.4-4.058-.916-5.755a2.767,2.767,0,0,0-2.3-1.108C234.542,276.728,230.845,280.174,230.808,280.209Zm58.278-65.592c-5.955,2.65-6.875,11.367-8.149,23.433v.008c-.29,2.749-.59,5.593-.973,8.609-1.076,8.474-.763,15.4.955,21.165a25.02,25.02,0,0,0,6.8,11.247,1.236,1.236,0,0,0,.871.27,6.914,6.914,0,0,0,2.983-.98,17.473,17.473,0,0,0,3.729-2.779,16.743,16.743,0,0,0,5.191-9.979c.554-4.829-2.1-15.544-4.432-23.682-2.52-8.811-5.209-16.591-5.236-16.669.023.032,3.12,4.439,6.738,8.8a63.84,63.84,0,0,0,5.583,6.048c1.981,1.824,3.506,2.749,4.533,2.749a1.432,1.432,0,0,0,1.39-1.175,16.323,16.323,0,0,0,.319-6.469,41.843,41.843,0,0,0-1.774-8.052c-1.909-5.943-4.638-10.418-7.121-11.682a15.733,15.733,0,0,0-6.986-1.719A10.959,10.959,0,0,0,289.085,214.617Zm-5.21-24.49a49.383,49.383,0,0,0-8.7,7.179,49.057,49.057,0,0,1,13.882,1.8,34.557,34.557,0,0,1,10.574,5.092c5.5,3.929,10.067,9.532,14.8,18.168a21.873,21.873,0,0,1,2.485,11.82,37.81,37.81,0,0,1-2.56,11.348,57.144,57.144,0,0,1-6.216,11.849,54.852,54.852,0,0,1,8.822-9.109l.328-.254.031-.024a64.777,64.777,0,0,0,12.046-11.477c4.942-6.473,6.5-12.763,4.634-18.7-1.02-3.239-3.49-6.641-7.343-10.111a73.531,73.531,0,0,0-11.8-8.4,131.053,131.053,0,0,0-15.785-7.854h.023a121.8,121.8,0,0,1,16.714,2.737,68.228,68.228,0,0,1,13.23,4.468c4.53,2.156,7.772,4.666,9.635,7.461a16.508,16.508,0,0,1,2.366,10.536,38.947,38.947,0,0,1-2.759,11.232,71,71,0,0,1-6.509,12.56h0a68.605,68.605,0,0,1,5.8-6.439,49.38,49.38,0,0,1,5.909-5,23.254,23.254,0,0,1,6.705-3.449,15.317,15.317,0,0,1,4.307-.6,22.081,22.081,0,0,1,9.528,2.447,25.005,25.005,0,0,1,4.014,2.447c-17.854-23.737-27.689-36.813-51.078-45.012a33.3,33.3,0,0,0-11.048-1.9C296.725,182.948,288.858,186.852,283.875,190.127ZM219.005,149.5a241.444,241.444,0,0,0-20.885,18.256A129.351,129.351,0,0,0,183.4,184.636c-4.553,6.443-7.06,12.082-7.449,16.758a15.15,15.15,0,0,0,5.777,13.563c3.844,3.259,9.109,5.564,14.2,7.793,7.068,3.094,13.744,6.017,16.251,11.174a82.27,82.27,0,0,1,5.729,15.187,37.888,37.888,0,0,1,1.1,5.677,14.253,14.253,0,0,0,.708-4.169,91.986,91.986,0,0,0-.708-16.695c-.8-7.122-6.4-10.648-12.326-14.382-7.887-4.971-16.042-10.11-13.1-24.355a47.728,47.728,0,0,1,5.159-13.032A130.679,130.679,0,0,1,210.068,165.4c3.792-4.867,8.183-10.03,13.052-15.344,8.279-9.036,15.182-15.482,15.251-15.546-.071.035-10.483,5.191-25.25,13.015-13.6,7.208-33.785,18.216-52.672,29.723q-5.6,3.413-10.835,6.581l-.006,0,0,0c-15.111,9.164-28.161,17.077-37.916,23.909-10.627,7.444-16.6,13.047-19.38,18.169-1.016,1.875-1.279,3.174-.8,3.972.408.685,1.374,1.017,2.957,1.017,2.533,0,6.488-.85,11.068-1.835,1.143-.246,2.325-.5,3.564-.758a102.383,102.383,0,0,1,20.44-2.593c1.575,0,3.108.066,4.554.2,12.028,1.09,24.326,3.9,33.306,5.945,5.713,1.3,10.225,2.334,12.212,2.334.592,0,.949-.088,1.093-.268a3.045,3.045,0,0,0,.667-2.329c-.2-1.651-1.547-3.613-4.247-6.174-2.409-2.284-5.592-4.762-8.961-7.384-8.633-6.719-18.417-14.333-18.616-21.516a7.83,7.83,0,0,1,.82-3.707,11.772,11.772,0,0,1,2.893-3.592,167.473,167.473,0,0,1,19.232-14.011c6.335-4.063,13.605-8.365,21.609-12.788,13.482-7.451,24.449-12.7,24.909-12.921Zm328.886-12.667c-1.408-.739-6.707-3.5-15.773-8.054a11.346,11.346,0,0,0-1.838-2.065c-6.067-5.513-19.039-15.057-32.282-23.748-6.7-4.4-12.781-8.118-17.582-10.753-5.441-2.986-9.066-4.5-10.77-4.5a1.711,1.711,0,0,0-.611.1,1.407,1.407,0,0,0-.807.831c-.552,1.377.138,4.22,1.992,8.223-14.1-7.6-25.008-12.806-32.394-13.515-1.875-.18-4.076-.548-6.2-.905a68.811,68.811,0,0,0-10.707-1.236c-4.178,0-6.745,1.063-7.85,3.25-1.749,3.453,3.7,10.121,8.074,15.48l.013.018,0,0,.007.005,0,.005c2.761,3.381,5.145,6.3,4.793,7.367a.618.618,0,0,1-.482.4.7.7,0,0,1-.182.021c-.824,0-2.406-1.073-4.8-2.7l-.006,0c-6.288-4.264-17.994-12.2-33.957-12.2-11.272,0-26.488,7.943-37.6,13.744l-.006,0-.009,0c-6.334,3.307-11.336,5.918-13.451,5.918a1.019,1.019,0,0,1-.979-.427c-.371-.652.11-2.078,1.471-4.36a148.484,148.484,0,0,1,11.408-16A224.474,224.474,0,0,1,364.269,73a154.486,154.486,0,0,1,19.725-16.731c7.229-5.047,13.916-8.4,19.876-9.968,1.912-.5,8.251-8.906,15.592-18.639l.013-.018.025-.032.007-.009,0-.005C429.244,14.694,440.275.067,443.955,0h.026c.221,0,.359.056.42.169.2.365-.4,1.338-1.324,2.812l0,.006-.01.013c-3.632,5.805-12.139,19.4.891,37.592.749,1.044,1.509,2.1,2.263,3.147-.294-.119-.594-.232-.892-.336a25.354,25.354,0,0,0-8.285-1.238c-18.142,0-43.412,13.366-56.859,21.334-18.411,10.905-25.5,26.467-28.532,33.112l-.005.011a26.186,26.186,0,0,1-1.463,2.957c-.279.281-.432.437-.443.449a1.058,1.058,0,0,0,.443-.449,199.55,199.55,0,0,1,22.984-19.364,150.161,150.161,0,0,1,20.272-12.456A83.608,83.608,0,0,1,416.1,59.844a63.81,63.81,0,0,1,11.019-.939,81.2,81.2,0,0,1,20.452,2.78,109.671,109.671,0,0,1,17.2,6.133c15.244,18.041,28.98,28.841,41.992,33.019a20.33,20.33,0,0,0,6.145,1.076,10.629,10.629,0,0,0,8.366-3.658c3.494-3.994,4.509-10.583,4.745-15.407a58.956,58.956,0,0,0-.319-9.593l0-.017s0,0,0,.01.012.037.023.075c.35,1.148,1.607,5.332,3.063,10.989a225.3,225.3,0,0,1,4.826,23.423c1.194,8.5,5.021,15.969,8.021,20.732a58.819,58.819,0,0,0,6.282,8.378l0,.005Z" transform="translate(245.429 1735.356)" fill="url(#linear-gradient)"/>
  </g>
</svg>
