<svg xmlns="http://www.w3.org/2000/svg" xmlns:xlink="http://www.w3.org/1999/xlink" width="126.855" height="126.854" viewBox="0 0 126.855 126.854">
  <defs>
    <radialGradient id="radial-gradient" cx="0.893" cy="1" r="0.807" gradientTransform="translate(0 0.07) scale(1 0.93)" gradientUnits="objectBoundingBox">
      <stop offset="0" stop-color="#f0c"/>
      <stop offset="1" stop-opacity="0"/>
    </radialGradient>
    <linearGradient id="linear-gradient" x1="0.5" y1="-0.601" x2="0.5" y2="1" gradientUnits="objectBoundingBox">
      <stop offset="0" stop-color="#ff5656"/>
      <stop offset="1" stop-color="#ffcb00"/>
    </linearGradient>
  </defs>
  <g id="Food_morph" data-name="Food morph" transform="translate(0 0)">
    <path id="Path_29" data-name="Path 29" d="M63.427,0a63.427,63.427,0,1,1-44.85,18.577A63.427,63.427,0,0,1,63.427,0Z" transform="translate(0 0)" fill="#8ccec3"/>
    <path id="Path_38" data-name="Path 38" d="M63.427,0a63.427,63.427,0,1,1-44.85,18.577A63.427,63.427,0,0,1,63.427,0Z" transform="translate(0 0)" fill="url(#radial-gradient)" style="mix-blend-mode: color;isolation: isolate"/>
    <g id="bowl" transform="translate(34.7 17.758)">
      <g id="bowl-2" data-name="bowl">
        <path id="Path_299" data-name="Path 299" d="M641.519,1249.08c12.546,0,25.093-4.739,25.093-7.208s-12.546-2.669-25.093-2.669-25.093.2-25.093,2.669S628.972,1249.08,641.519,1249.08Z" transform="translate(-612.688 -1165.918)" fill="#b3ceff"/>
        <path id="Path_298" data-name="Path 298" d="M626.922,1268.533c7.208,7.374,18.335,7.238,18.335,7.238s10.647.136,17.855-7.238,10.976-26.367,10.976-26.367H616.426S619.714,1261.159,626.922,1268.533Z" transform="translate(-616.426 -1196.153)" fill="#3135f2"/>
        <path id="Path_303" data-name="Path 303" d="M616.426,1241.843c0-2.2,14.415-2.938,28.831-2.938s28.831.734,28.831,2.938-14.415,5.877-28.831,5.877S616.426,1244.047,616.426,1241.843Z" transform="translate(-616.426 -1195.629)" fill="#3135f2"/>
      </g>
      <g id="bowl_overlay" data-name="bowl overlay" style="mix-blend-mode: overlay;isolation: isolate">
        <path id="Path_299-2" data-name="Path 299" d="M641.519,1249.08c12.546,0,25.093-4.739,25.093-7.208s-12.546-2.669-25.093-2.669-25.093.2-25.093,2.669S628.972,1249.08,641.519,1249.08Z" transform="translate(-612.688 -1165.918)" fill="url(#linear-gradient)" style="mix-blend-mode: overlay;isolation: isolate"/>
        <path id="Path_298-2" data-name="Path 298" d="M626.922,1268.533c7.208,7.374,18.335,7.238,18.335,7.238s10.647.136,17.855-7.238,10.976-26.367,10.976-26.367H616.426S619.714,1261.159,626.922,1268.533Z" transform="translate(-616.426 -1196.153)" fill="url(#linear-gradient)" style="mix-blend-mode: overlay;isolation: isolate"/>
        <path id="Path_303-2" data-name="Path 303" d="M616.426,1241.843c0-2.2,14.415-2.938,28.831-2.938s28.831.734,28.831,2.938-14.415,5.877-28.831,5.877S616.426,1244.047,616.426,1241.843Z" transform="translate(-616.426 -1195.629)" fill="url(#linear-gradient)" style="mix-blend-mode: overlay;isolation: isolate"/>
      </g>
    </g>
    <path id="noodles" d="M-17.282,29.542C-20.707,32.516-39,43.25-50.4,47.723c-7.256,2.847-13.784,2.1-13.081.993,1.748-2.764,12.04-8.151,24.391-13.435S-18.539,26-14.447,26.027s-.774,4.771-8.276,9.373S-43.432,46.159-44.09,45.986c-.728-.191,27.687-14.77,27.345-16.684S-28.319,31.692-39.219,36.2s-18.516,8.19-20.232,10.724c-.57.841,4.64-3.16,11.326-5.9,5.608-2.3,21.484-5.789,23.319-8.13.577-.737-20.9,9.07-27.17,9.845-3.05.377-.795-5.039,7.879-8.338S-13.857,26.568-17.282,29.542Z" transform="matrix(0.914, 0.407, -0.407, 0.914, 114.146, 45.283)" fill="#fff"/>
    <g id="behind_chop" data-name="behind chop" transform="matrix(0.809, -0.588, 0.588, 0.809, 33.431, 40.762)">
      <path id="Path_304" data-name="Path 304" d="M0,1.928c-.1-2.726,1.644-2.5,2.326.3S9.258,55.212,8.676,55.137.1,4.654,0,1.928Z" transform="matrix(0.358, 0.934, -0.934, 0.358, 58.683, 0)" fill="#3135f2"/>
      <path id="Path_304-2" data-name="Path 304" d="M0,1.928c-.1-2.726,1.644-2.5,2.326.3S9.258,55.212,8.676,55.137.1,4.654,0,1.928Z" transform="matrix(0.358, 0.934, -0.934, 0.358, 58.683, 0)" fill="url(#linear-gradient)" style="mix-blend-mode: overlay;isolation: isolate"/>
    </g>
    <path id="soba" d="M39.925-4977.46c-1.086-.021,8.128-1.988,5.532-2.756-2.418-.716-13.413-.629-16.765-1.636a3.845,3.845,0,0,0,.462.4c2.459.458,5.672.867,7.859,1.295.728-.022,1.45-.056,2.142-.089,2.472-.12,4.545-.24,5.031.156,1.069.873-8.433,2.234-9.268,2.1s8.715-1.065,7.475-1.853c-.531-.335-2.3-.23-4.434-.11a4.8,4.8,0,0,1,1.354.47c1.4.933-6.019,1.326-7.46,1.034s7.85-.167,6.255-1.034a5.559,5.559,0,0,0-1.343-.405c-2.583.128-5.423.171-7.134-.537a6.358,6.358,0,0,1-1.344-.742,12.07,12.07,0,0,1-2.814-.744c-2.227-1.1.358-5.189,1.964-2.912l.023.033c.114.019.162.148.2.353a.889.889,0,0,1,.074.524,4.189,4.189,0,0,0,.288,1.062,4.935,4.935,0,0,0,.86.5c2.6,1.229,15.159.622,17.922,1.846,2.744,1.215-5.686,3.044-6.857,3.044Zm-9.339-3.244a15.316,15.316,0,0,0,4.842.576c-1.535-.245-3.462-.477-5.243-.736Q30.375-4980.781,30.585-4980.7Zm-4.327-1.476a9.515,9.515,0,0,0,1.357.41,3.189,3.189,0,0,1-.7-1.218c-.045-.049-.086-.1-.125-.147C25.877-4982.813,24.841-4982.768,26.259-4982.18Z" transform="translate(32.181 5041.824)" fill="#fff"/>
    <g id="front_chop" data-name="front chop" transform="matrix(0.809, -0.588, 0.588, 0.809, 31.592, 43.335)">
      <path id="Path_305" data-name="Path 305" d="M0,1.927C-.036-.784,1.876-.581,2.551,2.2S8.745,54.836,8.107,54.768.038,4.638,0,1.927Z" transform="translate(66.843 8.451) rotate(79)" fill="#3135f2"/>
      <path id="Path_305-2" data-name="Path 305" d="M0,1.927C-.036-.784,1.876-.581,2.551,2.2S8.745,54.836,8.107,54.768.038,4.638,0,1.927Z" transform="translate(66.843 8.451) rotate(79)" fill="url(#linear-gradient)" style="mix-blend-mode: overlay;isolation: isolate"/>
    </g>
  </g>
</svg>
