<svg xmlns="http://www.w3.org/2000/svg" xmlns:xlink="http://www.w3.org/1999/xlink" width="126.855" height="126.854" viewBox="0 0 126.855 126.854">
  <defs>
    <radialGradient id="radial-gradient" cx="0.893" cy="1" r="0.807" gradientTransform="translate(0 0.07) scale(1 0.93)" gradientUnits="objectBoundingBox">
      <stop offset="0" stop-color="#f0c"/>
      <stop offset="1" stop-opacity="0"/>
    </radialGradient>
    <linearGradient id="linear-gradient" x1="0.5" y1="-0.601" x2="0.5" y2="1" gradientUnits="objectBoundingBox">
      <stop offset="0" stop-color="#ff5656"/>
      <stop offset="1" stop-color="#ffcb00"/>
    </linearGradient>
    <radialGradient id="radial-gradient-2" cx="0.268" cy="0.197" r="0.773" gradientTransform="matrix(0.716, 0.698, -0.889, 0.913, 0.252, -0.17)" gradientUnits="objectBoundingBox">
      <stop offset="0" stop-color="#fff"/>
      <stop offset="0.079" stop-color="#fff"/>
      <stop offset="0.084" stop-color="#65eaff"/>
      <stop offset="0.764" stop-color="#5ea0e3"/>
      <stop offset="0.767" stop-color="#0047ff"/>
      <stop offset="0.893" stop-color="#1b5aff"/>
      <stop offset="1" stop-color="#0080ff"/>
    </radialGradient>
  </defs>
  <g id="Food_Service_morph" data-name="Food Service morph" transform="translate(0 0)">
    <path id="Path_29" data-name="Path 29" d="M63.427,0a63.427,63.427,0,1,1-44.85,18.577A63.427,63.427,0,0,1,63.427,0Z" transform="translate(0 0)" fill="#8ccec3"/>
    <path id="Path_38" data-name="Path 38" d="M63.427,0a63.427,63.427,0,1,1-44.85,18.577A63.427,63.427,0,0,1,63.427,0Z" transform="translate(0 0)" fill="url(#radial-gradient)" style="mix-blend-mode: color;isolation: isolate"/>
    <g id="bowl" transform="translate(34.7 17.758)">
      <g id="bowl-2" data-name="bowl">
        <path id="Path_299" data-name="Path 299" d="M641.519,1249.08c12.546,0,25.093-4.739,25.093-7.208s-12.546-2.669-25.093-2.669-25.093.2-25.093,2.669S628.972,1249.08,641.519,1249.08Z" transform="translate(-612.688 -1165.918)" fill="#b3ceff"/>
        <path id="Path_298" data-name="Path 298" d="M626.922,1268.533c7.208,7.374,18.335,7.238,18.335,7.238s10.647.136,17.855-7.238,10.976-26.367,10.976-26.367H616.426S619.714,1261.159,626.922,1268.533Z" transform="translate(-616.426 -1196.153)" fill="#3135f2"/>
        <path id="Path_303" data-name="Path 303" d="M616.426,1241.843c0-2.2,14.415-2.938,28.831-2.938s28.831.734,28.831,2.938-14.415,5.877-28.831,5.877S616.426,1244.047,616.426,1241.843Z" transform="translate(-616.426 -1195.629)" fill="#3135f2"/>
      </g>
      <g id="bowl_overlay" data-name="bowl overlay" style="mix-blend-mode: overlay;isolation: isolate">
        <path id="Path_299-2" data-name="Path 299" d="M641.519,1249.08c12.546,0,25.093-4.739,25.093-7.208s-12.546-2.669-25.093-2.669-25.093.2-25.093,2.669S628.972,1249.08,641.519,1249.08Z" transform="translate(-612.688 -1165.918)" fill="url(#linear-gradient)" style="mix-blend-mode: overlay;isolation: isolate"/>
        <path id="Path_298-2" data-name="Path 298" d="M626.922,1268.533c7.208,7.374,18.335,7.238,18.335,7.238s10.647.136,17.855-7.238,10.976-26.367,10.976-26.367H616.426S619.714,1261.159,626.922,1268.533Z" transform="translate(-616.426 -1196.153)" fill="url(#linear-gradient)" style="mix-blend-mode: overlay;isolation: isolate"/>
        <path id="Path_303-2" data-name="Path 303" d="M616.426,1241.843c0-2.2,14.415-2.938,28.831-2.938s28.831.734,28.831,2.938-14.415,5.877-28.831,5.877S616.426,1244.047,616.426,1241.843Z" transform="translate(-616.426 -1195.629)" fill="url(#linear-gradient)" style="mix-blend-mode: overlay;isolation: isolate"/>
      </g>
    </g>
    <g id="behind_chop" data-name="behind chop" transform="translate(33.446 50.991) rotate(-45)">
      <path id="Path_304" data-name="Path 304" d="M0,1.928c-.1-2.726,1.644-2.5,2.326.3S9.258,55.212,8.676,55.137.1,4.654,0,1.928Z" transform="matrix(0.358, 0.934, -0.934, 0.358, 58.683, 0)" fill="#3135f2"/>
      <path id="Path_304-2" data-name="Path 304" d="M0,1.928c-.1-2.726,1.644-2.5,2.326.3S9.258,55.212,8.676,55.137.1,4.654,0,1.928Z" transform="matrix(0.358, 0.934, -0.934, 0.358, 58.683, 0)" fill="url(#linear-gradient)" style="mix-blend-mode: overlay;isolation: isolate"/>
    </g>
    <g id="noodles" transform="translate(35.7 20.376)">
      <path id="Path_300" data-name="Path 300" d="M625.4,1249.392s19.293,8.948,18.647,3.562-21.8-.912-21.8-5.547,10.863,1.334,10.863,1.334" transform="translate(-756.301 -1119.385) rotate(-7)" fill="none" stroke="#ffefff" stroke-linecap="round" stroke-width="3"/>
      <path id="Path_301" data-name="Path 301" d="M24.106,14.92C23.431,11.885-2.049,2.9.218.31S22.43,17.828,26.145,14.459,4.036,1.695,4.036,1.695" transform="translate(18.185 45.198) rotate(-30)" fill="none" stroke="#ffefff" stroke-linecap="round" stroke-width="3"/>
      <path id="Path_302" data-name="Path 302" d="M10.06,1.889S36.923,11.233,36.331,4.4s-23.045,5.283-28.6-1.41S26.26.917,26.26.917" transform="matrix(0.985, -0.174, 0.174, 0.985, 1.41, 43.925)" fill="none" stroke="#ffefff" stroke-linecap="round" stroke-width="3"/>
    </g>
    <g id="front_chop" data-name="front chop" transform="matrix(0.848, -0.53, 0.53, 0.848, 35.054, 47.911)">
      <path id="Path_305" data-name="Path 305" d="M0,1.927C-.036-.784,1.876-.581,2.551,2.2S8.745,54.836,8.107,54.768.038,4.638,0,1.927Z" transform="translate(66.843 8.451) rotate(79)" fill="#3135f2"/>
      <path id="Path_305-2" data-name="Path 305" d="M0,1.927C-.036-.784,1.876-.581,2.551,2.2S8.745,54.836,8.107,54.768.038,4.638,0,1.927Z" transform="translate(66.843 8.451) rotate(79)" fill="url(#linear-gradient)" style="mix-blend-mode: overlay;isolation: isolate"/>
    </g>
    <path id="Path_31" data-name="Path 31" d="M63.427,0a63.427,63.427,0,1,1-44.85,18.577A63.427,63.427,0,0,1,63.427,0Z" transform="translate(0 0)" fill="url(#radial-gradient-2)" style="mix-blend-mode: overlay;isolation: isolate"/>
  </g>
</svg>
