<svg xmlns="http://www.w3.org/2000/svg" xmlns:xlink="http://www.w3.org/1999/xlink" viewBox="0 0 126.855 126.854">
  <defs>
    <radialGradient id="radial-gradient" cx="0.893" cy="1" r="0.807" gradientTransform="translate(0 0.07) scale(1 0.93)" gradientUnits="objectBoundingBox">
      <stop offset="0" stop-color="#f0c"/>
      <stop offset="1" stop-opacity="0"/>
    </radialGradient>
    <linearGradient id="linear-gradient" x1="0.5" y1="-0.601" x2="0.5" y2="1" gradientUnits="objectBoundingBox">
      <stop offset="0" stop-color="#ff5656"/>
      <stop offset="1" stop-color="#ffcb00"/>
    </linearGradient>
    <radialGradient id="radial-gradient-2" cx="0.268" cy="0.197" r="0.773" gradientTransform="matrix(0.716, 0.698, -0.889, 0.913, 0.252, -0.17)" gradientUnits="objectBoundingBox">
      <stop offset="0" stop-color="#fff"/>
      <stop offset="0.079" stop-color="#fff"/>
      <stop offset="0.084" stop-color="#65eaff"/>
      <stop offset="0.764" stop-color="#5ea0e3"/>
      <stop offset="0.767" stop-color="#0047ff"/>
      <stop offset="0.893" stop-color="#1b5aff"/>
      <stop offset="1" stop-color="#0080ff"/>
    </radialGradient>
  </defs>
  <g id="Food_Service" data-name="Food Service" transform="translate(0 0)">
    <path id="Path_29" data-name="Path 29" d="M63.427,0a63.427,63.427,0,1,1-44.85,18.577A63.427,63.427,0,0,1,63.427,0Z" transform="translate(0 0)" fill="#8ccec3"/>
    <path id="Path_38" data-name="Path 38" d="M63.427,0a63.427,63.427,0,1,1-44.85,18.577A63.427,63.427,0,0,1,63.427,0Z" transform="translate(0 0)" fill="url(#radial-gradient)" style="mix-blend-mode: color;isolation: isolate"/>
    <g id="Group_46" data-name="Group 46" transform="translate(34.7 17.758)">
      <path id="Path_299" data-name="Path 299" d="M641.519,1249.08c12.546,0,25.093-4.739,25.093-7.208s-12.546-2.669-25.093-2.669-25.093.2-25.093,2.669S628.972,1249.08,641.519,1249.08Z" transform="translate(-612.688 -1165.919)" fill="#b3ceff"/>
      <path id="Path_298" data-name="Path 298" d="M626.922,1268.533c7.208,7.374,18.335,7.238,18.335,7.238s10.647.136,17.855-7.238,10.976-26.367,10.976-26.367H616.426S619.714,1261.159,626.922,1268.533Z" transform="translate(-616.426 -1196.153)" fill="#3135f2"/>
      <path id="Path_303" data-name="Path 303" d="M616.426,1241.843c0-2.2,14.415-2.938,28.831-2.938s28.831.734,28.831,2.938-14.415,5.877-28.831,5.877S616.426,1244.047,616.426,1241.843Z" transform="translate(-616.426 -1195.629)" fill="#3135f2"/>
      <path id="Path_304" data-name="Path 304" d="M0,1.928c-.1-2.726,1.644-2.5,2.326.3S9.258,55.212,8.676,55.137.1,4.654,0,1.928Z" transform="matrix(0.358, 0.934, -0.934, 0.358, 58.683, 0)" fill="#3135f2"/>
      <path id="Path_300" data-name="Path 300" d="M634.971,1248.98s6.067-.679,5.421-6.066-8-10.845-8-15.48,7.208-9.269,7.208-9.269" transform="translate(-612.38 -1205.552)" fill="none" stroke="#b3ceff" stroke-linecap="round" stroke-width="3"/>
      <path id="Path_301" data-name="Path 301" d="M1.766,36.795C1.644,32.8-1.805,24.822,1.278,20.819s8.573.8,13.442-4.572S16.931,0,16.931,0" transform="translate(10.753 18.503) rotate(-30)" fill="none" stroke="#b3ceff" stroke-linecap="round" stroke-width="3"/>
      <path id="Path_302" data-name="Path 302" d="M3.115,32.9s4.871.972,4.092-4.341S0,17.471,0,11.647,7.885,0,7.885,0" transform="matrix(0.985, -0.174, 0.174, 0.985, 22.614, 14.465)" fill="none" stroke="#b3ceff" stroke-linecap="round" stroke-width="3"/>
      <path id="Path_305" data-name="Path 305" d="M0,1.927C-.036-.784,1.876-.581,2.551,2.2S8.745,54.836,8.107,54.768.038,4.638,0,1.927Z" transform="translate(66.843 8.451) rotate(79)" fill="#3135f2"/>
    </g>
    <g id="Group_47" data-name="Group 47" transform="translate(34.7 17.758)" style="mix-blend-mode: overlay;isolation: isolate">
      <path id="Path_299-2" data-name="Path 299" d="M641.519,1249.08c12.546,0,25.093-4.739,25.093-7.208s-12.546-2.669-25.093-2.669-25.093.2-25.093,2.669S628.972,1249.08,641.519,1249.08Z" transform="translate(-612.688 -1165.919)" fill="url(#linear-gradient)"/>
      <path id="Path_298-2" data-name="Path 298" d="M626.922,1268.533c7.208,7.374,18.335,7.238,18.335,7.238s10.647.136,17.855-7.238,10.976-26.367,10.976-26.367H616.426S619.714,1261.159,626.922,1268.533Z" transform="translate(-616.426 -1196.153)" fill="url(#linear-gradient)"/>
      <path id="Path_303-2" data-name="Path 303" d="M616.426,1241.843c0-2.2,14.415-2.938,28.831-2.938s28.831.734,28.831,2.938-14.415,5.877-28.831,5.877S616.426,1244.047,616.426,1241.843Z" transform="translate(-616.426 -1195.629)" fill="url(#linear-gradient)"/>
      <path id="Path_304-2" data-name="Path 304" d="M0,1.928c-.1-2.726,1.644-2.5,2.326.3S9.258,55.212,8.676,55.137.1,4.654,0,1.928Z" transform="matrix(0.358, 0.934, -0.934, 0.358, 58.683, 0)" fill="url(#linear-gradient)"/>
      <path id="Path_300-2" data-name="Path 300" d="M634.971,1248.98s6.067-.679,5.421-6.066-8-10.845-8-15.48,7.208-9.269,7.208-9.269" transform="translate(-612.38 -1205.552)" fill="none" stroke="#b3ceff" stroke-linecap="round" stroke-width="3"/>
      <path id="Path_301-2" data-name="Path 301" d="M1.766,36.795C1.644,32.8-1.805,24.822,1.278,20.819s8.573.8,13.442-4.572S16.931,0,16.931,0" transform="translate(10.753 18.503) rotate(-30)" fill="none" stroke="#b3ceff" stroke-linecap="round" stroke-width="3"/>
      <path id="Path_302-2" data-name="Path 302" d="M3.115,32.9s4.871.972,4.092-4.341S0,17.471,0,11.647,7.885,0,7.885,0" transform="matrix(0.985, -0.174, 0.174, 0.985, 22.614, 14.465)" fill="none" stroke="#b3ceff" stroke-linecap="round" stroke-width="3"/>
      <path id="Path_305-2" data-name="Path 305" d="M0,1.927C-.036-.784,1.876-.581,2.551,2.2S8.745,54.836,8.107,54.768.038,4.638,0,1.927Z" transform="translate(66.843 8.451) rotate(79)" fill="url(#linear-gradient)"/>
    </g>
    <path id="Path_31" data-name="Path 31" d="M63.427,0a63.427,63.427,0,1,1-44.85,18.577A63.427,63.427,0,0,1,63.427,0Z" transform="translate(0 0)" fill="url(#radial-gradient-2)" style="mix-blend-mode: overlay;isolation: isolate"/>
  </g>
</svg>
