<svg xmlns="http://www.w3.org/2000/svg" viewBox="0 0 1922 445.276">
  <g id="footer" transform="translate(2 -1271.724)">
    <path id="foote" d="M1922,0s-120.79-12.747-268.1-8.038-110.54,27.416-321.145,26.873-283.84-26.79-521.277-29.043S464.489,16.481,261.62,13.729,0-21.215,0-21.215V240H1922Z" transform="translate(-2 1477)" fill="#0b0139"/>
    <path id="Seaweed_2" data-name="Seaweed 2" d="M153.636-22.1c-1.41-.017-2.014,4.662-4.754,7.132-3.008,2.71-7.589,3.41-13.273,2.575-2.215,5.836-.861,10.656-4.5,14.744s-10.066,1.611-10.066,1.611S115.029-2.38,116-9.447s8.915-14.86,8.915-14.86.684-6.813-3.872-2.646S115.852-10.042,106.686-7.64a9.042,9.042,0,0,0-2.058-5.47c-1.028-1.166-3.85-2.335-3.885-3.643-.041-1.562,3.147-2.48,2.972-3.764-.065-.479-.579-.868-1.387-1.189-4.889.929-5.874,5.948-2.972,9.311,12.265,14.215-2.9,15.71-4.556,23.97,2.362,6.154,2.76,11.174.4,14.461-2.7,3.755-7.4,3.017-10.3,6.735-2.478,3.18.542,10.054-2.33,16.442s-7.31,2.771-9.16,9.113C69.72,70.961,80.7,71.113,71.226,83.883l.991,1.783c10.4.194,7.594-8.219,9.311-15.65,5.1-2.942,13.038-.254,19.81-1.585l7.726-4.16h2.972c6.387,1.121,12.82,7.6,21.2,3.962,7.978-3.46,5.46-12.293,11.292-16.839,4.1-3.2,11.662,1.981,14.461,2.575,10.664,2.267,9.988-17.362,12.084-22.584l9.311,2.972c4.074-5.985,7.79-12.429,6.055-14.238a2.145,2.145,0,0,0-2.093-.421c-3.069.969-1.862,8.551-4.953,9.707-2.872,1.074-6.319-4.437-9.905-3.566-1.891.459-3.308,2.464-4.358,5.547-7.119,5.811-9.614.576-16.641-3.17l.991-2.575c10.358-3.253,1.04-7.412,7.488-13.273s18-6.187,18.3-10.173c.264-3.41-3.872-7.122-5.388-6.468-1.634.7.721,6.217-1.981,9.311-3.622,4.148-11.525.429-14.858,4.358-1.838,2.168-1.611,5.868,0,10.5l-6.735,1.783c-2.775-4.015-5.719-8.574-5.151-11.094C142.74,3.551,156.661,3.543,156.964-2.2c.149-2.819-2.15-5.664-3.526-5.24s-.021,4.282-1.981,6.934c-2.664,3.605-7.73,2.463-11.3,5.919a11.384,11.384,0,0,0-2.762,4.382c-1.479-5.34-1.07-9.172.383-12.036,3.928-7.746,16.762-7.124,18.3-13.541C156.792-18.745,154.894-22.087,153.636-22.1Zm-41.6,16.434C113.917-3.637,116,5.236,116,5.236l-4.556,5.349c-2.827,7.822-.226,13.586-10.3,14.065-.2-4.094-3.17-6.294-1.783-12.282S106.686.7,106.686.7,110.153-7.7,112.035-5.668ZM133.232,7.8c.166,1.966-1.306,9.552-4.772,13.878-2.683,3.347-7.279,3.7-8.7,4.358-3.219,1.486-1.189-14.065-1.189-14.065S132.934,4.284,133.232,7.8Zm4.754,5.954c.656,4.9,3.679,7.589,6.537,10.3l-1.783,3.962c-10.2,3.2-10.665,9.95-17.829,11.292,1.466-3.211.715-5.907-.792-8.518C129.19,23.884,134.855,23.721,137.986,13.755ZM114.412,25.641c2.39,2.973,3.7,6.626,4.556,11.094l-9.707,8.32c-2.8,3.688-3.425,14.151-8.122,15.65h-.4c6.1-13.346-7.379-11.639-3.962-20.4S105.723,32.526,114.412,25.641Zm-17.829,7.33c-4.061,5.082-5.526,14.689.2,19.216L93.215,61.1c-6.66-.307-10.626.442-14.66,2.773h-.2c-1.248-8.579,10.988-8.7,10.9-27.338Zm51.9.792c5.118,3.566,8.977,9.311,16.244,4.358a16.226,16.226,0,0,1-3.764,11.094c-5.491-1.349-9.47-3.853-16.641-2.179-1.261-5.08-3.818-5.47-8.915-6.735C137.937,34.65,139.944,33.443,148.485,33.763Zm-13.075,10.7c2.846,1.1,6.313,3.5,5.745,6.934-3.126,18.881-17.125,9.03-30.112,8.717,1.015-4.874-3.714-9.162,2.377-13.075S128.409,44.46,135.411,44.46Z" transform="matrix(0.438, -0.899, 0.899, 0.438, 1440.283, 1530.143)" fill="#0b0139" fill-rule="evenodd"/>
    <path id="Seaweed_2-2" data-name="Seaweed 2" d="M128.511,168.058c-2.2.026-3.14-7.27-7.414-11.121-4.691-4.226-11.835-5.317-20.7-4.016-3.454-9.1-1.343-16.616-7.023-22.992s-15.7-2.513-15.7-2.513-9.372,9.888-7.863,20.909,13.9,23.173,13.9,23.173,1.066,10.624-6.039,4.126S69.591,149.251,55.3,145.506a14.1,14.1,0,0,1-3.21,8.53c-1.6,1.819-6,3.641-6.058,5.68-.064,2.436,4.908,3.867,4.634,5.869-.1.747-.9,1.354-2.162,1.854-7.624-1.448-9.159-9.275-4.634-14.519,19.126-22.166-4.52-24.5-7.105-37.379,3.684-9.6,4.3-17.425.618-22.551-4.211-5.856-11.546-4.705-16.064-10.5-3.864-4.959.846-15.678-3.633-25.64S6.282,52.525,3.4,42.636C-2.348,22.935,14.772,22.7,0,2.785L1.545.005c16.218-.3,11.842,12.817,14.519,24.4,7.956,4.588,20.331.4,30.892,2.471L59,33.368h4.634C73.6,31.62,83.629,21.524,96.692,27.19c12.441,5.4,8.515,19.17,17.608,26.258,6.395,4.985,18.185-3.089,22.551-4.016,16.63-3.534,15.575,27.074,18.844,35.217l14.519-4.634c6.353,9.333,12.148,19.381,9.443,22.2a3.344,3.344,0,0,1-3.264.657c-4.785-1.51-2.9-13.335-7.723-15.137-4.479-1.675-9.855,6.92-15.446,5.561-2.95-.716-5.159-3.842-6.8-8.65-11.1-9.061-14.992-.9-25.949,4.943l1.545,4.016c16.152,5.073,1.622,11.557,11.677,20.7s28.064,9.647,28.544,15.863c.412,5.318-6.038,11.106-8.4,10.086-2.548-1.1,1.124-9.695-3.089-14.519-5.648-6.468-17.973-.669-23.169-6.8-2.867-3.381-2.512-9.151,0-16.373l-10.5-2.78c-4.328,6.261-8.918,13.37-8.032,17.3,2.471,10.969,24.179,10.981,24.652,19.94.232,4.4-3.352,8.832-5.5,8.172s-.033-6.677-3.089-10.812c-4.154-5.622-12.054-3.841-17.627-9.231a17.752,17.752,0,0,1-4.306-6.833c-2.306,8.327-1.668,14.3.6,18.769,6.125,12.079,26.139,11.109,28.544,21.116C133.433,162.822,130.473,168.034,128.511,168.058ZM63.638,142.43c2.935-3.166,6.178-17,6.178-17l-7.105-8.341c-4.409-12.2-.352-21.186-16.064-21.933-.309,6.384-4.943,9.815-2.78,19.153S55.3,132.5,55.3,132.5,60.7,145.6,63.638,142.43Zm33.054-21c.259-3.065-2.036-14.9-7.442-21.642-4.183-5.22-11.351-5.775-13.564-6.8-5.02-2.317-1.854,21.933-1.854,21.933S96.229,126.911,96.692,121.428Zm7.414-9.285c1.023-7.644,5.736-11.835,10.194-16.064L111.52,89.9c-15.9-4.991-16.631-15.516-27.8-17.608C86,77.3,84.832,81.5,82.482,85.576,90.39,96.347,99.223,96.6,104.106,112.143ZM67.345,93.608c3.727-4.636,5.765-10.332,7.105-17.3L59.313,63.334c-4.359-5.751-5.342-22.067-12.666-24.4h-.618c9.507,20.811-11.507,18.149-6.178,31.819S53.8,82.871,67.345,93.608Zm-27.8-11.43c-6.333-7.925-8.617-22.905.309-29.965l-5.561-13.9c-10.386.479-16.57-.69-22.86-4.325h-.309C9.175,47.365,28.256,47.553,28.112,76.617Zm80.937-1.236c7.981-5.561,14-14.519,25.331-6.8.048-7.5-2.342-13.314-5.869-17.3-8.562,2.1-14.768,6.008-25.949,3.4-1.967,7.921-5.954,8.53-13.9,10.5C104.03,79.558,107.159,81.44,120.479,80.942ZM100.09,64.26c4.438-1.716,9.845-5.461,8.959-10.812C104.174,24,82.344,39.367,62.093,39.856c1.582,7.6-5.792,14.288,3.707,20.389S89.171,64.26,100.09,64.26Z" transform="translate(421.867 1500.101) rotate(-109)" fill="#0b0139" fill-rule="evenodd"/>
  </g>
</svg>
