<svg id="Insta" xmlns="http://www.w3.org/2000/svg" width="23.015" height="23.015" viewBox="0 0 23.015 23.015">
  <path id="Path_3" data-name="Path 3" d="M11.507,2.046a35.284,35.284,0,0,1,4.6.128,5.93,5.93,0,0,1,2.174.384,4.49,4.49,0,0,1,2.174,2.174A5.93,5.93,0,0,1,20.841,6.9c0,1.151.128,1.534.128,4.6a35.284,35.284,0,0,1-.128,4.6,5.93,5.93,0,0,1-.384,2.174,4.49,4.49,0,0,1-2.174,2.174,5.93,5.93,0,0,1-2.174.384c-1.151,0-1.534.128-4.6.128a35.284,35.284,0,0,1-4.6-.128,5.93,5.93,0,0,1-2.174-.384,4.49,4.49,0,0,1-2.174-2.174,5.93,5.93,0,0,1-.384-2.174c0-1.151-.128-1.534-.128-4.6a35.284,35.284,0,0,1,.128-4.6,5.93,5.93,0,0,1,.384-2.174,4.592,4.592,0,0,1,.9-1.279,2.162,2.162,0,0,1,1.279-.9A5.93,5.93,0,0,1,6.9,2.174a35.284,35.284,0,0,1,4.6-.128m0-2.046A37.779,37.779,0,0,0,6.777.128,7.894,7.894,0,0,0,3.964.639,5.005,5.005,0,0,0,1.918,1.918,5.005,5.005,0,0,0,.639,3.964,5.826,5.826,0,0,0,.128,6.777,37.779,37.779,0,0,0,0,11.507a37.779,37.779,0,0,0,.128,4.731,7.894,7.894,0,0,0,.511,2.813A5.005,5.005,0,0,0,1.918,21.1a5.005,5.005,0,0,0,2.046,1.279,7.894,7.894,0,0,0,2.813.511,37.779,37.779,0,0,0,4.731.128,37.779,37.779,0,0,0,4.731-.128,7.894,7.894,0,0,0,2.813-.511,5.364,5.364,0,0,0,3.324-3.324,7.893,7.893,0,0,0,.511-2.813c0-1.279.128-1.662.128-4.731a37.779,37.779,0,0,0-.128-4.731,7.894,7.894,0,0,0-.511-2.813A5.005,5.005,0,0,0,21.1,1.918,5.005,5.005,0,0,0,19.051.639,7.894,7.894,0,0,0,16.238.128,37.779,37.779,0,0,0,11.507,0m0,5.626a5.787,5.787,0,0,0-5.882,5.882,5.882,5.882,0,1,0,5.882-5.882m0,9.717a3.767,3.767,0,0,1-3.836-3.836,3.767,3.767,0,0,1,3.836-3.836,3.767,3.767,0,0,1,3.836,3.836,3.767,3.767,0,0,1-3.836,3.836M17.645,3.964A1.406,1.406,0,1,0,19.051,5.37a1.419,1.419,0,0,0-1.406-1.406" fill="#e9f1f2" fill-rule="evenodd"/>
</svg>
