<svg xmlns="http://www.w3.org/2000/svg" xmlns:xlink="http://www.w3.org/1999/xlink" viewBox="0 0 126.855 126.854">
  <defs>
    <radialGradient id="radial-gradient" cx="0.893" cy="1" r="0.807" gradientTransform="translate(0 0.07) scale(1 0.93)" gradientUnits="objectBoundingBox">
      <stop offset="0" stop-color="#f0c"/>
      <stop offset="1" stop-opacity="0"/>
    </radialGradient>
    <linearGradient id="linear-gradient" x1="0.5" x2="0.5" y2="0.725" gradientUnits="objectBoundingBox">
      <stop offset="0" stop-color="#ff4242"/>
      <stop offset="1" stop-color="#0a0a4b"/>
    </linearGradient>
    <radialGradient id="radial-gradient-2" cx="0.268" cy="0.197" r="0.773" gradientTransform="matrix(0.716, 0.698, -0.889, 0.913, 0.252, -0.17)" gradientUnits="objectBoundingBox">
      <stop offset="0" stop-color="#fff"/>
      <stop offset="0.079" stop-color="#fff"/>
      <stop offset="0.084" stop-color="#65eaff"/>
      <stop offset="0.764" stop-color="#5ea0e3"/>
      <stop offset="0.767" stop-color="#0047ff"/>
      <stop offset="0.893" stop-color="#1b5aff"/>
      <stop offset="1" stop-color="#0080ff"/>
    </radialGradient>
  </defs>
  <g id="IT_Icon" data-name="IT Icon" transform="translate(0 0)">
    <path id="Path_28" data-name="Path 28" d="M63.427,0a63.427,63.427,0,1,1-44.85,18.577A63.427,63.427,0,0,1,63.427,0Z" transform="translate(0 0)" fill="#8ccec3"/>
    <path id="Path_37" data-name="Path 37" d="M63.427,0a63.427,63.427,0,1,1-44.85,18.577A63.427,63.427,0,0,1,63.427,0Z" transform="translate(0 0)" fill="url(#radial-gradient)" style="mix-blend-mode: color;isolation: isolate"/>
    <g id="Group_11" data-name="Group 11" transform="translate(20.009 33.381)">
      <path id="Union_4" data-name="Union 4" d="M26.758,69a1.683,1.683,0,0,1,0-3.366H38.675V57.219H5a5.005,5.005,0,0,1-5-5V5A5.005,5.005,0,0,1,5,0H80a5.005,5.005,0,0,1,5,5V52.22a5.005,5.005,0,0,1-5,5H44.626v8.415H56.542a1.683,1.683,0,1,1,0,3.366ZM3.148,54.1h78.7V3.117H3.148Zm1.675-1.3V4.2H80.177V52.8Z" transform="translate(0.181 0)" fill="#e53460"/>
      <path id="Union_2" data-name="Union 2" d="M14.224,30.015v-.141a14.282,14.282,0,0,1-6.5-2.624l-.1.1a2.067,2.067,0,0,1-2.884.01,1.976,1.976,0,0,1,.01-2.83l.1-.1A13.736,13.736,0,0,1,3.142,21.5a13.569,13.569,0,0,1-.966-3.447H2.032A2,2,0,0,1,0,16.061a2.037,2.037,0,0,1,2.046-2.008H2.19A13.731,13.731,0,0,1,3.18,10.6,13.975,13.975,0,0,1,4.909,7.656l-.1-.1a1.974,1.974,0,0,1,.01-2.83A2.067,2.067,0,0,1,7.7,4.717l.1.1A14.481,14.481,0,0,1,14.32,2.149V2.008A2.037,2.037,0,0,1,16.367,0,2,2,0,0,1,18.4,1.993v.141a14.258,14.258,0,0,1,6.5,2.624l.1-.1a2.066,2.066,0,0,1,2.884-.01,1.974,1.974,0,0,1-.01,2.829l-.1.1a13.765,13.765,0,0,1,1.709,2.93,13.6,13.6,0,0,1,.967,3.457h.181a2,2,0,1,1,0,4h-.2a13.731,13.731,0,0,1-.989,3.443,14,14,0,0,1-1.729,2.943l.1.1a1.973,1.973,0,0,1-.01,2.829,2.067,2.067,0,0,1-2.884.01l-.1-.1A14.473,14.473,0,0,1,18.3,29.86V30a2.036,2.036,0,0,1-2.046,2.007h-.008A2,2,0,0,1,14.224,30.015ZM6.116,16.04a10.028,10.028,0,0,0,10.16,9.968A10.2,10.2,0,0,0,26.506,15.97,10.028,10.028,0,0,0,16.4,6h-.108A10.2,10.2,0,0,0,6.116,16.04Z" transform="matrix(0.985, 0.174, -0.174, 0.985, 17.989, 6.345)" fill="#d5fcff"/>
      <path id="Union_3" data-name="Union 3" d="M10.241,20.032a1.28,1.28,0,0,1-1.28-1.259v-.089A9.066,9.066,0,0,1,4.888,17l-.064.062a1.286,1.286,0,0,1-1.8-.011,1.237,1.237,0,0,1-.011-1.77l.063-.062a8.8,8.8,0,0,1-1.084-1.844,8.638,8.638,0,0,1-.624-2.163H1.281A1.281,1.281,0,0,1,0,9.957,1.245,1.245,0,0,1,1.265,8.712h.089A8.555,8.555,0,0,1,3.014,4.725L2.95,4.662a1.238,1.238,0,0,1-.011-1.77,1.288,1.288,0,0,1,1.8.01l.064.063A8.752,8.752,0,0,1,6.665,1.921a8.844,8.844,0,0,1,2.191-.588V1.245A1.246,1.246,0,0,1,10.121,0,1.28,1.28,0,0,1,11.4,1.26v.088a9.063,9.063,0,0,1,4.073,1.68l.064-.063a1.287,1.287,0,0,1,1.8.011,1.238,1.238,0,0,1,.01,1.77l-.063.062a8.816,8.816,0,0,1,1.084,1.844,8.638,8.638,0,0,1,.622,2.153H19.1a1.252,1.252,0,0,1,0,2.5h-.094a8.555,8.555,0,0,1-1.661,4l.064.063a1.239,1.239,0,0,1,.011,1.771,1.288,1.288,0,0,1-1.8-.011l-.064-.063A8.751,8.751,0,0,1,13.7,18.112a8.845,8.845,0,0,1-2.191.588v.088a1.244,1.244,0,0,1-1.257,1.245ZM3.818,9.979a6.411,6.411,0,0,0,6.4,6.3,6.23,6.23,0,0,0,6.326-6.223,6.411,6.411,0,0,0-6.358-6.3H10.1A6.229,6.229,0,0,0,3.818,9.979Z" transform="translate(43.126 31.46) rotate(-18)" fill="#d5fcff"/>
    </g>
    <g id="Group_15" data-name="Group 15" transform="translate(20.009 33.381)" style="mix-blend-mode: overlay;isolation: isolate">
      <path id="Union_4-2" data-name="Union 4" d="M26.758,69a1.683,1.683,0,0,1,0-3.366H38.675V57.219H5a5.005,5.005,0,0,1-5-5V5A5.005,5.005,0,0,1,5,0H80a5.005,5.005,0,0,1,5,5V52.22a5.005,5.005,0,0,1-5,5H44.626v8.415H56.542a1.683,1.683,0,1,1,0,3.366ZM3.148,54.1h78.7V3.117H3.148Zm1.675-1.3V4.2H80.177V52.8Z" transform="translate(0.181 0)" fill="url(#linear-gradient)"/>
      <path id="Union_2-2" data-name="Union 2" d="M14.224,30.015v-.141a14.282,14.282,0,0,1-6.5-2.624l-.1.1a2.067,2.067,0,0,1-2.884.01,1.976,1.976,0,0,1,.01-2.83l.1-.1A13.736,13.736,0,0,1,3.142,21.5a13.569,13.569,0,0,1-.966-3.447H2.032A2,2,0,0,1,0,16.061a2.037,2.037,0,0,1,2.046-2.008H2.19A13.731,13.731,0,0,1,3.18,10.6,13.975,13.975,0,0,1,4.909,7.656l-.1-.1a1.974,1.974,0,0,1,.01-2.83A2.067,2.067,0,0,1,7.7,4.717l.1.1A14.481,14.481,0,0,1,14.32,2.149V2.008A2.037,2.037,0,0,1,16.367,0,2,2,0,0,1,18.4,1.993v.141a14.258,14.258,0,0,1,6.5,2.624l.1-.1a2.066,2.066,0,0,1,2.884-.01,1.974,1.974,0,0,1-.01,2.829l-.1.1a13.765,13.765,0,0,1,1.709,2.93,13.6,13.6,0,0,1,.967,3.457h.181a2,2,0,1,1,0,4h-.2a13.731,13.731,0,0,1-.989,3.443,14,14,0,0,1-1.729,2.943l.1.1a1.973,1.973,0,0,1-.01,2.829,2.067,2.067,0,0,1-2.884.01l-.1-.1A14.473,14.473,0,0,1,18.3,29.86V30a2.036,2.036,0,0,1-2.046,2.007h-.008A2,2,0,0,1,14.224,30.015ZM6.116,16.04a10.028,10.028,0,0,0,10.16,9.968A10.2,10.2,0,0,0,26.506,15.97,10.028,10.028,0,0,0,16.4,6h-.108A10.2,10.2,0,0,0,6.116,16.04Z" transform="matrix(0.985, 0.174, -0.174, 0.985, 17.989, 6.345)" fill="url(#linear-gradient)"/>
      <path id="Union_3-2" data-name="Union 3" d="M10.241,20.032a1.28,1.28,0,0,1-1.28-1.259v-.089A9.066,9.066,0,0,1,4.888,17l-.064.062a1.286,1.286,0,0,1-1.8-.011,1.237,1.237,0,0,1-.011-1.77l.063-.062a8.8,8.8,0,0,1-1.084-1.844,8.638,8.638,0,0,1-.624-2.163H1.281A1.281,1.281,0,0,1,0,9.957,1.245,1.245,0,0,1,1.265,8.712h.089A8.555,8.555,0,0,1,3.014,4.725L2.95,4.662a1.238,1.238,0,0,1-.011-1.77,1.288,1.288,0,0,1,1.8.01l.064.063A8.752,8.752,0,0,1,6.665,1.921a8.844,8.844,0,0,1,2.191-.588V1.245A1.246,1.246,0,0,1,10.121,0,1.28,1.28,0,0,1,11.4,1.26v.088a9.063,9.063,0,0,1,4.073,1.68l.064-.063a1.287,1.287,0,0,1,1.8.011,1.238,1.238,0,0,1,.01,1.77l-.063.062a8.816,8.816,0,0,1,1.084,1.844,8.638,8.638,0,0,1,.622,2.153H19.1a1.252,1.252,0,0,1,0,2.5h-.094a8.555,8.555,0,0,1-1.661,4l.064.063a1.239,1.239,0,0,1,.011,1.771,1.288,1.288,0,0,1-1.8-.011l-.064-.063A8.751,8.751,0,0,1,13.7,18.112a8.845,8.845,0,0,1-2.191.588v.088a1.244,1.244,0,0,1-1.257,1.245ZM3.818,9.979a6.411,6.411,0,0,0,6.4,6.3,6.23,6.23,0,0,0,6.326-6.223,6.411,6.411,0,0,0-6.358-6.3H10.1A6.229,6.229,0,0,0,3.818,9.979Z" transform="translate(43.126 31.46) rotate(-18)" fill="url(#linear-gradient)"/>
    </g>
    <path id="Path_32" data-name="Path 32" d="M63.427,0a63.427,63.427,0,1,1-44.85,18.577A63.427,63.427,0,0,1,63.427,0Z" transform="translate(0 0)" fill="url(#radial-gradient-2)" style="mix-blend-mode: overlay;isolation: isolate"/>
  </g>
</svg>
