<svg xmlns="http://www.w3.org/2000/svg" xmlns:xlink="http://www.w3.org/1999/xlink" viewBox="0 0 126.855 126.854">
  <defs>
    <radialGradient id="radial-gradient" cx="0.893" cy="1" r="0.807" gradientTransform="translate(0 0.07) scale(1 0.93)" gradientUnits="objectBoundingBox">
      <stop offset="0" stop-color="#f0c"/>
      <stop offset="1" stop-opacity="0"/>
    </radialGradient>
    <linearGradient id="linear-gradient" x1="0.5" x2="0.5" y2="0.725" gradientUnits="objectBoundingBox">
      <stop offset="0" stop-color="#ff4242"/>
      <stop offset="1" stop-color="#0a0a4b"/>
    </linearGradient>
    <radialGradient id="radial-gradient-2" cx="0.268" cy="0.197" r="0.773" gradientTransform="matrix(0.716, 0.698, -0.889, 0.913, 0.252, -0.17)" gradientUnits="objectBoundingBox">
      <stop offset="0" stop-color="#fff"/>
      <stop offset="0.079" stop-color="#fff"/>
      <stop offset="0.084" stop-color="#65eaff"/>
      <stop offset="0.764" stop-color="#5ea0e3"/>
      <stop offset="0.767" stop-color="#0047ff"/>
      <stop offset="0.893" stop-color="#1b5aff"/>
      <stop offset="1" stop-color="#0080ff"/>
    </radialGradient>
  </defs>
  <g id="Legal_Icon" data-name="Legal Icon" transform="translate(0 0)">
    <path id="Path_30" data-name="Path 30" d="M63.427,0a63.427,63.427,0,1,1-44.85,18.577A63.427,63.427,0,0,1,63.427,0Z" transform="translate(0 0)" fill="#8ccec3"/>
    <path id="Path_36" data-name="Path 36" d="M63.427,0a63.427,63.427,0,1,1-44.85,18.577A63.427,63.427,0,0,1,63.427,0Z" transform="translate(0 0)" fill="url(#radial-gradient)" style="mix-blend-mode: color;isolation: isolate"/>
    <g id="Group_13" data-name="Group 13" transform="translate(32.888 23.861)">
      <path id="Rectangle_32" data-name="Rectangle 32" d="M0,0H7.168a0,0,0,0,1,0,0V39.423a3.584,3.584,0,0,1-3.584,3.584h0A3.584,3.584,0,0,1,0,39.423V0A0,0,0,0,1,0,0Z" transform="translate(36.2 30.411) rotate(-45)" fill="#3135f2"/>
      <rect id="Rectangle_33" data-name="Rectangle 33" width="31.061" height="16.725" transform="translate(15.926 27.032) rotate(-45)" fill="#b3ceff"/>
      <rect id="Rectangle_34" data-name="Rectangle 34" width="4.779" height="21.504" rx="2.389" transform="translate(36.2 3.379) rotate(-45)" fill="#3135f2"/>
      <rect id="Rectangle_35" data-name="Rectangle 35" width="4.779" height="21.504" rx="2.389" transform="translate(10.857 28.721) rotate(-45)" fill="#3135f2"/>
      <path id="Rectangle_36" data-name="Rectangle 36" d="M4.706,0h7.24a4.706,4.706,0,0,1,4.706,4.706v0a0,0,0,0,1,0,0H0a0,0,0,0,1,0,0v0A4.706,4.706,0,0,1,4.706,0Z" transform="translate(4.706 64.547)" fill="#b3ceff"/>
      <path id="Rectangle_37" data-name="Rectangle 37" d="M4.706,0H21.721a4.706,4.706,0,0,1,4.706,4.706v0a0,0,0,0,1,0,0H0a0,0,0,0,1,0,0v0A4.706,4.706,0,0,1,4.706,0Z" transform="translate(0 69.253)" fill="#3135f2"/>
    </g>
    <g id="Group_14" data-name="Group 14" transform="translate(32.888 23.861)" style="mix-blend-mode: overlay;isolation: isolate">
      <path id="Rectangle_32-2" data-name="Rectangle 32" d="M0,0H7.168a0,0,0,0,1,0,0V39.423a3.584,3.584,0,0,1-3.584,3.584h0A3.584,3.584,0,0,1,0,39.423V0A0,0,0,0,1,0,0Z" transform="translate(36.2 30.411) rotate(-45)" fill="url(#linear-gradient)"/>
      <rect id="Rectangle_33-2" data-name="Rectangle 33" width="31.061" height="16.725" transform="translate(15.926 27.032) rotate(-45)" fill="url(#linear-gradient)"/>
      <rect id="Rectangle_34-2" data-name="Rectangle 34" width="4.779" height="21.504" rx="2.389" transform="translate(36.2 3.379) rotate(-45)" fill="url(#linear-gradient)"/>
      <rect id="Rectangle_35-2" data-name="Rectangle 35" width="4.779" height="21.504" rx="2.389" transform="translate(10.857 28.721) rotate(-45)" fill="url(#linear-gradient)"/>
      <path id="Rectangle_36-2" data-name="Rectangle 36" d="M4.706,0h7.24a4.706,4.706,0,0,1,4.706,4.706v0a0,0,0,0,1,0,0H0a0,0,0,0,1,0,0v0A4.706,4.706,0,0,1,4.706,0Z" transform="translate(4.706 64.547)" fill="url(#linear-gradient)"/>
      <path id="Rectangle_37-2" data-name="Rectangle 37" d="M4.706,0H21.721a4.706,4.706,0,0,1,4.706,4.706v0a0,0,0,0,1,0,0H0a0,0,0,0,1,0,0v0A4.706,4.706,0,0,1,4.706,0Z" transform="translate(0 69.253)" fill="url(#linear-gradient)"/>
    </g>
    <path id="Path_33" data-name="Path 33" d="M63.427,0a63.427,63.427,0,1,1-44.85,18.577A63.427,63.427,0,0,1,63.427,0Z" transform="translate(0 0)" fill="url(#radial-gradient-2)" style="mix-blend-mode: overlay;isolation: isolate"/>
  </g>
</svg>
