<svg id="Legal_Icon" data-name="Legal Icon" xmlns="http://www.w3.org/2000/svg" xmlns:xlink="http://www.w3.org/1999/xlink" viewBox="0 0 178.127 178.127">
  <defs>
    <radialGradient id="radial-gradient" cx="0.893" cy="1" r="0.807" gradientTransform="translate(0 0.07) scale(1 0.93)" gradientUnits="objectBoundingBox">
      <stop offset="0" stop-color="#f0c"/>
      <stop offset="1" stop-opacity="0"/>
    </radialGradient>
    <linearGradient id="linear-gradient" x1="0.5" x2="0.5" y2="0.725" gradientUnits="objectBoundingBox">
      <stop offset="0" stop-color="#ff4242"/>
      <stop offset="1" stop-color="#0a0a4b"/>
    </linearGradient>
    <radialGradient id="radial-gradient-2" cx="0.268" cy="0.197" r="0.773" gradientTransform="matrix(0.716, 0.698, -0.889, 0.913, 0.252, -0.17)" gradientUnits="objectBoundingBox">
      <stop offset="0" stop-color="#fff"/>
      <stop offset="0.079" stop-color="#fff"/>
      <stop offset="0.084" stop-color="#65eaff"/>
      <stop offset="0.764" stop-color="#5ea0e3"/>
      <stop offset="0.767" stop-color="#0047ff"/>
      <stop offset="0.893" stop-color="#1b5aff"/>
      <stop offset="1" stop-color="#0080ff"/>
    </radialGradient>
  </defs>
  <path id="bubble_base" data-name="bubble base" d="M89.064,0A89.064,89.064,0,1,1,26.086,26.086,89.064,89.064,0,0,1,89.064,0Z" transform="translate(0 0)" fill="#8ccec3"/>
  <path id="reflected_light" data-name="reflected light" d="M89.064,0A89.064,89.064,0,1,1,26.086,26.086,89.064,89.064,0,0,1,89.064,0Z" transform="translate(0)" fill="url(#radial-gradient)" style="mix-blend-mode: color;isolation: isolate"/>
  <g id="hammer"> 
    <g transform="translate(46.18 33.505)">
      <g transform="translate(-46.18 -33.505)" class="hammer">
    <path id="Rectangle_32" data-name="Rectangle 32" d="M0,0H10.065a0,0,0,0,1,0,0V55.357A5.032,5.032,0,0,1,5.032,60.39h0A5.032,5.032,0,0,1,0,55.357V0A0,0,0,0,1,0,0Z" transform="translate(50.831 42.702) rotate(-45)" fill="#3135f2"/>
    <rect id="Rectangle_33" data-name="Rectangle 33" width="43.615" height="23.485" transform="translate(22.363 37.958) rotate(-45)" fill="#b3ceff"/>
    <rect id="Rectangle_34" data-name="Rectangle 34" width="6.71" height="30.195" rx="3.355" transform="translate(50.831 4.745) rotate(-45)" fill="#3135f2"/>
    <rect id="Rectangle_35" data-name="Rectangle 35" width="6.71" height="30.195" rx="3.355" transform="translate(15.246 40.33) rotate(-45)" fill="#3135f2"/>
    <path id="Rectangle_32-2" data-name="Rectangle 32" d="M0,0H10.065a0,0,0,0,1,0,0V55.357A5.032,5.032,0,0,1,5.032,60.39h0A5.032,5.032,0,0,1,0,55.357V0A0,0,0,0,1,0,0Z" transform="translate(50.831 42.702) rotate(-45)" fill="url(#linear-gradient)" style="mix-blend-mode: overlay;isolation: isolate"/>
    <rect id="Rectangle_33-2" data-name="Rectangle 33" width="43.615" height="23.485" transform="translate(22.363 37.958) rotate(-45)" fill="url(#linear-gradient)" style="mix-blend-mode: overlay;isolation: isolate"/>
    <rect id="Rectangle_34-2" data-name="Rectangle 34" width="6.71" height="30.195" rx="3.355" transform="translate(50.831 4.745) rotate(-45)" fill="url(#linear-gradient)" style="mix-blend-mode: overlay;isolation: isolate"/>
    <rect id="Rectangle_35-2" data-name="Rectangle 35" width="6.71" height="30.195" rx="3.355" transform="translate(15.246 40.33) rotate(-45)" fill="url(#linear-gradient)" style="mix-blend-mode: overlay;isolation: isolate"/>
      </g>
    </g>
  </g>
  <g id="plate">
    <g id="Group_13" data-name="Group 13" transform="translate(46.18 33.505)">
      <path id="Rectangle_36" data-name="Rectangle 36" d="M6.608,0H16.775a6.608,6.608,0,0,1,6.608,6.608v0a0,0,0,0,1,0,0H0a0,0,0,0,1,0,0v0A6.608,6.608,0,0,1,6.608,0Z" transform="translate(6.608 90.636)" fill="#b3ceff"/>
      <path id="Rectangle_37" data-name="Rectangle 37" d="M6.608,0H30.5a6.608,6.608,0,0,1,6.608,6.608v0a0,0,0,0,1,0,0H0a0,0,0,0,1,0,0v0A6.608,6.608,0,0,1,6.608,0Z" transform="translate(0 97.244)" fill="#3135f2"/>
    </g>
    <g id="Group_14" data-name="Group 14" transform="translate(46.18 33.505)" style="mix-blend-mode: overlay;isolation: isolate">
      <path id="Rectangle_36-2" data-name="Rectangle 36" d="M6.608,0H16.775a6.608,6.608,0,0,1,6.608,6.608v0a0,0,0,0,1,0,0H0a0,0,0,0,1,0,0v0A6.608,6.608,0,0,1,6.608,0Z" transform="translate(6.608 90.636)" fill="url(#linear-gradient)"/>
      <path id="Rectangle_37-2" data-name="Rectangle 37" d="M6.608,0H30.5a6.608,6.608,0,0,1,6.608,6.608v0a0,0,0,0,1,0,0H0a0,0,0,0,1,0,0v0A6.608,6.608,0,0,1,6.608,0Z" transform="translate(0 97.244)" fill="url(#linear-gradient)"/>
    </g>
  </g>
  <path id="bubble_overlay" data-name="bubble overlay" d="M89.064,0A89.064,89.064,0,1,1,26.086,26.086,89.064,89.064,0,0,1,89.064,0Z" transform="translate(0 0)" fill="url(#radial-gradient-2)" style="mix-blend-mode: overlay;isolation: isolate"/>
</svg>
