<svg id="Linkedin" xmlns="http://www.w3.org/2000/svg" width="23.071" height="23.015" viewBox="0 0 23.071 23.015">
  <path id="Color_Fill_1" data-name="Color Fill 1" d="M3.744.989A2.706,2.706,0,0,1,6.457,2.846a2.985,2.985,0,0,1,0,1.918A2.888,2.888,0,0,1,4.132,6.538a2.49,2.49,0,0,1-1.346-.224,2.665,2.665,0,0,1-1.55-1.673,1.963,1.963,0,0,1-.143-.959V3.417l.143-.592A2.917,2.917,0,0,1,2.908,1.152L3.5,1.01C3.584.99,3.686,1.025,3.744.989Zm5.487,7.65h4.59V10.72H13.9a3.312,3.312,0,0,1,.979-1.2c.118-.089.224-.22.347-.306a5.864,5.864,0,0,1,1.816-.816c.3-.084.639-.074.959-.143a4.767,4.767,0,0,1,1.224.041l.367.02c.336.077.68.1,1,.2a5.926,5.926,0,0,1,1.816,1,1.081,1.081,0,0,1,.184.224c.151.2.352.373.49.592a6.826,6.826,0,0,1,.694,1.734,18.315,18.315,0,0,1,.367,4.855v7.058a1.851,1.851,0,0,1-.469.02h-4.3a3.208,3.208,0,0,1-.02-.816V15.554l-.082-.857a2.973,2.973,0,0,0-.8-1.734,2.686,2.686,0,0,0-.918-.449,2.919,2.919,0,0,0-2.856.857c-.677.945-.673,2.41-.673,4.059v6.548a1.851,1.851,0,0,1-.469.02h-4.3a7.423,7.423,0,0,1-.02-1.448Zm-7.772,0H6.253V24H1.46Z" transform="translate(-1.074 -0.989)" fill="#e9f1f2" fill-rule="evenodd"/>
</svg>
