<svg id="Logo" xmlns="http://www.w3.org/2000/svg" width="325.629" height="85.475" viewBox="0 0 325.629 85.475">
  <path id="path861" d="M15.242,107.588c-.876.012-1.9-.011-2.275-.051s-1.177-.172-1.782-.293a18.759,18.759,0,0,1-2-.531,15.9,15.9,0,0,1-1.593-.658,14.281,14.281,0,0,1-1.37-.81,10.539,10.539,0,0,1-1.251-1.039,11.212,11.212,0,0,1-.917-1.045c-.188-.257-.52-.766-.739-1.13a14.339,14.339,0,0,1-.7-1.346,13.22,13.22,0,0,1-.49-1.344,13.487,13.487,0,0,1-.308-1.451,15.833,15.833,0,0,1-.116-2,19.147,19.147,0,0,1,.108-2c.058-.439.2-1.2.308-1.7s.337-1.3.5-1.8.463-1.266.661-1.715.577-1.191.84-1.65.7-1.149.965-1.533.8-1.084,1.181-1.555,1.192-1.352,1.8-1.96,1.5-1.43,1.976-1.828,1.282-1.029,1.782-1.4,1.432-1.049,2.07-1.5,1.486-1.1,1.885-1.432a10.8,10.8,0,0,0,1.14-1.106,7.745,7.745,0,0,0,.668-.955A6.035,6.035,0,0,0,18,72.784a3.959,3.959,0,0,0,.157-1.251,7.244,7.244,0,0,0-.152-1.414c-.083-.375-.326-1.194-.54-1.82a16.389,16.389,0,0,1-.531-1.934,18.459,18.459,0,0,1-.188-2.2,19.507,19.507,0,0,1,.036-2.2,8.189,8.189,0,0,1,.549-2.143c.466-1.342.466-1.342.279-1.588a4.6,4.6,0,0,1-.356-.577,2.92,2.92,0,0,1-.231-.72,3.122,3.122,0,0,1,.009-.834,3.254,3.254,0,0,1,.249-.8,2.11,2.11,0,0,1,.319-.479A10.713,10.713,0,0,1,19,54.207l1.251-.489,0-.528a1.853,1.853,0,0,0-.21-.949,2.944,2.944,0,0,0-.539-.728,4.236,4.236,0,0,0-.8-.543c-.257-.13-.746-.338-1.087-.464a11.042,11.042,0,0,1-1.175-.527,9.2,9.2,0,0,1-1.024-.658,11.477,11.477,0,0,1-.987-.888,13.542,13.542,0,0,1-.974-1.139c-.25-.335-.637-.917-.859-1.292a2.656,2.656,0,0,1-.486-1.32,14.642,14.642,0,0,1-.082-1.519,17.61,17.61,0,0,1,.113-1.789c.062-.5.183-1.3.269-1.78s.263-1.282.392-1.782a6.609,6.609,0,0,0,.241-1.479,2.974,2.974,0,0,0-.131-.965,2.667,2.667,0,0,0-.466-.762,2.881,2.881,0,0,0-.6-.509.572.572,0,0,0-.577-.05,1.8,1.8,0,0,0-.562.314,1.856,1.856,0,0,0-.39.53c-.077.17-.176.3-.222.282s-.112-.144-.148-.287a1.2,1.2,0,0,1,.021-.578,2.066,2.066,0,0,1,.468-.736,2.393,2.393,0,0,0,.449-.652,1.846,1.846,0,0,0,0-.667.918.918,0,0,0-.257-.6c-.162-.142-.25-.158-.647-.122s-.459.023-.459-.083a.121.121,0,0,1,.116-.124,1.526,1.526,0,0,0,.4-.117c.222-.093.257-.132.168-.188a2.059,2.059,0,0,0-.643-.073,2.213,2.213,0,0,1-.712-.1.9.9,0,0,1-.288-.256c-.105-.16-.1-.161.23-.09a3.124,3.124,0,0,0,.705.048l.368-.023-.551-.286c-.3-.157-.738-.356-.967-.442a1.178,1.178,0,0,1-.495-.3c-.044-.082-.048-.146-.009-.146a1.575,1.575,0,0,1,.325.1,3.2,3.2,0,0,0,.5.15c.136.025.246.02.246-.011a1.621,1.621,0,0,0-.379-.341c-.29-.216-.379-.331-.379-.485,0-.2,0-.2.209-.009a6.884,6.884,0,0,0,.664.5c.25.167.645.41.878.541a2.713,2.713,0,0,0,.781.287.652.652,0,0,1,.586.38,4.551,4.551,0,0,0,.413.517.638.638,0,0,1,.186.284,2.255,2.255,0,0,0,.339.548c.186.248.684.821,1.107,1.273l.769.823.18,1.8c.1.989.267,2.413.374,3.164s.292,1.809.412,2.351.258,1.322.307,1.732a7.394,7.394,0,0,1,.035,1.31c-.05.535-.042.58.157.867a6.605,6.605,0,0,0,.711.776,8.784,8.784,0,0,0,.949.769c.246.163.758.459,1.137.658s1.2.572,1.827.829,1.334.572,1.575.7a3.061,3.061,0,0,1,.7.522,4.124,4.124,0,0,1,.494.749,3.213,3.213,0,0,0,.381.609.526.526,0,0,0,.309.149.838.838,0,0,0,.411-.252,1.143,1.143,0,0,0,.3-.531,1.4,1.4,0,0,0-.077-.677,2.64,2.64,0,0,0-.316-.644,1.469,1.469,0,0,0-.4-.357,3.178,3.178,0,0,0-.736-.189c-.287-.043-.634-.1-.771-.121a.59.59,0,0,1-.408-.756,1.164,1.164,0,0,0,.089-.4.492.492,0,0,0-.083-.292c-.06-.06-.06-.126,0-.238a.359.359,0,0,0-.011-.362c-.076-.167-.075-.213,0-.24a1.341,1.341,0,0,0,.3-.2c.2-.172.2-.172.052-.382-.081-.116-.182-.257-.224-.314s-.04-.167.041-.312a.29.29,0,0,1,.353-.184,1.853,1.853,0,0,0,.546-.059,1.565,1.565,0,0,0,.517-.261c.186-.16.212-.245.258-.835a1.872,1.872,0,0,1,.333-1.114,2.516,2.516,0,0,0,.32-.744,2.123,2.123,0,0,0-.084-.708A3.166,3.166,0,0,1,23.927,40a2.019,2.019,0,0,1,.182-.681,3.369,3.369,0,0,1,.458-.7,3.783,3.783,0,0,1,.635-.536,5.693,5.693,0,0,1,.878-.426,9.734,9.734,0,0,1,1.06-.318,8.193,8.193,0,0,1,1.639-.124,6.307,6.307,0,0,1,1.75.158,11.683,11.683,0,0,1,1.248.4c.329.131,1.265.557,2.08.946s1.619.746,1.786.791a2.479,2.479,0,0,0,.508.082.767.767,0,0,0,.752-.481,1.427,1.427,0,0,0,.18-.82c0-.468-.031-.567-.435-1.342a2.674,2.674,0,0,1-.436-1.172.837.837,0,0,1,.159-.537,1.8,1.8,0,0,1,.512-.379,3.514,3.514,0,0,1,.58-.231c.216-.052.211-.042-.092.177a1.7,1.7,0,0,0-.436.457,1.275,1.275,0,0,0-.116.493A2.789,2.789,0,0,0,37,36.5c.1.262.335.785.525,1.164A8.577,8.577,0,0,1,38,38.793a2.224,2.224,0,0,1,.09.781.892.892,0,0,1-.2.5c-.145.145-.226.158-.748.128-.322-.019-.858-.036-1.192-.038a4.4,4.4,0,0,0-.815.055c-.132.037-.209.11-.209.2a.864.864,0,0,0,.285.4,6.042,6.042,0,0,0,.747.538,9.419,9.419,0,0,0,.994.507,11.173,11.173,0,0,0,1.13.394,4.764,4.764,0,0,0,1.243.171,1.724,1.724,0,0,0,.973-.169,1.035,1.035,0,0,0,.528-.6,2.336,2.336,0,0,0,.2-1.266,5.436,5.436,0,0,0-.132-1.327c-.072-.271-.321-1.022-.554-1.669a10.1,10.1,0,0,1-.462-1.6,1.343,1.343,0,0,1,.12-.783,3.671,3.671,0,0,1,.4-.659,4.288,4.288,0,0,1,.715-.64,8.468,8.468,0,0,1,1.111-.636,8.025,8.025,0,0,1,1.581-.5c.521-.113,1.2-.286,1.517-.386a5.747,5.747,0,0,0,.87-.353,1.715,1.715,0,0,0,.481-.436.933.933,0,0,0,.147-.757,3.116,3.116,0,0,0-.1-.645c-.061-.149-.059-.149.1-.01a1.44,1.44,0,0,1,.288.472,1.674,1.674,0,0,1,.092.746,1.7,1.7,0,0,1-.259.779,1.84,1.84,0,0,1-.625.6,2.64,2.64,0,0,1-.945.328c-.3.048-.719.135-.933.195a3.078,3.078,0,0,0-.752.355,2.788,2.788,0,0,0-.559.511l-.2.263.265-.172c.146-.094.419-.251.607-.348a6.755,6.755,0,0,1,.758-.318,3.355,3.355,0,0,1,1.176-.136,10.753,10.753,0,0,1,1.631.172,10,10,0,0,0,1.443.168,3.063,3.063,0,0,0,.8-.083,1.8,1.8,0,0,0,.947-.857l.226-.393v.307a1.821,1.821,0,0,1-.2.7,1.783,1.783,0,0,1-.419.552,1.983,1.983,0,0,1-.505.24l-.282.081.265.073a3.256,3.256,0,0,0,.826.031,2.506,2.506,0,0,0,1.024-.269,3.108,3.108,0,0,0,1.3-1.185,2.123,2.123,0,0,0,.22-.913,7.56,7.56,0,0,1,.2-1.176,7.7,7.7,0,0,1,.428-1.12,4.931,4.931,0,0,1,.612-.932,2.778,2.778,0,0,1,.571-.5.986.986,0,0,1,.6-.075,2.167,2.167,0,0,1,.7.237,1.878,1.878,0,0,1,.37.258c.022.036-.1.013-.281-.051a1.156,1.156,0,0,0-.612-.061,1.4,1.4,0,0,0-.621.36,3.372,3.372,0,0,0-.523.633,3.611,3.611,0,0,0-.3.759,10.465,10.465,0,0,0-.159,1.543,11.33,11.33,0,0,1-.157,1.566,5.824,5.824,0,0,1-.3.87,5.193,5.193,0,0,1-.481.8,2.227,2.227,0,0,1-.75.63,5.651,5.651,0,0,1-1.042.394,8.615,8.615,0,0,1-1.275.2,12.164,12.164,0,0,1-2.142-.119,6.648,6.648,0,0,0-1.88-.086,3.432,3.432,0,0,0-.677.2,3.249,3.249,0,0,0-.539.358,3.664,3.664,0,0,0-.586.7,4.589,4.589,0,0,0-.444.941,3.992,3.992,0,0,0-.151,1.234,9.239,9.239,0,0,0,.151,1.528c.083.43.3,1.31.488,1.957s.373,1.4.417,1.669a8.572,8.572,0,0,1,.078,1.138,11.278,11.278,0,0,1-.071,1.176c-.038.292-.093.684-.123.872-.052.33-.049.337.091.217a3.583,3.583,0,0,1,.541-.323,5.03,5.03,0,0,1,.91-.32A3.3,3.3,0,0,1,47.1,47.28a4.843,4.843,0,0,1,.98.2,4.5,4.5,0,0,1,.8.38,3.4,3.4,0,0,1,.537.426c.185.2.185.2-.288-.037a5.249,5.249,0,0,0-.948-.349,4.571,4.571,0,0,0-.854-.112,3.6,3.6,0,0,0-.77.1,4.668,4.668,0,0,0-.8.317,10.486,10.486,0,0,0-1.733,1.547c-.73.734-1.543,1.513-1.807,1.732s-.725.563-1.024.764a10.985,10.985,0,0,1-1,.594,9.622,9.622,0,0,1-.986.409,3.653,3.653,0,0,1-1.441.181,3.607,3.607,0,0,1-1.528-.212,6.845,6.845,0,0,1-1.09-.5c-.26-.157-.73-.488-1.045-.736a10.39,10.39,0,0,1-1.138-1.1c-.311-.355-.7-.845-.867-1.089a5.759,5.759,0,0,0-.6-.737,3.3,3.3,0,0,0-.708-.491,2.83,2.83,0,0,0-.852-.239,2.4,2.4,0,0,0-.9.088,3.093,3.093,0,0,0-.739.326,2.016,2.016,0,0,0-.493.544,1.426,1.426,0,0,0-.2.917,1.716,1.716,0,0,0,.193.948,1.683,1.683,0,0,0,.607.658c.228.154.772.466,1.21.692s1.013.492,1.277.591a2.26,2.26,0,0,1,.986.711,4.761,4.761,0,0,1,.747,1.024,10.17,10.17,0,0,1,.5,1.555,13.406,13.406,0,0,0,.691,2.048,29,29,0,0,0,1.461,2.7l1.032,1.715.538.1a9.031,9.031,0,0,1,.993.244,9.584,9.584,0,0,1,.939.377c.266.126,1.062.619,1.77,1.1s1.565,1.007,1.906,1.179.892.422,1.225.556c.607.243.607.243,1.024,1.033.229.434.535.976.679,1.2s.5.756.795,1.174a16.442,16.442,0,0,0,1.369,1.619c.46.473,1.168,1.152,1.573,1.508a3.425,3.425,0,0,1,.7.713.392.392,0,0,1-.258.065,1.405,1.405,0,0,1-.417-.076,5.8,5.8,0,0,1-.9-.7c-.384-.345-.845-.742-1.025-.883L46.9,71.8l.051.3a10.2,10.2,0,0,0,.464,1.281c.227.542.432,1.029.455,1.081s-.018.095-.117.095a.766.766,0,0,1-.384-.209,3.9,3.9,0,0,1-.611-1.155c-.212-.521-.471-1.092-.575-1.27a1.178,1.178,0,0,0-.234-.323c-.024,0-.022.14.005.312a11.244,11.244,0,0,0,.313,1.126c.145.448.263.852.263.9s-.064.061-.23,0a.671.671,0,0,1-.331-.28,2.213,2.213,0,0,1-.155-.5,8,8,0,0,0-.283-.929c-.175-.485-.262-.633-.37-.633s-.155.073-.186.246a4.9,4.9,0,0,0,.023.929,6.049,6.049,0,0,1,.049.707.647.647,0,0,1-.254-.1,1.836,1.836,0,0,1-.242-.138c0-.009-.031-.388-.061-.842-.047-.736-.072-.84-.229-.967A.634.634,0,0,0,44,71.294c-.048,0-.133.073-.188.162a2.176,2.176,0,0,0-.166.62,1.057,1.057,0,0,1-.249.642.872.872,0,0,1-.535.224c-.231.026-.35.011-.35-.045a3.074,3.074,0,0,1,.257-.569,3.237,3.237,0,0,0,.309-.863A3.9,3.9,0,0,0,43,70.375c-.07-.391-.152-1.062-.181-1.49-.042-.6-.088-.825-.208-.986a1.962,1.962,0,0,0-.4-.373,2.18,2.18,0,0,0-.637-.25c-.217-.047-1.12-.118-2.006-.158S37.7,67,37.395,66.937a7.343,7.343,0,0,1-1.082-.312A8.988,8.988,0,0,1,35.4,66.2a5.371,5.371,0,0,1-.808-.6,19.046,19.046,0,0,1-1.428-1.72c-.56-.74-1.189-1.6-1.4-1.914s-.558-.911-.775-1.33a11.264,11.264,0,0,0-.777-1.27,5.479,5.479,0,0,0-.716-.784c-.335-.275-.335-.275-.582-.085-.136.1-.793.658-1.46,1.229s-1.359,1.175-1.537,1.341a2.929,2.929,0,0,0-.514.677,10.582,10.582,0,0,0-.428,1.075,3.66,3.66,0,0,0-.243,1.5,4.223,4.223,0,0,0,.138,1.277,4.44,4.44,0,0,0,.444.948,18.9,18.9,0,0,0,1.719,1.871,23.335,23.335,0,0,1,2.04,2.238,13.024,13.024,0,0,1,1.114,1.82,9.974,9.974,0,0,1,.691,1.744,5.775,5.775,0,0,1,.2,1.82,5.947,5.947,0,0,1-.158,1.706,10.559,10.559,0,0,1-.424,1.265,8.7,8.7,0,0,1-.63,1.176,8.563,8.563,0,0,1-.9,1.088,8.991,8.991,0,0,1-1.132.932,12.59,12.59,0,0,1-1.3.732c-.383.183-1.325.557-2.093.833l-2.269.815c-.48.173-1.248.475-1.706.67s-1.227.546-1.706.78-1.29.664-1.8.957-1.279.767-1.707,1.054-1.051.737-1.384,1-.994.856-1.467,1.319-1.143,1.182-1.487,1.6-.87,1.115-1.169,1.55A6.105,6.105,0,0,0,9.1,94.678a5.462,5.462,0,0,0-.157.839,3.448,3.448,0,0,0,.069,1.007,5.34,5.34,0,0,0,.319.973,4.509,4.509,0,0,0,.66.918,3.2,3.2,0,0,0,1.072.788,3.692,3.692,0,0,0,1.161.371,4.772,4.772,0,0,0,1.138,0c.326-.04.933-.143,1.35-.228s1.259-.32,1.871-.521A20.977,20.977,0,0,0,18.651,98a17.521,17.521,0,0,0,1.694-.942c.405-.266.993-.691,1.306-.944s.9-.745,1.294-1.094.783-.681.853-.738q.128-.1-.141.488a11.322,11.322,0,0,0-.461,1.242,6.793,6.793,0,0,0-.234,1.39,3.362,3.362,0,0,0,.093,1.243,1.66,1.66,0,0,0,.453.834c.317.331.317.331.89.331a4.4,4.4,0,0,0,1.245-.195c.37-.107.894-.281,1.165-.387s.992-.44,1.6-.742,1.4-.736,1.744-.964a7.639,7.639,0,0,0,1.007-.787,2.98,2.98,0,0,0,.51-.677,1.764,1.764,0,0,0,.138-.608,1.858,1.858,0,0,0-.151-.635,8.009,8.009,0,0,0-.5-.861,7.065,7.065,0,0,1-.578-1.109,3.586,3.586,0,0,1-.264-1.265,3.713,3.713,0,0,1,.12-1.308A8.576,8.576,0,0,1,30.894,89a13.16,13.16,0,0,1,.734-1.308c.238-.365.648-.942.912-1.281s.827-.97,1.251-1.4.644-.639.49-.458-.478.63-.719,1a9.281,9.281,0,0,0-.676,1.237,10.248,10.248,0,0,0-.357,1.012,6.779,6.779,0,0,0-.162,1.089,4.78,4.78,0,0,0,.045,1.062,4.457,4.457,0,0,0,.265.8,3.332,3.332,0,0,0,.423.664.887.887,0,0,0,.349.279c.057,0,.142-.073.19-.163a7.053,7.053,0,0,0,.152-1.308c.036-.63.1-1.436.153-1.79a8.918,8.918,0,0,1,.237-1.138,6.483,6.483,0,0,1,.389-.946,4.611,4.611,0,0,1,.656-.879,3.42,3.42,0,0,1,.986-.7,14.613,14.613,0,0,1,1.782-.614c.667-.188,1.57-.466,2-.617s1.1-.422,1.484-.6a13.5,13.5,0,0,0,1.3-.714,6.747,6.747,0,0,0,1.029-.831,4.331,4.331,0,0,0,.611-.817,7.355,7.355,0,0,0,.365-.944,4.423,4.423,0,0,0,.178-1.515c0-.521-.02-1.153-.048-1.4l-.052-.455.346.712c.19.391.491,1.125.67,1.631s.416,1.329.529,1.829.252,1.3.309,1.782.105,1.218.107,1.642-.034,1.123-.077,1.555-.15,1.127-.235,1.544-.273,1.117-.417,1.555a17.258,17.258,0,0,1-.743,1.782c-.265.542-.655,1.25-.867,1.574-.3.458-.356.588-.254.587A6.2,6.2,0,0,0,45.1,92.2a8.135,8.135,0,0,0,1.251-.562,9.773,9.773,0,0,0,1.01-.719,7.223,7.223,0,0,0,.924-.973,8.818,8.818,0,0,0,.734-1.17,7.828,7.828,0,0,0,.459-1.176,9.16,9.16,0,0,0,.223-1.236,4.055,4.055,0,0,1,.107-.707,2.156,2.156,0,0,1,.1.629c.035.368.063,1.522.061,2.565a18.572,18.572,0,0,1-.136,2.768c-.073.48-.231,1.282-.351,1.782s-.327,1.231-.458,1.622-.37,1.009-.529,1.372a11.512,11.512,0,0,1-.539,1.07c-.137.226-.4.615-.592.866a12.454,12.454,0,0,1-.955,1.062,10.679,10.679,0,0,1-1.2,1.009,11.759,11.759,0,0,1-1.173.7,9.471,9.471,0,0,1-1.157.47,3.843,3.843,0,0,1-1.289.177,2.068,2.068,0,0,1-1.024-.152,3.263,3.263,0,0,1-.834-.818,7.406,7.406,0,0,0-.864-.929c-.183-.145-.339-.263-.347-.263a4.865,4.865,0,0,0,.212.457,2.652,2.652,0,0,1,.276,1.27,1.826,1.826,0,0,0,.658,1.655,3.906,3.906,0,0,0,.832.572,2.546,2.546,0,0,0,1.19.288l.7.045-.571.281a4.778,4.778,0,0,1-1.106.373,2.762,2.762,0,0,1-1.041.008,4.4,4.4,0,0,1-.923-.275,3.729,3.729,0,0,1-.824-.576,3.921,3.921,0,0,1-.643-.828c-.13-.243-.389-.839-.576-1.323s-.441-1.079-.563-1.322a4.636,4.636,0,0,0-.577-.835,1.4,1.4,0,0,0-.659-.476,1.349,1.349,0,0,0-.676,0,6.287,6.287,0,0,0-.846.272,11.289,11.289,0,0,0-1.2.622c-.4.236-1.949,1.253-3.451,2.259s-3.225,2.115-3.83,2.464-1.612.881-2.237,1.182-1.473.671-1.883.823-1.144.391-1.631.531-1.21.313-1.606.386a14.956,14.956,0,0,1-2.313.154ZM49.758,85.38c-.025.025-.043-.02-.04-.1s.022-.106.046-.046a.153.153,0,0,1-.006.145Z" transform="translate(-1.706 -22.199)" fill="#e9f1f2"/>
  <text id="SirenSeek" transform="translate(60.629 51)" fill="#e9f1f2" font-size="62" font-family="Perpetua-Bold, Perpetua" font-weight="700" letter-spacing="0.015em"><tspan x="0" y="0">SirenSeek</tspan></text>
  <text id="Recruitment_Firm" data-name="Recruitment Firm" transform="translate(193.126 80.475)" fill="#e9f1f2" font-size="20" font-family="Calibri-Light, Calibri" font-weight="300" letter-spacing="0.324em"><tspan x="-130.641" y="0">RECRUITMENT FIRM</tspan></text>
</svg>
