<svg xmlns="http://www.w3.org/2000/svg" width="321.617" height="79.523" viewBox="0 0 321.617 79.523">
  <g id="Logos" transform="translate(0.005 -5.873)">
    <path id="path861" d="M15.242,107.588c-.876.012-1.9-.011-2.275-.051s-1.177-.172-1.782-.293a18.763,18.763,0,0,1-2-.531,15.9,15.9,0,0,1-1.593-.658,14.281,14.281,0,0,1-1.37-.81,10.538,10.538,0,0,1-1.251-1.039,11.211,11.211,0,0,1-.917-1.045c-.188-.257-.52-.766-.739-1.13a14.339,14.339,0,0,1-.7-1.346,13.221,13.221,0,0,1-.49-1.344,13.487,13.487,0,0,1-.308-1.451,15.833,15.833,0,0,1-.116-2,19.147,19.147,0,0,1,.108-2c.058-.439.2-1.2.308-1.7s.337-1.3.5-1.8.463-1.266.661-1.715.577-1.191.84-1.65.7-1.149.965-1.533.8-1.084,1.181-1.555,1.192-1.352,1.8-1.96,1.5-1.43,1.976-1.828,1.282-1.029,1.782-1.4,1.432-1.049,2.07-1.5,1.486-1.1,1.885-1.432a10.8,10.8,0,0,0,1.14-1.106,7.745,7.745,0,0,0,.668-.955A6.035,6.035,0,0,0,18,72.784a3.959,3.959,0,0,0,.157-1.251A7.244,7.244,0,0,0,18,70.119c-.083-.375-.326-1.194-.54-1.82a16.389,16.389,0,0,1-.531-1.934,18.459,18.459,0,0,1-.188-2.2,19.507,19.507,0,0,1,.036-2.2,8.189,8.189,0,0,1,.549-2.143c.466-1.342.466-1.342.279-1.588a4.6,4.6,0,0,1-.356-.577,2.92,2.92,0,0,1-.231-.72,3.122,3.122,0,0,1,.009-.834,3.254,3.254,0,0,1,.249-.8,2.11,2.11,0,0,1,.319-.479,10.713,10.713,0,0,1,1.4-.617l1.251-.489V53.19a1.853,1.853,0,0,0-.21-.949,2.944,2.944,0,0,0-.539-.728,4.236,4.236,0,0,0-.8-.543c-.257-.13-.746-.338-1.087-.464a11.041,11.041,0,0,1-1.175-.527,9.2,9.2,0,0,1-1.024-.658,11.476,11.476,0,0,1-.987-.888,13.543,13.543,0,0,1-.974-1.139c-.25-.335-.637-.917-.859-1.292a2.656,2.656,0,0,1-.486-1.32,14.642,14.642,0,0,1-.082-1.519,17.61,17.61,0,0,1,.113-1.789c.062-.5.183-1.3.269-1.78s.263-1.282.392-1.782a6.609,6.609,0,0,0,.241-1.479,2.974,2.974,0,0,0-.131-.965,2.667,2.667,0,0,0-.466-.762,2.881,2.881,0,0,0-.6-.509.572.572,0,0,0-.577-.05,1.8,1.8,0,0,0-.562.314,1.856,1.856,0,0,0-.39.53c-.077.17-.176.3-.222.282a.507.507,0,0,1-.148-.287,1.2,1.2,0,0,1,.021-.578,2.066,2.066,0,0,1,.468-.736,2.393,2.393,0,0,0,.449-.652,1.846,1.846,0,0,0,0-.667.918.918,0,0,0-.257-.6c-.162-.142-.25-.158-.647-.122s-.459.023-.459-.083a.121.121,0,0,1,.116-.124,1.526,1.526,0,0,0,.4-.117c.222-.093.257-.132.168-.188a2.059,2.059,0,0,0-.643-.073,2.213,2.213,0,0,1-.712-.1.9.9,0,0,1-.288-.256c-.1-.16-.1-.161.23-.09a3.124,3.124,0,0,0,.7.048l.368-.023-.551-.286c-.3-.157-.738-.356-.967-.442a1.178,1.178,0,0,1-.495-.3c-.044-.082-.048-.146-.009-.146a1.575,1.575,0,0,1,.325.1,3.2,3.2,0,0,0,.5.15c.136.025.246.02.246-.011a1.621,1.621,0,0,0-.379-.341c-.29-.216-.379-.331-.379-.485,0-.2,0-.2.209-.009a6.884,6.884,0,0,0,.664.5c.25.167.645.41.878.541a2.713,2.713,0,0,0,.781.287.652.652,0,0,1,.586.38,4.551,4.551,0,0,0,.413.517.638.638,0,0,1,.186.284,2.255,2.255,0,0,0,.339.548c.186.248.684.821,1.107,1.273l.769.823.18,1.8c.1.989.267,2.413.374,3.164s.292,1.809.412,2.351.258,1.322.307,1.732a7.394,7.394,0,0,1,.035,1.31c-.05.535-.042.58.157.867a6.605,6.605,0,0,0,.711.776,8.784,8.784,0,0,0,.949.769c.246.163.758.459,1.137.658s1.2.572,1.827.829,1.334.572,1.575.7a3.061,3.061,0,0,1,.7.522,4.124,4.124,0,0,1,.494.749,3.213,3.213,0,0,0,.381.609.526.526,0,0,0,.309.149.838.838,0,0,0,.411-.252,1.143,1.143,0,0,0,.3-.531,1.4,1.4,0,0,0-.077-.677,2.64,2.64,0,0,0-.316-.644,1.469,1.469,0,0,0-.4-.357,3.178,3.178,0,0,0-.736-.189c-.287-.043-.634-.1-.771-.121a.59.59,0,0,1-.408-.756,1.164,1.164,0,0,0,.089-.4.492.492,0,0,0-.083-.292c-.06-.06-.06-.126,0-.238a.359.359,0,0,0-.011-.362c-.076-.167-.075-.213,0-.24a1.341,1.341,0,0,0,.3-.2c.2-.172.2-.172.052-.382-.081-.116-.182-.257-.224-.314s-.04-.167.041-.312a.29.29,0,0,1,.353-.184,1.853,1.853,0,0,0,.546-.059,1.565,1.565,0,0,0,.517-.261c.186-.16.212-.245.258-.835a1.872,1.872,0,0,1,.333-1.114,2.516,2.516,0,0,0,.32-.744,2.123,2.123,0,0,0-.084-.708,3.166,3.166,0,0,1-.12-.721,2.019,2.019,0,0,1,.182-.681,3.369,3.369,0,0,1,.458-.7,3.783,3.783,0,0,1,.635-.536,5.693,5.693,0,0,1,.878-.426,9.735,9.735,0,0,1,1.06-.318,8.193,8.193,0,0,1,1.639-.124,6.307,6.307,0,0,1,1.75.158,11.682,11.682,0,0,1,1.248.4c.329.131,1.265.557,2.08.946s1.619.746,1.786.791a2.479,2.479,0,0,0,.508.082.767.767,0,0,0,.752-.481,1.427,1.427,0,0,0,.18-.82c0-.468-.031-.567-.435-1.342a2.674,2.674,0,0,1-.436-1.172.837.837,0,0,1,.159-.537,1.8,1.8,0,0,1,.512-.379,3.514,3.514,0,0,1,.58-.231c.216-.052.211-.042-.092.177a1.7,1.7,0,0,0-.436.457,1.275,1.275,0,0,0-.116.493A2.789,2.789,0,0,0,37,36.5c.1.262.335.785.525,1.164A8.577,8.577,0,0,1,38,38.793a2.224,2.224,0,0,1,.09.781.892.892,0,0,1-.2.5c-.145.145-.226.158-.748.128-.322-.019-.858-.036-1.192-.038a4.4,4.4,0,0,0-.815.055c-.132.037-.209.11-.209.2a.864.864,0,0,0,.285.4,6.041,6.041,0,0,0,.747.538,9.419,9.419,0,0,0,.994.507,11.172,11.172,0,0,0,1.13.394,4.764,4.764,0,0,0,1.243.171,1.724,1.724,0,0,0,.973-.169,1.035,1.035,0,0,0,.528-.6,2.336,2.336,0,0,0,.2-1.266,5.436,5.436,0,0,0-.132-1.327c-.072-.271-.321-1.022-.554-1.669a10.1,10.1,0,0,1-.462-1.6,1.343,1.343,0,0,1,.12-.783,3.671,3.671,0,0,1,.4-.659,4.288,4.288,0,0,1,.715-.64,8.468,8.468,0,0,1,1.111-.636,8.025,8.025,0,0,1,1.581-.5c.521-.113,1.2-.286,1.517-.386a5.747,5.747,0,0,0,.87-.353,1.715,1.715,0,0,0,.481-.436.933.933,0,0,0,.147-.757,3.116,3.116,0,0,0-.1-.645c-.061-.149-.059-.149.1-.01a1.44,1.44,0,0,1,.288.472,1.674,1.674,0,0,1,.092.746,1.7,1.7,0,0,1-.259.779,1.84,1.84,0,0,1-.625.6,2.64,2.64,0,0,1-.945.328c-.3.048-.719.135-.933.195a3.078,3.078,0,0,0-.752.355,2.788,2.788,0,0,0-.559.511l-.2.263.265-.172c.146-.094.419-.251.607-.348a6.755,6.755,0,0,1,.758-.318,3.355,3.355,0,0,1,1.176-.136,10.753,10.753,0,0,1,1.631.172,10,10,0,0,0,1.443.168,3.063,3.063,0,0,0,.8-.083,1.8,1.8,0,0,0,.947-.857l.226-.393v.307a1.821,1.821,0,0,1-.2.7,1.783,1.783,0,0,1-.419.552,1.983,1.983,0,0,1-.505.24l-.282.081.265.073a3.256,3.256,0,0,0,.826.031,2.506,2.506,0,0,0,1.024-.269,3.108,3.108,0,0,0,1.3-1.185,2.123,2.123,0,0,0,.22-.913,7.56,7.56,0,0,1,.2-1.176,7.7,7.7,0,0,1,.428-1.12,4.931,4.931,0,0,1,.612-.932,2.778,2.778,0,0,1,.571-.5.986.986,0,0,1,.6-.075,2.167,2.167,0,0,1,.7.237,1.878,1.878,0,0,1,.37.258c.022.036-.1.013-.281-.051a1.156,1.156,0,0,0-.612-.061,1.4,1.4,0,0,0-.621.36,3.372,3.372,0,0,0-.523.633,3.611,3.611,0,0,0-.3.759,10.466,10.466,0,0,0-.159,1.543,11.33,11.33,0,0,1-.157,1.566,5.824,5.824,0,0,1-.3.87,5.193,5.193,0,0,1-.481.8,2.227,2.227,0,0,1-.75.63,5.651,5.651,0,0,1-1.042.394,8.615,8.615,0,0,1-1.275.2,12.164,12.164,0,0,1-2.142-.119,6.648,6.648,0,0,0-1.88-.086,3.432,3.432,0,0,0-.677.2,3.249,3.249,0,0,0-.539.358,3.664,3.664,0,0,0-.586.7,4.59,4.59,0,0,0-.444.941,3.992,3.992,0,0,0-.151,1.234,9.239,9.239,0,0,0,.151,1.528c.083.43.3,1.31.488,1.957s.373,1.4.417,1.669a8.571,8.571,0,0,1,.078,1.138,11.277,11.277,0,0,1-.071,1.176c-.038.292-.093.684-.123.872-.052.33-.049.337.091.217a3.583,3.583,0,0,1,.541-.323,5.03,5.03,0,0,1,.91-.32A3.3,3.3,0,0,1,47.1,47.28a4.843,4.843,0,0,1,.98.2,4.5,4.5,0,0,1,.8.38,3.4,3.4,0,0,1,.537.426c.185.2.185.2-.288-.037a5.249,5.249,0,0,0-.948-.349,4.571,4.571,0,0,0-.854-.112,3.6,3.6,0,0,0-.77.1,4.668,4.668,0,0,0-.8.317,10.486,10.486,0,0,0-1.733,1.547c-.73.734-1.543,1.513-1.807,1.732s-.725.563-1.024.764a10.984,10.984,0,0,1-1,.594,9.622,9.622,0,0,1-.986.409,3.653,3.653,0,0,1-1.441.181,3.607,3.607,0,0,1-1.528-.212,6.845,6.845,0,0,1-1.09-.5,12.711,12.711,0,0,1-1.045-.736,10.391,10.391,0,0,1-1.138-1.1c-.311-.355-.7-.845-.867-1.089a5.759,5.759,0,0,0-.6-.737,3.3,3.3,0,0,0-.708-.491,2.83,2.83,0,0,0-.852-.239,2.4,2.4,0,0,0-.9.088,3.093,3.093,0,0,0-.739.326,2.016,2.016,0,0,0-.493.544,1.426,1.426,0,0,0-.2.917,1.716,1.716,0,0,0,.193.948,1.683,1.683,0,0,0,.607.658c.228.154.772.466,1.21.692s1.013.492,1.277.591a2.26,2.26,0,0,1,.986.711,4.761,4.761,0,0,1,.747,1.024,10.17,10.17,0,0,1,.5,1.555,13.406,13.406,0,0,0,.691,2.048,29,29,0,0,0,1.461,2.7l1.032,1.715.538.1a9.032,9.032,0,0,1,.993.244,9.582,9.582,0,0,1,.939.377,20.37,20.37,0,0,1,1.77,1.1c.708.481,1.565,1.007,1.906,1.179s.892.422,1.225.556c.607.243.607.243,1.024,1.033.229.434.535.976.679,1.2s.5.756.795,1.174a16.444,16.444,0,0,0,1.369,1.619c.46.473,1.168,1.152,1.573,1.508a3.425,3.425,0,0,1,.7.713.392.392,0,0,1-.258.065,1.405,1.405,0,0,1-.417-.076,5.8,5.8,0,0,1-.9-.7c-.384-.345-.845-.742-1.025-.883L46.9,71.8l.051.3a10.2,10.2,0,0,0,.464,1.281c.227.542.432,1.029.455,1.081s-.018.1-.117.1a.766.766,0,0,1-.384-.209,3.9,3.9,0,0,1-.611-1.155c-.212-.521-.471-1.092-.575-1.27a1.178,1.178,0,0,0-.234-.323c-.024,0-.022.14.005.312a11.245,11.245,0,0,0,.313,1.126c.145.448.263.852.263.9s-.064.061-.23,0a.671.671,0,0,1-.331-.28,2.213,2.213,0,0,1-.155-.5,8,8,0,0,0-.283-.929c-.175-.485-.262-.633-.37-.633s-.155.073-.186.246a4.9,4.9,0,0,0,.023.929,6.049,6.049,0,0,1,.049.707.647.647,0,0,1-.254-.1,1.837,1.837,0,0,1-.242-.138c0-.009-.031-.388-.061-.842-.047-.736-.072-.84-.229-.967A.634.634,0,0,0,44,71.294c-.048,0-.133.073-.188.162a2.176,2.176,0,0,0-.166.62,1.057,1.057,0,0,1-.249.642.872.872,0,0,1-.535.224c-.231.026-.35.011-.35-.045a3.074,3.074,0,0,1,.257-.569,3.237,3.237,0,0,0,.309-.863A3.9,3.9,0,0,0,43,70.375c-.07-.391-.152-1.062-.181-1.49a1.873,1.873,0,0,0-.208-.986,1.962,1.962,0,0,0-.4-.373,2.18,2.18,0,0,0-.637-.25c-.217-.047-1.12-.118-2.006-.158a21.411,21.411,0,0,1-2.173-.181,7.343,7.343,0,0,1-1.082-.312A8.988,8.988,0,0,1,35.4,66.2a5.371,5.371,0,0,1-.808-.6,19.047,19.047,0,0,1-1.428-1.72c-.56-.74-1.189-1.6-1.4-1.914s-.558-.911-.775-1.33a11.264,11.264,0,0,0-.777-1.27,5.479,5.479,0,0,0-.716-.784c-.335-.275-.335-.275-.582-.085-.136.1-.793.658-1.46,1.229S26.1,60.9,25.917,61.067a2.929,2.929,0,0,0-.514.677,10.581,10.581,0,0,0-.428,1.075,3.66,3.66,0,0,0-.243,1.5A4.223,4.223,0,0,0,24.87,65.6a4.44,4.44,0,0,0,.444.948,18.9,18.9,0,0,0,1.719,1.871,23.335,23.335,0,0,1,2.04,2.238,13.023,13.023,0,0,1,1.114,1.82,9.974,9.974,0,0,1,.691,1.744,5.775,5.775,0,0,1,.2,1.82,5.947,5.947,0,0,1-.158,1.706,10.559,10.559,0,0,1-.424,1.265,8.7,8.7,0,0,1-.63,1.176,8.563,8.563,0,0,1-.9,1.088,8.99,8.99,0,0,1-1.132.932,12.591,12.591,0,0,1-1.3.732c-.383.183-1.325.557-2.093.833l-2.269.815c-.48.173-1.248.475-1.706.67s-1.227.546-1.706.78-1.29.664-1.8.957-1.279.767-1.707,1.054-1.051.737-1.384,1-.994.856-1.467,1.319-1.143,1.182-1.487,1.6-.87,1.115-1.169,1.55A6.1,6.1,0,0,0,9.1,94.678a5.462,5.462,0,0,0-.157.839,3.448,3.448,0,0,0,.069,1.007,5.34,5.34,0,0,0,.319.973,4.509,4.509,0,0,0,.66.918,3.2,3.2,0,0,0,1.072.788,3.692,3.692,0,0,0,1.161.371,4.772,4.772,0,0,0,1.138,0c.326-.04.933-.143,1.35-.228s1.259-.32,1.871-.521A20.978,20.978,0,0,0,18.651,98a17.523,17.523,0,0,0,1.694-.942c.405-.266.993-.691,1.306-.944s.9-.745,1.294-1.094.783-.681.853-.738q.128-.1-.141.488a11.322,11.322,0,0,0-.461,1.242,6.793,6.793,0,0,0-.234,1.39,3.362,3.362,0,0,0,.093,1.243,1.66,1.66,0,0,0,.453.834c.317.331.317.331.89.331a4.4,4.4,0,0,0,1.245-.195c.37-.107.894-.281,1.165-.387s.992-.44,1.6-.742,1.4-.736,1.744-.964a7.638,7.638,0,0,0,1.007-.787,2.98,2.98,0,0,0,.51-.677,1.764,1.764,0,0,0,.138-.608,1.858,1.858,0,0,0-.151-.635,8.01,8.01,0,0,0-.5-.861,7.065,7.065,0,0,1-.578-1.109,3.586,3.586,0,0,1-.264-1.265,3.713,3.713,0,0,1,.12-1.308A8.576,8.576,0,0,1,30.894,89a13.161,13.161,0,0,1,.734-1.308c.238-.365.648-.942.912-1.281s.827-.97,1.251-1.4.644-.639.49-.458-.478.63-.719,1a9.281,9.281,0,0,0-.676,1.237,10.248,10.248,0,0,0-.357,1.012,6.778,6.778,0,0,0-.162,1.089,4.78,4.78,0,0,0,.045,1.062,4.457,4.457,0,0,0,.265.8,3.332,3.332,0,0,0,.423.664.887.887,0,0,0,.349.279c.057,0,.142-.073.19-.163a7.053,7.053,0,0,0,.152-1.308c.036-.63.1-1.436.153-1.79a8.919,8.919,0,0,1,.237-1.138,6.483,6.483,0,0,1,.389-.946,4.611,4.611,0,0,1,.656-.879,3.42,3.42,0,0,1,.986-.7,14.613,14.613,0,0,1,1.782-.614c.667-.188,1.57-.466,2-.617s1.1-.422,1.484-.6a13.5,13.5,0,0,0,1.3-.714,6.747,6.747,0,0,0,1.029-.831,4.331,4.331,0,0,0,.611-.817,7.354,7.354,0,0,0,.365-.944,4.423,4.423,0,0,0,.178-1.515c0-.521-.02-1.153-.048-1.4l-.052-.455.346.712c.19.391.491,1.125.67,1.631s.416,1.329.529,1.829.252,1.3.309,1.782.1,1.218.107,1.642-.034,1.123-.077,1.555-.15,1.127-.235,1.544-.273,1.117-.417,1.555A17.256,17.256,0,0,1,45.35,90.3c-.265.542-.655,1.25-.867,1.574-.3.458-.356.588-.254.587A6.2,6.2,0,0,0,45.1,92.2a8.136,8.136,0,0,0,1.251-.562,9.772,9.772,0,0,0,1.01-.719,7.223,7.223,0,0,0,.924-.973,8.819,8.819,0,0,0,.734-1.17,7.827,7.827,0,0,0,.459-1.176,9.159,9.159,0,0,0,.223-1.236,4.055,4.055,0,0,1,.107-.707,2.156,2.156,0,0,1,.1.629c.035.368.063,1.522.061,2.565a18.572,18.572,0,0,1-.136,2.768c-.073.48-.231,1.282-.351,1.782s-.327,1.231-.458,1.622-.37,1.009-.529,1.372a11.51,11.51,0,0,1-.539,1.07c-.137.226-.4.615-.592.866a12.456,12.456,0,0,1-.955,1.062,10.679,10.679,0,0,1-1.2,1.009,11.759,11.759,0,0,1-1.173.7,9.47,9.47,0,0,1-1.157.47,3.843,3.843,0,0,1-1.289.177,2.068,2.068,0,0,1-1.024-.152,3.263,3.263,0,0,1-.834-.818,7.406,7.406,0,0,0-.864-.929c-.183-.145-.339-.263-.347-.263a4.863,4.863,0,0,0,.212.457,2.652,2.652,0,0,1,.276,1.27,1.826,1.826,0,0,0,.658,1.655,3.906,3.906,0,0,0,.832.572,2.546,2.546,0,0,0,1.19.288l.7.045-.571.281a4.779,4.779,0,0,1-1.106.373,2.762,2.762,0,0,1-1.041.008,4.4,4.4,0,0,1-.923-.275,3.729,3.729,0,0,1-.824-.576,3.921,3.921,0,0,1-.643-.828c-.13-.243-.389-.839-.576-1.323s-.441-1.079-.563-1.322a4.636,4.636,0,0,0-.577-.835,1.4,1.4,0,0,0-.659-.476,1.349,1.349,0,0,0-.676,0,6.288,6.288,0,0,0-.846.272,11.289,11.289,0,0,0-1.2.622c-.4.236-1.949,1.253-3.451,2.259s-3.225,2.115-3.83,2.464-1.612.881-2.237,1.182-1.473.671-1.883.823-1.144.391-1.631.531-1.21.313-1.606.386a14.955,14.955,0,0,1-2.313.154ZM49.758,85.38c-.025.025-.043-.02-.04-.1s.022-.106.046-.046a.153.153,0,0,1-.006.145Z" transform="translate(-1.706 -22.199)" fill="#e9f1f2"/>
    <path id="SirenSeek" d="M23.674-37.206v9.566h-1.06a11.637,11.637,0,0,0-3.64-5.343,8.242,8.242,0,0,0-5.333-2.165,6.436,6.436,0,0,0-4.214,1.423,4.345,4.345,0,0,0-1.737,3.481,4.693,4.693,0,0,0,.454,1.983A6.232,6.232,0,0,0,9.46-26.429a46.712,46.712,0,0,0,5.561,3.774A65.464,65.464,0,0,1,21.2-18.576a15.246,15.246,0,0,1,2.659,2.939,10.283,10.283,0,0,1,1.934,6.031,9.512,9.512,0,0,1-3.406,7.7A12.433,12.433,0,0,1,14.138.938,25.2,25.2,0,0,1,7.932,0,12.891,12.891,0,0,0,5.268-.484,1.925,1.925,0,0,0,3.421.7H2.361V-10.232h1.06A12.035,12.035,0,0,0,6.812-3.557,8.853,8.853,0,0,0,13.139-1.12a7.649,7.649,0,0,0,4.8-1.453,4.469,4.469,0,0,0,1.892-3.693A5.642,5.642,0,0,0,18.618-9.7q-1.211-1.62-6.486-4.757a36.888,36.888,0,0,1-6.42-4.472,10.738,10.738,0,0,1-2.37-3.531,10.814,10.814,0,0,1-.8-4.137,9.968,9.968,0,0,1,3.189-7.637,11.562,11.562,0,0,1,8.207-2.97,16.572,16.572,0,0,1,3.718.515,16.556,16.556,0,0,0,3.083.484,2.791,2.791,0,0,0,1.874-1Zm17.058,12.9h1.06V-5.025q0,3.512,3.784,3.966V0H30.863V-1.06A5.656,5.656,0,0,0,34-2.392a4.785,4.785,0,0,0,.772-3.118V-17.982a4.3,4.3,0,0,0-.817-3,6.615,6.615,0,0,0-3.391-1.332v-1.06ZM34.224-34.784a3.854,3.854,0,0,1,1.2-2.846,3.964,3.964,0,0,1,2.891-1.181,3.9,3.9,0,0,1,2.846,1.166,3.864,3.864,0,0,1,1.181,2.861,3.964,3.964,0,0,1-1.181,2.891,3.854,3.854,0,0,1-2.846,1.2,3.914,3.914,0,0,1-2.891-1.211A3.954,3.954,0,0,1,34.224-34.784ZM60.092-24.31v7.447h.121q3.33-7.447,7.75-7.447a5.316,5.316,0,0,1,4.147,1.983l-1.544,7.069q-3.179-3.027-5.268-3.027a4.938,4.938,0,0,0-2.694.727,10.027,10.027,0,0,0-2.513,2.6v9.566a4.455,4.455,0,0,0,.787,3.058A6.16,6.16,0,0,0,64.057-1.06V0H49.163V-1.06a6.205,6.205,0,0,0,3.1-1.423,4.258,4.258,0,0,0,.8-2.906V-17.74a4.7,4.7,0,0,0-1.014-3.3A4.826,4.826,0,0,0,48.8-22.312v-1.06l10.232-.938Zm39.945,17.1h1.06a12.787,12.787,0,0,1-4.935,5.964A13.605,13.605,0,0,1,88.593.938a12.55,12.55,0,0,1-9.127-3.557,11.937,11.937,0,0,1-3.648-8.916,12.241,12.241,0,0,1,3.739-9.112,12.735,12.735,0,0,1,9.279-3.663,12.267,12.267,0,0,1,8.31,2.861,11.772,11.772,0,0,1,3.951,7.674H83.386q-.03.484-.03.969a11.933,11.933,0,0,0,2.387,7.72,7.321,7.321,0,0,0,5.923,2.967Q96.713-2.119,100.037-7.205ZM83.356-15.2h10.2a10.339,10.339,0,0,0-1.67-5.374,4.28,4.28,0,0,0-3.583-2.074,4.007,4.007,0,0,0-3.461,2.028A10.615,10.615,0,0,0,83.356-15.2Zm32.286-9.112v5.722h.121q3.36-5.722,8.87-5.722a7.98,7.98,0,0,1,5.813,2.316,8.278,8.278,0,0,1,2.361,6.191V-5.57a4.724,4.724,0,0,0,.787,3.1A5.6,5.6,0,0,0,136.47-1.06V0H122.09V-1.06a5.315,5.315,0,0,0,2.876-1.377,4.176,4.176,0,0,0,.817-2.831v-9.687a6.566,6.566,0,0,0-1.135-4.1,3.8,3.8,0,0,0-3.194-1.468q-3.6,0-5.812,4.087V-5.51a4.7,4.7,0,0,0,.727,2.967,5.647,5.647,0,0,0,2.725,1.483V0H104.956V-1.06a5.755,5.755,0,0,0,2.861-1.393,3.79,3.79,0,0,0,.8-2.634V-18.164a3.939,3.939,0,0,0-.923-2.906,5.874,5.874,0,0,0-3.285-1.241v-1.06l10.172-.938Zm46.787-12.9v9.566h-1.06a11.637,11.637,0,0,0-3.64-5.343,8.242,8.242,0,0,0-5.333-2.165,6.436,6.436,0,0,0-4.214,1.423,4.345,4.345,0,0,0-1.737,3.481,4.693,4.693,0,0,0,.454,1.983,6.232,6.232,0,0,0,1.317,1.832,46.712,46.712,0,0,0,5.561,3.774,65.465,65.465,0,0,1,6.179,4.078,15.246,15.246,0,0,1,2.659,2.939,10.283,10.283,0,0,1,1.934,6.031,9.512,9.512,0,0,1-3.406,7.7,12.433,12.433,0,0,1-8.25,2.849A25.2,25.2,0,0,1,146.687,0a12.891,12.891,0,0,0-2.664-.484A1.925,1.925,0,0,0,142.176.7h-1.06V-10.232h1.06a12.035,12.035,0,0,0,3.391,6.675,8.853,8.853,0,0,0,6.327,2.437,7.649,7.649,0,0,0,4.8-1.453,4.469,4.469,0,0,0,1.892-3.693A5.642,5.642,0,0,0,157.373-9.7q-1.211-1.62-6.486-4.757a36.888,36.888,0,0,1-6.42-4.472,10.739,10.739,0,0,1-2.37-3.531,10.814,10.814,0,0,1-.8-4.137,9.968,9.968,0,0,1,3.189-7.637,11.562,11.562,0,0,1,8.207-2.97,16.572,16.572,0,0,1,3.718.515,16.556,16.556,0,0,0,3.083.484,2.791,2.791,0,0,0,1.874-1Zm31.862,30h1.06a12.788,12.788,0,0,1-4.935,5.964,13.605,13.605,0,0,1-7.568,2.18,12.55,12.55,0,0,1-9.127-3.557,11.937,11.937,0,0,1-3.648-8.916,12.241,12.241,0,0,1,3.739-9.112,12.735,12.735,0,0,1,9.279-3.663,12.267,12.267,0,0,1,8.31,2.861,11.772,11.772,0,0,1,3.951,7.674h-17.71q-.03.484-.03.969A11.933,11.933,0,0,0,180-5.086a7.321,7.321,0,0,0,5.923,2.967Q190.967-2.119,194.291-7.205ZM177.611-15.2h10.2a10.339,10.339,0,0,0-1.67-5.374,4.28,4.28,0,0,0-3.583-2.074,4.007,4.007,0,0,0-3.461,2.028A10.615,10.615,0,0,0,177.611-15.2ZM224-7.205h1.06a12.788,12.788,0,0,1-4.935,5.964,13.605,13.605,0,0,1-7.568,2.18,12.55,12.55,0,0,1-9.127-3.557,11.937,11.937,0,0,1-3.648-8.916,12.241,12.241,0,0,1,3.739-9.112A12.735,12.735,0,0,1,212.8-24.31a12.267,12.267,0,0,1,8.31,2.861,11.772,11.772,0,0,1,3.951,7.674h-17.71q-.03.484-.03.969a11.933,11.933,0,0,0,2.387,7.72,7.321,7.321,0,0,0,5.923,2.967Q220.68-2.119,224-7.205ZM207.323-15.2h10.2a10.339,10.339,0,0,0-1.67-5.374,4.28,4.28,0,0,0-3.583-2.074,4.007,4.007,0,0,0-3.461,2.028A10.615,10.615,0,0,0,207.323-15.2ZM228.983,0V-1.06a5.82,5.82,0,0,0,2.77-1.393,3.82,3.82,0,0,0,.772-2.634V-33.422a3.273,3.273,0,0,0-.742-2.346,6.158,6.158,0,0,0-2.8-1.317v-1.06l9.506-.666h1.06V-12.6l8.293-6a2.139,2.139,0,0,0,.94-1.785,1.692,1.692,0,0,0-.681-1.406,2.961,2.961,0,0,0-1.862-.529v-1.06h12.9v1.06a15.6,15.6,0,0,0-3.769.938,20.377,20.377,0,0,0-3.612,2.144l-6.129,4.314,11.03,11.553a7.793,7.793,0,0,0,2,1.712,6.619,6.619,0,0,0,2.331.59V0H250.3L239.549-11.171v5.328a6.094,6.094,0,0,0,.575,3.224,6.074,6.074,0,0,0,2.937,1.559V0Z" transform="translate(60.629 51)" fill="#e9f1f2"/>
    <path id="Recruitment_Firm" data-name="Recruitment Firm" d="M9.756-.215A.26.26,0,0,1,9.731-.1a.2.2,0,0,1-.093.083.676.676,0,0,1-.19.054,2,2,0,0,1-.308.02A2.208,2.208,0,0,1,8.862.044a.524.524,0,0,1-.19-.059.366.366,0,0,1-.127-.117.8.8,0,0,1-.088-.19L7.275-3.389q-.205-.518-.439-.977a3.191,3.191,0,0,0-.566-.8,2.411,2.411,0,0,0-.8-.532,2.913,2.913,0,0,0-1.123-.2H3.037V-.2a.2.2,0,0,1-.029.107.2.2,0,0,1-.1.078.831.831,0,0,1-.181.049,1.736,1.736,0,0,1-.288.02,1.754,1.754,0,0,1-.283-.02A.833.833,0,0,1,1.973-.01a.2.2,0,0,1-.1-.078A.2.2,0,0,1,1.846-.2V-12.021a.555.555,0,0,1,.186-.483.626.626,0,0,1,.361-.132H4.766q.469,0,.776.024t.562.063a4.276,4.276,0,0,1,1.26.41,2.95,2.95,0,0,1,.889.7,2.767,2.767,0,0,1,.522.938,3.608,3.608,0,0,1,.171,1.128A3.317,3.317,0,0,1,8.77-8.257a2.729,2.729,0,0,1-.5.869,3.193,3.193,0,0,1-.771.649,5.081,5.081,0,0,1-.986.459,2.567,2.567,0,0,1,.581.361,2.821,2.821,0,0,1,.479.518,4.824,4.824,0,0,1,.415.7q.2.4.391.884L9.561-.869q.127.342.161.469A.81.81,0,0,1,9.756-.215Zm-2.1-9.033a2.483,2.483,0,0,0-.361-1.372,2.033,2.033,0,0,0-1.211-.806,3.764,3.764,0,0,0-.615-.112q-.332-.034-.869-.034H3.037v4.639H4.854a3.9,3.9,0,0,0,1.26-.181,2.494,2.494,0,0,0,.874-.493A1.885,1.885,0,0,0,7.5-8.34,2.514,2.514,0,0,0,7.656-9.248ZM25.668-.527a1.154,1.154,0,0,1-.02.225.478.478,0,0,1-.063.166.308.308,0,0,1-.1.1A.248.248,0,0,1,25.355,0H19.437a.626.626,0,0,1-.361-.132.555.555,0,0,1-.186-.483V-12.021a.555.555,0,0,1,.186-.483.626.626,0,0,1,.361-.132h5.83a.248.248,0,0,1,.127.034.27.27,0,0,1,.1.1.553.553,0,0,1,.059.171,1.292,1.292,0,0,1,.02.239,1.154,1.154,0,0,1-.02.225.49.49,0,0,1-.059.161.28.28,0,0,1-.1.1.248.248,0,0,1-.127.034H20.082v4.443h4.473a.266.266,0,0,1,.137.034.28.28,0,0,1,.1.1.494.494,0,0,1,.059.166,1.292,1.292,0,0,1,.02.239,1.08,1.08,0,0,1-.02.22.433.433,0,0,1-.059.151.252.252,0,0,1-.1.088.3.3,0,0,1-.137.029H20.082v5.039h5.273a.248.248,0,0,1,.127.034.324.324,0,0,1,.1.1.432.432,0,0,1,.063.166A1.292,1.292,0,0,1,25.668-.527ZM43.142-1.719a1.779,1.779,0,0,1-.01.2.957.957,0,0,1-.029.156.551.551,0,0,1-.054.127.832.832,0,0,1-.127.151,3.206,3.206,0,0,1-.405.3,4.946,4.946,0,0,1-.786.415,6.59,6.59,0,0,1-1.089.352,5.863,5.863,0,0,1-1.357.146,5.418,5.418,0,0,1-2.158-.415A4.407,4.407,0,0,1,35.481-1.5a5.586,5.586,0,0,1-1.045-1.973,8.969,8.969,0,0,1-.366-2.676,9.1,9.1,0,0,1,.391-2.769,6.143,6.143,0,0,1,1.1-2.08,4.755,4.755,0,0,1,1.7-1.309,5.2,5.2,0,0,1,2.192-.454,5.54,5.54,0,0,1,1.1.107,6.6,6.6,0,0,1,.981.273,4.743,4.743,0,0,1,.806.381,2.777,2.777,0,0,1,.488.347,1.186,1.186,0,0,1,.166.19.533.533,0,0,1,.054.132,1.091,1.091,0,0,1,.029.166,2.023,2.023,0,0,1,.01.21,1.713,1.713,0,0,1-.015.239.625.625,0,0,1-.049.176.306.306,0,0,1-.083.112.182.182,0,0,1-.117.039.731.731,0,0,1-.386-.2,6.031,6.031,0,0,0-.654-.444,5.166,5.166,0,0,0-.991-.444,4.334,4.334,0,0,0-1.4-.2,3.718,3.718,0,0,0-1.631.356,3.512,3.512,0,0,0-1.274,1.05,5.165,5.165,0,0,0-.83,1.709,8.309,8.309,0,0,0-.3,2.334,8.313,8.313,0,0,0,.273,2.236,4.751,4.751,0,0,0,.791,1.646A3.4,3.4,0,0,0,37.7-1.328a4.079,4.079,0,0,0,1.729.352,4.31,4.31,0,0,0,1.382-.2,5.583,5.583,0,0,0,1.011-.444,7.377,7.377,0,0,0,.688-.444.813.813,0,0,1,.415-.2.181.181,0,0,1,.1.024.172.172,0,0,1,.063.088.787.787,0,0,1,.039.171A2,2,0,0,1,43.142-1.719Zm16.742,1.5a.26.26,0,0,1-.024.117.2.2,0,0,1-.093.083.676.676,0,0,1-.19.054,2,2,0,0,1-.308.02A2.208,2.208,0,0,1,58.99.044a.524.524,0,0,1-.19-.059.366.366,0,0,1-.127-.117.8.8,0,0,1-.088-.19L57.4-3.389q-.205-.518-.439-.977a3.191,3.191,0,0,0-.566-.8,2.411,2.411,0,0,0-.8-.532,2.913,2.913,0,0,0-1.123-.2H53.165V-.2a.2.2,0,0,1-.029.107.2.2,0,0,1-.1.078.831.831,0,0,1-.181.049,1.736,1.736,0,0,1-.288.02,1.754,1.754,0,0,1-.283-.02A.833.833,0,0,1,52.1-.01.2.2,0,0,1,52-.088.2.2,0,0,1,51.973-.2V-12.021a.555.555,0,0,1,.186-.483.626.626,0,0,1,.361-.132h2.373q.469,0,.776.024t.562.063a4.276,4.276,0,0,1,1.26.41,2.95,2.95,0,0,1,.889.7,2.767,2.767,0,0,1,.522.938,3.608,3.608,0,0,1,.171,1.128A3.317,3.317,0,0,1,58.9-8.257a2.729,2.729,0,0,1-.5.869,3.193,3.193,0,0,1-.771.649,5.081,5.081,0,0,1-.986.459,2.567,2.567,0,0,1,.581.361A2.821,2.821,0,0,1,57.7-5.4a4.824,4.824,0,0,1,.415.7q.2.4.391.884L59.688-.869q.127.342.161.469A.81.81,0,0,1,59.884-.215Zm-2.1-9.033a2.483,2.483,0,0,0-.361-1.372,2.033,2.033,0,0,0-1.211-.806,3.764,3.764,0,0,0-.615-.112q-.332-.034-.869-.034H53.165v4.639h1.816a3.9,3.9,0,0,0,1.26-.181,2.494,2.494,0,0,0,.874-.493,1.885,1.885,0,0,0,.508-.732A2.514,2.514,0,0,0,57.784-9.248Zm20.287,4.6A5.971,5.971,0,0,1,77.744-2.6a4.145,4.145,0,0,1-.933,1.514,3.937,3.937,0,0,1-1.465.933,5.521,5.521,0,0,1-1.924.317,5.083,5.083,0,0,1-1.782-.3,3.862,3.862,0,0,1-1.406-.894A4.041,4.041,0,0,1,69.316-2.5a5.733,5.733,0,0,1-.327-2.017v-7.93a.2.2,0,0,1,.029-.107.2.2,0,0,1,.1-.078.951.951,0,0,1,.181-.049,1.646,1.646,0,0,1,.283-.02,1.754,1.754,0,0,1,.283.02.833.833,0,0,1,.186.049.2.2,0,0,1,.1.078.2.2,0,0,1,.029.107v7.734a5.427,5.427,0,0,0,.229,1.66,3.157,3.157,0,0,0,.664,1.187,2.755,2.755,0,0,0,1.055.713,3.869,3.869,0,0,0,1.4.239,4.048,4.048,0,0,0,1.411-.229,2.647,2.647,0,0,0,1.05-.7A3.159,3.159,0,0,0,76.65-3a5.249,5.249,0,0,0,.229-1.636v-7.8a.2.2,0,0,1,.029-.107.2.2,0,0,1,.1-.078.833.833,0,0,1,.186-.049,1.755,1.755,0,0,1,.283-.02,1.754,1.754,0,0,1,.283.02.833.833,0,0,1,.186.049.2.2,0,0,1,.1.078.2.2,0,0,1,.029.107ZM89.324-.2a.2.2,0,0,1-.029.107.2.2,0,0,1-.1.078.831.831,0,0,1-.181.049,1.736,1.736,0,0,1-.288.02,1.754,1.754,0,0,1-.283-.02A.833.833,0,0,1,88.26-.01a.2.2,0,0,1-.1-.078A.2.2,0,0,1,88.133-.2V-12.441a.183.183,0,0,1,.034-.107.231.231,0,0,1,.107-.078.944.944,0,0,1,.186-.049,1.592,1.592,0,0,1,.269-.02,1.736,1.736,0,0,1,.288.02.831.831,0,0,1,.181.049.2.2,0,0,1,.1.078.2.2,0,0,1,.029.107ZM107.072-12.09a1.154,1.154,0,0,1-.02.225.491.491,0,0,1-.059.161.28.28,0,0,1-.1.1.248.248,0,0,1-.127.034H103V-.2a.2.2,0,0,1-.029.107.2.2,0,0,1-.1.078.833.833,0,0,1-.186.049,1.754,1.754,0,0,1-.283.02,1.754,1.754,0,0,1-.283-.02.833.833,0,0,1-.186-.049.2.2,0,0,1-.1-.078.2.2,0,0,1-.029-.107V-11.572h-3.77a.241.241,0,0,1-.132-.034.3.3,0,0,1-.093-.1.491.491,0,0,1-.059-.161,1.154,1.154,0,0,1-.02-.225,1.292,1.292,0,0,1,.02-.239.553.553,0,0,1,.059-.171.286.286,0,0,1,.093-.1.241.241,0,0,1,.132-.034h8.73a.248.248,0,0,1,.127.034.27.27,0,0,1,.1.1.553.553,0,0,1,.059.171A1.292,1.292,0,0,1,107.072-12.09ZM128.687-.2a.2.2,0,0,1-.029.107.2.2,0,0,1-.1.078.944.944,0,0,1-.186.049,1.736,1.736,0,0,1-.288.02,1.683,1.683,0,0,1-.273-.02.833.833,0,0,1-.186-.049.2.2,0,0,1-.1-.078A.2.2,0,0,1,127.5-.2v-11.4h-.02L122.505-.127a.242.242,0,0,1-.059.073.332.332,0,0,1-.107.059.9.9,0,0,1-.161.039,1.43,1.43,0,0,1-.22.015,1.608,1.608,0,0,1-.234-.015A.779.779,0,0,1,121.563,0a.34.34,0,0,1-.1-.059.146.146,0,0,1-.049-.073l-4.727-11.465h-.01V-.2a.2.2,0,0,1-.029.107.2.2,0,0,1-.1.078.944.944,0,0,1-.186.049,1.811,1.811,0,0,1-.3.02,1.663,1.663,0,0,1-.278-.02A.831.831,0,0,1,115.6-.01a.174.174,0,0,1-.093-.078.237.237,0,0,1-.024-.107V-12.021a.555.555,0,0,1,.186-.483.626.626,0,0,1,.361-.132h.645a1.55,1.55,0,0,1,.43.054,1.05,1.05,0,0,1,.327.156.967.967,0,0,1,.239.249,1.988,1.988,0,0,1,.176.332l4.17,10.039h.049l4.346-10a2.118,2.118,0,0,1,.21-.4,1.225,1.225,0,0,1,.234-.259.73.73,0,0,1,.264-.137,1.154,1.154,0,0,1,.308-.039h.713a.646.646,0,0,1,.186.029.439.439,0,0,1,.176.1.6.6,0,0,1,.132.19.7.7,0,0,1,.054.293Zm16.869-.332a1.154,1.154,0,0,1-.02.225.478.478,0,0,1-.063.166.308.308,0,0,1-.1.1.248.248,0,0,1-.127.034h-5.918a.626.626,0,0,1-.361-.132.555.555,0,0,1-.186-.483V-12.021a.555.555,0,0,1,.186-.483.626.626,0,0,1,.361-.132h5.83a.248.248,0,0,1,.127.034.27.27,0,0,1,.1.1.553.553,0,0,1,.059.171,1.292,1.292,0,0,1,.02.239,1.154,1.154,0,0,1-.02.225.49.49,0,0,1-.059.161.28.28,0,0,1-.1.1.248.248,0,0,1-.127.034H139.97v4.443h4.473a.266.266,0,0,1,.137.034.28.28,0,0,1,.1.1.493.493,0,0,1,.059.166,1.292,1.292,0,0,1,.02.239,1.08,1.08,0,0,1-.02.22.432.432,0,0,1-.059.151.252.252,0,0,1-.1.088.3.3,0,0,1-.137.029H139.97v5.039h5.273a.248.248,0,0,1,.127.034.324.324,0,0,1,.1.1.432.432,0,0,1,.063.166A1.292,1.292,0,0,1,145.555-.527Zm18.47-.049a.7.7,0,0,1-.054.293.561.561,0,0,1-.137.19.475.475,0,0,1-.186.1.7.7,0,0,1-.19.029h-.244a1.226,1.226,0,0,1-.356-.049.927.927,0,0,1-.312-.171,1.761,1.761,0,0,1-.3-.327,5.667,5.667,0,0,1-.337-.527l-4.453-7.891q-.332-.576-.669-1.187t-.64-1.187h-.01q.01.713.01,1.46V-.2a.2.2,0,0,1-.029.107.2.2,0,0,1-.1.078.831.831,0,0,1-.181.049,1.736,1.736,0,0,1-.288.02,1.754,1.754,0,0,1-.283-.02.833.833,0,0,1-.186-.049.2.2,0,0,1-.1-.078.2.2,0,0,1-.029-.107V-12.021a.555.555,0,0,1,.186-.483.626.626,0,0,1,.361-.132h.488a1.643,1.643,0,0,1,.391.039.807.807,0,0,1,.283.132,1.151,1.151,0,0,1,.249.264,4.627,4.627,0,0,1,.269.435l3.408,6.045q.322.566.61,1.089t.562,1.025q.273.5.542.991t.532.986h.01q-.01-.82-.01-1.709V-12.4a.2.2,0,0,1,.029-.107.228.228,0,0,1,.1-.083.576.576,0,0,1,.181-.049,2.305,2.305,0,0,1,.288-.015,2.234,2.234,0,0,1,.273.015.585.585,0,0,1,.186.049.268.268,0,0,1,.1.083.183.183,0,0,1,.034.107ZM181.773-12.09a1.154,1.154,0,0,1-.02.225.49.49,0,0,1-.059.161.28.28,0,0,1-.1.1.248.248,0,0,1-.127.034H177.7V-.2a.2.2,0,0,1-.029.107.2.2,0,0,1-.1.078.833.833,0,0,1-.186.049,1.754,1.754,0,0,1-.283.02,1.754,1.754,0,0,1-.283-.02.833.833,0,0,1-.186-.049.2.2,0,0,1-.1-.078A.2.2,0,0,1,176.51-.2V-11.572h-3.77a.241.241,0,0,1-.132-.034.3.3,0,0,1-.093-.1.49.49,0,0,1-.059-.161,1.154,1.154,0,0,1-.02-.225,1.292,1.292,0,0,1,.02-.239.553.553,0,0,1,.059-.171.286.286,0,0,1,.093-.1.241.241,0,0,1,.132-.034h8.73a.248.248,0,0,1,.127.034.27.27,0,0,1,.1.1.553.553,0,0,1,.059.171A1.292,1.292,0,0,1,181.773-12.09Zm25.73,0a1.154,1.154,0,0,1-.02.225.428.428,0,0,1-.063.161.324.324,0,0,1-.1.1.248.248,0,0,1-.127.034H202.3v4.785h4.639a.327.327,0,0,1,.127.024.247.247,0,0,1,.1.083.383.383,0,0,1,.063.156,1.275,1.275,0,0,1,.02.244,1.154,1.154,0,0,1-.02.225.428.428,0,0,1-.063.161.324.324,0,0,1-.1.1.248.248,0,0,1-.127.034H202.3V-.2a.2.2,0,0,1-.029.107.2.2,0,0,1-.1.078.831.831,0,0,1-.181.049,1.736,1.736,0,0,1-.288.02,1.754,1.754,0,0,1-.283-.02.833.833,0,0,1-.186-.049.2.2,0,0,1-.1-.078.2.2,0,0,1-.029-.107V-12.021a.555.555,0,0,1,.186-.483.626.626,0,0,1,.361-.132h5.537a.248.248,0,0,1,.127.034.308.308,0,0,1,.1.1.48.48,0,0,1,.063.171A1.292,1.292,0,0,1,207.5-12.09ZM217.9-.2a.2.2,0,0,1-.029.107.2.2,0,0,1-.1.078.831.831,0,0,1-.181.049,1.736,1.736,0,0,1-.288.02,1.754,1.754,0,0,1-.283-.02.833.833,0,0,1-.186-.049.2.2,0,0,1-.1-.078.2.2,0,0,1-.029-.107V-12.441a.183.183,0,0,1,.034-.107.231.231,0,0,1,.107-.078.944.944,0,0,1,.186-.049,1.592,1.592,0,0,1,.269-.02,1.736,1.736,0,0,1,.288.02.831.831,0,0,1,.181.049.2.2,0,0,1,.1.078.2.2,0,0,1,.029.107Zm18-.02a.259.259,0,0,1-.024.117.2.2,0,0,1-.093.083.676.676,0,0,1-.19.054,2,2,0,0,1-.308.02,2.208,2.208,0,0,1-.278-.015.524.524,0,0,1-.19-.059.366.366,0,0,1-.127-.117.8.8,0,0,1-.088-.19l-1.182-3.066q-.205-.518-.439-.977a3.191,3.191,0,0,0-.566-.8,2.411,2.411,0,0,0-.8-.532,2.913,2.913,0,0,0-1.123-.2H229.18V-.2a.2.2,0,0,1-.029.107.2.2,0,0,1-.1.078.831.831,0,0,1-.181.049,1.736,1.736,0,0,1-.288.02,1.754,1.754,0,0,1-.283-.02.833.833,0,0,1-.186-.049.2.2,0,0,1-.1-.078.2.2,0,0,1-.029-.107V-12.021a.555.555,0,0,1,.186-.483.626.626,0,0,1,.361-.132h2.373q.469,0,.776.024t.562.063a4.276,4.276,0,0,1,1.26.41,2.95,2.95,0,0,1,.889.7,2.767,2.767,0,0,1,.522.938,3.607,3.607,0,0,1,.171,1.128,3.317,3.317,0,0,1-.176,1.118,2.729,2.729,0,0,1-.5.869,3.193,3.193,0,0,1-.771.649,5.081,5.081,0,0,1-.986.459,2.568,2.568,0,0,1,.581.361,2.821,2.821,0,0,1,.479.518,4.824,4.824,0,0,1,.415.7q.2.4.391.884L235.7-.869q.127.342.161.469A.81.81,0,0,1,235.9-.215Zm-2.1-9.033a2.483,2.483,0,0,0-.361-1.372,2.033,2.033,0,0,0-1.211-.806,3.763,3.763,0,0,0-.615-.112q-.332-.034-.869-.034H229.18v4.639H231a3.9,3.9,0,0,0,1.26-.181,2.494,2.494,0,0,0,.874-.493,1.885,1.885,0,0,0,.508-.732A2.514,2.514,0,0,0,233.8-9.248ZM258.236-.2a.2.2,0,0,1-.029.107.2.2,0,0,1-.1.078.944.944,0,0,1-.186.049,1.736,1.736,0,0,1-.288.02,1.683,1.683,0,0,1-.273-.02.833.833,0,0,1-.186-.049.2.2,0,0,1-.1-.078.2.2,0,0,1-.029-.107v-11.4h-.02L252.055-.127A.242.242,0,0,1,252-.054a.332.332,0,0,1-.107.059.9.9,0,0,1-.161.039,1.43,1.43,0,0,1-.22.015,1.608,1.608,0,0,1-.234-.015A.779.779,0,0,1,251.112,0a.34.34,0,0,1-.1-.059.146.146,0,0,1-.049-.073l-4.727-11.465h-.01V-.2a.2.2,0,0,1-.029.107.2.2,0,0,1-.1.078.944.944,0,0,1-.186.049,1.811,1.811,0,0,1-.3.02,1.663,1.663,0,0,1-.278-.02.831.831,0,0,1-.181-.049.174.174,0,0,1-.093-.078.237.237,0,0,1-.024-.107V-12.021a.555.555,0,0,1,.186-.483.626.626,0,0,1,.361-.132h.645a1.55,1.55,0,0,1,.43.054,1.05,1.05,0,0,1,.327.156.967.967,0,0,1,.239.249,1.987,1.987,0,0,1,.176.332l4.17,10.039h.049l4.346-10a2.118,2.118,0,0,1,.21-.4,1.224,1.224,0,0,1,.234-.259.731.731,0,0,1,.264-.137,1.153,1.153,0,0,1,.308-.039h.713a.646.646,0,0,1,.186.029.439.439,0,0,1,.176.1.6.6,0,0,1,.132.19.7.7,0,0,1,.054.293Z" transform="translate(62.485 80.475)" fill="#e9f1f2"/>
  </g>
</svg>
