<svg xmlns="http://www.w3.org/2000/svg" xmlns:xlink="http://www.w3.org/1999/xlink" width="80.231" height="303.181" viewBox="0 0 80.231 303.181">
  <defs>
    <linearGradient id="linear-gradient" x1="0.5" x2="0.5" y2="1" gradientUnits="objectBoundingBox">
      <stop offset="0" stop-color="#ff7bbd"/>
      <stop offset="1" stop-color="#6588e3"/>
    </linearGradient>
  </defs>
  <path id="pink-bubble" d="M15.215,288.51a14.951,14.951,0,0,1,15.217-14.67,14.68,14.68,0,1,1,0,29.34A14.951,14.951,0,0,1,15.215,288.51Zm16.6-76.144c0-7.717,5.883-13.971,13.142-13.971S58.1,204.65,58.1,212.366s-5.884,13.971-13.142,13.971S31.816,220.083,31.816,212.366ZM0,167.657c0-13.118,10.219-23.751,22.825-23.751s22.823,10.634,22.823,23.751S35.43,191.409,22.825,191.409,0,180.775,0,167.657ZM41.5,99.9a19.373,19.373,0,1,1,19.367,18.862A19.119,19.119,0,0,1,41.5,99.9ZM12.45,27.943C12.45,12.51,24.217,0,38.732,0S65.015,12.51,65.015,27.943,53.249,55.886,38.732,55.886,12.45,43.376,12.45,27.943Z" fill="url(#linear-gradient)"/>
</svg>
