<svg xmlns="http://www.w3.org/2000/svg" width="167.55" height="243.153" viewBox="0 0 167.55 243.153">
  <path id="Preload-Logo" d="M43.1,271.221c-2.679.037-5.81-.033-6.958-.155s-3.6-.526-5.45-.9a57.347,57.347,0,0,1-6.108-1.622,48.632,48.632,0,0,1-4.87-2.013,43.648,43.648,0,0,1-4.19-2.477,32.225,32.225,0,0,1-3.827-3.178,34.281,34.281,0,0,1-2.805-3.2c-.574-.787-1.59-2.341-2.259-3.454A43.85,43.85,0,0,1,4.5,250.111,40.426,40.426,0,0,1,3,246a41.243,41.243,0,0,1-.942-4.436,48.416,48.416,0,0,1-.355-6.1,58.553,58.553,0,0,1,.33-6.123c.179-1.343.6-3.68.942-5.194s1.031-3.989,1.536-5.5,1.416-3.871,2.023-5.243,1.763-3.642,2.569-5.045,2.134-3.513,2.951-4.689,2.442-3.315,3.611-4.754,3.645-4.136,5.5-5.992,4.576-4.372,6.043-5.59,3.919-3.146,5.45-4.284,4.379-3.207,6.329-4.6,4.545-3.36,5.765-4.378a33.019,33.019,0,0,0,3.486-3.381,23.685,23.685,0,0,0,2.042-2.921,18.452,18.452,0,0,0,1.259-2.981,12.108,12.108,0,0,0,.479-3.827,22.152,22.152,0,0,0-.466-4.324c-.254-1.148-1-3.653-1.651-5.566a50.115,50.115,0,0,1-1.624-5.914,56.449,56.449,0,0,1-.576-6.726,59.654,59.654,0,0,1,.11-6.741,25.043,25.043,0,0,1,1.678-6.553c1.426-4.1,1.426-4.1.854-4.855a14.069,14.069,0,0,1-1.088-1.764,8.931,8.931,0,0,1-.705-2.2,9.547,9.547,0,0,1,.027-2.551,9.95,9.95,0,0,1,.763-2.435,6.453,6.453,0,0,1,.976-1.464,32.769,32.769,0,0,1,4.258-1.885l3.827-1.5-.013-1.616a5.665,5.665,0,0,0-.643-2.9A9,9,0,0,0,56.1,99.741a12.952,12.952,0,0,0-2.449-1.661c-.786-.4-2.282-1.035-3.324-1.418a33.772,33.772,0,0,1-3.594-1.611A28.135,28.135,0,0,1,43.6,93.039a35.09,35.09,0,0,1-3.018-2.716,41.4,41.4,0,0,1-2.978-3.483c-.766-1.026-1.948-2.8-2.627-3.952a8.123,8.123,0,0,1-1.487-4.038,44.777,44.777,0,0,1-.252-4.645,53.851,53.851,0,0,1,.344-5.471c.189-1.527.56-3.976.824-5.443s.8-3.92,1.2-5.45a20.211,20.211,0,0,0,.738-4.522,9.094,9.094,0,0,0-.4-2.95,8.157,8.157,0,0,0-1.424-2.329,8.81,8.81,0,0,0-1.82-1.557,1.75,1.75,0,0,0-1.765-.154,5.513,5.513,0,0,0-1.718.959,5.675,5.675,0,0,0-1.194,1.62c-.235.52-.54.909-.678.863s-.342-.44-.451-.876a3.666,3.666,0,0,1,.064-1.767,6.318,6.318,0,0,1,1.43-2.25,7.319,7.319,0,0,0,1.372-1.993,5.644,5.644,0,0,0-.007-2.041,2.807,2.807,0,0,0-.787-1.825c-.5-.433-.764-.484-1.977-.374-1.2.109-1.4.071-1.4-.253a.369.369,0,0,1,.355-.38,4.667,4.667,0,0,0,1.214-.359c.678-.283.786-.4.514-.576a6.3,6.3,0,0,0-1.968-.225,6.766,6.766,0,0,1-2.178-.293,2.759,2.759,0,0,1-.881-.783c-.322-.49-.314-.494.7-.276a9.552,9.552,0,0,0,2.157.148l1.126-.072L24.949,34.7c-.926-.481-2.257-1.088-2.958-1.351a3.6,3.6,0,0,1-1.513-.923c-.134-.25-.146-.447-.027-.447a4.818,4.818,0,0,1,.994.316,9.776,9.776,0,0,0,1.536.458c.415.078.754.062.754-.035a4.956,4.956,0,0,0-1.16-1.042c-.885-.661-1.16-1.012-1.16-1.484,0-.619,0-.619.638-.028a21.049,21.049,0,0,0,2.029,1.518c.765.51,1.973,1.255,2.684,1.655a8.3,8.3,0,0,0,2.389.878,1.994,1.994,0,0,1,1.793,1.163,13.92,13.92,0,0,0,1.264,1.58,1.952,1.952,0,0,1,.57.868A6.894,6.894,0,0,0,33.817,39.5c.568.757,2.092,2.509,3.385,3.893l2.352,2.517.551,5.5c.3,3.025.817,7.378,1.143,9.674s.893,5.531,1.261,7.19.789,4.041.937,5.3a22.611,22.611,0,0,1,.107,4.006c-.153,1.636-.128,1.773.481,2.652A20.2,20.2,0,0,0,46.21,82.6a26.858,26.858,0,0,0,2.9,2.352c.753.5,2.317,1.4,3.477,2.011s3.673,1.748,5.587,2.534,4.081,1.749,4.817,2.14a9.362,9.362,0,0,1,2.138,1.6,12.612,12.612,0,0,1,1.51,2.291,9.826,9.826,0,0,0,1.166,1.862,1.608,1.608,0,0,0,.944.457,2.561,2.561,0,0,0,1.257-.77,3.494,3.494,0,0,0,.931-1.625,4.287,4.287,0,0,0-.234-2.071,8.074,8.074,0,0,0-.966-1.97,4.491,4.491,0,0,0-1.226-1.093,9.718,9.718,0,0,0-2.249-.579c-.877-.132-1.938-.3-2.358-.369a1.805,1.805,0,0,1-1.248-2.312,3.56,3.56,0,0,0,.272-1.235,1.5,1.5,0,0,0-.253-.892c-.183-.183-.183-.385,0-.729a1.1,1.1,0,0,0-.034-1.108c-.233-.512-.23-.652.014-.734a4.1,4.1,0,0,0,.913-.626c.611-.525.611-.525.158-1.168-.249-.353-.557-.785-.684-.96-.161-.22-.123-.512.125-.953a.885.885,0,0,1,1.079-.563,5.667,5.667,0,0,0,1.668-.182,4.786,4.786,0,0,0,1.58-.8c.569-.489.649-.75.789-2.555a5.725,5.725,0,0,1,1.018-3.406,7.692,7.692,0,0,0,.98-2.275,6.494,6.494,0,0,0-.256-2.165,9.683,9.683,0,0,1-.372-2.178,6.175,6.175,0,0,1,.557-2.084,10.3,10.3,0,0,1,1.4-2.129,11.57,11.57,0,0,1,1.942-1.64,17.408,17.408,0,0,1,2.686-1.3,29.773,29.773,0,0,1,3.241-.972,25.053,25.053,0,0,1,5.013-.38,19.286,19.286,0,0,1,5.35.484,35.726,35.726,0,0,1,3.816,1.218c1.006.4,3.869,1.7,6.362,2.894s4.95,2.28,5.461,2.417a7.58,7.58,0,0,0,1.555.251,2.347,2.347,0,0,0,2.3-1.472,4.363,4.363,0,0,0,.551-2.507c0-1.432-.1-1.733-1.331-4.105-1.035-1.988-1.334-2.789-1.334-3.584a2.561,2.561,0,0,1,.487-1.642,5.519,5.519,0,0,1,1.566-1.158,10.745,10.745,0,0,1,1.775-.706c.659-.158.644-.13-.282.542a5.2,5.2,0,0,0-1.334,1.4,3.9,3.9,0,0,0-.356,1.507,8.53,8.53,0,0,0,.548,2.273c.3.8,1.024,2.4,1.6,3.558a26.228,26.228,0,0,1,1.45,3.455,6.8,6.8,0,0,1,.276,2.387,2.728,2.728,0,0,1-.614,1.531c-.444.443-.69.485-2.287.391-.984-.058-2.624-.11-3.644-.116a13.462,13.462,0,0,0-2.493.167c-.4.113-.638.337-.638.611a2.642,2.642,0,0,0,.873,1.221,18.479,18.479,0,0,0,2.284,1.646,28.809,28.809,0,0,0,3.039,1.55,34.166,34.166,0,0,0,3.456,1.2,14.569,14.569,0,0,0,3.8.522,5.274,5.274,0,0,0,2.977-.518,3.163,3.163,0,0,0,1.613-1.847c.54-1.171.608-1.605.607-3.87a16.623,16.623,0,0,0-.4-4.059c-.221-.829-.983-3.125-1.694-5.1a30.894,30.894,0,0,1-1.414-4.888,4.106,4.106,0,0,1,.367-2.4A11.225,11.225,0,0,1,120,47.264a13.114,13.114,0,0,1,2.186-1.958,25.9,25.9,0,0,1,3.4-1.944,24.539,24.539,0,0,1,4.834-1.527c1.594-.345,3.682-.876,4.638-1.181a17.573,17.573,0,0,0,2.66-1.08,5.245,5.245,0,0,0,1.47-1.334,2.854,2.854,0,0,0,.448-2.316,9.53,9.53,0,0,0-.291-1.971c-.187-.455-.182-.456.3-.03a4.4,4.4,0,0,1,.88,1.444,5.119,5.119,0,0,1,.28,2.281,5.2,5.2,0,0,1-.791,2.383,5.628,5.628,0,0,1-1.913,1.848,8.073,8.073,0,0,1-2.891,1c-.915.146-2.2.414-2.852.6a9.415,9.415,0,0,0-2.3,1.086,8.526,8.526,0,0,0-1.711,1.561l-.6.805.812-.524c.446-.288,1.281-.767,1.855-1.063a20.65,20.65,0,0,1,2.319-.974,10.259,10.259,0,0,1,3.595-.415,32.881,32.881,0,0,1,4.986.525,30.59,30.59,0,0,0,4.412.513,9.367,9.367,0,0,0,2.434-.255,5.514,5.514,0,0,0,2.9-2.622l.69-1.2,0,.94a5.569,5.569,0,0,1-.6,2.144,5.451,5.451,0,0,1-1.282,1.69,6.064,6.064,0,0,1-1.545.732l-.863.247.812.222a9.958,9.958,0,0,0,2.527.1,7.662,7.662,0,0,0,3.131-.824,9.5,9.5,0,0,0,3.964-3.623,6.5,6.5,0,0,0,.674-2.793,23.12,23.12,0,0,1,.62-3.595,23.545,23.545,0,0,1,1.308-3.424,15.078,15.078,0,0,1,1.873-2.851,8.5,8.5,0,0,1,1.747-1.522,3.014,3.014,0,0,1,1.849-.23,6.628,6.628,0,0,1,2.15.726,5.743,5.743,0,0,1,1.131.789c.067.109-.32.039-.86-.155a3.535,3.535,0,0,0-1.871-.187,4.265,4.265,0,0,0-1.9,1.1,10.312,10.312,0,0,0-1.6,1.936,11.043,11.043,0,0,0-.931,2.322,32,32,0,0,0-.487,4.717,34.64,34.64,0,0,1-.48,4.789,17.806,17.806,0,0,1-.918,2.66,15.879,15.879,0,0,1-1.469,2.446,6.811,6.811,0,0,1-2.294,1.926,17.28,17.28,0,0,1-3.185,1.2,26.344,26.344,0,0,1-3.9.6,37.2,37.2,0,0,1-6.551-.363c-3.554-.407-4.693-.459-5.751-.264a10.5,10.5,0,0,0-2.071.6,9.934,9.934,0,0,0-1.647,1.095,11.2,11.2,0,0,0-1.792,2.125,14.034,14.034,0,0,0-1.357,2.878,12.208,12.208,0,0,0-.46,3.774,28.253,28.253,0,0,0,.462,4.672c.254,1.314.926,4.007,1.494,5.984s1.142,4.273,1.276,5.1a26.216,26.216,0,0,1,.239,3.479,34.5,34.5,0,0,1-.217,3.595c-.117.893-.285,2.093-.375,2.667-.158,1.009-.149,1.031.277.664a10.958,10.958,0,0,1,1.656-.989,15.379,15.379,0,0,1,2.783-.978,10.081,10.081,0,0,1,3.191-.237,14.811,14.811,0,0,1,3,.6,13.765,13.765,0,0,1,2.449,1.163,10.391,10.391,0,0,1,1.642,1.3c.566.612.566.612-.881-.114a16.051,16.051,0,0,0-2.9-1.068,13.981,13.981,0,0,0-2.612-.343,11.013,11.013,0,0,0-2.354.317,14.269,14.269,0,0,0-2.435.969c-.86.451-2.488,1.9-5.3,4.731-2.232,2.244-4.719,4.627-5.527,5.3s-2.216,1.721-3.131,2.338a33.585,33.585,0,0,1-3.054,1.817,29.426,29.426,0,0,1-3.015,1.25,11.171,11.171,0,0,1-4.407.554,11.032,11.032,0,0,1-4.673-.649,20.937,20.937,0,0,1-3.333-1.522c-.794-.48-2.232-1.492-3.2-2.25A31.772,31.772,0,0,1,97.3,97.847c-.95-1.084-2.144-2.583-2.652-3.33A17.615,17.615,0,0,0,92.8,92.262a10.1,10.1,0,0,0-2.164-1.5,8.652,8.652,0,0,0-2.6-.731,7.347,7.347,0,0,0-2.738.27,9.457,9.457,0,0,0-2.259,1,6.165,6.165,0,0,0-1.508,1.664,4.361,4.361,0,0,0-.623,2.8,5.248,5.248,0,0,0,.59,2.9,5.148,5.148,0,0,0,1.855,2.014c.7.472,2.362,1.425,3.7,2.116s3.1,1.505,3.906,1.808a6.91,6.91,0,0,1,3.015,2.174,14.559,14.559,0,0,1,2.284,3.131,31.1,31.1,0,0,1,1.539,4.754,40.989,40.989,0,0,0,2.113,6.262,88.679,88.679,0,0,0,4.469,8.261l3.156,5.246,1.644.294a27.616,27.616,0,0,1,3.037.747,29.31,29.31,0,0,1,2.871,1.154c.813.385,3.249,1.893,5.413,3.351s4.787,3.08,5.827,3.606,2.727,1.291,3.747,1.7c1.855.744,1.855.744,3.131,3.158.7,1.328,1.636,2.986,2.076,3.684s1.534,2.313,2.43,3.589a50.283,50.283,0,0,0,4.186,4.951c1.406,1.448,3.571,3.523,4.811,4.613a10.476,10.476,0,0,1,2.132,2.18,1.2,1.2,0,0,1-.79.2,4.3,4.3,0,0,1-1.274-.231,17.744,17.744,0,0,1-2.74-2.147c-1.173-1.054-2.584-2.269-3.135-2.7l-1-.785.157.9a31.181,31.181,0,0,0,1.42,3.917c.695,1.658,1.321,3.145,1.392,3.3.08.181-.054.29-.356.29a2.342,2.342,0,0,1-1.176-.638,11.937,11.937,0,0,1-1.869-3.533c-.648-1.593-1.439-3.341-1.758-3.885a3.6,3.6,0,0,0-.715-.989c-.075,0-.067.429.017.953a34.4,34.4,0,0,0,.957,3.443c.443,1.369.805,2.605.805,2.746,0,.184-.2.187-.7.011a2.051,2.051,0,0,1-1.013-.858,6.765,6.765,0,0,1-.474-1.518,24.474,24.474,0,0,0-.865-2.841c-.536-1.482-.8-1.936-1.132-1.936-.3,0-.473.223-.57.754a14.971,14.971,0,0,0,.072,2.841,18.481,18.481,0,0,1,.15,2.162,1.977,1.977,0,0,1-.778-.3,5.6,5.6,0,0,1-.74-.423c-.012-.029-.1-1.187-.185-2.575-.145-2.252-.22-2.569-.7-2.957a1.939,1.939,0,0,0-.8-.434c-.147,0-.406.223-.576.5a6.653,6.653,0,0,0-.508,1.9,3.232,3.232,0,0,1-.762,1.964,2.665,2.665,0,0,1-1.635.685c-.705.08-1.071.032-1.071-.138a9.4,9.4,0,0,1,.786-1.74,9.9,9.9,0,0,0,.945-2.64,11.926,11.926,0,0,0-.23-3.334c-.214-1.2-.463-3.247-.554-4.556-.128-1.849-.27-2.522-.636-3.015a6,6,0,0,0-1.211-1.139,6.668,6.668,0,0,0-1.948-.763c-.664-.142-3.425-.361-6.135-.485s-5.7-.374-6.651-.555a22.446,22.446,0,0,1-3.308-.953,27.478,27.478,0,0,1-2.8-1.307,16.425,16.425,0,0,1-2.472-1.831,58.235,58.235,0,0,1-4.367-5.259c-1.712-2.262-3.635-4.9-4.273-5.852s-1.7-2.787-2.371-4.067a34.454,34.454,0,0,0-2.376-3.884,16.76,16.76,0,0,0-2.191-2.4c-1.026-.84-1.026-.84-1.78-.259-.415.32-2.424,2.011-4.465,3.758s-4.157,3.593-4.7,4.1a8.958,8.958,0,0,0-1.571,2.071,32.363,32.363,0,0,0-1.308,3.288,11.194,11.194,0,0,0-.742,4.577,12.914,12.914,0,0,0,.422,3.9,13.579,13.579,0,0,0,1.359,2.9,57.8,57.8,0,0,0,5.257,5.72,71.358,71.358,0,0,1,6.239,6.843,39.824,39.824,0,0,1,3.407,5.566,30.5,30.5,0,0,1,2.114,5.334,17.66,17.66,0,0,1,.626,5.566,18.185,18.185,0,0,1-.482,5.218,32.287,32.287,0,0,1-1.3,3.87,26.586,26.586,0,0,1-1.925,3.595,26.187,26.187,0,0,1-2.753,3.326,27.5,27.5,0,0,1-3.461,2.851,38.5,38.5,0,0,1-3.962,2.237c-1.171.558-4.052,1.7-6.4,2.547s-5.472,1.964-6.939,2.494-3.815,1.451-5.218,2.049-3.751,1.671-5.218,2.385-3.946,2.031-5.509,2.927-3.912,2.347-5.221,3.225-3.213,2.253-4.232,3.057-3.038,2.618-4.487,4.033-3.5,3.616-4.548,4.892-2.661,3.409-3.574,4.74a18.669,18.669,0,0,0-2,3.568,16.7,16.7,0,0,0-.481,2.565,10.543,10.543,0,0,0,.212,3.078,16.326,16.326,0,0,0,.974,2.976,13.789,13.789,0,0,0,2.018,2.808,9.783,9.783,0,0,0,3.279,2.409,11.291,11.291,0,0,0,3.552,1.135,14.589,14.589,0,0,0,3.479,0c1-.122,2.854-.436,4.13-.7s3.85-.977,5.721-1.592a64.16,64.16,0,0,0,6.328-2.517,53.566,53.566,0,0,0,5.179-2.879c1.239-.814,3.036-2.113,3.993-2.886s2.737-2.279,3.956-3.345,2.393-2.081,2.609-2.256q.393-.319-.432,1.491a34.618,34.618,0,0,0-1.409,3.8,20.771,20.771,0,0,0-.717,4.251,10.28,10.28,0,0,0,.284,3.8,5.078,5.078,0,0,0,1.386,2.549c.97,1.012.97,1.012,2.723,1.012a13.455,13.455,0,0,0,3.808-.6c1.13-.328,2.733-.861,3.563-1.185s3.034-1.346,4.9-2.27,4.266-2.251,5.334-2.948a23.354,23.354,0,0,0,3.079-2.406,9.111,9.111,0,0,0,1.56-2.071,5.393,5.393,0,0,0,.423-1.86,5.682,5.682,0,0,0-.461-1.943,24.489,24.489,0,0,0-1.537-2.635A21.6,21.6,0,0,1,90,226.133a10.965,10.965,0,0,1-.806-3.868,11.354,11.354,0,0,1,.368-4,26.227,26.227,0,0,1,1.4-3.874,40.231,40.231,0,0,1,2.244-4c.727-1.117,1.982-2.88,2.79-3.917s2.529-2.968,3.824-4.291,1.97-1.953,1.5-1.4-1.461,1.927-2.2,3.052a28.382,28.382,0,0,0-2.067,3.783,31.349,31.349,0,0,0-1.092,3.094,20.729,20.729,0,0,0-.5,3.329,14.618,14.618,0,0,0,.139,3.247,13.633,13.633,0,0,0,.81,2.45,10.189,10.189,0,0,0,1.295,2.029,2.712,2.712,0,0,0,1.066.855c.174,0,.436-.224.582-.5a21.568,21.568,0,0,0,.465-4c.109-1.927.319-4.39.466-5.474a27.27,27.27,0,0,1,.726-3.479,19.823,19.823,0,0,1,1.189-2.893,14.1,14.1,0,0,1,2.007-2.689,10.457,10.457,0,0,1,3.015-2.137,44.688,44.688,0,0,1,5.45-1.877c2.041-.574,4.8-1.424,6.131-1.888s3.373-1.289,4.537-1.833a41.282,41.282,0,0,0,3.98-2.184,20.639,20.639,0,0,0,3.148-2.542,13.247,13.247,0,0,0,1.869-2.5,22.481,22.481,0,0,0,1.117-2.887,13.525,13.525,0,0,0,.544-4.633c.006-1.595-.06-3.525-.148-4.291l-.159-1.391,1.057,2.176c.581,1.2,1.5,3.441,2.048,4.986s1.273,4.063,1.617,5.594.769,3.983.945,5.45.322,3.726.326,5.02-.1,3.433-.237,4.755-.458,3.445-.719,4.721-.835,3.415-1.275,4.754a52.767,52.767,0,0,1-2.273,5.45c-.811,1.658-2,3.824-2.652,4.812-.919,1.4-1.089,1.8-.776,1.8a18.974,18.974,0,0,0,2.648-.777,24.871,24.871,0,0,0,3.827-1.719,29.886,29.886,0,0,0,3.089-2.2,22.084,22.084,0,0,0,2.827-2.975,26.97,26.97,0,0,0,2.245-3.578,23.944,23.944,0,0,0,1.4-3.595,28.021,28.021,0,0,0,.683-3.78,12.4,12.4,0,0,1,.328-2.162,6.592,6.592,0,0,1,.318,1.924c.108,1.125.192,4.655.186,7.844a56.788,56.788,0,0,1-.414,8.465c-.222,1.467-.706,3.92-1.075,5.45s-1,3.763-1.4,4.961-1.131,3.085-1.619,4.194a35.21,35.21,0,0,1-1.649,3.273c-.419.691-1.233,1.882-1.81,2.647a38.072,38.072,0,0,1-2.919,3.247,32.646,32.646,0,0,1-3.659,3.085,35.945,35.945,0,0,1-3.588,2.126,28.976,28.976,0,0,1-3.539,1.437,11.753,11.753,0,0,1-3.943.542,6.323,6.323,0,0,1-3.13-.464,9.979,9.979,0,0,1-2.551-2.5,22.649,22.649,0,0,0-2.642-2.841c-.56-.442-1.038-.8-1.062-.8a14.888,14.888,0,0,0,.649,1.4,8.109,8.109,0,0,1,.845,3.885,5.584,5.584,0,0,0,2.012,5.06,11.945,11.945,0,0,0,2.545,1.75,7.786,7.786,0,0,0,3.64.881l2.13.138-1.748.859A14.61,14.61,0,0,1,121,261.85a8.448,8.448,0,0,1-3.183.024,13.464,13.464,0,0,1-2.822-.84,11.4,11.4,0,0,1-2.52-1.762,11.99,11.99,0,0,1-1.967-2.531c-.4-.744-1.19-2.565-1.762-4.047s-1.348-3.3-1.722-4.042a14.173,14.173,0,0,0-1.763-2.552,4.287,4.287,0,0,0-2.014-1.455,4.123,4.123,0,0,0-2.067-.007,19.229,19.229,0,0,0-2.588.833,34.5,34.5,0,0,0-3.656,1.9c-1.212.723-5.96,3.831-10.552,6.907s-9.863,6.468-11.712,7.536-4.928,2.695-6.842,3.614-4.5,2.052-5.758,2.518-3.5,1.2-4.986,1.624-3.7.958-4.911,1.179a45.741,45.741,0,0,1-7.074.47Zm105.549-67.912c-.077.077-.132-.06-.122-.3.011-.27.066-.325.14-.14A.467.467,0,0,1,148.649,203.309Z" transform="translate(-1.706 -28.077)" fill="#e9f1f2"/>
</svg>
