<svg xmlns="http://www.w3.org/2000/svg" viewBox="0 0 39.359 36.795">
  <g id="Scroll" transform="translate(-585.268 -477.081)">
    <path id="Path_9" data-name="Path 9" d="M2905.581,993.705,2925.162,976s-9.791,4.426-19.581,4.426S2886,976,2886,976Z" transform="translate(-2300.731 -479.829)"/>
    <path id="Path_235" data-name="Path 235" d="M5.585-7.03a2.316,2.316,0,0,1-.2.971,2.066,2.066,0,0,1-.549.728A2.449,2.449,0,0,1,4-4.874a3.413,3.413,0,0,1-1.059.158,3.6,3.6,0,0,1-.738-.073,4.307,4.307,0,0,1-.618-.173,3.314,3.314,0,0,1-.457-.2,1.158,1.158,0,0,1-.255-.177.437.437,0,0,1-.1-.17.8.8,0,0,1-.032-.243,1.016,1.016,0,0,1,.013-.177.428.428,0,0,1,.035-.113.122.122,0,0,1,.057-.06.173.173,0,0,1,.073-.016.507.507,0,0,1,.249.11,3.714,3.714,0,0,0,.416.24,3.955,3.955,0,0,0,.612.24,2.809,2.809,0,0,0,.829.11,2.284,2.284,0,0,0,.706-.1,1.638,1.638,0,0,0,.555-.3,1.336,1.336,0,0,0,.363-.482,1.573,1.573,0,0,0,.129-.653,1.232,1.232,0,0,0-.164-.649,1.715,1.715,0,0,0-.432-.476,3.634,3.634,0,0,0-.608-.372q-.34-.167-.7-.334t-.7-.363a3.013,3.013,0,0,1-.608-.457,2.067,2.067,0,0,1-.432-.615,1.977,1.977,0,0,1-.164-.839,2.03,2.03,0,0,1,.17-.848,1.8,1.8,0,0,1,.479-.637,2.147,2.147,0,0,1,.741-.4,3.09,3.09,0,0,1,.949-.139,2.792,2.792,0,0,1,.523.05,3.88,3.88,0,0,1,.5.129,2.84,2.84,0,0,1,.422.177,1.128,1.128,0,0,1,.246.158.5.5,0,0,1,.076.088.348.348,0,0,1,.028.073.618.618,0,0,1,.019.1,1.453,1.453,0,0,1,.006.148,1.054,1.054,0,0,1-.009.148A.5.5,0,0,1,5.1-11.9a.189.189,0,0,1-.047.073.1.1,0,0,1-.066.025.464.464,0,0,1-.211-.091q-.142-.091-.356-.2a2.964,2.964,0,0,0-.511-.2,2.288,2.288,0,0,0-.675-.091,1.9,1.9,0,0,0-.649.1,1.308,1.308,0,0,0-.46.274,1.115,1.115,0,0,0-.274.407,1.336,1.336,0,0,0-.091.492,1.232,1.232,0,0,0,.164.649,1.735,1.735,0,0,0,.435.479,3.571,3.571,0,0,0,.615.375q.344.167.7.334t.7.359a2.966,2.966,0,0,1,.615.454,2.051,2.051,0,0,1,.435.612A1.939,1.939,0,0,1,5.585-7.03Zm8.144,1.236a1.307,1.307,0,0,1-.006.136.618.618,0,0,1-.019.1.3.3,0,0,1-.035.079.872.872,0,0,1-.1.117,1.832,1.832,0,0,1-.274.208,2.376,2.376,0,0,1-.432.221,3.308,3.308,0,0,1-.517.154,2.711,2.711,0,0,1-.574.06,2.613,2.613,0,0,1-1.05-.2A1.967,1.967,0,0,1,9.952-5.5a2.693,2.693,0,0,1-.47-.952,4.766,4.766,0,0,1-.161-1.3,4.509,4.509,0,0,1,.2-1.425,2.671,2.671,0,0,1,.545-.971,2.135,2.135,0,0,1,.81-.558,2.723,2.723,0,0,1,.993-.18,2.666,2.666,0,0,1,.542.054,2.749,2.749,0,0,1,.476.142,2.165,2.165,0,0,1,.388.2,1.707,1.707,0,0,1,.249.192,1.008,1.008,0,0,1,.107.12.335.335,0,0,1,.044.091.57.57,0,0,1,.022.11,1.378,1.378,0,0,1,.006.142.448.448,0,0,1-.054.255.148.148,0,0,1-.117.073.367.367,0,0,1-.218-.113,3.285,3.285,0,0,0-.331-.249,2.577,2.577,0,0,0-.489-.249,1.858,1.858,0,0,0-.684-.113,1.455,1.455,0,0,0-1.264.631A3.144,3.144,0,0,0,10.1-7.781a4.111,4.111,0,0,0,.12,1.05,2.174,2.174,0,0,0,.344.75,1.413,1.413,0,0,0,.545.448,1.713,1.713,0,0,0,.725.148,1.74,1.74,0,0,0,.668-.12,2.823,2.823,0,0,0,.5-.265,4.254,4.254,0,0,0,.356-.265.413.413,0,0,1,.211-.12.1.1,0,0,1,.066.022.161.161,0,0,1,.047.069.5.5,0,0,1,.028.113A1.106,1.106,0,0,1,13.729-5.794Zm7.255-4.571q0,.095-.006.161a.415.415,0,0,1-.022.107.179.179,0,0,1-.038.063.081.081,0,0,1-.06.022.385.385,0,0,1-.132-.028q-.076-.028-.177-.06t-.221-.06a1.15,1.15,0,0,0-.265-.028.819.819,0,0,0-.334.073,1.345,1.345,0,0,0-.344.233,2.937,2.937,0,0,0-.378.426q-.2.265-.438.649V-4.95a.132.132,0,0,1-.019.069.131.131,0,0,1-.06.05.473.473,0,0,1-.113.032,1.121,1.121,0,0,1-.186.013,1.074,1.074,0,0,1-.18-.013.537.537,0,0,1-.117-.032.113.113,0,0,1-.06-.05.153.153,0,0,1-.016-.069v-5.706a.153.153,0,0,1,.016-.069.127.127,0,0,1,.06-.054A.362.362,0,0,1,18-10.81a1.276,1.276,0,0,1,.173-.009,1.349,1.349,0,0,1,.177.009.3.3,0,0,1,.107.032.131.131,0,0,1,.054.054.153.153,0,0,1,.016.069v.9a4.839,4.839,0,0,1,.454-.58,2.237,2.237,0,0,1,.4-.344,1.213,1.213,0,0,1,.369-.167,1.541,1.541,0,0,1,.369-.044q.082,0,.189.009a2.045,2.045,0,0,1,.23.035,1.66,1.66,0,0,1,.221.06.554.554,0,0,1,.136.063.187.187,0,0,1,.05.05.246.246,0,0,1,.022.057.469.469,0,0,1,.013.095Q20.984-10.461,20.984-10.366Zm8.668,2.5a4.25,4.25,0,0,1-.177,1.255,2.861,2.861,0,0,1-.527,1,2.4,2.4,0,0,1-.873.659,2.931,2.931,0,0,1-1.217.236,3,3,0,0,1-1.17-.211,2.22,2.22,0,0,1-.839-.605,2.579,2.579,0,0,1-.5-.955,4.439,4.439,0,0,1-.167-1.267,4.322,4.322,0,0,1,.173-1.255A2.788,2.788,0,0,1,24.875-10a2.382,2.382,0,0,1,.873-.653,2.982,2.982,0,0,1,1.223-.233,3.035,3.035,0,0,1,1.17.208,2.164,2.164,0,0,1,.835.6,2.642,2.642,0,0,1,.5.955A4.338,4.338,0,0,1,29.652-7.863Zm-.794.069a4.414,4.414,0,0,0-.095-.927,2.281,2.281,0,0,0-.315-.779,1.587,1.587,0,0,0-.593-.536,1.952,1.952,0,0,0-.927-.2,1.981,1.981,0,0,0-.883.183,1.628,1.628,0,0,0-.608.508,2.23,2.23,0,0,0-.35.766,3.814,3.814,0,0,0-.113.952,4.49,4.49,0,0,0,.095.936,2.247,2.247,0,0,0,.315.779,1.572,1.572,0,0,0,.593.53,1.978,1.978,0,0,0,.927.2,1.981,1.981,0,0,0,.883-.183,1.64,1.64,0,0,0,.608-.5,4.132,4.132,0,0,0,.35-.763A7.127,7.127,0,0,0,28.857-7.793ZM34.668-4.95a.132.132,0,0,1-.019.069.131.131,0,0,1-.06.05.473.473,0,0,1-.113.032,1.121,1.121,0,0,1-.186.013,1.074,1.074,0,0,1-.18-.013.537.537,0,0,1-.117-.032.113.113,0,0,1-.06-.05.153.153,0,0,1-.016-.069v-8.5a.153.153,0,0,1,.016-.069.127.127,0,0,1,.06-.054.372.372,0,0,1,.117-.032,1.426,1.426,0,0,1,.18-.009,1.489,1.489,0,0,1,.186.009.335.335,0,0,1,.113.032.151.151,0,0,1,.06.054.132.132,0,0,1,.019.069Zm5.433,0a.132.132,0,0,1-.019.069.131.131,0,0,1-.06.05.473.473,0,0,1-.114.032,1.121,1.121,0,0,1-.186.013,1.074,1.074,0,0,1-.18-.013.537.537,0,0,1-.117-.032.113.113,0,0,1-.06-.05.153.153,0,0,1-.016-.069v-8.5a.153.153,0,0,1,.016-.069.127.127,0,0,1,.06-.054.372.372,0,0,1,.117-.032,1.426,1.426,0,0,1,.18-.009,1.489,1.489,0,0,1,.186.009.335.335,0,0,1,.114.032.151.151,0,0,1,.06.054.132.132,0,0,1,.019.069Z" transform="translate(584.526 490.695)" />
  </g>
</svg>
