<svg xmlns="http://www.w3.org/2000/svg" viewBox="0 0 64 41.461">
  <g id="Scroll" transform="translate(-928 -910.539)">
    <path id="Path_9" data-name="Path 9" d="M2897.358,1002.845a46.143,46.143,0,0,1,12-13.474c8-6,20-10.526,20-10.526l-20,3.789s-6,6.737-12,6.737-12-6.737-12-6.737l-20-3.789s12,4.526,20,10.526A46.143,46.143,0,0,1,2897.358,1002.845Z" transform="translate(-1937.358 -50.845)" fill="#fff"/>
    <path id="Path_235" data-name="Path 235" d="M5.892-6.613a2.463,2.463,0,0,1-.208,1.033,2.2,2.2,0,0,1-.583.774,2.6,2.6,0,0,1-.892.486,3.63,3.63,0,0,1-1.126.168A3.828,3.828,0,0,1,2.3-4.23a4.58,4.58,0,0,1-.657-.184,3.524,3.524,0,0,1-.486-.218A1.231,1.231,0,0,1,.883-4.82.465.465,0,0,1,.776-5a.851.851,0,0,1-.034-.258,1.081,1.081,0,0,1,.013-.188.455.455,0,0,1,.037-.121.129.129,0,0,1,.06-.064A.184.184,0,0,1,.93-5.648a.539.539,0,0,1,.265.117,3.949,3.949,0,0,0,.443.255,4.205,4.205,0,0,0,.65.255,2.987,2.987,0,0,0,.882.117,2.429,2.429,0,0,0,.751-.111,1.742,1.742,0,0,0,.59-.318A1.42,1.42,0,0,0,4.9-5.846a1.672,1.672,0,0,0,.137-.694,1.31,1.31,0,0,0-.174-.691A1.823,1.823,0,0,0,4.4-7.736a3.864,3.864,0,0,0-.647-.4q-.362-.178-.741-.355t-.741-.386a3.2,3.2,0,0,1-.647-.486,2.2,2.2,0,0,1-.459-.654A2.1,2.1,0,0,1,.99-10.9a2.159,2.159,0,0,1,.181-.9,1.91,1.91,0,0,1,.51-.677,2.283,2.283,0,0,1,.788-.426,3.286,3.286,0,0,1,1.009-.148A2.969,2.969,0,0,1,4.034-13a4.126,4.126,0,0,1,.533.137,3.02,3.02,0,0,1,.449.188,1.2,1.2,0,0,1,.261.168.527.527,0,0,1,.08.094.37.37,0,0,1,.03.077.657.657,0,0,1,.02.111,1.545,1.545,0,0,1,.007.158,1.121,1.121,0,0,1-.01.158.528.528,0,0,1-.03.121.2.2,0,0,1-.05.077.1.1,0,0,1-.07.027.494.494,0,0,1-.225-.1q-.151-.1-.379-.218a3.152,3.152,0,0,0-.543-.218,2.433,2.433,0,0,0-.717-.1,2.019,2.019,0,0,0-.691.107,1.391,1.391,0,0,0-.489.292,1.185,1.185,0,0,0-.292.432,1.42,1.42,0,0,0-.1.523A1.31,1.31,0,0,0,2-10.274a1.845,1.845,0,0,0,.463.51,3.8,3.8,0,0,0,.654.4q.365.178.744.355t.744.382a3.154,3.154,0,0,1,.654.483,2.181,2.181,0,0,1,.463.65A2.062,2.062,0,0,1,5.892-6.613ZM14.552-5.3a1.389,1.389,0,0,1-.007.144.657.657,0,0,1-.02.111.318.318,0,0,1-.037.084.927.927,0,0,1-.111.124,1.948,1.948,0,0,1-.292.221,2.527,2.527,0,0,1-.459.235,3.518,3.518,0,0,1-.55.164,2.883,2.883,0,0,1-.61.064,2.778,2.778,0,0,1-1.116-.211,2.092,2.092,0,0,1-.815-.624A2.863,2.863,0,0,1,10.036-6a5.068,5.068,0,0,1-.171-1.385A4.8,4.8,0,0,1,10.076-8.9a2.84,2.84,0,0,1,.58-1.033,2.27,2.27,0,0,1,.862-.593,2.9,2.9,0,0,1,1.056-.191,2.835,2.835,0,0,1,.577.057,2.923,2.923,0,0,1,.506.151,2.3,2.3,0,0,1,.412.215,1.815,1.815,0,0,1,.265.2,1.072,1.072,0,0,1,.114.127.356.356,0,0,1,.047.1.606.606,0,0,1,.023.117,1.466,1.466,0,0,1,.007.151.476.476,0,0,1-.057.272.158.158,0,0,1-.124.077.391.391,0,0,1-.231-.121,3.492,3.492,0,0,0-.352-.265,2.741,2.741,0,0,0-.52-.265,1.976,1.976,0,0,0-.727-.121,1.547,1.547,0,0,0-1.344.67A3.343,3.343,0,0,0,10.7-7.411a4.371,4.371,0,0,0,.127,1.116,2.311,2.311,0,0,0,.365.8,1.5,1.5,0,0,0,.58.476,1.822,1.822,0,0,0,.771.158,1.85,1.85,0,0,0,.711-.127,3,3,0,0,0,.536-.282,4.524,4.524,0,0,0,.379-.282.439.439,0,0,1,.225-.127.111.111,0,0,1,.07.023.172.172,0,0,1,.05.074.528.528,0,0,1,.03.121A1.176,1.176,0,0,1,14.552-5.3Zm7.715-4.861q0,.1-.007.171a.441.441,0,0,1-.023.114.19.19,0,0,1-.04.067.086.086,0,0,1-.064.023.41.41,0,0,1-.141-.03q-.08-.03-.188-.064t-.235-.064a1.223,1.223,0,0,0-.282-.03.871.871,0,0,0-.355.077,1.43,1.43,0,0,0-.365.248,3.124,3.124,0,0,0-.4.453q-.211.282-.466.691v4.1a.141.141,0,0,1-.02.074.139.139,0,0,1-.064.054.5.5,0,0,1-.121.034,1.192,1.192,0,0,1-.2.013,1.142,1.142,0,0,1-.191-.013.571.571,0,0,1-.124-.034.12.12,0,0,1-.064-.054A.163.163,0,0,1,18.9-4.4v-6.068a.163.163,0,0,1,.017-.074.135.135,0,0,1,.064-.057.385.385,0,0,1,.117-.034,1.357,1.357,0,0,1,.184-.01,1.435,1.435,0,0,1,.188.01.315.315,0,0,1,.114.034.14.14,0,0,1,.057.057.163.163,0,0,1,.017.074v.959a5.145,5.145,0,0,1,.483-.617,2.379,2.379,0,0,1,.422-.365,1.29,1.29,0,0,1,.392-.178,1.638,1.638,0,0,1,.392-.047q.087,0,.2.01a2.174,2.174,0,0,1,.245.037,1.765,1.765,0,0,1,.235.064.589.589,0,0,1,.144.067.2.2,0,0,1,.054.054.262.262,0,0,1,.023.06.5.5,0,0,1,.013.1Q22.266-10.261,22.266-10.16ZM31.483-7.5A4.519,4.519,0,0,1,31.3-6.164a3.042,3.042,0,0,1-.56,1.059,2.549,2.549,0,0,1-.929.7,3.116,3.116,0,0,1-1.294.251,3.184,3.184,0,0,1-1.244-.225,2.361,2.361,0,0,1-.892-.644,2.742,2.742,0,0,1-.536-1.016,4.72,4.72,0,0,1-.178-1.348,4.6,4.6,0,0,1,.184-1.334A2.964,2.964,0,0,1,26.4-9.775a2.533,2.533,0,0,1,.929-.694,3.171,3.171,0,0,1,1.3-.248,3.227,3.227,0,0,1,1.244.221,2.3,2.3,0,0,1,.888.64A2.809,2.809,0,0,1,31.3-8.839,4.613,4.613,0,0,1,31.483-7.5Zm-.845.074a4.694,4.694,0,0,0-.1-.986,2.425,2.425,0,0,0-.335-.828,1.688,1.688,0,0,0-.63-.57,2.075,2.075,0,0,0-.986-.211,2.107,2.107,0,0,0-.939.194,1.731,1.731,0,0,0-.647.54,2.372,2.372,0,0,0-.372.815,4.056,4.056,0,0,0-.121,1.012,4.775,4.775,0,0,0,.1,1,2.389,2.389,0,0,0,.335.828,1.671,1.671,0,0,0,.63.563,2.1,2.1,0,0,0,.986.208,2.107,2.107,0,0,0,.939-.194,1.744,1.744,0,0,0,.647-.536,2.335,2.335,0,0,0,.372-.811A4.084,4.084,0,0,0,30.638-7.425ZM36.818-4.4a.141.141,0,0,1-.02.074.139.139,0,0,1-.064.054.5.5,0,0,1-.121.034,1.192,1.192,0,0,1-.2.013,1.142,1.142,0,0,1-.191-.013.571.571,0,0,1-.124-.034.12.12,0,0,1-.064-.054A.163.163,0,0,1,36.02-4.4v-9.038a.163.163,0,0,1,.017-.074.135.135,0,0,1,.064-.057.4.4,0,0,1,.124-.034,1.515,1.515,0,0,1,.191-.01,1.582,1.582,0,0,1,.2.01.356.356,0,0,1,.121.034.16.16,0,0,1,.064.057.141.141,0,0,1,.02.074Zm5.777,0a.141.141,0,0,1-.02.074.139.139,0,0,1-.064.054.5.5,0,0,1-.121.034,1.192,1.192,0,0,1-.2.013A1.142,1.142,0,0,1,42-4.24a.571.571,0,0,1-.124-.034.12.12,0,0,1-.064-.054A.163.163,0,0,1,41.8-4.4v-9.038a.163.163,0,0,1,.017-.074.135.135,0,0,1,.064-.057A.4.4,0,0,1,42-13.6a1.515,1.515,0,0,1,.191-.01,1.582,1.582,0,0,1,.2.01.357.357,0,0,1,.121.034.16.16,0,0,1,.064.057.141.141,0,0,1,.02.074Z" transform="translate(938.552 924.153)"/>
  </g>
</svg>
