<svg xmlns="http://www.w3.org/2000/svg" xmlns:xlink="http://www.w3.org/1999/xlink" viewBox="0 0 1927 1509">
  <defs>
    <clipPath id="clip-path">
      <rect id="Rectangle_88" data-name="Rectangle 88" width="1927" height="1509" fill="#fff" stroke="#707070" stroke-width="1"/>
    </clipPath>
    <radialGradient id="radial-gradient" cx="0.465" cy="0.363" r="0.277" gradientUnits="objectBoundingBox">
      <stop offset="0" stop-color="#00ffd4"/>
      <stop offset="1" stop-color="#000236" stop-opacity="0"/>
    </radialGradient>
    <linearGradient id="linear-gradient" x1="0.5" x2="0.5" y2="1" gradientUnits="objectBoundingBox">
      <stop offset="0" stop-color="#6e00ff"/>
      <stop offset="1" stop-color="#000236" stop-opacity="0"/>
    </linearGradient>
    <linearGradient id="linear-gradient-2" x1="0.5" x2="0.5" y2="1" gradientUnits="objectBoundingBox">
      <stop offset="0" stop-color="#ff00d6"/>
      <stop offset="1" stop-color="#000236" stop-opacity="0"/>
    </linearGradient>
    <linearGradient id="linear-gradient-3" x1="0.5" y1="0" x2="0.5" y2="1" xlink:href="#radial-gradient"/>
    <radialGradient id="radial-gradient-2" cx="0.582" cy="0.434" r="1.347" gradientUnits="objectBoundingBox">
      <stop offset="0" stop-color="#00ffd4"/>
      <stop offset="0.301" stop-color="#003092" stop-opacity="0"/>
      <stop offset="0.708" stop-color="#003092" stop-opacity="0"/>
      <stop offset="1" stop-color="#003599" stop-opacity="0"/>
    </radialGradient>
    <linearGradient id="linear-gradient-5" x1="0.5" x2="0.5" y2="1" gradientUnits="objectBoundingBox">
      <stop offset="0" stop-color="#ff00c5"/>
      <stop offset="1" stop-color="#000236" stop-opacity="0"/>
    </linearGradient>
    <linearGradient id="linear-gradient-6" x1="0.5" y1="1" x2="0.5" gradientUnits="objectBoundingBox">
      <stop offset="0" stop-color="aqua"/>
      <stop offset="1" stop-color="#000236" stop-opacity="0"/>
    </linearGradient>
    <linearGradient id="linear-gradient-7" x1="0.5" y1="1" x2="0.5" y2="0" xlink:href="#radial-gradient"/>
    <linearGradient id="linear-gradient-8" x1="0.5" x2="0.5" y2="1" gradientUnits="objectBoundingBox">
      <stop offset="0" stop-color="#00ffa2"/>
      <stop offset="1" stop-color="#000236" stop-opacity="0"/>
    </linearGradient>
    <linearGradient id="linear-gradient-10" x1="0.5" y1="1" x2="0.584" y2="-0.042" xlink:href="#radial-gradient"/>
    <linearGradient id="linear-gradient-11" x1="0.5" y1="1" x2="0.5" gradientUnits="objectBoundingBox">
      <stop offset="0" stop-color="#0cf"/>
      <stop offset="1" stop-color="#000236" stop-opacity="0"/>
    </linearGradient>
    <linearGradient id="linear-gradient-13" x1="0.5" x2="0.5" y2="1" gradientUnits="objectBoundingBox">
      <stop offset="0" stop-color="#f00060"/>
      <stop offset="1" stop-color="#006578" stop-opacity="0"/>
    </linearGradient>
  </defs>
  <g id="seeker-bg" clip-path="url(#clip-path)">
    <g id="seeker-bg-2" data-name="seeker-bg">
      <g id="Group_17" data-name="Group 17" transform="translate(477.044 872.449)">
        <path id="Color_Fill_2" data-name="Color Fill 2" d="M-29,154.246H49.761c6-1.625,12.746-4.937,18.468-7.082,19.128-7.172,34.43-12.506,48.343-24.08l-.543-4.722c-11.2-5.87-27.79-6.138-46.17-6.138-27.35,0-52.439,3.835-72.786,10.388-6.316,2.034-12.306,3.588-17.925,5.666-2.039.755-7.174,1.275-8.148,2.833Zm103.747,0H183.926c1.965-.583,3.838-2.768,5.432-3.777,10.2-6.458,19.6-16.431,19.554-31.635-1.8-1.184-3.69-3.074-5.975-3.777-8.791-2.705-28.313.964-35.307,2.833-24.527,6.555-48.58,13.074-68.44,23.608C91.2,145.734,81.061,148.539,74.747,154.246Zm123.3,0h16.3c2.639-3.42,7.045-5.094,7.6-10.388l-3.259-2.361h-5.975C209.253,142.5,200.131,151.5,198.048,154.246Zm26.616,0h46.713c2.444-3.231,6.6-5.474,9.234-8.5,6.807-7.828,14.5-14.655,21.184-22.664,3.484-4.177,9.3-8.04,9.777-14.637a13.323,13.323,0,0,0-3.8-.472c-1.345,1.018-3.259,1.032-4.889,1.889-4.23,2.224-8.789,4.627-13.036,7.082-14.385,8.32-28.825,17.452-43.454,25.5C239.45,146.258,230.25,149.185,224.664,154.246Zm58.663,0c11.4.184,30.826,1.549,40.738-.472,36.08-7.357,80.213-10.443,111.895-22.192,15.639-5.8,29.06-11.851,28.788-31.635-7.553-2.866-16.173-5.314-24.443-7.555-3.965-1.074-7.868-.819-10.864-2.361a41.176,41.176,0,0,1-12.493-1.416l-3.8.472-13.036-.472a21.386,21.386,0,0,1-6.518.472c-5.878-.924-19.693,2.387-26.073,4.249-26.1,7.618-48.131,16.851-63.009,34C297.8,135.071,286.486,143.777,283.327,154.246Zm156.978-14.165c-7.447-.033-13.755,4.066-19.554,6.138-7.717,2.757-16.756,3.825-24.986,5.666-5.549,1.241-18.721.057-22.813,2.361h73.329V153.3C444.224,151.012,440.9,143.328,440.306,140.081Zm21.727,14.165h69.527c4.373-4.863,9.924-7.421,11.95-14.637,2.075-7.39-4.639-11.694-7.6-15.109-8.029-9.251-20.944-13.627-34.763-17.942-4.98-1.555-13.475-3.513-20.1-1.889-12.428,3.049-9.516,10.44-15.752,17.942-3.259,3.919-8.645,6.952-10.32,12.276C452.1,144,461.668,146.884,462.033,154.246Zm108.636,0h57.577c7.452-13.251,3.862-28.383-10.863-32.579-18.87-5.376-46.273,2.379-55.4,10.388-3.357,2.944-8.848,10.46-4.889,16.526C559.8,152.743,566.317,151.488,570.668,154.246Zm131.992,0h84.193v-.472h-.543c-4.237-3.572-9.994-5.79-13.579-9.915-10.255-11.8-21.575-25.864-40.738-29.746-3.254-.661-9-.019-11.407.472-3.911.8-6.752.425-10.32,1.416-7.583,2.109-14.552,4.243-24.986,4.249-12.4.007-22.564-1.428-33.134-2.361-3.509-.309-11.124-1.616-14.123,0-2.238.6-2.662,1.237-2.716,3.777,1.613,1.689,2.3,3.905,3.8,5.666,7.018,8.216,24.177,17,35.85,21.247,6.067,2.208,12.987,3.327,19.554,4.722C697.321,153.9,700.58,153.088,702.66,154.246Zm51.6-37.3c.2.98.13.908.543,1.416,2.52,6.521,16.692,12.871,23.357,16.526,8.843,4.85,18,9.69,27.159,14.637,2.292,1.238,5.062,3.958,7.6,4.722H918.3c3.944,0,11.885,1.022,14.666-.472-6.078-.721-11.477-4.426-16.3-6.61-13.416-6.08-25.366-12.84-39.652-17.942C844.321,117.543,798.83,116.341,754.262,116.945Zm259.639,37.3c.043-6.55.244-14.032-.543-19.831l-16.3-5.194c-15.127-4.232-39.7-6.225-57.034-2.361-7.154,1.594-17.735,1.5-20.1,7.082-.521.669-.532,1.545-.543,2.833,6.149,4.936,13.2,7.791,20.641,11.8,2.167,1.171,4.59,3.476,7.061,4.249,6.616,2.07,15.546,1.416,23.9,1.416ZM224.664,140.553c16.932.094,31.244-10.941,41.281-17.47,4.009-2.607,8.811-5.194,9.234-10.86-.435-.482-.193-.129-.543-.944-16.929-8.908-42.86,1.364-50.516,11.332-3.944,5.135-7.76,11.753-1.63,17.47A3.934,3.934,0,0,1,224.664,140.553Zm789.237-10.86c.038-6.466-.06-13.616-.543-19.359a234.8,234.8,0,0,1-41.825-3.777c-8.414-1.621-17-.87-24.986-2.361-8.919-1.666-22.357-.245-22.813,6.138,1.4,1.215,2.156,3.274,3.8,4.249,11.418,6.765,33.764,4.758,49.429,8.027,6.442,1.344,13.373,1.671,20.1,3.305C1002.364,127.2,1008.144,129,1013.9,129.693Zm-142.313-3.305c14.834.368,26.208-1.09,35.85-4.722,3.906-1.47,7.876-1.968,8.148-6.61l-1.629-.472c-2.08-1.14-4.574-.339-7.6-.944-8.609-1.72-18.425-.815-26.616-2.833-21.173-5.215-34.7-16.813-61.379-17a4.552,4.552,0,0,0-1.086,2.833c2.01,2.137,3.009,4.907,4.889,7.082,5.193,6.021,18.734,13.8,27.159,17a136.324,136.324,0,0,0,16.3,4.722C867.8,125.969,870,125.482,871.589,126.388Zm-312.327-3.777c20.787.406,34.177-6.388,44.541-15.109v-4.249c-3-2.649-5.062-5.918-8.691-8.027-7.056-4.1-17.849-7.119-23.9-10.388-2.7-1.464-13.541-3.884-16.838-4.722-1-.255-1.874.625-2.173.472-4.8-2.439-14.394-3.883-17.925-3.777-1.537.047-.456-.725-1.086-.944-1.195-.416-2.249.6-2.716.472-3.639-.979-9.669-2.52-14.123-1.889-2.879.408-2.766-1.039-5.432-.944-11.383.4-24.911-.634-28.788,6.61-1.029,1.211-1.112,3.035-1.086,5.194,2.556,1.869,3.934,6.19,5.975,8.5,4.028,4.555,19.853,12.064,26.616,14.637,10.233,3.893,20.923,6.992,31.5,10.388C549.474,120.225,555.829,120.272,559.262,122.611ZM244.218,34.317V32.428h-1.086V32.9h-.543v-.472c-1.071-.7.3-.673-1.629-.944-2.67,1.352-6.153-1.093-8.148-.472-.98.305.245.932-2.173,1.416-.209-1.236.4-.619-1.086-.944-1.442,1.871-.67.928-3.259.472-.45,1.532.266.721-1.086,1.416-.791-1.2.118-.533-1.63-.944-.45,1.532.266.721-1.086,1.416-.209-1.236.4-.619-1.086-.944-.643,1.252.489.847-1.086,1.416-1.7-.695-3.34.468-5.975.472v.472h.543c1.045.366-1.086.472-1.086.472-.3-.614-.016-.35-.543-.472-.84.535-.458.512-1.63.944v-.472h.543c1.045-.366-1.086-.472-1.086-.472-1.588,2.872-10.734,2.351-13.579,3.777-3.827,1.919-6.026,1.34-11.95,3.305C174.523,46,165.508,48.166,154.594,53.2c-6.295,2.906-14.085,4.981-16.3,11.332.45.784.129,1.221,0,2.833l1.086-.472v.472c-.435.482-.193.129-.543.944,2.343,1.391,4.7,3.942,7.6,4.722,4.4,1.18,12.5-2.016,16.839-2.361l-.543-.944h.543c1.888.909,4.237-.735,5.975,0-1.369.69-.993.593-1.086,2.361-11.747,1.343-25.068,13.457-32.047,19.831v.944a6.247,6.247,0,0,0,3.259.944c2.125,1.153,16.649-1.533,19.554-2.361,14.608-4.163,30.869-8.327,42.911-13.22,5.045-2.05,13.805-3.437,16.3-7.555.457-.569.2-.434.543-1.416,4.219,1.658,8.29.884,11.95.472.791,1.18.318,1.018,2.173,1.416,2.016-1.216,7.269-1.332,9.777-.944v.472c-5.069.412-9.9,3.352-13.579,5.194-1.738.869-4.547.686-6.518,1.416-6.541,2.424-14.355,5.554-21.184,8.027-14.55,5.268-26.134,4.146-40.2,8.027h-4.345c-8.235,1.786-22.477,3.673-22.813,12.276,2.444,2.921,3.28,6.318,7.061,8.027,9.661,4.365,30.546-1.845,38.022-4.722,15.546-5.981,31.235-10.736,44-18.886,1.166-.744,2.4-.344,3.8-.944,1.768-.755,3.84-2.941,5.432-3.777,1.71-.9,3.31-.422,4.889-1.416l.543-1.416h2.173l.543-1.416c1.412-.72,2.593-.139,3.8-.944l.543-1.416c1.382-.72,2.629-.131,3.8-.944q4.709-3.28,9.777-6.138l1.086-1.416c.6-.189,7.85-.069,9.234,0,.343.828.1.458.543.944a12.486,12.486,0,0,0-.543,5.666c6.286,3.566,13.887,5.332,20.1,6.138,1.512.2,2.316-.917,4.889-.472a65.3,65.3,0,0,0,19.011,0,203.753,203.753,0,0,0,26.616-5.666c8.122-2.373,26.538-4.134,26.616-12.748-.435-.482-.193-.129-.543-.944-3.669-.669-3.883-2.816-6.518-3.777-3.8-1.387-11.013-3.782-16.3-5.194l-2.173.472c-14.742-3.514-35.862-1.113-44.541,1.889-3.236,1.119-5.577,3.277-8.691,3.777a27.894,27.894,0,0,1-3.259-.944c-1.68-.336-11.62.251-12.493.472-.7-1.165.233-.322-1.086-.944,1.218-1.123,1.724-.827,2.173-2.833.326-.417.132-1.555-.543-2.361-1.63-4.155-7.356-5.86-11.95-7.555-11.673-4.3-27.479-2.343-36.393,2.833-2.883,1.674-10.057,10.529-11.407,10.86-3.694-1.958-9.021,1.478-13.579-.944,5.232-.5,18.806-7.7,22.27-10.388,3.028-.229,14.2-6.535,16.839-8.5C240.1,38.2,241.809,34.764,244.218,34.317Zm406.84,80.267c19.826.388,38.859-.967,54.318-4.722,5.5-1.337,13.791-1.4,15.752-5.666.57-.731.56-1.929.543-3.305-1.6-1.4-2.515-3.535-4.345-4.722-12.08-7.845-43.568-19.422-58.663-18.886h-1.086v-.944l-3.259.472c-3.308-.718-8.028-2.036-11.95-1.416-2.135.337-2.792-.7-3.8-.944-2.281-.567-13.922.512-17.925.472l-6.518-.472c-5.568,1.571-11.38.573-17.925,3.305-2.026.844-3.292,2.8-5.432,3.777-.179,1.259-.364,2.519-.543,3.777,3.172,2.281,4.785,6.3,8.148,8.5a167.8,167.8,0,0,0,22.27,12.748c5.769,2.6,12.629,4.459,19.011,6.138C642.982,113.571,648.234,113,651.059,114.584Zm-456.269-3.777a159.613,159.613,0,0,0,29.875-3.305c11.084-2.227,22.625-1.908,32.591-4.249,7.077-1.663,15.678-2.354,17.925-8.027,2.435-2.614.043-6.631-.543-9.443-2.922-.973-4.82-3.45-8.148-4.249-3.35-.805-19.233,1.8-22.27,3.305v.944c-2.287,1.177-4.976.253-7.061,1.416-5.01,2.795-17.194,7.3-24.986,10.86-5.25,2.4-19.518,6.23-20.1,11.8A14.9,14.9,0,0,1,194.789,110.807Zm555.671-.944c18.294.485,32.341-4.252,45.084-8.971,4.775-1.768,10.744-2.183,10.864-8.027-10.157-5.439-27.164-7.394-36.393-9.915l-3.259.472c-.179-.315-.364-.629-.543-.944l-3.259.472c-1.722-.274-4.807-.992-6.518-1.416l-4.889.472c-7.365.331-15-1.622-17.382,3.777-6.611,6.177,4.644,19.544,8.691,21.719C745.066,108.69,748.222,108.621,750.46,109.862Zm-673-3.305c20.468.391,32.637-4.586,44-11.8,3.756-2.386,9.2-5.941,9.777-10.86,3.229-4.2-4.607-10.3-8.148-10.86-2.385,1.077-5.329-.924-8.148,0-1.445.472-5.8,1.306-8.691,2.361-11.3,4.13-19.905,9.93-28.788,15.109-4.706,2.744-13.18,6.067-12.493,11.8,1.449.788,2.7,2.282,4.345,2.833C71.855,105.991,75.332,105.346,77.463,106.557Zm225.962-3.305c15.948.294,29.952-1.213,33.677-11.332.83-2.255-.383-4.876,0-6.138-1.66-.6-2.762-1.856-4.345-2.361-2.7-.861-3.911.4-6.518,0-11.505-1.775-22.832,2.106-30.418,4.722-5.664,1.953-15.727,3.218-15.752,9.915,4.211,2.012,9.729,3.078,15.209,4.249C297.9,102.868,301.44,102.135,303.425,103.252Zm581.743-.472c9.821.228,28.18,1.7,30.961-4.249.521-.669.532-1.545.543-2.833-10.608-8.633-22.026-12.043-36.393-16.526-2.026-.632-12.482-4.072-14.123-2.833-2.428-1.64-17.251-3.791-20.641-3.305-1.749.251-1.445-.724-2.173-.944l-5.432.472c-5.312-1.5-19.875-1.7-21.727,2.361-.793,1.113-.239,1.779,0,3.305,2.819.778,3.134,2.62,4.889,4.249,2.661-.458,6.105,3.008,8.691,4.249,8.034,3.861,16.887,7.231,25.529,10.388l18.468,4.249C877.325,102.219,882.284,101.215,885.168,102.78ZM462.033,93.337c2.58.08,4.635,0,5.975-.944,8.916-2.214,12.343-20.639,1.086-22.192-2.237,1.158-4.742-.549-7.061,0-9.631,2.279-24.819,2.528-36.936.944v-.472h19.555c1.665-.882,4.671-.014,7.061-.472l20.1-2.833-.543-.944h.543c1.319.7,2.738.137,4.889,0v-.472h-.543c-1.044-.366,1.086-.472,1.086-.472.583.355.514.283,1.63.472l-.543-.944h.543c1.081.539,1.525,0,4.345,0,.017-2.21,25.6-3.717,25.529-13.693C482.792,36.6,431.521,39.309,401.2,46.121c-13.478,3.028-31.334.749-44.541,3.305v2.361c.435.482.193.129.543.944,7.847,3.406,24.772,12.378,30.961,11.332v.472s-.042.082,1.086.472c2.1.072,8.335,2.994,11.95,1.889v.472c.19.364.029.316,2.173.472v-.472h.543v.472c.19.364.029.316,2.173.472V67.84h.543v.472c.357.68.139.431,2.716.472,3.628,1.936,10.961-.145,14.666,1.889-1.572.18-1.445.718-2.173.944-.991.309-3.984-.988-5.432,0-.936-.667.245-.7-1.629-.944-1.218,1.5-1.961,1.145-2.173,3.777,1.909,1.8,3.239,4.646,5.432,6.138,5.432,3.695,13.232,3.062,20.641,5.194,5,1.439,10.272,4.058,15.209,5.666C456.422,92.274,459.919,92.073,462.033,93.337ZM388.7,69.729c-2.128.2-1.745.448-3.259.944V69.257c-2.916.2-2.183.769-2.716.944-1.688.555-2.962-.787-3.8-.944-2.1-.394-2.857.771-3.8.944-2.227.41-2.644-.744-4.889-.944l-.543,1.416c-1.117-.68-.706-.733-2.716-.944-.2.98-.131.909-.543,1.416-1.242-1.525-5.924.1-8.148.944-6.205,2.366-10.726,6.067-15.209,9.915a22.279,22.279,0,0,0,1.086,7.555c1.613.966,3.467,2.768,5.432,3.305,3.785,1.035,9.361-.413,11.95-.944,11.2-2.3,21.727-2.411,31.5-5.194,4.847-1.38,11.805-1.762,13.579-5.666.673-.868.592-2.691.543-4.249-3.764-2.086-13.5-8.367-18.468-5.666Zm231.937-9.443c1.912.067,1.45.23,2.716,0-.179.472-.364.944-.543,1.416,4.432.948,8.533,3.744,11.407,4.722,9.3,3.163,18.446,6.191,27.7,8.971,15.98,4.8,29.31,4.173,46.713,8.027,5.377,1.191,23.395-.828,27.7-1.889,2.444-.6,8.691-1.889,8.691-1.889,3.33-1.428,5.394-1.605,5.432-6.138-.435-.557-.418-.794-.543-1.889-2.428-.708-3.053-2.62-4.889-3.777-1.385-.874-2.662.031-3.259-.472.435-.482.19-.129.543-.944l-3.8-.472c-.179.335.456,1.314-.543.944-1.146-.425-.76-1.779-3.259-1.416-.4.432.342,1.434-1.086.944-.755-.259-.4-1.749-3.259-1.416-.185.312.456,1.34-.543.944-.364-.472-.722-.944-1.086-1.416-2.243-.667-1.727,1.219-3.259.944-.983-.771-.837-1.775-3.259-1.416-.38.411.326,1.464-1.086.944-.179-.472-.364-.944-.543-1.416-2.216-.721-1.738,1.218-3.259.944-3.221-2.581-2.678.153-4.345-.472-.978-.368.44-1.18-2.716-1.416-.7,1.165.233.322-1.086.944-1.478-2.892-1.852-.078-3.8-.472-1.016-.2-.989-1.3-3.259-1.416-.206,1.236.4.619-1.086.944-.608-.914.125-.378-1.086-.472-.212-1.195.315-.745-1.629-.944-.7,1.165.233.322-1.086.944-.663-1.464-.206-1.068-2.173-1.416-.853.864-.478.661-2.173.944-1.608-2.8-1.01.169-3.8-.472-.641-.147-1.445-1.147-2.716-1.416-.206,1.236.4.619-1.086.944-1.749-1.175-9.918-1.687-12.493-2.361l-3.259.472c-10.761-2.755-23.737-1.762-35.307-4.722l-3.8.472c-1.961.019-3.085-.685-4.345-.944-3.688-.759-5.383.836-8.148.472-.543,1.3-.782,1.036-1.629,1.889,1.048.311,1.858,1.339,2.716,2.833,1.086-.014.152-.483,1.086,0C620.5,59.376,620.423,59.316,620.641,60.286ZM799.346,82.477c2.276-.425,2.841-.236,3.259-1.889,2.488-4.206-8.131-15.792-11.95-16.526-9.614-1.846-24.747-13.627-29.875-12.748-.842.145-.712-.832-1.086-.944-.239-.071-11.369-.158-11.95,0-2,.543-3.064,1.282-5.975,1.889-.532,1.261-.7.811-1.086,2.361,6.475,4.01,14.1,5.94,19.555,8.971,2.357,1.308,4.97.8,7.6,1.889,8.142,3.379,15.057,8.572,22.27,12.748Q794.734,80.352,799.346,82.477ZM500.055,63.591v3.777c14.584,7.25,37.012,9.44,59.75,9.443,9.375,0,19.831.561,27.7-.944,8.707-1.666,25.491-.552,28.245-6.61.521-.67.532-1.545.543-2.833-2.9-1.014-3.335-2.8-5.432-3.777l-1.63.472c-10.8-3.291-21.38-7.862-29.875-7.082-3.151.289-8.713-2.219-13.036-1.416l-6.518-.944a80.037,80.037,0,0,0-22.813,1.416l-3.8-.472c-3.882.882-23.432,4.835-23.9,4.722C506.2,60.522,503.368,63.077,500.055,63.591ZM390.876,71.618c.555-.378.149-.168,1.086-.472C391.408,71.523,391.814,71.313,390.876,71.618Zm-198.26-5.666c.555-.378.149-.168,1.086-.472C193.148,65.857,193.554,65.647,192.617,65.952Zm4.889-.472c.934-.416.694-.42,1.63,0Zm11.407,0c.934-.416.694-.42,1.63,0Zm73.872-9.915c15.351.448,26.828-4.2,38.566-7.555,4.327-1.235,11.882-.762,12.493-5.194h-1.086c-2.537-1.757-8.707-1.781-11.95-1.416-3.249-1.236-9.863-1.222-13.579-.472h-8.148c-6.317,1.282-25.233,3.464-19.554,12.276Zm336.227-3.305c-.2-.98-.13-.908-.543-1.416-4.937-3.878-14.144-4.155-21.184-6.138-11.244-3.17-24.242-5.747-35.85-8.5-4.552-1.078-8.571,0-13.579-.944a66.768,66.768,0,0,0-19.554,0c-8.191,1.635-26.771.726-27.7,7.555,7.659,3.718,19.387,3.757,29.332,5.666H535.9c7.539,1.437,16.708,1.416,25.529,1.416h11.407c4.584.865,11.575-.523,16.839.472C598.664,52.07,608.506,52.2,619.011,52.259Zm95.056-1.889a81.741,81.741,0,0,0,19.011-1.889V46.593c-2.363-.509-4.818-1.767-7.061-2.361-12.45-3.3-26.2-2.078-39.652-4.722-11.955-2.348-28.316-3.3-40.738-2.833a123.862,123.862,0,0,1-15.752-1.416c-2.765-.54-6.209.63-8.148.472-12.776-1.039-26.594-.163-39.652,0-.342.828-.1.458-.543.944v.472h.543c5.5,3.494,19.174,2.2,27.159,3.777,23.291,4.615,49.69,2.576,73.329,7.082,8.224,1.568,16.784.435,24.443,1.889C709.391,50.351,712.416,49.463,714.067,50.37ZM345.793,44.232c21.085.245,40.091-1.045,55.947-4.722V37.622c-1.9-.592-6.6-1.358-7.6-2.833h4.345c5.738,3.253,20.395-.425,24.986-1.416a6.576,6.576,0,0,0,.543-2.361l-1.63-.472c-5.076-3.639-31.836-3.079-36.936.472-.435.557-.42.794-.543,1.889l5.432,1.416a11.319,11.319,0,0,1-3.259.472c-1.4-.809-3.865-.085-5.975-.472-11.049-2.028-23.658,1.133-31.5,3.777-3.325,1.122-7.383,1.369-8.148,4.722l1.63.472C343.624,43.615,345.249,43.9,345.793,44.232Zm-77.674-.944c14.2-1.009,25.742-3.045,35.85-7.082,3.613-1.443,7.883-1.714,8.148-6.138-4.2-3.375-13.329-4.788-22.814-2.833-2.627.542-10.556,3.112-11.95,2.361h-.543v-.472c5.154-.478,11.984-3.147,15.209-5.666-.343-.828-.1-.458-.543-.944-1.054-2.6-5.269-2.065-9.234-1.889C273.432,25.259,255.082,20,254,32.428c1.955.907,4.78,1,8.148.944l12.493-3.305v.472h.543c-.555.378-.149.168-1.086.472-3.619,2.338-10.832,2.649-11.407,7.555-.482.9-.014,1.65.543,2.833A34.953,34.953,0,0,1,268.118,43.288Zm209.667-4.249c6.694.209,17.906-1,18.468-6.138l-1.63-.472c-3.2-2.154-8.193-.992-13.036-1.889-9.264-1.713-30.889-1.058-38.022,1.416v-.944h-.543V30.54c3.486-.226,6.765-1.011,7.061-4.249l-1.629-.472c-1.526-1.059-4.191-1.009-7.061-.944-1.09.906-2.565,1.059-3.8,1.889-.953.639-1.326,2.077-2.173,2.833v.944l3.8,1.416v.472c-4.682.08-7.609,1.535-11.407,2.361v1.416H428.9c2.951,1.543,9.84,0,14.123,0,11.279,0,21.034.648,29.332,2.361C474.317,38.972,476.476,38.325,477.785,39.038ZM327.868,37.622c10.718.325,32.621-.482,32.591-8.5h-.543v-.472c-9.727-1.225-22.333-1.278-32.047,1.889-2.049.668-6.113.869-7.061,2.361v3.305a11.318,11.318,0,0,0,3.259.472C324.826,37.1,327.112,37.19,327.868,37.622Zm63.009-2.361v-.944h2.716v.944Zm259.639-6.138v1.889c2.379.516,5.421,1.369,8.148,1.889h17.925L703.2,34.789v-.944h-1.086c-3.96-2.26-10.494-1.308-15.752-2.361C675.534,29.312,662.335,28.734,650.515,29.123ZM554.373-7.233V-8.65L552.2-9.594c.761-1.122.923-.274.543-1.416-2.71-2.26-8.4-3.28-13.579-3.305.364,1.488.364.992,1.086,1.889h-3.8c.2.98.13.909.543,1.416,1.917,1.508,5.519,1.421,7.6,2.833-3.808-.148-6.415-.094-10.32,0v.944l1.63.472c2.287,1.336,6.458.958,8.691,2.361C538.49-4.852,529.957-5.541,529.93.793c1.342.614.369-.2,1.086.944-4.279-1.34-9.271.164-12.493.944a7.634,7.634,0,0,0-.543,2.833L522.325,7.4c-2.094.624-5.765.507-8.691.472-4.267,2.2-11.01.769-14.666,3.305h-.543v.472c8.1,3.441,15.263,8.994,23.9,12.276,9.826,3.733,19.478,5.357,30.961,8.027,5.269,1.224,22.493,2.98,28.245,1.416V32.9h-.543c-4.182-4.958-24.736-15.628-32.047-18.414-3.5-1.335-8-1.794-10.864-3.777h.543c.646-.367,2.613-.567,3.259-.944.522-.67.532-1.545.543-2.833-2.385-1.352-3.851-3.022-7.061-3.777V2.682h1.086c3.031,1.88,11.108,1.5,13.036,4.249a5.277,5.277,0,0,0-4.345.472c-.435.557-.418.794-.543,1.889,7.023,4.188,12.862,8.971,24.986,4.722V13.07c-1.472-.749-13.911-5.822-14.123-6.138,4.688.112,8.006-.246,10.864-1.416-.342-.828-.1-.458-.543-.944-2.265-5.234-11.4-4.958-16.3-8.027,1.955.128,2.64.571,3.8,0,.407-.507.326-.447.543-1.416-1.673-.917-2.613-1.828-4.889-2.361v-.472h1.63A8.17,8.17,0,0,0,554.373-7.233ZM586.42,33.373h12.493v-.944h-1.086l-12.493-4.722c-7.9-3.574-16.377-8.873-25.529-10.86v.944c6.29,3.333,12.173,7.881,18.468,11.332C581,30.622,584.476,31.227,586.42,33.373Zm32.047-.472c8.359.027,17.452-.177,24.986-.472v-.472h-.543c-2.526-1.511-6.073-1.366-9.234-2.361-7.941-2.5-15.7-5.524-26.073-5.666a6.555,6.555,0,0,0-.543,2.361c.435.482.19.129.543.944C609.8,28.389,616.866,31.567,618.468,32.9ZM535.9,32.428h2.716v-.944h-1.086c-3.867-2.6-23.941-8.8-30.418-8.971-.863,1.393-1.127,2.7-1.086,5.194a5.478,5.478,0,0,1,1.086,1.416Zm40.2-13.693v1.889c8.783,4.837,17.746,10.838,30.961,11.8a5.989,5.989,0,0,0,.543-1.889C599.185,24.976,590.983,17.326,576.1,18.736ZM440.306,31.956v-.944h1.63v.944ZM275.723,30.54c.178-1.044-.564-.509.543-.944v.472h.543C276.255,30.445,276.66,30.235,275.723,30.54ZM379.47,27.234c16.834.111,30.779-1.936,45.627-2.361.114-2.03,4.748-10.018,5.975-10.86v-.472l5.975-.472L447.91,9.765c-1,1.317-1.73,1.334-2.173,3.305,1.751.832,4.883,1.687,6.518,2.833-6.033-.1-11.912-1.477-17.925-.472a33.038,33.038,0,0,0-4.889,8.971h4.345c1.93-1.058,6.876-.42,9.777-.472,5.89-.105,11.6-.064,18.468,0v-.944l-1.63-3.777c-1.1-1.406-3.368-1.773-4.889-2.833a88.1,88.1,0,0,0,20.1-1.889c-2.827,2.261-8.331,1.658-8.691,6.138.435.482.193.129.543.944,3.181.847,5.934,2.968,9.234,3.777l24.986,2.833c.732-2.448,1.972-3.431,2.173-6.61-2.118-1.638-8.6-8.455-10.32-8.971-3.363-1.006-5.749.331-8.691-.472,3.178-2.477,6.891-2.275,7.6-7.082C491.117,4,490.1,2.7,488.105,2.21c-2.209-.545-4.956.37-6.518-.472h1.086c1.9-1.247,2.911-.464,3.259-3.305-7.625-3.283-34.277-4.708-37.479,2.833,1.108.483,2.607.9,3.259,1.889h-1.63c-3.685-2-12.4.4-15.752-.472V2.21c6.335-.286,12.427-3.352,16.839-5.666V-4.4h-5.432c-1.98,1.02-5,.39-7.6.944-8.349,1.777-30.807,2.249-34.763,7.082-.639.717.366,1.428-.543,1.889l-9.777.472L375.667,9.292a5.973,5.973,0,0,0-.543,1.889h1.086c1.595,1.275,3.335.874,5.975,1.416,10.8,2.216,17.241-2.04,22.813-5.666l-1.086-1.889h.543c4.726,2.724,14.059-1.435,17.925.472-5.339.425-17.823,3.619-20.1,6.61h.543c5.329,3.182,16.011.407,22.813,2.361v.472h-2.173c-2.689,1.531-11.931,3.18-16.839,1.889-3.012-.792-5.987-2.833-9.777-3.305C388.361,12.482,380.408,21.064,379.47,27.234ZM631.5,26.29h3.259a4.554,4.554,0,0,0,1.086-2.833c-3.922-3.214-6.654-5.812-13.036-7.082V15.43c2.042-.067,1.912.223,2.716-.944h-.543c-5.812-4.921-15.915-5.383-22.27-9.915h.543c.581-.355.516-.283,1.63-.472a10.341,10.341,0,0,0,3.259.944V2.682c-.435-.482-.19-.129-.543-.944-3.118-.877-6.122-3.138-9.234-4.249-6.018-2.15-11.9-2.519-18.468-4.249-7.029-1.85-14.856-3.924-23.357-4.249v.944h.543a15.538,15.538,0,0,0,5.975,2.361v.472h-5.432c-.929,1.287-1.38,1.18-1.629,3.305.435.482.19.129.543.944,3.009.877,19.717,5.6,22.27,1.889-1.7-.874-2.71-1.827-4.888-2.361v-.472h1.086c2.955,1.905,10.657,1.939,12.493,4.722h-3.259c-1.472-.815-3.227-.147-5.432,0v.944h.543c6.306,4.958,24.16,8.088,33.134,11.332v.472h-1.63L595.111,9.765c-9.576-3.091-19.94-8.493-30.961-9.443v.944h.543c3.319,2.691,20.1,9.069,23.9,9.915v.472c-4.405-.806-13.085-5.376-20.641-4.249v2.833c.435.482.19.129.543.944,2.238,1.253,3.9,3.282,6.518,4.249,6.083,2.246,12.64,2.172,19.554,3.777,5.013,1.163,10.266,2.63,16.3,2.833V21.1a4.55,4.55,0,0,1-1.63-1.416h1.086c3.943,2.6,11.445,4.292,16.3,5.666C628.441,25.865,630.179,25.487,631.5,26.29Zm-286.8-.944c5.009-1.34,12.759.257,17.925-.944,8.274-1.925,13.6-5,19.554-8.5v-.944H381.1c-1.547-.82-15.9.335-19.011.944-14.465,2.833-32.288,3.019-48.886,3.305v-.472c1.34-.614.37.2,1.086-.944h-9.234c-1.986-1.169-6.873.3-8.148,1.416a331.813,331.813,0,0,1,33.677,4.722C334.969,24.806,341.311,23.444,344.706,25.346Zm312.327-.472h5.432c.63-1.133,1.108-.819.543-1.889-1.906-2.438-4.6-2.718-7.6-4.249-8.039-4.092-28.571-12.706-31.5-12.276a41.381,41.381,0,0,0-7.061-.944v.944a91.186,91.186,0,0,0,24.443,14.165C645.41,22.182,653.563,22.8,657.034,24.874ZM325.152,17.319c19.027.316,32.331-3.336,46.17-6.61V9.765c-2.187.063-2.97.256-3.8-.944,4.306-.315,13.086-2.369,14.666-5.194h-.543c-1.168-.679-3.969-.526-5.975-.472-2.569,1.319-6.581.668-9.777,1.416-7.381,1.729-15.842,3.214-22.813,5.194-3.548,1.008-8.212.623-9.777,3.305a22.984,22.984,0,0,0,5.975.472c1.4-.933,4.624-.741,5.432.472h-3.259c-3.865,2.081-13.3,1.123-17.925,1.889v.944C324.65,17.023,324.567,16.961,325.152,17.319Zm128.19-.944c.555-.378.149-.168,1.086-.472C453.874,16.28,454.279,16.07,453.342,16.375Zm167.3-.472c-.179-.653.771-.685,1.086-.944C622.107,15.46,620.793,15.761,620.641,15.9Zm-3.8-.944c.554-.378.147-.168,1.086-.472C617.371,14.864,617.778,14.654,616.838,14.958Zm-190.112-.472a2.443,2.443,0,0,1,2.716,0Zm186.31-.472V13.07h.543C613.237,13.9,613.476,13.528,613.036,14.014Zm-267.787-.472V12.6h2.173v.472h.543v.472Zm4.345-.472v-.944h.543V12.6h.543C350.127,12.975,350.532,12.765,349.595,13.07Zm132.535,0a11.317,11.317,0,0,1,2.173-.944v.944Zm108.636,0c-.418-.322-1.211-.619-1.63-.944C589.962,12.254,592.406,12.653,590.766,13.07ZM363.174,10.709V9.765h.543C363.375,10.593,363.613,10.223,363.174,10.709Zm2.173-.472V9.292h1.63v.944ZM498.969-11.955a111.947,111.947,0,0,0-11.95.472v1.416h1.086c1.412.992,4.931.512,5.975,1.889h-3.259c-3.078,1.633-6.776.542-7.6,4.249.882.637.609.3,1.086,1.416C487-2.664,497.158.223,501.685,1.266c2.9.668,7.141-.766,9.234.472l-15.752-.472a7.461,7.461,0,0,0-1.086,4.722c.736.7,1.26,2.332,2.173,2.833,2.86,1.571,13.939-2.54,17.382-3.305.895-1.334,1.418-1.617,1.63-3.777-1.341-.614-.37.2-1.086-.944,6.049.072,14.236-2.189,15.752-6.138h-.543c-2.158-1.589-5.727-.283-9.234-.944A128.734,128.734,0,0,0,494.623-8.65v-.944h3.259c1.851-1.046,5.33-.1,8.148,0v-.944h-1.086c-.467-.306-1.708-.632-2.173-.944.395-1.151-.442-2.222-2.173-2.361-.66.352-.539.065-2.173,0v.472C498.834-12.865,498.751-12.925,498.969-11.955Zm-47.8,20.3c1.506-1.333,2.745-1.435,3.259-3.777-.757-.392-2.475-.984-1.63-1.416,1.449-.719,14.079-.055,17.925,0v.472C464.575,5.429,457.679,7.806,451.169,8.348Zm72.243,0V7.4a14.9,14.9,0,0,1,2.716.944ZM384.358,5.987c7.851-.674,15.774-4.8,22.814-7.082,3.265-1.059,7.333-.533,8.148-3.777h-1.086c-1.086-.6-4.417-.642-5.432-.472l.543.944c-1.647.56-2.2-.472-3.259,0l.543.944c-1.615.578-2.241-.482-3.259,0l.543.944a51.471,51.471,0,0,1-5.432,1.889L396.308-1.1l.543.944C392.969,1.277,385.634,2.485,384.358,5.987Zm38.566-.944c.555-.378.149-.168,1.086-.472C423.456,4.948,423.861,4.738,422.924,5.043Zm3.259-.472c.555-.378.149-.168,1.086-.472C426.715,4.476,427.121,4.266,426.183,4.571Zm174.9,0c.733-.767.348-.529,1.63-.944V4.1ZM431.615,3.626a6.424,6.424,0,0,1,1.629-.944v.944Zm167.842,0c.554-.378.147-.168,1.086-.472C599.989,3.532,600.4,3.322,599.457,3.626ZM588.593,1.266c.554-.378.147-.168,1.086-.472C589.125,1.171,589.533.961,588.593,1.266ZM547.855-3.456c.554-.378.147-.168,1.086-.472C548.387-3.55,548.794-3.76,547.855-3.456Zm-2.173-.472c.554-.378.147-.168,1.086-.472C546.214-4.023,546.622-4.233,545.682-3.928Zm-82.02-6.61c-17.427-.2-30.3,2.046-44,3.777v1.416c13.183,1.378,28.561-2.815,41.825-3.777v.944c-4.2.378-7.249,1.964-10.864,2.833v.472h.543a27.156,27.156,0,0,0,7.061,0c7.351-1.448,22.278.508,27.159-2.833.408-.507.326-.447.543-1.416h-1.086c-5.16-3.6-17.188-.56-22.27.472v-.944C464-9.775,463.287-9.243,463.662-10.538Zm59.75-2.361c.228,2.144.522,1.716,1.63,2.833-5.455-.973-15.046-3.767-18.468-1.416h-.543v.472h.543v.472a73.212,73.212,0,0,0,7.6.472c-.213,1.385-.889.592.543,1.416C518.273-6.559,526.5-7.181,532.1-7.233v-.944h-.543C530.7-8.753,529.146-9,528.3-9.594h1.63c1.374.844,4.573.458,5.975,0-.342-.828-.1-.458-.543-.944C532.863-12.2,527.136-12.536,523.412-12.9Z" transform="translate(29 14.316)" fill-rule="evenodd" fill="url(#radial-gradient)" style="mix-blend-mode: screen;isolation: isolate"/>
      </g>
      <path id="Seaweed_2" data-name="Seaweed 2" d="M126.182-23.981c-.94-.012-1.343,3.249-3.171,4.97-2.006,1.889-5.061,2.376-8.851,1.795-1.477,4.067-.574,7.426-3,10.275s-6.713,1.123-6.713,1.123-4.008-4.419-3.362-9.344,5.945-10.356,5.945-10.356.456-4.748-2.582-1.844S100.986-15.577,94.873-13.9A6.468,6.468,0,0,0,93.5-17.715c-.686-.813-2.568-1.627-2.59-2.538-.027-1.088,2.1-1.728,1.982-2.623-.044-.334-.386-.605-.925-.828-3.261.647-3.917,4.145-1.982,6.489,8.179,9.906-1.933,10.949-3.038,16.7,1.575,4.289,1.841,7.787.264,10.078-1.8,2.617-4.938,2.1-6.87,4.694-1.652,2.216.362,7.006-1.554,11.459s-4.875,1.931-6.108,6.351c-2.457,8.8,4.864,8.91-1.453,17.809l.661,1.243c6.936.135,5.064-5.728,6.209-10.907,3.4-2.051,8.694-.177,13.211-1.1l5.152-2.9H98.44c4.259.782,8.549,5.293,14.135,2.761,5.32-2.412,3.641-8.567,7.53-11.735,2.735-2.228,7.777,1.381,9.644,1.795,7.112,1.58,6.661-12.1,8.059-15.739l6.209,2.071c2.717-4.171,5.195-8.661,4.038-9.923a1.384,1.384,0,0,0-1.4-.294c-2.046.675-1.242,5.959-3.3,6.765-1.916.749-4.214-3.092-6.605-2.485-1.261.32-2.206,1.717-2.906,3.866-4.747,4.049-6.411.4-11.1-2.209l.661-1.795c6.907-2.267.694-5.165,4.994-9.25s12-4.311,12.207-7.089c.176-2.377-2.582-4.963-3.593-4.508-1.09.49.481,4.333-1.321,6.489-2.415,2.891-7.686.3-9.908,3.037-1.226,1.511-1.074,4.09,0,7.317l-4.492,1.243c-1.851-2.8-3.814-5.975-3.435-7.731,1.057-4.9,10.34-4.907,10.542-8.911.1-1.964-1.433-3.947-2.352-3.652s-.014,2.984-1.321,4.832c-1.776,2.513-5.155,1.717-7.538,4.125a7.99,7.99,0,0,0-1.842,3.054c-.986-3.721-.713-6.392.255-8.388,2.619-5.4,11.178-4.965,12.207-9.437C128.287-21.642,127.021-23.971,126.182-23.981ZM98.44-12.528c1.255,1.415,2.642,7.6,2.642,7.6L98.043-1.2c-1.885,5.451-.15,9.468-6.87,9.8-.132-2.853-2.114-4.387-1.189-8.56s4.888-8.132,4.888-8.132S97.185-13.943,98.44-12.528Zm14.135,9.386a19.128,19.128,0,0,1-3.183,9.672c-1.789,2.333-4.854,2.581-5.8,3.037-2.147,1.035-.793-9.8-.793-9.8S112.377-5.593,112.575-3.143Zm3.171,4.149c.437,3.416,2.453,5.289,4.36,7.179l-1.189,2.761c-6.8,2.23-7.112,6.934-11.89,7.869a6.258,6.258,0,0,0-.528-5.936C109.88,8.066,113.657,7.952,115.746,1.007ZM100.025,9.29a17.479,17.479,0,0,1,3.038,7.731l-6.473,5.8c-1.864,2.57-2.284,9.862-5.416,10.907h-.264c4.065-9.3-4.921-8.111-2.642-14.22S94.231,14.089,100.025,9.29ZM88.135,14.4c-2.708,3.542-3.685,10.237.132,13.392L85.889,34c-4.441-.214-7.086.308-9.776,1.933h-.132c-.832-5.979,7.328-6.063,7.266-19.052Zm34.612.552c3.413,2.485,5.986,6.489,10.833,3.037a11.627,11.627,0,0,1-2.51,7.731c-3.662-.94-6.315-2.685-11.1-1.519-.841-3.54-2.546-3.812-5.945-4.694C115.713,15.569,117.051,14.728,122.747,14.951Zm-8.719,7.455c1.9.767,4.21,2.44,3.831,4.832-2.085,13.158-11.42,6.293-20.08,6.075.677-3.4-2.477-6.385,1.585-9.112S109.359,22.406,114.028,22.406Z" transform="translate(1094.307 877.358)" fill-rule="evenodd" opacity="0.45" fill="url(#linear-gradient)"/>
      <path id="Seaweed_2-2" data-name="Seaweed 2" d="M103.284-22.322c1.36-.016,1.942,4.5,4.586,6.879,2.9,2.614,7.32,3.289,12.8,2.484,2.136,5.629.831,10.278,4.344,14.222s9.709,1.554,9.709,1.554,5.8-6.116,4.863-12.933-8.6-14.334-8.6-14.334-.66-6.571,3.735-2.552,5,16.312,13.844,18.629a8.722,8.722,0,0,1,1.986-5.276c.992-1.125,3.714-2.252,3.747-3.513.039-1.506-3.035-2.392-2.866-3.631.063-.462.559-.838,1.338-1.146,4.716.9,5.665,5.737,2.866,8.981-11.83,13.711,2.8,15.154,4.395,23.121-2.279,5.936-2.662,10.778-.382,13.949,2.6,3.622,7.142,2.911,9.936,6.5,2.39,3.067-.523,9.7,2.247,15.86s7.051,2.673,8.835,8.79c3.554,12.186-7.035,12.332,2.1,24.649l-.955,1.72c-10.032.187-7.324-7.928-8.981-15.1-4.921-2.838-12.576-.245-19.108-1.529l-7.452-4.013h-2.866c-6.16,1.082-12.366,7.326-20.446,3.822-7.7-3.338-5.267-11.858-10.892-16.242-3.955-3.084-11.248,1.911-13.949,2.484C87.838,53.239,88.491,34.307,86.469,29.27l-8.981,2.866c-3.93-5.773-7.514-11.988-5.841-13.733A2.069,2.069,0,0,1,73.667,18c2.96.934,1.8,8.248,4.777,9.363,2.771,1.036,6.1-4.28,9.554-3.439,1.824.443,3.191,2.376,4.2,5.35,6.866,5.6,9.273.556,16.051-3.057l-.955-2.484c-9.991-3.138-1-7.149-7.223-12.8S82.715,4.959,82.418,1.114c-.255-3.289,3.734-6.869,5.2-6.239,1.576.679-.7,6,1.911,8.981,3.494,4,11.117.413,14.331,4.2,1.773,2.091,1.553,5.66,0,10.127l6.5,1.72c2.677-3.872,5.516-8.27,4.968-10.7-1.529-6.785-14.956-6.792-15.248-12.334-.143-2.719,2.073-5.463,3.4-5.054s.021,4.13,1.911,6.688c2.569,3.478,7.456,2.376,10.9,5.71a10.981,10.981,0,0,1,2.664,4.226c1.427-5.15,1.032-8.847-.37-11.61-3.789-7.471-16.168-6.871-17.656-13.061C100.239-19.083,102.07-22.307,103.284-22.322ZM143.411-6.47c-1.815,1.959-3.822,10.517-3.822,10.517l4.395,5.159c2.727,7.545.218,13.1,9.936,13.567.191-3.949,3.057-6.071,1.72-11.847S148.57-.33,148.57-.33,145.226-8.428,143.411-6.47ZM122.965,6.521c-.16,1.9,1.26,9.214,4.6,13.386,2.587,3.229,7.021,3.572,8.39,4.2,3.105,1.433,1.146-13.567,1.146-13.567S123.252,3.129,122.965,6.521Zm-4.586,5.743c-.633,4.728-3.548,7.32-6.306,9.936l1.72,3.822c9.835,3.087,10.287,9.6,17.2,10.892-1.414-3.1-.689-5.7.764-8.216C126.863,22.034,121.4,21.877,118.379,12.264Zm22.739,11.465c-2.305,2.868-3.566,6.391-4.395,10.7l9.363,8.025c2.7,3.558,3.3,13.649,7.834,15.1h.382c-5.88-12.873,7.118-11.226,3.822-19.681S149.5,30.37,141.118,23.729Zm17.2,7.07c3.917,4.9,5.33,14.168-.191,18.535l3.439,8.6c6.424-.3,10.25.427,14.14,2.675h.191c1.2-8.275-10.6-8.391-10.509-26.369Zm-50.063.764c-4.937,3.439-8.659,8.981-15.669,4.2a15.651,15.651,0,0,0,3.631,10.7c5.3-1.3,9.135-3.717,16.051-2.1,1.216-4.9,3.683-5.276,8.6-6.5C118.426,32.419,116.491,31.255,108.252,31.563Zm12.611,10.318c-2.745,1.062-6.089,3.378-5.541,6.688,3.015,18.212,16.518,8.71,29.044,8.408-.979-4.7,3.583-8.837-2.293-12.611S127.617,41.881,120.863,41.881Z" transform="translate(1207.472 900.411)" fill-rule="evenodd" opacity="0.66" fill="url(#linear-gradient-2)"/>
      <path id="Color_Fill_3_copy_3" data-name="Color Fill 3 copy 3" d="M12.35.333C8.926-.2.123-.815,0,4.737c-.119,5.5,13.464,20.067,18.84,28.931A192.845,192.845,0,0,1,38.785,79.3c11.356,39.1,8.518,93.3,9.867,106.779C58.678,286.366,116.6,339.12,117.244,424.451c.292,39.142-11.938,47.4-13.809,92.182-1.512,36.247,3.583,60.074,8.051,100.925,6.08,55.574,5.824,114.594,8.129,115.558,2.464,1.054-1.671-57.824,11.586-101.478,4.95-16.3,25.369-41.532,25.632-75.568.222-28.777-10.022-41.6-9.948-73.138.067-28.507,8.959-29.587,8.392-54.133-1.138-49.322-37.925-80.856-42.816-138.924-1.76-20.852,3.964-34.258-.674-55.59-8.155-37.495-36.11-43.658-39.922-73.1-2.8-21.656,10.326-33.046,7.077-61.45a118.1,118.1,0,0,0-3.4-16.088C65.684,48.638,39.763,4.59,12.35.333ZM68.9,205.073c2.327-.4,5.669,29.38,15.4,42.406,4.72,6.316,11.315,5.719,12.564,11.688C98.419,266.6,92.9,280.92,86.64,279.66c-8.247-1.659-15.9-30.044-18.125-51.176C67.3,216.894,67.44,205.326,68.9,205.073Zm67.966,314.44c1.886,1.916,2.975,8.692,3.534,17.551a63.7,63.7,0,0,1-5.954,32.2c-1.452,3.009-6.78,13.025-9.392,8.782-1.123-1.813-1.627-6.481-1.352-14.62C124.539,538.852,132.383,514.949,136.87,519.513Z" transform="translate(1734.701 232.477) rotate(8)" fill-rule="evenodd" opacity="0.32" fill="url(#linear-gradient-3)"/>
      <path id="Path_52" data-name="Path 52" d="M175.474,0c96.912,0,175.474,594.467,175.474,1327.78S272.386,2655.56,175.474,2655.56,0,2061.093,0,1327.78,78.563,0,175.474,0Z" transform="translate(749.525 -1448.807)" fill="url(#radial-gradient-2)" style="mix-blend-mode: screen;isolation: isolate"/>
      <path id="Seaweed_2-3" data-name="Seaweed 2" d="M93.39-23.981c.94-.012,1.343,3.249,3.171,4.97,2.006,1.889,5.061,2.376,8.851,1.795,1.477,4.067.574,7.426,3,10.275s6.713,1.123,6.713,1.123,4.008-4.419,3.362-9.344-5.945-10.356-5.945-10.356-.456-4.748,2.582-1.844S118.586-15.577,124.7-13.9a6.468,6.468,0,0,1,1.373-3.812c.686-.813,2.568-1.627,2.59-2.538.027-1.088-2.1-1.728-1.982-2.623.044-.334.386-.605.925-.828,3.261.647,3.917,4.145,1.982,6.489-8.179,9.906,1.933,10.949,3.038,16.7-1.575,4.289-1.841,7.787-.264,10.078,1.8,2.617,4.938,2.1,6.87,4.694,1.652,2.216-.362,7.006,1.554,11.459s4.875,1.931,6.108,6.351c2.457,8.8-4.864,8.91,1.453,17.809l-.661,1.243c-6.936.135-5.064-5.728-6.209-10.907-3.4-2.051-8.694-.177-13.211-1.1l-5.152-2.9h-1.982c-4.259.782-8.549,5.293-14.135,2.761-5.32-2.412-3.641-8.567-7.53-11.735-2.735-2.228-7.777,1.381-9.644,1.795-7.112,1.58-6.661-12.1-8.059-15.739l-6.209,2.071C72.839,11.194,70.36,6.7,71.517,5.442a1.384,1.384,0,0,1,1.4-.294c2.046.675,1.242,5.959,3.3,6.765,1.916.749,4.214-3.092,6.605-2.485,1.261.32,2.206,1.717,2.906,3.866,4.747,4.049,6.411.4,11.1-2.209L96.164,9.29C89.256,7.023,95.47,4.125,91.17.041s-12-4.311-12.207-7.089c-.176-2.377,2.582-4.963,3.593-4.508,1.09.49-.481,4.333,1.321,6.489,2.415,2.891,7.686.3,9.908,3.037,1.226,1.511,1.074,4.09,0,7.317l4.492,1.243c1.851-2.8,3.814-5.975,3.435-7.731-1.057-4.9-10.34-4.907-10.542-8.911-.1-1.964,1.433-3.947,2.352-3.652s.014,2.984,1.321,4.832c1.776,2.513,5.155,1.717,7.538,4.125a7.99,7.99,0,0,1,1.842,3.054c.986-3.721.713-6.392-.255-8.388-2.619-5.4-11.178-4.965-12.207-9.437C91.285-21.642,92.551-23.971,93.39-23.981Zm27.742,11.453c-1.255,1.415-2.642,7.6-2.642,7.6L121.528-1.2c1.885,5.451.15,9.468,6.87,9.8.132-2.853,2.114-4.387,1.189-8.56S124.7-8.092,124.7-8.092,122.387-13.943,121.132-12.528ZM107-3.143a19.128,19.128,0,0,0,3.183,9.672c1.789,2.333,4.854,2.581,5.8,3.037,2.147,1.035.793-9.8.793-9.8S107.195-5.593,107-3.143Zm-3.171,4.149c-.437,3.416-2.453,5.289-4.36,7.179l1.189,2.761c6.8,2.23,7.112,6.934,11.89,7.869a6.258,6.258,0,0,1,.528-5.936C109.692,8.066,105.914,7.952,103.826,1.007ZM119.547,9.29a17.479,17.479,0,0,0-3.038,7.731l6.473,5.8c1.864,2.57,2.284,9.862,5.416,10.907h.264c-4.065-9.3,4.921-8.111,2.642-14.22S125.341,14.089,119.547,9.29Zm11.89,5.108c2.708,3.542,3.685,10.237-.132,13.392L133.682,34c4.441-.214,7.086.308,9.776,1.933h.132c.832-5.979-7.328-6.063-7.266-19.052Zm-34.612.552c-3.413,2.485-5.986,6.489-10.833,3.037a11.627,11.627,0,0,0,2.51,7.731c3.662-.94,6.315-2.685,11.1-1.519.841-3.54,2.546-3.812,5.945-4.694C103.859,15.569,102.521,14.728,96.824,14.951Zm8.719,7.455c-1.9.767-4.21,2.44-3.831,4.832,2.085,13.158,11.42,6.293,20.08,6.075-.677-3.4,2.477-6.385-1.585-9.112S110.213,22.406,105.544,22.406Z" transform="translate(507.538 888.358)" fill-rule="evenodd" opacity="0.45" fill="url(#linear-gradient)"/>
      <path id="Seaweed_2-4" data-name="Seaweed 2" d="M174.029-20.567c-1.759-.021-2.512,5.816-5.931,8.9-3.752,3.381-9.467,4.253-16.557,3.213-2.763,7.28-1.075,13.292-5.618,18.393s-12.557,2.01-12.557,2.01-7.5-7.91-6.29-16.726S138.2-23.319,138.2-23.319s.853-8.5-4.831-3.3-6.47,21.1-17.9,24.092a11.28,11.28,0,0,0-2.568-6.824c-1.283-1.455-4.8-2.913-4.846-4.544-.051-1.948,3.926-3.093,3.707-4.7-.082-.6-.723-1.083-1.73-1.483-6.1,1.158-7.327,7.419-3.707,11.615,15.3,17.732-3.616,19.6-5.684,29.9,2.947,7.677,3.443,13.939.494,18.04-3.368,4.684-9.236,3.764-12.85,8.4-3.091,3.967.677,12.541-2.907,20.511s-9.119,3.457-11.427,11.368c-4.6,15.76,9.1,15.95-2.718,31.879l1.236,2.224c12.974.242,9.473-10.253,11.615-19.523,6.365-3.671,16.264-.317,24.712-1.977l9.638-5.19h3.707c7.967,1.4,15.993,9.475,26.442,4.942,9.952-4.317,6.812-15.335,14.086-21.005,5.115-3.988,14.547,2.471,18.04,3.213,13.3,2.827,12.46-21.658,15.074-28.172l11.615,3.707c5.082-7.466,9.718-15.5,7.554-17.761a2.675,2.675,0,0,0-2.611-.526c-3.828,1.208-2.323,10.667-6.178,12.109-3.583,1.34-7.883-5.536-12.356-4.448-2.36.573-4.127,3.073-5.437,6.919-8.88,7.248-11.993.719-20.758-3.954l1.236-3.213c12.921-4.058,1.3-9.245,9.341-16.557s22.45-7.717,22.834-12.69c.329-4.254-4.83-8.884-6.722-8.069-2.038.878.9,7.755-2.471,11.615-4.518,5.174-14.377.535-18.534,5.437-2.293,2.7-2.009,7.32,0,13.1l-8.4,2.224c-3.462-5.008-7.134-10.7-6.425-13.839,1.977-8.775,19.343-8.784,19.721-15.951.185-3.516-2.681-7.065-4.4-6.537s-.027,5.341-2.471,8.649c-3.323,4.5-9.642,3.073-14.1,7.384a14.2,14.2,0,0,0-3.445,5.466c-1.845-6.661-1.334-11.442.478-15.015,4.9-9.662,20.91-8.887,22.834-16.892C177.966-16.379,175.6-20.549,174.029-20.567Zm-51.9,20.5c2.348,2.533,4.942,13.6,4.942,13.6l-5.684,6.672c-3.527,9.758-.281,16.948-12.85,17.546-.247-5.107-3.954-7.852-2.224-15.322S115.46,7.875,115.46,7.875,119.785-2.6,122.133-.066Zm26.442,16.8c.207,2.452-1.629,11.916-5.953,17.312-3.346,4.176-9.08,4.619-10.851,5.437-4.016,1.853-1.483-17.546-1.483-17.546S148.2,12.348,148.575,16.734Zm5.931,7.428c.818,6.115,4.589,9.468,8.155,12.85l-2.224,4.942c-12.719,3.992-13.3,12.412-22.241,14.086,1.829-4.005.892-7.369-.988-10.626C143.534,36.8,150.6,36.594,154.506,24.162ZM125.1,38.989c2.981,3.709,4.612,8.265,5.684,13.839L118.673,63.207c-3.487,4.6-4.273,17.653-10.132,19.523h-.494c7.6-16.648-9.205-14.518-4.942-25.454S114.26,47.578,125.1,38.989Zm-22.241,9.144c-5.066,6.339-6.893,18.323.247,23.971L98.656,83.224c-8.308-.383-13.256.552-18.287,3.46h-.247c-1.557-10.7,13.707-10.852,13.592-34.1Zm64.746.988c6.385,4.448,11.2,11.615,20.264,5.437.039,6-1.874,10.651-4.7,13.839-6.85-1.683-11.814-4.807-20.758-2.718-1.573-6.337-4.763-6.823-11.121-8.4C154.445,50.228,156.948,48.722,167.6,49.121Zm-16.31,13.345c3.55,1.373,7.875,4.368,7.167,8.649C154.56,94.668,137.1,82.38,120.9,81.988c1.266-6.08-4.634-11.429,2.965-16.31S142.558,62.466,151.293,62.466Z" transform="translate(620.588 817.29)" fill-rule="evenodd" opacity="0.66" fill="url(#linear-gradient-5)"/>
      <path id="Color_Fill_3" data-name="Color Fill 3" d="M14.956,523.76c-3.95.383-14.186.831-14.928-3.136-.737-3.932,13.581-14.353,18.911-20.691A98.517,98.517,0,0,0,37.33,467.307c9.052-27.955-.143-66.683-.025-76.315.866-71.674,62.931-109.422,54.432-170.4-3.9-27.973-19.1-33.862-26.145-65.862-5.7-25.9-2.318-42.934-1.516-72.133C65.165,42.882,58.472.711,61.063.01c2.771-.745,4.311,41.319,24.553,72.5,7.561,11.648,34.19,29.661,38.186,53.987,3.377,20.558-7.219,29.729-3.715,52.27,3.167,20.376,13.689,21.14,15.687,38.681,4.015,35.248-35.616,57.813-35.048,99.314.2,14.9,8.356,24.477,5.237,39.725-5.481,26.8-37.523,31.231-38.8,52.27-.936,15.479,15.665,23.606,14.942,43.907a51.052,51.052,0,0,1-2.235,11.5C72.133,489.195,46.57,520.694,14.956,523.76ZM58.946,377.4c2.766.285,3.449-21,13.426-30.317,4.837-4.518,12.619-4.1,13.432-8.363,1.012-5.311-7-15.541-14.186-14.636-9.47,1.193-15.352,21.483-15.662,36.589C55.785,368.956,57.208,377.222,58.946,377.4ZM104.4,152.638c2-1.373,2.54-6.212,2.235-12.545-.339-7.046-2.92-15-10.453-23-2.026-2.149-9.347-9.3-11.944-6.272-1.116,1.3-1.2,4.639,0,10.454C87.88,138.831,99.651,155.907,104.4,152.638Z" transform="matrix(-0.995, 0.105, -0.105, -0.995, 203.531, 1211.369)" fill-rule="evenodd" opacity="0.18" fill="url(#linear-gradient-6)"/>
      <path id="Color_Fill_3_copy_2" data-name="Color Fill 3 copy 2" d="M4.117,364.841a4.7,4.7,0,0,1-1.4-.77c-.061-.05-.125-.1-.188-.158s-.125-.113-.186-.173a4.89,4.89,0,0,1-.364-.39,6.561,6.561,0,0,1-.669-.953A10.777,10.777,0,0,1,0,357.621q0-.123.008-.245a1.983,1.983,0,0,1,.028-.224,1.675,1.675,0,0,1,.112-.392,1.783,1.783,0,0,1,.478-.637A17.648,17.648,0,0,1,2.7,354.748a37.99,37.99,0,0,0,6.785-5.294,125.668,125.668,0,0,0,17.788-24.317c12.524-21.825,12.74-47.051,14.116-53.826,6.594-25.049,22.8-48.968,32.921-68.761,10.775-20.241,15.476-36.353,14-56.127-2.449-18.223-9.292-21.337-13.3-42.455-3.469-17.2-3.624-28.78-7.588-48.245C61.735,29.305,53.092.263,52.611,0c-.448-.113,1.714,7,4.583,16.853C60.245,26.69,64,39.277,70.956,49.672,73.432,53.6,79.4,58.4,87.976,64.018c8.14,5.654,18.879,12.129,20.984,20.31,1.889,6.879-.643,11.979-2.51,17.125a31.5,31.5,0,0,0-2.1,17.884c1.877,13.534,10.609,14.813,10.329,27.207-.035.766-.1,1.528-.206,2.279s-.237,1.48-.4,2.2a30.156,30.156,0,0,1-1.269,4.163,48.339,48.339,0,0,1-3.758,7.511c-2.848,4.711-5.948,8.942-8.646,13.441A79.807,79.807,0,0,0,88.957,209.2c-1.071,9.749,1.274,16.305-1.6,26.362-2.5,8.649-7.405,14.092-13.17,20.3-5.615,6.033-12.092,12.826-14.345,20.191-3.27,10.926,5.564,12.574,1,27.012a60.917,60.917,0,0,1-3.758,8.543c-4.928,9.6-14.06,22.034-24.689,33.623C21.966,356.487,10.037,366.9,4.117,364.841ZM59.64,256.328c1.783-.457,5.724-15.567,12.608-23.877,3.362-4.049,7.237-4.837,8.046-7.746,1.038-3.67-1.821-9.623-5.93-7.726-5.315,2.439-11.8,17.867-14.248,28.46-1.31,5.8-1.622,11.206-.476,10.89ZM92.014,102.051c1.228-.906,1.378-4.079.7-8.225C92.075,89.2,89.064,84.05,83.429,78.9c-1.6-1.372-6.273-6.04-6.731-4.081-.257.845.181,3.038,1.4,6.853,3.545,11.519,10.8,22.517,13.912,20.375Z" transform="translate(1733.746 957.223) rotate(164)" fill-rule="evenodd" opacity="0.2" fill="url(#linear-gradient-7)"/>
      <path id="Color_Fill_3_copy_3-2" data-name="Color Fill 3 copy 3" d="M1756.615,649.507c4.57-.425,16.323-.916,16.486,3.514.158,4.39-17.975,16.012-25.152,23.086a134.931,134.931,0,0,0-26.627,36.412c-15.161,31.2-11.372,74.452-13.172,85.2-13.385,80.025-90.717,122.12-91.573,190.209-.391,31.233,15.937,37.821,18.435,73.557,2.018,28.924-4.783,47.936-10.749,80.533-8.117,44.345-7.776,91.44-10.852,92.21-3.289.841,2.231-46.141-15.467-80.975-6.608-13.01-33.868-33.141-34.219-60.3-.3-22.963,13.38-33.192,13.281-58.361-.089-22.747-11.96-23.609-11.2-43.2,1.519-39.357,50.631-64.519,57.161-110.855,2.349-16.639-5.293-27.337.9-44.359,10.887-29.919,48.207-34.837,53.3-58.328,3.744-17.281-13.786-26.369-9.448-49.034a62.807,62.807,0,0,1,4.536-12.838C1685.412,688.052,1720.016,652.9,1756.615,649.507Zm-75.5,163.373c-3.107-.321-7.568,23.444-20.558,33.838-6.3,5.04-15.106,4.564-16.773,9.327-2.073,5.927,5.3,17.357,13.652,16.352,11.011-1.324,21.23-23.973,24.2-40.836C1683.26,822.312,1683.067,813.081,1681.113,812.88Zm-90.737,250.908c-2.518,1.529-3.972,6.936-4.719,14.005-.836,7.87.732,16.755,7.949,25.692,1.939,2.4,9.052,10.394,12.539,7.008,1.5-1.447,2.171-5.171,1.806-11.666C1606.838,1079.22,1596.366,1060.146,1590.376,1063.788Z" transform="matrix(0.966, -0.259, 0.259, 0.966, -1630.482, 322.196)" fill-rule="evenodd" opacity="0.27" fill="url(#linear-gradient-8)"/>
      <path id="Color_Fill_3_copy_3-3" data-name="Color Fill 3 copy 3" d="M8.521.179C6.159-.107.085-.438,0,2.544-.082,5.5,9.291,13.32,13,18.08a93.709,93.709,0,0,1,13.762,24.5c7.836,21,5.877,50.1,6.808,57.341,6.918,53.855,46.888,82.184,47.33,128.007.2,21.019-8.237,25.452-9.528,49.5-1.043,19.465,2.472,32.26,5.555,54.2,4.2,29.843,4.019,61.537,5.609,62.055,1.7.566-1.153-31.052,7.994-54.494,3.416-8.755,17.505-22.3,17.687-40.58.153-15.453-6.916-22.338-6.864-39.276.046-15.308,6.182-15.888,5.791-29.07-.785-26.486-26.169-43.42-29.544-74.6-1.214-11.2,2.735-18.4-.465-29.852-5.627-20.135-24.917-23.444-27.547-39.253-1.935-11.629,7.125-17.746,4.883-33a51.4,51.4,0,0,0-2.344-8.639C45.323,26.119,27.438,2.465,8.521.179ZM47.545,110.126c1.605-.216,3.912,15.777,10.625,22.772,3.257,3.392,7.808,3.071,8.67,6.277,1.071,3.989-2.738,11.681-7.056,11-5.691-.891-10.973-16.134-12.507-27.482C46.436,116.473,46.535,110.261,47.545,110.126Zm46.9,168.856c1.3,1.029,2.053,4.668,2.439,9.425a27.709,27.709,0,0,1-4.108,17.29c-1,1.616-4.679,6.995-6.481,4.716-.775-.974-1.123-3.48-.933-7.851C85.935,289.367,91.347,276.53,94.443,278.982Z" transform="matrix(0.978, 0.208, -0.208, 0.978, 1522.15, 683)" fill-rule="evenodd" opacity="0.16" fill="url(#linear-gradient-3)"/>
      <path id="Color_Fill_3_copy_2-2" data-name="Color Fill 3 copy 2" d="M294.574,813.355a13.414,13.414,0,0,0,3.719-1.717c.163-.112.332-.229.5-.352s.332-.251.495-.386a11.99,11.99,0,0,0,.969-.87,14.924,14.924,0,0,0,1.782-2.125,21.138,21.138,0,0,0,3.5-10.648c0-.182-.006-.365-.02-.546a3.756,3.756,0,0,0-.074-.5,3.276,3.276,0,0,0-.3-.873,4.139,4.139,0,0,0-1.274-1.421,48.684,48.684,0,0,0-5.535-3.065,101.032,101.032,0,0,1-18.075-11.8,289.043,289.043,0,0,1-47.391-54.211c-33.366-48.655-33.942-104.893-37.607-120C177.7,549,134.538,495.677,107.561,451.552c-28.7-45.125-41.232-81.044-37.3-125.126,6.524-40.625,24.755-47.568,35.446-94.646,9.241-38.344,9.654-64.16,20.216-107.554C141.069,65.331,164.1.586,165.377,0c1.193-.251-4.566,15.6-12.209,37.571C145.04,59.5,135.026,87.562,116.5,110.734,109.9,119.49,94,130.192,71.16,142.716c-21.686,12.6-50.3,27.039-55.906,45.278-5.034,15.336,1.714,26.706,6.687,38.177,5.325,11.51,8.875,23.12,5.6,39.87-5,30.173-28.265,33.024-27.519,60.653a48,48,0,0,0,.549,5.08c.276,1.662.632,3.3,1.064,4.9a59.384,59.384,0,0,0,3.381,9.281A102.084,102.084,0,0,0,15.023,362.7c7.588,10.5,15.847,19.935,23.035,29.964C52.366,412.492,64.31,435.8,68.545,466.379c2.852,21.734-3.395,36.349,4.275,58.769,6.673,19.281,19.728,31.416,35.087,45.249,14.959,13.449,32.215,28.595,38.217,45.012,8.713,24.359-14.823,28.031-2.676,60.218a125.483,125.483,0,0,0,10.013,19.045c13.13,21.4,37.458,49.121,65.777,74.957C247.021,794.73,278.8,817.943,294.574,813.355ZM146.652,571.442c-4.749-1.019-15.25-34.7-33.59-53.23-8.957-9.028-19.281-10.783-21.436-17.269-2.764-8.182,4.851-21.453,15.8-17.225,14.16,5.436,31.429,39.832,37.96,63.447,3.489,12.932,4.322,24.981,1.267,24.277ZM60.4,227.506c-3.272-2.019-3.672-9.093-1.863-18.335,1.7-10.305,9.722-21.8,24.735-33.27,4.275-3.059,16.713-13.466,17.933-9.1.684,1.884-.481,6.773-3.74,15.278C88.023,207.762,68.7,232.28,60.4,227.506Z" transform="translate(205.584 1193.644) rotate(-155)" fill-rule="evenodd" opacity="0.47" fill="url(#linear-gradient-10)"/>
      <path id="Color_Fill_3_copy_2-3" data-name="Color Fill 3 copy 2" d="M8.056,423.26a12.1,12.1,0,0,1-2.732-.894c-.119-.058-.244-.119-.368-.183s-.244-.131-.363-.2q-.368-.209-.712-.453a9.212,9.212,0,0,1-1.309-1.106A9.063,9.063,0,0,1,0,414.883a2.512,2.512,0,0,1,.015-.284,1.424,1.424,0,0,1,.055-.26,1.407,1.407,0,0,1,.219-.454,2.641,2.641,0,0,1,.935-.74,41.868,41.868,0,0,1,4.065-1.595,82.259,82.259,0,0,0,13.276-6.141A182.226,182.226,0,0,0,53.373,377.2c24.507-25.32,24.93-54.585,27.621-62.445,12.9-29.06,44.6-56.809,64.419-79.771C166.5,211.5,175.7,192.808,172.806,169.868c-4.792-21.141-18.183-24.754-26.035-49.253-6.788-19.954-7.091-33.388-14.849-55.97C120.8,34,103.888.305,102.947,0c-.876-.131,3.354,8.119,8.967,19.552,5.971,11.41,13.325,26.013,26.93,38.072,4.847,4.556,16.53,10.126,33.3,16.643,15.928,6.559,36.942,14.071,41.062,23.562,3.7,7.981-1.259,13.9-4.912,19.867-3.911,5.99-6.518,12.032-4.11,20.748,3.672,15.7,20.76,17.185,20.212,31.563a18.045,18.045,0,0,1-.4,2.644,20.052,20.052,0,0,1-.782,2.551,25.852,25.852,0,0,1-2.483,4.83,53.355,53.355,0,0,1-7.354,8.714c-5.573,5.465-11.639,10.374-16.919,15.593-10.509,10.317-19.282,22.447-22.392,38.359-2.095,11.31,2.493,18.916-3.14,30.583-4.9,10.034-14.49,16.349-25.77,23.547-10.987,7-23.661,14.88-28.07,23.424-6.4,12.676,10.887,14.587,1.965,31.337A61.66,61.66,0,0,1,111.7,361.5c-9.643,11.135-27.512,25.562-48.312,39.007C42.983,413.568,19.64,425.648,8.056,423.26ZM116.7,297.372c3.488-.53,11.2-18.059,24.671-27.7,6.579-4.7,14.162-5.612,15.744-8.986,2.03-4.258-3.563-11.164-11.6-8.964-10.4,2.829-23.084,20.728-27.881,33.017-2.563,6.73-3.175,13-.931,12.633Zm63.349-178.98c2.4-1.051,2.7-4.732,1.369-9.541-1.249-5.363-7.141-11.342-18.168-17.313-3.14-1.592-12.276-7.007-13.171-4.734-.5.98.353,3.525,2.747,7.95,6.937,13.363,21.128,26.122,27.224,23.638Z" transform="translate(1926.873 825.565) rotate(149)" fill-rule="evenodd" opacity="0.2" fill="url(#linear-gradient-11)"/>
      <path id="Color_Fill_3_copy_3-4" data-name="Color Fill 3 copy 3" d="M10.2.179C7.374-.107.1-.438,0,2.544-.1,5.5,11.123,13.32,15.565,18.08a90.869,90.869,0,0,1,16.476,24.5c9.381,21,7.037,50.1,8.151,57.341,8.283,53.855,56.135,82.184,56.664,128.007.242,21.019-9.862,25.452-11.407,49.5-1.249,19.465,2.96,32.26,6.651,54.2,5.023,29.843,4.812,61.537,6.715,62.055,2.035.566-1.381-31.052,9.571-54.494,4.089-8.755,20.958-22.3,21.175-40.58.184-15.453-8.279-22.338-8.218-39.276.055-15.308,7.4-15.888,6.933-29.07-.94-26.486-31.33-43.42-35.371-74.6-1.454-11.2,3.275-18.4-.557-29.852-6.737-20.135-29.831-23.444-32.98-39.253-2.317-11.629,8.531-17.746,5.846-33a44.83,44.83,0,0,0-2.807-8.639C54.262,26.119,32.849,2.465,10.2.179Zm46.72,109.947C58.844,109.91,61.6,125.9,69.643,132.9c3.9,3.392,9.348,3.071,10.379,6.277,1.282,3.989-3.278,11.681-8.448,11-6.813-.891-13.137-16.134-14.973-27.482C55.593,116.473,55.713,110.261,56.922,110.126Zm56.147,168.856c1.558,1.029,2.458,4.668,2.92,9.425a24.135,24.135,0,0,1-4.919,17.29c-1.2,1.616-5.6,6.995-7.759,4.716-.928-.974-1.344-3.48-1.117-7.851C102.883,289.367,109.363,276.53,113.069,278.982Z" transform="translate(375.068 626.232) rotate(25)" fill-rule="evenodd" opacity="0.16" fill="url(#linear-gradient-3)"/>
      <path id="Seaweed_1" data-name="Seaweed 1" d="M506.7,72.455c4.038-19.275,7.79-21.007,7.087-16.552s-8.4,20.16-6.231,20.838,9.378-15.51,12.6-17.738c.921-.637,2.6,2.033,1.593,3.569C519.306,66.3,506.7,80.922,506.7,80.922s-12.707,29.063-5.086,69.9c3.812-17.451,11.717-21.361,16.855-35.257,0,0,4.74-21.89,6.789-28.671s1.4,1.55,1.4,1.55-7.608,25.474-4.916,25.184c2.3-.249,9.767-20.147,13.688-26.733s5.632-7.314-2.882,13.995-34.636,28.239-31.173,71.242c3.958-8.734,10.078-12.176,15.216-18.985,8.168-10.822,7.85-24.276,14.545-34.843s15.325-9.754,12.233-7.422-5.73-.908-10.821,7.422-4.375,15.4-7.763,25.157l10.939-11.315s9.427-9.606.766,2.017-28.573,25.508-35.115,44.168c7.39-5.728,23.257-5.346,30.791-12.744,0,0,1.37-6.708,2.451-10.075S536.5,150,536.5,152.12,532.938,164,534.625,164s7.039-11.782,8.619-11.878.429,4.386-11.569,16.59-35.838-1.242-39.422,41.394c-.684,8.136-.417,21.746,1.873,26.733,3.713-14.35,16.7-19.275,27.6-28.351,6.593-5.491,8.643-13.073,12.321-16.906s6.254-6.078,2.391,1.574-13.425,15.437-15.534,20.582.151,5.183,7.1,0,15.108-16.613,21.066-19.33c8.711-3.971,8.628-2.645,1.587,2.523s-14.267,18.763-29.751,23c-7.809,2.136-15.231,4.593-20.219,9.934-3.625,3.881-3.688,9.135-6.087,15.11h-1.171c-4.647-14.123-2.762-37.939-9.832-48.043l-14.748-17.822c-16.061-8.535-28.412,5.661-33.836-20.8-1.108-5.406-4.113-23.365-4.113-23.365s1.9-5.134,2.6,0,1.311,19.636,3.057,23.365c.312-2.583-1.262-9.159-.95-11.741.3-.166,1.58-1.383,2.107,2.395a52.366,52.366,0,0,1,0,12.715c2.942,11.36,18.635,13.7,27.858,12.011-8.071-9.471-16.332-20.782-21.482-30.952s-2.805-16.9.882-9.729,6.239,24.115,12.875,28.671c-3.021-8.4-4.31-25.83-4.954-35.807s1.263-7.34,2.267-1-.374,17.752,1.75,26.349c5.523,22.355,23.808,35.161,33.008,53.079,2.115-35.73-14.022-36.646-19.9-59.278-2.043-7.871.309-17.609-.234-25.571-.694-10.177.585-19.224,1.4-25.326s1.873-4.41,1.873.918-2.985,17.919-1.873,19.759,4.506-9.88,6.321-12.4.858,1.679.936,2.325c-5.475,14.073-11.395,32.633-2.107,48.43l5.618,7.749c-3.567-11.826-4.378-31.453.7-42.618,0,0,1.814-6.49,1.4.387s-5.267,8.524-3.043,27.121,8,31.211,11.939,47.268c3.143-13.25,10.192-30.543,5.384-50.755l-8.193-21.7L488.274,93.1c-1.338-9.748-3.136-18.3-3.6-26.828s.5-14.628,1.731-7.267,1.288,30.414,3.277,29.445,2.445-19.692,3.795-23.292,1.283,2.3.714,8.536a104.7,104.7,0,0,1-2.99,16.4c-2.195,9.379-1.926,22.873,6.206,43.3l.234-.387C495.864,107.11,502.664,91.73,506.7,72.455Z" transform="translate(467.152 624.081)" fill-rule="evenodd" fill="url(#linear-gradient-13)"/>
    </g>
  </g>
</svg>
