<svg xmlns="http://www.w3.org/2000/svg" xmlns:xlink="http://www.w3.org/1999/xlink" width="348.875" height="542.861" viewBox="0 0 348.875 542.861">
  <defs>
    <linearGradient id="linear-gradient" x1="0.572" y1="1" x2="0.577" y2="-0.175" gradientUnits="objectBoundingBox">
      <stop offset="0" stop-color="#ffe06d"/>
      <stop offset="0.547" stop-color="#f9007e"/>
      <stop offset="1" stop-color="#b6009d"/>
    </linearGradient>
    <radialGradient id="radial-gradient" cx="0.5" cy="0.5" r="0.5" gradientUnits="objectBoundingBox">
      <stop offset="0" stop-color="#ffe06d"/>
      <stop offset="0.547" stop-color="#f9007e"/>
      <stop offset="1" stop-color="#42ffb3"/>
    </radialGradient>
    <radialGradient id="radial-gradient-3" cx="0.5" cy="0.211" r="0.973" gradientTransform="translate(0 0.082) scale(1 0.609)" xlink:href="#linear-gradient"/>
    <linearGradient id="linear-gradient-2" x1="0.5" x2="0.5" y2="1" gradientUnits="objectBoundingBox">
      <stop offset="0" stop-color="#ffe06d"/>
      <stop offset="0.201" stop-color="#f9007e"/>
      <stop offset="1" stop-color="#b6009d"/>
    </linearGradient>
    <linearGradient id="linear-gradient-3" x1="0.599" y1="1.133" x2="0.691" y2="-1.338" xlink:href="#radial-gradient"/>
  </defs>
  <g id="siren" transform="translate(-1331.125 -381.482)">
    <path id="Union_26" data-name="Union 26" d="M-11895.268,177.335a15.734,15.734,0,0,1-3.061-.918,8.825,8.825,0,0,1-4.479-3.575,6.163,6.163,0,0,1,.149-5.61c1.434-3.18,5.364-4.984,9.526-6.893,6.488-2.98,13.846-6.355,12.67-15.913-.9-7.288-6.83-15.27-12.562-22.989a112.142,112.142,0,0,1-8.68-12.8,25.837,25.837,0,0,1-2.42-5.915c-.1-.383-.176-.758-.24-1.125-2.654,3.655-7.556,11.752-5.54,19.446,2.717,10.358,17.338,10.34,18.307,18.7s-11.2,13.84-11.2,13.84,6.723-5.595,2.992-15.6-21.236-4-17.906-24.422c2.981-18.3,19.172-39.633,24.3-47.962a127.122,127.122,0,0,1,10.244-18.112c5.374-7.835,11.15-13.981,17.167-18.268,6.705-4.775,13.667-7.2,20.694-7.2.512,0,1.035.015,1.55.039a36.927,36.927,0,0,1,10.737,2.151,40.1,40.1,0,0,1,9.473,4.993,53.4,53.4,0,0,1,8.323,7.375,77.955,77.955,0,0,1,7.3,9.3,139.251,139.251,0,0,1,12.021,22.519q.327.748.651,1.511c3.016,5.3,6.844,12.811,12.83,18.935,10.813,11.061,12.222,10.115,18.3,21.391s-9.128,21.355-11.605,20.892,13.606-13.544,2.86-23.716c-3.479-3.291-8.058-7.155-12.659-10.876,2.548,10.988-1.377,19.442-5.181,27.645-2.689,5.8-5.229,11.27-5.487,17.436-.493,11.719,8.29,18.229,12.512,21.358,1.274.945,2.118,1.571,2.143,1.93a.188.188,0,0,1-.063.162,1.248,1.248,0,0,1-.769.15c-2.07,0-8.075-1.349-13.969-3.88a33.887,33.887,0,0,1-7.7-4.389c-2.295-1.834-3.587-3.719-3.841-5.607-.494-3.695,3.1-11.357,6.578-18.767a107.491,107.491,0,0,0,5.113-11.982c1.227-3.976,1.389-6.378.515-7.563-.655-.892-1.825-1.014-2.992-1.014-.227,0-.479.006-.792.018-3.349.123-5.2.975-10.154,9.05-1.648,2.687-3.728,6.522-4.272,9.526-.9,4.948.161,9.517,1.185,13.933.919,3.946,1.783,7.671,1.095,11.234-.769,3.988-3.383,7.24-8.227,10.235a8.008,8.008,0,0,1-4.284,1.125,11.135,11.135,0,0,1-3.346-.515l-67.812,10.714Zm75.662-121.179a.348.348,0,0,0-.209.084c-.877.676-1.75,3.767-1.637,7.584a25.579,25.579,0,0,0,4.766,14.008c1.8,2.552,5.341,5.176,9.09,7.955,4.693,3.479,9.546,7.076,11.393,10.866a34.949,34.949,0,0,1,3.329,19.01,40.03,40.03,0,0,1-2.584,10.681,2.444,2.444,0,0,0-.2.577h0a4.869,4.869,0,0,0,.515-.733l.039-.063c6.217-9.475,6.217-20.751,0-33.514-1.87-3.841-6.312-7.551-10.229-10.821a61.919,61.919,0,0,1-5.993-5.427,26.941,26.941,0,0,1-5.262-9.125,51.27,51.27,0,0,1-2-7.928C-11818.953,57.344-11819.178,56.156-11819.605,56.156Zm-81.78,46.609v-.009a22.836,22.836,0,0,1,2.453-7.527,33.945,33.945,0,0,1,5.057-7.312,44.676,44.676,0,0,1,9.373-7.806c6.953-4.4,15.072-7.117,22.923-9.741,10.3-3.441,20.024-6.693,26.475-13.382,3.44-3.569,4.951-7.429,4.484-11.471a17.672,17.672,0,0,0-3.958-8.7,21.71,21.71,0,0,0-4.209-4.1.618.618,0,0,0-.168-.093s0,0-.006,0a1.2,1.2,0,0,0,.191.242,12.471,12.471,0,0,1,3.117,6.516,11.426,11.426,0,0,1-.85,5.948,21.3,21.3,0,0,1-5.415,7.249c-7.1,6.543-16.948,11.237-26.478,15.782-8.221,3.919-16.727,7.97-23.345,13.176a29.888,29.888,0,0,0-8.442,9.686c-.732,2.36-1.369,4.4-1.831,5.882A11.67,11.67,0,0,0-11901.386,102.765Z" transform="translate(13349.734 359.454)" fill="url(#linear-gradient)"/>
    <g id="Siren-2" data-name="Siren" transform="translate(59.998 -193.641)">
      <path id="path983" d="M245.286,186.309a6.48,6.48,0,0,0-4.959,5.5c-.474,4.316,1.622,8.483,4.183,11.818a28.039,28.039,0,0,0,7.066,6.342c.451-.379-.023-1.258,0-1.779-1.229-5.776-2.026-11.637-3.292-17.4-.437-1.629-.927-3.651-2.567-4.454a2.213,2.213,0,0,0-.427-.022Z" transform="translate(1162.441 452.977)" fill="url(#radial-gradient)"/>
      <path id="path985" d="M377.009,196.338c-1.26,5.83-2.16,11.759-3.271,17.628-.307.814.162.743.625.252,3.558-2.845,7.522-5.667,9.369-10,.3-.831-.962-1.518-1.319-2.28a35.047,35.047,0,0,0-5.362-5.6l-.024,0Z" transform="translate(1103.482 448.544)" fill="url(#radial-gradient)"/>
      <path id="Subtraction_25" data-name="Subtraction 25" d="M92.317,437.293h0a25.592,25.592,0,0,1-4.4-2.438,1.081,1.081,0,0,0,.474-.629c5.143-5.823,8.034-13.819,9.1-25.166.668-12.133.586-27.823-6.03-41.571-3.783-7.594-8.768-14.623-13.589-21.42-2.189-3.086-4.452-6.275-6.585-9.5a295.263,295.263,0,0,1-30.717-56,97.515,97.515,0,0,1-3.751-11.8c-.558-2.055-1.135-4.179-1.782-6.266l-.049-.049c-.066-.067-.14-.142-.228-.142a.151.151,0,0,0-.044.006,20.024,20.024,0,0,0,.543,6.3l.006.029c.164.852.333,1.733.449,2.586,3.691,17.8,10.566,34.975,16.72,49.672,4.195,9.145,9.083,18.128,13.81,26.815l.007.014,0,.006c2.709,4.978,5.511,10.126,8.156,15.259.586,1.117,1.178,2.228,1.835,3.461l.007.013c3.764,7.07,7.656,14.38,9.806,22.262A121.157,121.157,0,0,1,90,407.063a67.706,67.706,0,0,1-.039,18.689,14.447,14.447,0,0,1-3.632,7.926c-5.538-4.381-9.7-10.807-13.047-15.97a320.391,320.391,0,0,1-20.4-42.906C47.059,360.108,42.005,345.223,36.913,330c-.455-1.483-.925-3-1.38-4.47l0-.014-.287-.925-.008-.025c-6.733-21.716-13.7-44.172-11.461-67.156a70.808,70.808,0,0,1,2.5-12.872,96.321,96.321,0,0,1,4.472-12.183,250.161,250.161,0,0,1,12.2-23.158l.015-.026c2.445-4.275,4.972-8.693,7.282-13.077a42.5,42.5,0,0,0-2.169,7.224c-2.806,17.119,3.962,32.622,10.134,42.612,8.861,14.4,18.538,24.966,29.587,32.288,4.01,2.96,8.237,5.79,12.326,8.527l.008.006c4.95,3.314,10.068,6.74,14.84,10.419a89.717,89.717,0,0,1,13.263,12.272c8.865,10.359,12.031,23.834,15.094,36.865l.039.167h.047c.473,0,.828-.356,1.15-1.155l-.063.194-.085.262c-9.785,27.247-19.855,53.66-35.405,77.272-.367.488-.735.984-1.09,1.464l-.107.145c-4.015,5.425-8.567,11.573-15.483,12.638Zm46.715-134.614a11.142,11.142,0,0,1-5.985-1.954,40.076,40.076,0,0,1-5.164-4.134c-.658-.588-1.337-1.2-2-1.758-12.462-11.839-24.575-23.518-35.759-36.238a2.556,2.556,0,0,1-.451-2.837,4.378,4.378,0,0,1,3.8-2.281,3.458,3.458,0,0,1,.662.062c6.175.541,10.819,4.806,15.31,8.931,1.034.949,2.1,1.931,3.154,2.828,1.958,1.731,3.86,3.62,5.7,5.447l.01.01.005.005c4.055,4.028,8.249,8.192,13.339,10.986a3.708,3.708,0,0,0,1.807.486,2.434,2.434,0,0,0,2.6-2.363c1.639-9.18-5.754-16.838-9.008-19.7-9.082-8.013-20.548-11.848-31.637-15.556l-.005,0a161.113,161.113,0,0,1-18.317-6.962A53.657,53.657,0,0,1,60.02,224.116a41.408,41.408,0,0,1-5.776-9.211,34.552,34.552,0,0,1-2.893-10.517,4.777,4.777,0,0,0-.007-.691c-.044-.846-.1-1.9.659-2.03a13.5,13.5,0,0,1,2.636,4.591,14.862,14.862,0,0,0,2.493,4.489c6.727,9.607,17.81,14.3,27.764,17.634,3.781,1.427,7.709,2.7,11.507,3.929,9.468,3.066,19.258,6.236,27.6,12.049a52.686,52.686,0,0,1,22.156,45.974,18.138,18.138,0,0,1-1,6.872,9.6,9.6,0,0,1-4.235,5.27A9.143,9.143,0,0,1,139.031,302.679ZM159.8,289.525h0a23.8,23.8,0,0,0-1.639-7.394l0-.009a41.392,41.392,0,0,1-1.261-4.255c-3.8-13.083-9.26-27.654-21.02-36.533-12.476-9.486-27.654-14.2-42.333-18.755l-.014,0-.005,0c-3.669-1.139-7.46-2.315-11.141-3.548-11.025-3.03-19.283-7.975-24.545-14.7a21.592,21.592,0,0,1-2.6-7.306l0-.011a24.876,24.876,0,0,0-1.95-6.133,17.444,17.444,0,0,0-1.218,1.67c4.416-8.992,5.658-18.282,3.591-26.867,7.505-5.573,13.584-12.422,20.191-20.148a12.871,12.871,0,0,1,1.848-2.378l.006-.007c1.134-1.258,2.306-2.558,2.494-3.978h.045a2.3,2.3,0,0,0,1.052-.238,3.246,3.246,0,0,0-.514-2.12,6.916,6.916,0,0,1-.439-1.027,27.05,27.05,0,0,1-1.629-7.242,28.81,28.81,0,0,0-1.451-6.8c-.024-.04-.048-.086-.074-.133-.124-.232-.278-.521-.552-.521h-.024a3.321,3.321,0,0,0-1.021,2.3c-.044.257-.086.5-.141.729a39.148,39.148,0,0,0-.167,8.06,26.539,26.539,0,0,0,1.441,4.209c.266.654.541,1.33.784,2,.121.047.245.1.371.149l.078.032a16.712,16.712,0,0,0-3.666,3.445l-.017.02a24.232,24.232,0,0,1-2.245,2.35,93.524,93.524,0,0,1-10.695,11.074,110.65,110.65,0,0,1-12.206,9.279,152.745,152.745,0,0,1-27.348,14.044c2.547-5.458,7.236-9.459,11.771-13.328l.482-.411c1.062-.858,2.161-1.723,3.287-2.607,5.358-4.215,10.9-8.573,14.822-14.29a30.494,30.494,0,0,0,4.635-14.049l-.013,0-.035,0-.07.033-.069.032a9.9,9.9,0,0,0,2.028-1.963,32.5,32.5,0,0,0,2.631,2.408l.193.164c.139.094.279.195.427.3a3.886,3.886,0,0,0,2.1.965,1.6,1.6,0,0,0,.173-.009,1.83,1.83,0,0,0,1.179-1.058,1.212,1.212,0,0,0-.136-1.115,25.594,25.594,0,0,0-1.83-3.287,15.228,15.228,0,0,1-2.526-5.643,28.209,28.209,0,0,1-.183-2.85c-.074-2.4-.15-4.881-1.721-6.842a1.753,1.753,0,0,0-1.2-.695l-.06,0c-.889.034-.968.85-1.038,1.569-.015.15-.028.29-.049.42-.053.729-.114,1.469-.173,2.184a53.934,53.934,0,0,0-.243,8.9,7.932,7.932,0,0,0,2.062,4.146,6.916,6.916,0,0,0-1.255-.113c-2.2,0-4.441.95-6.61,1.868-.965.409-1.876.795-2.774,1.095.017-2.639.123-5.289.225-7.851a132.145,132.145,0,0,0,.058-14.062,21.385,21.385,0,0,0-2.212-3.99l-.007-.011c-1.267-1.953-2.577-3.972-2.775-6.175.017.023.036.047.059.073a64.593,64.593,0,0,1,3.644,7.112,9.844,9.844,0,0,0,4.521,4.263,12.715,12.715,0,0,1,1.359.935,7.2,7.2,0,0,0,2.451,1.389,1.712,1.712,0,0,0,.247-1.253,2.114,2.114,0,0,1,.185-1.225,1.746,1.746,0,0,1,1.615-.824,5.206,5.206,0,0,1,2.266.649,5.365,5.365,0,0,1,2.013,1.791A4.493,4.493,0,0,1,62,117.988c.118,1.094.136,2.218.153,3.305a28.11,28.11,0,0,0,.277,4.209c.438-.012.462-.589.481-1.053a2.68,2.68,0,0,1,.044-.473c.1-1.309.091-2.648.085-3.942a35,35,0,0,1,.292-5.735c.375-1.24,1-3.314,2.714-3.314h.045c1.7.423,2.958,1.981,3.854,4.762a17.477,17.477,0,0,1,.6,6.308c-.028,1.052-.057,2.136.011,3.189a5.81,5.81,0,0,0,1.119,3.838,3.606,3.606,0,0,1,.311.505c.2.367.408.745.712.838a9.215,9.215,0,0,0,.661-4.6,19.592,19.592,0,0,1,.029-2.264c-.012-.943.128-4.058,2.446-4.542.075-.005.15-.008.223-.008,2.092,0,3.557,2.158,4.079,4.3a44.629,44.629,0,0,1,.939,5.057c.463,3.168.942,6.443,2.7,9.259.531.915,1.514,1.984,2.539,1.984a1.6,1.6,0,0,0,.951-.329c1.827-1.579,2.957-4.476,1.685-6.591a2.223,2.223,0,0,0-1.565-1.156.9.9,0,0,0-.7.356,2.855,2.855,0,0,0-.7,1.592,3.1,3.1,0,0,1-.644,1.56c-.088.2-.36.513-.543.513-.109,0-.17-.106-.181-.314-.354-1.782.126-4.07,2.017-4.882a2.406,2.406,0,0,1,1.132-.28,3.086,3.086,0,0,1,2.437,1.339,3.8,3.8,0,0,1,.4.433,1.879,1.879,0,0,0,.752.653c.169-3.295.14-6.777-1.216-9.915-1.022-2.32-3.4-4.059-6.524-4.772l-.637-.162c-2.628-.664-5.345-1.351-7.413-3.212-2.34-1.924-4.887-3.822-8.01-4.054a55,55,0,0,0-5.513-.332,34.093,34.093,0,0,1-8.778-1c-2.029-.58-3.121-2.591-3.919-4.06-1.959-2.708-4.012-4.177-6.1-4.366a.877.877,0,0,0-.268.062c.006-.029.012-.057.018-.086L43,100.58c.275-3.855.879-7.731,1.463-11.48l0-.029,0-.032c.466-2.984.947-6.067,1.258-9.12C47.083,78.585,59.719,66.6,85.3,57c13.151-4.938,26.158-7.152,37.634-9.106h.008c12.673-2.157,23.618-4.02,32.484-8.815-.1-.041-.2-.085-.315-.131a30.189,30.189,0,0,1,4.924,2.16c8.112,5.5,8.957,15.811,9.7,24.913v.016c.088,1.08.172,2.1.267,3.114.232,19.731,4.144,39.391,7.928,58.4l.018.093q.265,1.332.53,2.665l.022.112.1.489a119.627,119.627,0,0,0,3.5,14.071l0,.01c1.8,6.154,3.654,12.518,4.062,19.036a39.912,39.912,0,0,1-8.27,19.942c-10.876-3.958-23.431-8.741-34.815-15.431A89.8,89.8,0,0,1,125.2,155.524c-5.233-4.768-9.933-9.775-15.534-15.826a4.48,4.48,0,0,0-1.712-1.5A1.356,1.356,0,0,0,109,137.185a17.749,17.749,0,0,0,2.326-7.747q.012-.238.024-.477l0-.035a20.844,20.844,0,0,0-.57-7.774c-.129-.257-.281-.388-.452-.388l-.04,0c-1.4.473-1.72,2.037-2,3.417-.041.2-.079.391-.121.576-.105.725-.2,1.466-.3,2.183l0,.014a40.276,40.276,0,0,1-1.987,9.313,1.539,1.539,0,0,0,.277,1.752l-.017.019a1.315,1.315,0,0,0-.169,1.055c6.877,11.549,17.208,20.683,24.38,26.548a37.536,37.536,0,0,0,2.888,24.985c3.13,6.552,6.749,12.988,10.25,19.212l.007.013c5.827,10.362,11.852,21.078,15.768,32.58,4.351,10.153,3.926,21.378,2.936,31.019-.574,5.171-1.383,10.577-2.406,16.07ZM127.163,132.519h0a7.572,7.572,0,0,0,3.019,1.978l.007,0a10.582,10.582,0,0,1,2.128,1.17c8.629,4.945,18.378,7.082,27.8,9.149,4.943,1.084,10.055,2.2,14.944,3.716a8.92,8.92,0,0,0,3.263.717c.811,0,1.345-.188,1.588-.559a1.463,1.463,0,0,0-.075-1.4c-4.232-3.565-9.8-4.522-15.179-5.447-2.133-.366-4.338-.745-6.4-1.283-1.074-4.263-2.143-8.609-3.178-12.812l-.016-.063-.012-.051c-3.627-14.734-7.377-29.969-12.048-44.665a23.576,23.576,0,0,1-1-8.248V74.72c-.01-2.778-.02-5.65-1.045-8.214l-.072-.013c-1.087,1.712-.922,4.053-.761,6.317a23.073,23.073,0,0,1,.084,3.175,65.84,65.84,0,0,0,1.117,10.408,61.073,61.073,0,0,1,1.115,11.42c-.027.834-.091,1.644-.189,2.409-2.458.647-4.243,2.911-5.666,5.04a7.426,7.426,0,0,1-5.279,3.622,43.985,43.985,0,0,1-6.916.549,40.411,40.411,0,0,0-7.494.667,14.835,14.835,0,0,0-5.231,3.078c-1.758,1.39-3.576,2.827-5.9,3.211-.692.2-1.421.352-2.125.5a13.33,13.33,0,0,0-4.912,1.736c-2,1.534-2.548,4.023-3.081,6.431l0,.015c-.078.353-.159.719-.243,1.068q-.033.217-.069.438l0,.017c-.27,1.7-.576,3.635.156,5.264a3.62,3.62,0,0,0,.87-1.012c.43-.638.874-1.3,1.732-1.325.09-.009.182-.013.272-.013a3.708,3.708,0,0,1,3.2,2.239,2.942,2.942,0,0,1-.3,3.21.688.688,0,0,1-.139.015c-.521,0-.609-.722-.673-1.249-.018-.145-.034-.281-.057-.385-.006-.057-.011-.117-.017-.179v-.015c-.086-.931-.215-2.337-1.323-2.337a1.469,1.469,0,0,0-.193.013c-1.523.394-1.714,2.275-1.606,3.783.191,1.757,1.185,3.746,2.978,4.23,2.438-.606,3.392-3.389,4.023-5.231a29.344,29.344,0,0,0,1.2-5.987A23.546,23.546,0,0,1,107.2,120.3c.564-1.171,1.655-2.352,2.823-2.352a1.854,1.854,0,0,1,.9.239c1.929,1.328,2.114,3.813,2.277,6.007.018.24.036.489.057.731.056.508.07,1.039.083,1.553a9.124,9.124,0,0,0,.426,3.067,2.939,2.939,0,0,0,1.16-1.58,6.884,6.884,0,0,1,.4-.812c1.086-1.787.964-3.931.7-5.793-.039-.352-.086-.7-.134-1.078-.317-2.423-.677-5.168,1.1-7.124.444-.547,2.041-2.333,3.97-2.333a2.94,2.94,0,0,1,1.2.256c1.191.744,1.2,2.114,1.2,3.439,0,.421,0,.818.043,1.192.041.865.044,1.753.047,2.613a32.726,32.726,0,0,0,.25,4.778,6.931,6.931,0,0,0,.5-2.612c.027-.408.054-.829.112-1.223.028-.309.048-.617.069-.942.12-1.855.244-3.773,1.775-4.968a3.518,3.518,0,0,1,2.442-.97,2.528,2.528,0,0,1,2.491,1.582,1.511,1.511,0,0,1,.22.7c.055.343.106.666.335.741a24.928,24.928,0,0,0,7.011-5.03,45.763,45.763,0,0,0-.38,10.984v.019a68.943,68.943,0,0,1,.071,7.384,6.434,6.434,0,0,0-.031,1.847c.073,1.139.156,2.429-.366,2.985a.947.947,0,0,1-.72.285,2.055,2.055,0,0,1-.511-.074,14.571,14.571,0,0,1-3.651-1.373,12.11,12.11,0,0,0-4.425-1.478,8.717,8.717,0,0,0,1.977-3.884,25.352,25.352,0,0,0-.3-5.672,33.389,33.389,0,0,1-.369-4.338,6.28,6.28,0,0,1-.063-.988,2.678,2.678,0,0,0-.581-2.073.824.824,0,0,0-.328-.056h-.059c-1.777,0-2.162,2.034-2.417,3.377a31.406,31.406,0,0,0-.413,3.434c-.2,2.4-.407,4.883-1.775,7-.451.855-.972,1.7-1.476,2.508a28.192,28.192,0,0,0-2.1,3.818,2.651,2.651,0,0,0,2.084.906,3.943,3.943,0,0,0,2.554-.967c.711-.563,1.275-1.041,1.776-1.5Zm-61.121-19.05c-.681.248-.79,1-.9,1.73a5.188,5.188,0,0,1-.151.776c-.089.683-.191,1.379-.29,2.053-.454,3.1-.924,6.305-.327,9.431a19.813,19.813,0,0,0,2.689,5.142A31.036,31.036,0,0,1,69,135.823a2.535,2.535,0,0,0,2.31,1.623,2.448,2.448,0,0,0,.384-.031h.016a9.19,9.19,0,0,0,3.544-.666l-.157-.3c-.9-1.692-1.819-3.439-3.538-4.362-1.56-1.591-2.548-3.948-3.021-7.205a30.984,30.984,0,0,1-.01-3.6,20.044,20.044,0,0,0-.305-5.481C67.719,114.273,66.985,113.485,66.042,113.469Zm45.826,23.674h0a4.782,4.782,0,0,0,1.594.274,4.021,4.021,0,0,0,3.289-1.567,38.817,38.817,0,0,0,2.9-4.344c.62-1.025,1.261-2.085,1.958-3.082a5.483,5.483,0,0,0,.521-2.957,11.908,11.908,0,0,1,.047-1.443q0-.546.006-1.1c.021-3.267.042-6.645-.949-9.8-.135-.323-.441-.866-.966-.866h-.041c-1.126.375-1.48,1.631-1.792,2.74-.058.2-.117.416-.179.611a31.878,31.878,0,0,0-.227,4.833,22.405,22.405,0,0,1-.678,6.83c-.65,2.387-1.782,3.945-3.363,4.631a7.824,7.824,0,0,0-1.883,2.8c-.227.473-.462.961-.73,1.406-.268.318-.364.584-.278.769s.314.262.679.262ZM93.251,71.429a18.6,18.6,0,1,0,18.6,18.6A18.623,18.623,0,0,0,93.251,71.429ZM.346,166.94h0a22.6,22.6,0,0,1,.767-11.013,403.321,403.321,0,0,0,10.1-44,20.624,20.624,0,0,0,2.192,9.923c1.4,2.417,3.391,3.694,5.759,3.694,2.03,0,4.273-.917,6.667-2.726a39.75,39.75,0,0,0,8.023-8.78c.588-1.288,1.3-3.044,2.068-5.077l-.329,1.291-.462,1.815-.006.024c-2.334,9.173-4.747,18.657-7.423,27.9a44.747,44.747,0,0,1-8.46,2.322l-.01,0a44.9,44.9,0,0,0-8.727,2.418c-1.562.485-3.99,1.858-4.5,3.391a1.809,1.809,0,0,0,.3,1.711A152.262,152.262,0,0,1,24.437,145.2c7.323-1.557,14.9-3.167,21.949-6.086-1.2,4.313-4.819,7.133-7.64,8.739-4.091,2.593-8.8,3.828-13.345,5.022H25.4a74.741,74.741,0,0,0-8.566,2.62C9.1,158.286,3.7,162.03.346,166.94Zm25.13-64c-3.16,0-5.112-3.428-5.969-10.476a6.636,6.636,0,0,1,1.958-5.238c2.936-3.314,8.457-5.79,12.572-7.284A45.461,45.461,0,0,1,44.022,77.3l.076,0a21.652,21.652,0,0,1-.454,3.177c-1.163,3.88-2.341,8.03-3.6,12.686a.235.235,0,0,0-.113-.027.852.852,0,0,0-.485.248c-.9.762-1.827,1.591-2.8,2.468l-.031.028C32.748,99.351,28.756,102.937,25.476,102.937Zm-11.312-7.87h0c.821-5.893,1.165-11.933,1.5-17.774.457-8.018.929-16.309,2.638-24.316a19.036,19.036,0,0,1,7.324-11.165,25.59,25.59,0,0,1,12.6-4.95c15.961-2.107,26.97-6.755,34.646-14.628,2.913-2.542,4.223-8.452,4.809-12.962A73.356,73.356,0,0,0,78.254,0l4.324,2.474,17.794.608L107.949,0a30.366,30.366,0,0,0-.138,9.557,26.11,26.11,0,0,0,9.629,17.264,36.078,36.078,0,0,0,10.325,5.584,29.853,29.853,0,0,1-3.17-1.261c-.026,0-.063.078-.136.234a15.363,15.363,0,0,1-4.682,5.571c-4.239,3.436-10.5,6.4-18.621,8.8-7.868,2.33-16.1,3.105-24.052,3.855C63,50.936,49.67,52.192,38.6,61.45,32.129,67.035,23.425,75.516,18.714,84.2a78.877,78.877,0,0,0-4.549,10.862Z" transform="translate(1352.639 680.691)" fill="url(#radial-gradient-3)"/>
      <g id="siren_girl" data-name="siren girl" transform="translate(1271.127 779.917)">
        <g id="layer8" transform="translate(0 0)">
          <path id="Union_14" data-name="Union 14" d="M107.01,274.628c.774-3.329,7.757-8.178,10.666-9.987a3.6,3.6,0,0,1,3.034-.344c1.195.287,2.032.573,2.557-1.921.891-4.234-14.7-31.447-20.3-34.243C90,218.506,73.731,215.517,58.9,209.89c-15.108-5.057-29.637-13.557-38.863-26.868-.268-.531-2.19-2.972-.554-2.535A74.228,74.228,0,0,0,44.429,190.4c10.137,1.957,20.921,3.729,31.055.878,4.62-1.183,6.919-6.475,5.354-10.82-1.994-6.632-7.57-11.473-12.979-15.441-21.1-13.529-42.366-28.584-55.843-50.218C4.789,102.391,1.647,87.981.423,73.8-1.12,53.7,1.427,32.96,10.2,14.65,12.894,9.529,15.553,4.041,19.719,0c.751,1.242.749,3.4,1.408,4.876C24.1,16.541,31.153,27.389,41.752,33.433c10.1,6.405,22.493,6.719,33.124,11.822,1.929,1.365,5.391,1.45,6.241,3.909-.784,4.73-2.391,9.39-2.139,14.277-.571,6.827,2.661,13.081,6.2,18.675,1.584,1.8,2.8,5.7,5.764,5.106,2.093-.2,5.2-2.8,5.25.724,4.656,10.54,12.648,19.239,21.015,27a334.306,334.306,0,0,0-14.914,34.4c.165,13-.542,26.093,1.293,39.011,4,22.676,13.058,44.186,20.332,65.955.292.469,8.5,22.61,7.238,21.164-.535-.893-7.3-3.737-13.419-3.579-4.659.12-9.029,4.2-10.4,4.2C106.9,276.1,106.763,275.692,107.01,274.628ZM61.8,201.1c8.342,5.369,18.147,7.859,27.18,11.819a69.854,69.854,0,0,1,18.229,10.675c1.416,1.357,2.542-.295,1.987-1.724-2.527-10.626-6.273-20.94-9.749-31.289C96.045,179.047,88.064,169.608,79,162c-8.262-6.941-16.772-13.616-25.376-20.114-1.473.386-.6,3.1-.329,4.094,3.273,7.453,10.417,12.166,16.2,17.549C77.117,170.5,85.6,178.135,87.77,188.7c1.244,4.643-1.682,9.365-6.035,11a42.157,42.157,0,0,1-19.063-.754,1.6,1.6,0,0,0-.606-.129A1.168,1.168,0,0,0,61.8,201.1ZM16.488,5.409c-3.709,7.136-5.053,15.253-6.694,23.061-2.721,15.96-1.082,32.546,3.7,47.968,5.34,18.315,14.118,35.923,27.606,49.618,11.159,11.118,22.947,21.863,36.413,30.134.867,1,2.861.069,1.6-1.071-6.318-5.838-13.427-10.876-18.978-17.535-14.3-15.795-23.048-37.47-20.15-58.932.95-10.513,7.948-19.854,6.629-30.646-.133-7.163-6.207-11.919-11.733-15.413C27.33,28,21.179,20.743,19.4,11.933c-.852-2.213.087-5.546-1.953-7.1l-.065,0A1.206,1.206,0,0,0,16.488,5.409ZM54.145,48.167c-2.461,8.591-3.31,17.586-4.049,26.469-.388,9.725-1.364,20.077,3.288,29.035,7.608,15.8,20.251,28.437,32.888,40.3,1.388.966,3.359,3.279,5.113,2.446-1.667-3.5-4.718-6.346-7.093-9.438-9.184-10.34-16.311-23.41-16.113-37.574-.81-14.887,8.16-28.71,5.784-43.637-.818-6.877-8.1-10.527-14.266-11.323a5.575,5.575,0,0,0-.6-.033A5.068,5.068,0,0,0,54.145,48.167ZM218.008,275.511c5.811-16.094,19.629-53.666,23.54-70.353,3.653-16.112,6.784-32.669,5.481-49.258-1.206-15-9.381-28.046-15.319-41.5-.382-.639-.072-.63.349-.621.333.007.737.014.921-.3,6.792-5.187,12-12.18,16.693-19.256,1.787-2.5,2.834-5.418,4.182-8.116,1.96-.078,3.976,1.1,5.928,1.521,4.286-4.656,8.049-10.08,9.4-16.361,1.834-7.171.414-14.57-1.282-21.609-.845-2,2.044-2.067,3.132-2.857a44.833,44.833,0,0,1,13.137-5.246c10.579-2.345,21.19-5.993,29.572-13.1A40.822,40.822,0,0,0,328.382,3.635c.435-1.041-.038-2.971,1.112-3.528h0c.272-.041.492.167.683.328,4.475,5.376,7.41,11.875,10.134,18.273a119.265,119.265,0,0,1,8.513,43.96,101.253,101.253,0,0,1-2,24.584,86.875,86.875,0,0,1-11.6,30.6c-9.01,14.224-22.033,25.392-35.652,35.05-8.262,6.089-17.481,10.936-25.016,17.968-3.829,3.859-7.98,9.14-6.525,14.919,1.386,4.924,6.909,6.541,11.455,6.826,13.358.862,26.81-1.869,39.239-6.681,4.6-1.681,8.7-4.394,12.85-6.9-.735,2.035-2.5,3.855-3.76,5.689-10.109,13.321-25.3,21.838-41.1,26.584-11.351,3.879-23.089,6.883-33.875,12.229-10.956,6.046-18.8,19.619-24.638,30.28a53.177,53.177,0,0,0-3.3,8.562c-1.311,6.135,4.84-2.352,15.329,10.918,2.4,3.033-4.019-.852-9.217-1.381-2.542-.258-5.821.762-8.455,1.783-2.353.911-4.19,1.823-4.526,1.823A.107.107,0,0,1,218.008,275.511Zm76.819-133.354c-9.681,8.582-20.729,15.538-30.027,24.565-8.866,8.409-13.842,19.87-17.525,31.306-2.4,7.942-5.419,15.719-7.366,23.788-.474,1.11.34,2.705,1.657,1.893,3.8-2.407,7.14-5.559,11.183-7.633,7.076-3.7,14.8-5.961,22.153-9.048,4.339-1.98,9.345-3.206,12.766-6.7,1.1-.888-.035-1.763-1.057-1.3-5.328,1.427-11.005,2.51-16.48,1.22-4.69-1.106-9.894-4.793-9.427-10.177.8-7,5.643-12.651,10.072-17.793,7.864-9.131,18.828-15.458,25.057-25.987.644-1.246,2.1-3.918.075-4.548h-.038A1.962,1.962,0,0,0,294.827,142.157ZM330.854,4.441c-.749,1.889-.072,4.165-.51,6.18-1.609,9.052-8.086,16.513-15.422,21.675-5.525,3.514-11.615,8.032-12.434,15.067-1.317,7.226,2.1,14.011,4.4,20.638,6.4,18.622,2.541,39.68-7.871,56.094-6.651,11.179-16.157,20.292-26.138,28.482-.91,1.086-2.972,1.967-2.854,3.553,1.021.942,2.544-.707,3.6-.96,8.72-5.144,16.117-12.2,23.568-18.98,8.864-8.592,18-17.2,24.609-27.726a133.212,133.212,0,0,0,18.654-59.554c.875-11.759-1.325-23.458-4.473-34.74-1.142-3.391-1.649-7.73-4.937-9.754a.519.519,0,0,0-.062,0A.326.326,0,0,0,330.854,4.441ZM282.97,46.153a11.753,11.753,0,0,0-7.57,8.491c-2.63,9.363,1.288,18.7,3.372,27.74,2.941,10.163,3.437,21.2.113,31.335-3.879,12.094-12.552,21.711-20.621,31.2-.9.506-.767,2.13.44,1.639,4.787-2.225,8.34-6.382,12.108-9.964,9.546-10.074,19.021-20.642,25.034-33.282,4.206-8.691,4.38-18.614,3.314-28.026-.931-8.449-1.252-17.058-3.526-25.286-.9-2.272-1.632-5.872-4.569-6.138C288.248,44,285.588,45.2,282.97,46.153Zm-56.287,60.431c-5.638-9.8-12.456-19.841-13.055-31.479.307-2.026-.313-4.9,1.245-6.421,5.991,3.1,11.972,6.549,18.229,9.247,1.191,1.036,4.088.94,4.21,2.8a109.8,109.8,0,0,1-7.563,30.023C228.454,110.013,227.672,107.87,226.683,106.585ZM117.025,104.47c-2.178-7.827-4.665-15.765-5.081-23.906,6-4.056,13.1-6.508,19.3-10.347L134.51,68.2c2.364,6.111.361,12.776-1.733,18.661a99.615,99.615,0,0,1-13.129,23.468C118.1,109.149,117.823,106.339,117.025,104.47Z" transform="translate(0 0)" fill="url(#linear-gradient-2)"/>
        </g>
      </g>
      <path id="Union_21" data-name="Union 21" d="M35.03,71.8c-4.619-2.618-9.327-5.2-13.41-8.626a21.6,21.6,0,0,1-6.64-10.144C12.256,44.7,8.617,27.543,8.617,27.543s-3.409-3.484,4.147-7.589,21.183-2.785,32.153-8.288C54.714,6.753,54.981,1.312,54.926.2a84.838,84.838,0,0,0,1.723,10.919c1.253,5.211,3.589,6.16,5.016,7.659.6.659,1.872,1.6.2,1.286-.562.009-1.134.007-1.708,0-2.8-.016-5.7-.034-8.1,1.586-.57.159-.677.967-.02,1.063a11.472,11.472,0,0,0,3.736-.306,12.577,12.577,0,0,1,3.441-.337c.567.022,1.144.02,1.724.016a12.3,12.3,0,0,1,4.948.643c3.611,2.627,7.464,4.956,10.778,7.967-1.28,5.519-2.524,11.049-3.98,16.526-1.512,5.358-2.928,11.221-7.183,15.139A84.53,84.53,0,0,1,53.7,70.25c-2.973,1.57-5.912,3.558-9.325,3.962a9.193,9.193,0,0,1-1.442.112C40.135,74.324,37.464,73.11,35.03,71.8ZM49.437,33.181c.04.677,1.038.884,1.519,1.226a25.958,25.958,0,0,0,8.354,2.468,18.324,18.324,0,0,0,7.25-1.085c1.436-.565,2.839.118,4.232.4.951.232,1.255-.893.978-1.6-.285-.851-.272-2.285-1.333-2.526-2.35.42-4.527,1.59-6.87,2.1-3.427,1.036-6.91-.107-10.266-.826a23.448,23.448,0,0,0-2.682-.372A3.083,3.083,0,0,0,49.437,33.181Zm-25.3,3.625c3.221.06,6.709-.022,9.537-1.756.9-.748,2.092-.675,3.148-.893.019-.75-1.049-1.15-1.7-1.213-3.116.214-6.076,1.494-9.211,1.642-3.5.319-6.587-1.744-9.917-2.381a1.5,1.5,0,0,0-.446.04c-1.336.489-1.35,2.325-1.178,3.5.2,1.132,1.477.558,2.028.06a5.186,5.186,0,0,1,1.532-.222C20.015,35.585,22.047,36.671,24.138,36.806Zm-8.9-13.772a9.774,9.774,0,0,0-2.478,2.45c1.881-.538,3.486-1.865,5.347-2.517a38.9,38.9,0,0,1,8.68-.625c2.284-.1,4.527.377,6.794.489.764.239.862-.748.362-1.088-1.952-1.541-4.617-1.651-7-1.789h-.062C22.864,19.954,18.57,20.629,15.242,23.034ZM74.521,49.483c1.109-5.87,2.01-11.8,3.27-17.627l.021,0,.022,0a35.027,35.027,0,0,1,5.362,5.6c.357.762,1.617,1.447,1.318,2.28-1.848,4.328-5.812,7.149-9.368,9.995a1,1,0,0,1-.572.366C74.413,50.1,74.355,49.919,74.521,49.483ZM4.251,43.575C1.688,40.241-.406,36.073.067,31.758a6.481,6.481,0,0,1,4.96-5.5,2.109,2.109,0,0,1,.427.022c1.64.8,2.129,2.825,2.566,4.454,1.267,5.767,2.063,11.628,3.292,17.4-.018.523.456,1.4,0,1.78A28.035,28.035,0,0,1,4.251,43.575ZM54.908,0a1.9,1.9,0,0,1,.018.2C54.914.071,54.908,0,54.908,0Z" transform="translate(1402.699 613.027)" fill="url(#linear-gradient-3)"/>
      <path id="path981" d="M311.663,164.422l-.311-.123c-1.79-.765-4.15-.444-6.361-.537-2.431-.205-4.762.975-7.178.644-.656-.1-.55-.9.019-1.063,2.758-1.858,6.661-2.011,10.186-2.081l.163,0Zm-38.944-2.781c2.385.137,5.052.248,7,1.788.5.34.4,1.329-.362,1.088-2.267-.112-4.51-.584-6.794-.487a38.81,38.81,0,0,0-8.678.626c-1.862.651-3.468,1.977-5.347,2.516a9.741,9.741,0,0,1,2.476-2.45c3.345-2.417,7.666-3.086,11.7-3.08Zm43.492,12.111c1.061.243,1.046,1.677,1.333,2.526.276.71-.027,1.836-.979,1.6-1.392-.285-2.8-.97-4.231-.4a18.287,18.287,0,0,1-7.25,1.085,25.876,25.876,0,0,1-8.353-2.467c-.481-.341-1.48-.549-1.519-1.226,1.2-.494,2.61.014,3.862.161,3.355.718,6.84,1.863,10.265.826,2.342-.511,4.521-1.683,6.872-2.1Zm-54.444.14c3.331.635,6.412,2.7,9.917,2.38,3.135-.147,6.095-1.427,9.21-1.641.656.062,1.722.463,1.7,1.212-1.055.219-2.251.145-3.149.893-2.827,1.734-6.316,1.817-9.538,1.756-2.6-.168-5.107-1.8-7.739-1-.552.5-1.83,1.072-2.029-.06-.171-1.178-.158-3.014,1.178-3.5a1.539,1.539,0,0,1,.446-.038Z" transform="translate(1156.925 471.341)" fill="#b6009d"/>
    </g>
  </g>
</svg>
