<svg xmlns="http://www.w3.org/2000/svg" width="29.456" height="25.85" viewBox="0 0 29.456 25.85">
  <path id="soba" d="M44.611-4962.46c-1.425-.054,10.662-4.738,7.256-6.569-3.019-1.624-16.237-1.515-21.292-3.572a7.107,7.107,0,0,0,.364.788c3.158,1.03,7.114,1.959,9.85,2.932.956-.053,1.9-.133,2.813-.213,3.242-.286,5.963-.572,6.6.373,1.4,2.077-11.063,5.323-12.158,5s11.432-2.537,9.805-4.411c-.7-.8-3.024-.55-5.817-.264a4.928,4.928,0,0,1,1.776,1.119c1.834,2.222-7.9,3.158-9.785,2.463s10.3-.4,8.206-2.463a5.29,5.29,0,0,0-1.76-.966c-3.387.306-7.115.408-9.361-1.279a4.82,4.82,0,0,1-1.326-1.63,11.9,11.9,0,0,1-4.128-1.911c-2.318-2.077,1.2-10.141,3.183-13.576.4-1.169.839-1.843,1.206-1.632a.091.091,0,0,1,.073.055c.385.363.218,1.557-.1,3.122-.264,3.016-.658,7.581.106,10.978l0,0c3.417,2.929,19.886,1.484,23.508,4.4,3.6,2.9-7.461,7.256-8.994,7.257Zm-12.252-7.732c1.615,1.066,3.925,1.373,6.353,1.374-2-.579-4.5-1.126-6.817-1.737A3.707,3.707,0,0,0,32.359-4970.192Zm-5.675-3.514a11.035,11.035,0,0,0,2.569,1.3,12.482,12.482,0,0,1-.356-1.293c-1.531-1.873-1.411-6.544-.765-10.105C26.512-4980.1,24.719-4975.185,26.684-4973.706Z" transform="translate(-24.892 4988.31)" fill="#fff"/>
</svg>
