<svg xmlns="http://www.w3.org/2000/svg" width="161.064" height="233.741" viewBox="0 0 161.064 233.741">
  <path id="thankyou" d="M41.5,261.809c-2.575.035-5.585-.032-6.688-.149s-3.461-.506-5.239-.862a55.134,55.134,0,0,1-5.872-1.56,46.711,46.711,0,0,1-4.682-1.935,41.969,41.969,0,0,1-4.028-2.381,30.981,30.981,0,0,1-3.679-3.055,32.969,32.969,0,0,1-2.7-3.072c-.552-.756-1.529-2.251-2.171-3.321a42.155,42.155,0,0,1-2.049-3.958,38.862,38.862,0,0,1-1.44-3.95,39.647,39.647,0,0,1-.905-4.265,46.543,46.543,0,0,1-.341-5.866,56.286,56.286,0,0,1,.317-5.886c.172-1.291.58-3.538.906-4.993s.991-3.834,1.477-5.288,1.361-3.721,1.944-5.04,1.695-3.5,2.47-4.85,2.051-3.377,2.836-4.507,2.347-3.187,3.471-4.57,3.5-3.976,5.289-5.76,4.4-4.2,5.809-5.374,3.768-3.024,5.239-4.119,4.209-3.083,6.084-4.418,4.369-3.23,5.542-4.209a31.739,31.739,0,0,0,3.351-3.25,22.769,22.769,0,0,0,1.963-2.808,17.74,17.74,0,0,0,1.21-2.866,11.639,11.639,0,0,0,.461-3.679,21.3,21.3,0,0,0-.448-4.157c-.244-1.1-.958-3.511-1.587-5.351a48.18,48.18,0,0,1-1.561-5.685,54.265,54.265,0,0,1-.553-6.465,57.343,57.343,0,0,1,.106-6.48,24.073,24.073,0,0,1,1.613-6.3c1.371-3.944,1.371-3.944.821-4.667a13.523,13.523,0,0,1-1.046-1.7,8.585,8.585,0,0,1-.678-2.118,9.177,9.177,0,0,1,.026-2.452,9.564,9.564,0,0,1,.733-2.341,6.2,6.2,0,0,1,.939-1.408,31.491,31.491,0,0,1,4.093-1.812l3.679-1.439L56.2,101.9a5.446,5.446,0,0,0-.618-2.79A8.653,8.653,0,0,0,54,96.966a12.451,12.451,0,0,0-2.354-1.6c-.756-.381-2.194-.995-3.2-1.363a32.457,32.457,0,0,1-3.455-1.548,27.041,27.041,0,0,1-3.01-1.934,33.736,33.736,0,0,1-2.9-2.611,39.808,39.808,0,0,1-2.863-3.348c-.736-.986-1.872-2.7-2.525-3.8a7.809,7.809,0,0,1-1.429-3.881,43.043,43.043,0,0,1-.242-4.466,51.765,51.765,0,0,1,.331-5.26c.182-1.468.538-3.822.792-5.233s.772-3.768,1.153-5.239a19.428,19.428,0,0,0,.71-4.347,8.742,8.742,0,0,0-.384-2.836,7.841,7.841,0,0,0-1.369-2.239,8.47,8.47,0,0,0-1.749-1.5,1.682,1.682,0,0,0-1.7-.148,5.3,5.3,0,0,0-1.652.922A5.455,5.455,0,0,0,27.008,48.1c-.225.5-.519.874-.652.83s-.328-.423-.434-.842a3.524,3.524,0,0,1,.061-1.7,6.074,6.074,0,0,1,1.375-2.163,7.036,7.036,0,0,0,1.319-1.916,5.425,5.425,0,0,0-.007-1.962,2.7,2.7,0,0,0-.756-1.755c-.478-.416-.735-.465-1.9-.359-1.151.1-1.349.069-1.349-.243a.355.355,0,0,1,.342-.365,4.487,4.487,0,0,0,1.167-.345c.652-.272.756-.389.494-.554a6.053,6.053,0,0,0-1.891-.216,6.5,6.5,0,0,1-2.094-.282,2.652,2.652,0,0,1-.847-.752c-.31-.471-.3-.474.678-.266a9.184,9.184,0,0,0,2.073.142l1.082-.069-1.619-.84c-.89-.462-2.17-1.046-2.843-1.3a3.463,3.463,0,0,1-1.454-.888c-.128-.24-.14-.43-.026-.43a4.632,4.632,0,0,1,.955.3,9.4,9.4,0,0,0,1.476.44c.4.075.725.06.725-.034a4.764,4.764,0,0,0-1.115-1c-.851-.635-1.115-.973-1.115-1.427,0-.595,0-.595.613-.027a20.238,20.238,0,0,0,1.951,1.459c.736.49,1.9,1.206,2.58,1.591a7.974,7.974,0,0,0,2.3.844A1.916,1.916,0,0,1,29.816,35.1a13.377,13.377,0,0,0,1.215,1.519,1.876,1.876,0,0,1,.548.834,6.627,6.627,0,0,0,1,1.612c.546.728,2.011,2.412,3.254,3.743l2.261,2.42.529,5.287c.291,2.908.786,7.092,1.1,9.3s.859,5.317,1.212,6.911.759,3.885.9,5.091a21.736,21.736,0,0,1,.1,3.851c-.147,1.573-.123,1.7.462,2.55a19.42,19.42,0,0,0,2.091,2.28,25.821,25.821,0,0,0,2.789,2.261c.724.48,2.228,1.35,3.342,1.934s3.531,1.68,5.37,2.436,3.923,1.681,4.63,2.057a9,9,0,0,1,2.056,1.535,12.123,12.123,0,0,1,1.452,2.2,9.446,9.446,0,0,0,1.121,1.79,1.546,1.546,0,0,0,.908.439,2.462,2.462,0,0,0,1.209-.74,3.359,3.359,0,0,0,.895-1.562,4.121,4.121,0,0,0-.225-1.991,7.761,7.761,0,0,0-.928-1.894,4.317,4.317,0,0,0-1.178-1.05,9.343,9.343,0,0,0-2.162-.557c-.843-.127-1.863-.287-2.267-.355a1.735,1.735,0,0,1-1.2-2.223,3.422,3.422,0,0,0,.261-1.188,1.445,1.445,0,0,0-.244-.857c-.176-.176-.176-.37,0-.7a1.054,1.054,0,0,0-.032-1.065c-.224-.492-.222-.627.014-.705a3.941,3.941,0,0,0,.878-.6c.587-.5.587-.5.152-1.122-.239-.34-.535-.755-.658-.923-.155-.212-.118-.492.12-.916a.851.851,0,0,1,1.037-.541,5.448,5.448,0,0,0,1.6-.175,4.6,4.6,0,0,0,1.519-.769c.547-.47.624-.721.759-2.456a5.5,5.5,0,0,1,.979-3.274,7.4,7.4,0,0,0,.942-2.187,6.242,6.242,0,0,0-.246-2.081,9.308,9.308,0,0,1-.357-2.094,5.936,5.936,0,0,1,.536-2,9.9,9.9,0,0,1,1.347-2.047,11.123,11.123,0,0,1,1.867-1.576,16.736,16.736,0,0,1,2.582-1.251,28.618,28.618,0,0,1,3.115-.934,24.084,24.084,0,0,1,4.819-.365,18.539,18.539,0,0,1,5.143.466A34.345,34.345,0,0,1,90.1,56.579c.967.384,3.719,1.636,6.116,2.782s4.759,2.192,5.249,2.324a7.287,7.287,0,0,0,1.494.241,2.256,2.256,0,0,0,2.209-1.415,4.194,4.194,0,0,0,.53-2.41c0-1.377-.091-1.666-1.279-3.946-1-1.911-1.282-2.681-1.282-3.445a2.462,2.462,0,0,1,.468-1.579,5.306,5.306,0,0,1,1.5-1.113,10.33,10.33,0,0,1,1.706-.679c.634-.152.62-.125-.271.521a5,5,0,0,0-1.282,1.344,3.747,3.747,0,0,0-.342,1.448,8.2,8.2,0,0,0,.527,2.185c.29.769.984,2.309,1.543,3.421a25.214,25.214,0,0,1,1.394,3.321,6.537,6.537,0,0,1,.265,2.294,2.623,2.623,0,0,1-.591,1.472c-.427.425-.663.466-2.2.376-.946-.055-2.522-.106-3.5-.111a12.944,12.944,0,0,0-2.4.161c-.388.109-.613.324-.613.587a2.539,2.539,0,0,0,.839,1.174,17.764,17.764,0,0,0,2.2,1.582,27.686,27.686,0,0,0,2.921,1.49,32.852,32.852,0,0,0,3.323,1.157,14,14,0,0,0,3.653.5,5.069,5.069,0,0,0,2.861-.5,3.041,3.041,0,0,0,1.551-1.776c.519-1.125.585-1.543.584-3.72a15.98,15.98,0,0,0-.387-3.9c-.212-.8-.945-3-1.629-4.9a29.7,29.7,0,0,1-1.359-4.7,3.948,3.948,0,0,1,.353-2.3,10.792,10.792,0,0,1,1.165-1.938,12.605,12.605,0,0,1,2.1-1.882,24.893,24.893,0,0,1,3.266-1.869,23.59,23.59,0,0,1,4.647-1.468c1.533-.331,3.539-.842,4.459-1.135a16.893,16.893,0,0,0,2.557-1.039,5.043,5.043,0,0,0,1.413-1.282,2.744,2.744,0,0,0,.431-2.226,9.157,9.157,0,0,0-.28-1.9c-.18-.438-.175-.438.292-.028a4.233,4.233,0,0,1,.846,1.388,4.921,4.921,0,0,1,.269,2.192,5,5,0,0,1-.761,2.291,5.41,5.41,0,0,1-1.839,1.776,7.761,7.761,0,0,1-2.779.963c-.88.141-2.113.4-2.742.573a9.05,9.05,0,0,0-2.21,1.044,8.2,8.2,0,0,0-1.644,1.5l-.576.774.78-.5c.429-.277,1.232-.737,1.784-1.022a19.853,19.853,0,0,1,2.229-.936,9.862,9.862,0,0,1,3.456-.4,31.61,31.61,0,0,1,4.793.505,29.4,29.4,0,0,0,4.242.493,9,9,0,0,0,2.34-.245,5.3,5.3,0,0,0,2.784-2.52l.663-1.156,0,.9a5.352,5.352,0,0,1-.574,2.061A5.241,5.241,0,0,1,144.138,45a5.829,5.829,0,0,1-1.486.7l-.83.237.78.214a9.573,9.573,0,0,0,2.429.092,7.366,7.366,0,0,0,3.01-.792,9.136,9.136,0,0,0,3.81-3.483,6.242,6.242,0,0,0,.648-2.685,22.223,22.223,0,0,1,.6-3.456,22.633,22.633,0,0,1,1.257-3.291,14.494,14.494,0,0,1,1.8-2.74,8.166,8.166,0,0,1,1.679-1.463,2.9,2.9,0,0,1,1.777-.221,6.371,6.371,0,0,1,2.067.7,5.52,5.52,0,0,1,1.087.759c.065.1-.307.038-.827-.149a3.4,3.4,0,0,0-1.8-.18A4.1,4.1,0,0,0,158.31,30.3a9.913,9.913,0,0,0-1.538,1.861,10.614,10.614,0,0,0-.9,2.232,30.756,30.756,0,0,0-.468,4.535,33.306,33.306,0,0,1-.462,4.6,17.118,17.118,0,0,1-.882,2.557,15.264,15.264,0,0,1-1.413,2.351,6.548,6.548,0,0,1-2.205,1.852,16.614,16.614,0,0,1-3.062,1.158,25.327,25.327,0,0,1-3.749.577,35.759,35.759,0,0,1-6.3-.349c-3.416-.391-4.512-.442-5.528-.254a10.09,10.09,0,0,0-1.991.578,9.55,9.55,0,0,0-1.584,1.052,10.769,10.769,0,0,0-1.722,2.043,13.493,13.493,0,0,0-1.3,2.767,11.735,11.735,0,0,0-.443,3.628,27.159,27.159,0,0,0,.444,4.491c.244,1.263.89,3.852,1.436,5.752s1.1,4.108,1.227,4.9a25.2,25.2,0,0,1,.229,3.344,33.154,33.154,0,0,1-.209,3.456c-.112.858-.274,2.012-.36,2.564-.152.97-.143.991.266.639a10.534,10.534,0,0,1,1.592-.95,14.784,14.784,0,0,1,2.675-.94,9.692,9.692,0,0,1,3.068-.228,14.237,14.237,0,0,1,2.88.581,13.229,13.229,0,0,1,2.354,1.118,9.989,9.989,0,0,1,1.579,1.252c.545.588.545.588-.847-.109a15.428,15.428,0,0,0-2.787-1.026,13.436,13.436,0,0,0-2.51-.33,10.587,10.587,0,0,0-2.263.305,13.72,13.72,0,0,0-2.341.931c-.826.433-2.391,1.831-5.094,4.548-2.146,2.157-4.537,4.448-5.313,5.091s-2.131,1.654-3.01,2.247a32.283,32.283,0,0,1-2.936,1.747,28.283,28.283,0,0,1-2.9,1.2,10.738,10.738,0,0,1-4.236.533,10.6,10.6,0,0,1-4.492-.624,20.122,20.122,0,0,1-3.2-1.463c-.763-.461-2.145-1.435-3.071-2.163A30.539,30.539,0,0,1,93.6,95.146c-.913-1.042-2.061-2.483-2.55-3.2a16.929,16.929,0,0,0-1.776-2.167,9.706,9.706,0,0,0-2.081-1.445,8.319,8.319,0,0,0-2.5-.7,7.063,7.063,0,0,0-2.632.259,9.09,9.09,0,0,0-2.172.959,5.927,5.927,0,0,0-1.449,1.6,4.192,4.192,0,0,0-.6,2.7,5.045,5.045,0,0,0,.567,2.787,4.948,4.948,0,0,0,1.784,1.936c.669.454,2.27,1.37,3.558,2.034s2.977,1.447,3.755,1.738a6.643,6.643,0,0,1,2.9,2.09,14,14,0,0,1,2.2,3.01,29.9,29.9,0,0,1,1.48,4.57,39.409,39.409,0,0,0,2.032,6.02,85.259,85.259,0,0,0,4.3,7.941l3.033,5.043,1.58.282a26.554,26.554,0,0,1,2.919.718,28.166,28.166,0,0,1,2.76,1.109c.782.371,3.123,1.82,5.2,3.221s4.6,2.961,5.6,3.466,2.621,1.241,3.6,1.634c1.784.715,1.784.715,3.01,3.036.674,1.277,1.572,2.87,2,3.541s1.474,2.224,2.336,3.45a48.334,48.334,0,0,0,4.024,4.76c1.352,1.392,3.433,3.387,4.625,4.434a10.07,10.07,0,0,1,2.049,2.1,1.151,1.151,0,0,1-.76.192,4.132,4.132,0,0,1-1.225-.222,17.061,17.061,0,0,1-2.634-2.064c-1.128-1.013-2.484-2.181-3.014-2.6l-.964-.754.151.867a29.97,29.97,0,0,0,1.365,3.766c.668,1.594,1.27,3.024,1.338,3.177.077.174-.052.279-.342.279a2.251,2.251,0,0,1-1.13-.613,11.476,11.476,0,0,1-1.8-3.4c-.623-1.531-1.383-3.211-1.69-3.734a3.463,3.463,0,0,0-.688-.951c-.072,0-.065.412.016.916a33.059,33.059,0,0,0,.92,3.31c.426,1.316.774,2.5.774,2.639,0,.177-.189.18-.676.01a1.972,1.972,0,0,1-.973-.824,6.507,6.507,0,0,1-.456-1.459,23.528,23.528,0,0,0-.831-2.731c-.516-1.425-.771-1.861-1.088-1.861-.292,0-.454.215-.548.725a14.394,14.394,0,0,0,.069,2.731,17.782,17.782,0,0,1,.144,2.079,1.9,1.9,0,0,1-.748-.284,5.4,5.4,0,0,1-.711-.407c-.012-.027-.092-1.141-.178-2.475-.14-2.164-.212-2.47-.672-2.843a1.865,1.865,0,0,0-.772-.417c-.141,0-.39.215-.554.477a6.4,6.4,0,0,0-.488,1.823,3.107,3.107,0,0,1-.733,1.888,2.563,2.563,0,0,1-1.572.659c-.678.076-1.03.031-1.03-.133a9.037,9.037,0,0,1,.756-1.673,9.515,9.515,0,0,0,.909-2.538,11.464,11.464,0,0,0-.221-3.205c-.206-1.15-.445-3.121-.533-4.379-.123-1.778-.26-2.424-.611-2.9a5.769,5.769,0,0,0-1.164-1.1,6.409,6.409,0,0,0-1.873-.734c-.638-.137-3.292-.347-5.9-.466s-5.482-.36-6.394-.534a21.587,21.587,0,0,1-3.18-.916,26.424,26.424,0,0,1-2.693-1.257,15.789,15.789,0,0,1-2.376-1.76,55.992,55.992,0,0,1-4.2-5.056c-1.646-2.174-3.494-4.706-4.107-5.626s-1.639-2.679-2.279-3.91a33.113,33.113,0,0,0-2.284-3.733,16.105,16.105,0,0,0-2.106-2.3c-.986-.808-.986-.808-1.711-.249-.4.308-2.33,1.933-4.292,3.612s-4,3.453-4.519,3.943a8.61,8.61,0,0,0-1.51,1.991,31.1,31.1,0,0,0-1.258,3.16,10.76,10.76,0,0,0-.713,4.4,12.414,12.414,0,0,0,.405,3.754,13.052,13.052,0,0,0,1.306,2.786,55.561,55.561,0,0,0,5.053,5.5,68.6,68.6,0,0,1,6,6.578,38.286,38.286,0,0,1,3.275,5.351,29.321,29.321,0,0,1,2.032,5.128,16.975,16.975,0,0,1,.6,5.351,17.48,17.48,0,0,1-.464,5.016,31.039,31.039,0,0,1-1.247,3.72,25.561,25.561,0,0,1-1.851,3.456,25.167,25.167,0,0,1-2.646,3.2,26.432,26.432,0,0,1-3.327,2.741,37.014,37.014,0,0,1-3.808,2.15c-1.126.537-3.895,1.638-6.153,2.448s-5.26,1.888-6.67,2.4-3.667,1.4-5.016,1.97-3.606,1.606-5.016,2.293-3.793,1.952-5.3,2.813-3.761,2.256-5.019,3.1-3.089,2.166-4.068,2.938-2.921,2.517-4.313,3.877-3.36,3.476-4.372,4.7-2.558,3.277-3.436,4.557a17.946,17.946,0,0,0-1.923,3.43,16.054,16.054,0,0,0-.462,2.466,10.135,10.135,0,0,0,.2,2.959,15.7,15.7,0,0,0,.937,2.861,13.256,13.256,0,0,0,1.94,2.7,9.4,9.4,0,0,0,3.152,2.316,10.855,10.855,0,0,0,3.414,1.091,14.03,14.03,0,0,0,3.344,0c.957-.118,2.744-.419,3.97-.67s3.7-.939,5.5-1.53a61.665,61.665,0,0,0,6.083-2.42,51.5,51.5,0,0,0,4.979-2.768c1.191-.782,2.919-2.031,3.838-2.775s2.631-2.19,3.8-3.215,2.3-2,2.508-2.169q.377-.306-.416,1.433a33.284,33.284,0,0,0-1.354,3.65,19.968,19.968,0,0,0-.689,4.087,9.882,9.882,0,0,0,.273,3.653,4.881,4.881,0,0,0,1.332,2.45c.932.973.932.973,2.617.973a12.934,12.934,0,0,0,3.661-.572c1.086-.315,2.628-.827,3.425-1.139s2.917-1.294,4.71-2.182,4.1-2.164,5.128-2.834a22.455,22.455,0,0,0,2.96-2.313,8.759,8.759,0,0,0,1.5-1.991,5.185,5.185,0,0,0,.407-1.788,5.462,5.462,0,0,0-.443-1.868,23.552,23.552,0,0,0-1.478-2.532,20.768,20.768,0,0,1-1.7-3.26,10.54,10.54,0,0,1-.775-3.718,10.914,10.914,0,0,1,.354-3.846,25.211,25.211,0,0,1,1.35-3.724,38.688,38.688,0,0,1,2.157-3.846c.7-1.074,1.905-2.769,2.682-3.765s2.431-2.853,3.676-4.124,1.894-1.877,1.442-1.346-1.4,1.852-2.115,2.934a27.276,27.276,0,0,0-1.987,3.636,30.131,30.131,0,0,0-1.05,2.974,19.928,19.928,0,0,0-.477,3.2,14.051,14.051,0,0,0,.133,3.121,13.1,13.1,0,0,0,.779,2.356,9.8,9.8,0,0,0,1.245,1.951,2.607,2.607,0,0,0,1.025.821c.167,0,.419-.215.56-.479a20.735,20.735,0,0,0,.447-3.846c.1-1.852.307-4.22.448-5.262a26.211,26.211,0,0,1,.7-3.344,19.055,19.055,0,0,1,1.143-2.781,13.557,13.557,0,0,1,1.929-2.585,10.052,10.052,0,0,1,2.9-2.054,42.949,42.949,0,0,1,5.239-1.8c1.962-.552,4.614-1.369,5.894-1.815s3.242-1.239,4.361-1.762a39.689,39.689,0,0,0,3.826-2.1,19.834,19.834,0,0,0,3.026-2.443,12.731,12.731,0,0,0,1.8-2.4,21.626,21.626,0,0,0,1.074-2.775,13,13,0,0,0,.523-4.453c.006-1.533-.058-3.389-.142-4.125l-.153-1.338,1.016,2.092c.559,1.15,1.444,3.307,1.968,4.793s1.223,3.906,1.554,5.377.74,3.829.908,5.239.31,3.582.314,4.825-.1,3.3-.227,4.57-.44,3.312-.691,4.538-.8,3.283-1.225,4.57a50.729,50.729,0,0,1-2.185,5.239c-.779,1.594-1.926,3.676-2.549,4.626-.883,1.348-1.047,1.727-.746,1.726a18.235,18.235,0,0,0,2.545-.746,23.918,23.918,0,0,0,3.679-1.653,28.737,28.737,0,0,0,2.97-2.112,21.237,21.237,0,0,0,2.717-2.86,25.921,25.921,0,0,0,2.158-3.44,23.009,23.009,0,0,0,1.349-3.456,26.927,26.927,0,0,0,.657-3.633,11.923,11.923,0,0,1,.315-2.078,6.338,6.338,0,0,1,.305,1.85c.1,1.082.184,4.475.179,7.54a54.6,54.6,0,0,1-.4,8.137c-.214,1.41-.679,3.768-1.033,5.239s-.961,3.617-1.347,4.769-1.087,2.966-1.556,4.032a33.842,33.842,0,0,1-1.585,3.146c-.4.664-1.186,1.809-1.74,2.545a36.616,36.616,0,0,1-2.806,3.121,31.4,31.4,0,0,1-3.518,2.966,34.58,34.58,0,0,1-3.449,2.043,27.854,27.854,0,0,1-3.4,1.382,11.3,11.3,0,0,1-3.79.521,6.079,6.079,0,0,1-3.009-.446,9.594,9.594,0,0,1-2.452-2.4,21.774,21.774,0,0,0-2.54-2.731c-.538-.425-1-.773-1.021-.773a14.294,14.294,0,0,0,.623,1.343,7.8,7.8,0,0,1,.812,3.734,5.368,5.368,0,0,0,1.934,4.864,11.483,11.483,0,0,0,2.447,1.682,7.484,7.484,0,0,0,3.5.847l2.048.132-1.68.826a14.04,14.04,0,0,1-3.252,1.1,8.12,8.12,0,0,1-3.06.023,12.937,12.937,0,0,1-2.713-.807,10.963,10.963,0,0,1-2.423-1.694,11.525,11.525,0,0,1-1.891-2.433c-.381-.715-1.144-2.466-1.694-3.89s-1.3-3.173-1.655-3.886a13.627,13.627,0,0,0-1.695-2.454,4.122,4.122,0,0,0-1.936-1.4,3.964,3.964,0,0,0-1.987-.007,18.484,18.484,0,0,0-2.488.8,33.177,33.177,0,0,0-3.514,1.83c-1.165.695-5.73,3.682-10.144,6.639s-9.481,6.217-11.259,7.245-4.738,2.591-6.577,3.474-4.33,1.972-5.535,2.42-3.362,1.151-4.793,1.561-3.556.921-4.72,1.134a43.968,43.968,0,0,1-6.8.452Zm101.463-65.283c-.074.074-.127-.058-.117-.293.011-.26.064-.313.135-.135A.448.448,0,0,1,142.961,196.526Z" transform="translate(-1.706 -28.077)" fill="#e9f1f2"/>
</svg>
