<svg xmlns="http://www.w3.org/2000/svg" xmlns:xlink="http://www.w3.org/1999/xlink" width="672.861" height="746.192" viewBox="0 0 672.861 746.192">
  <defs>
    <radialGradient id="radial-gradient" cx="0.5" cy="0.5" r="0.468" gradientTransform="matrix(-0.001, 1, -0.787, -0.001, 0.894, 0)" gradientUnits="objectBoundingBox">
      <stop offset="0" stop-color="#f6ee03"/>
      <stop offset="0.533" stop-color="#26fd57"/>
      <stop offset="1" stop-color="#017880"/>
    </radialGradient>
  </defs>
  <g id="turtle" transform="translate(-1111.945 -2405.634)">
    <path id="Subtraction_32" data-name="Subtraction 32" d="M-11805.982,240.816a2.771,2.771,0,0,1-.84-.162c-2.945-.99-7.185-4.761-12.6-11.208-4.794-5.711-9.652-12.5-12.89-17.1a21.124,21.124,0,0,1-3.169-6.186,8.037,8.037,0,0,1-.208-4.025,4.7,4.7,0,0,1,2.032-2.952,32.528,32.528,0,0,0,.944,5.068,30.362,30.362,0,0,0,4.369,9.731,70.763,70.763,0,0,0,7.8,9.242c3.022,2.977,5.423,4.616,6.76,4.616a1.136,1.136,0,0,0,.75-.246c1.006-.838-.447-4.552-2.131-8.852l0-.012,0-.012c-1.964-5.024-4.406-11.272-3.8-15.152a8.8,8.8,0,0,1,2.807-4.83,23.393,23.393,0,0,1,5.078-3.6,42.688,42.688,0,0,1,7.033-3.026c-.015.018-2.268,2.691-4.6,6.153-2.142,3.181-4.775,7.676-5.16,11.031-.721,6.305,3.015,15.209,5.742,21.711l.013.03,0,.008c2.038,4.862,3.647,8.7,2.668,9.585A.854.854,0,0,1-11805.982,240.816Zm-145.481-48.455a.1.1,0,0,1-.084-.051c-.981-1.276-2.317-6.1-3.665-13.243-1.407-7.449-2.656-16.448-3.518-25.34a234.515,234.515,0,0,1-1.222-27.657c.234-9.32,1.319-16.112,3.224-20.189,1.171-2.507,9.781-4.533,14.81-5.517a121.793,121.793,0,0,1,19.522-2.329c1.556,0,2.5.13,2.717.375a.168.168,0,0,1,.048.171c-.153.477-2.575,1.019-5.926,1.77l-.018,0-.072.016c-2.478.554-5.561,1.243-8.647,2.115-9.736,2.746-15.115,6.031-16.445,10.043-1.585,4.779-2.888,13.283-3.575,23.331a190.055,190.055,0,0,0-.372,20.117c.268,6.121.963,10.078,1.957,11.142a.831.831,0,0,0,.6.3.739.739,0,0,0,.2-.027c2.071-.592,4.476-9.879,7.26-20.633l0-.015,0-.006.006-.021c3.18-12.273,6.781-26.179,10.791-30.481a10.969,10.969,0,0,1,8.309-3.635,14.148,14.148,0,0,1,4.679.819c-.193.93-.37,1.889-.526,2.851-.174-.008-.353-.012-.533-.012-5.477,0-10.222,3.97-14.507,12.135-4.015,7.648-8.133,30.008-11.141,46.334l-.013.068c-1.743,9.459-3.12,16.93-3.779,17.52A.129.129,0,0,1-11951.464,192.361Zm108.41-5.155h0c-.73-.112-1.465-.232-2.184-.356a110.861,110.861,0,0,1-18.874-4.983c-2.059-.747-4.1-1.563-6.063-2.426a39.478,39.478,0,0,0,5.331.445h.266c14.339,0,25.426-10.175,30.759-16.24a34.3,34.3,0,0,0,2.538-2.952c1.678-2.108,3.413-4.287,5.941-5.351.3-.027.6-.04.906-.04,4.734,0,8.917,3.283,12.031,6.143a13.522,13.522,0,0,1,3.363,4.652,5.476,5.476,0,0,1-.482,5.442,22.84,22.84,0,0,1-7.812,6.878,64.966,64.966,0,0,1-9.634,4.258,57.77,57.77,0,0,1-7.988,2.241,56.41,56.41,0,0,0-8.1,2.287Zm17.685-23.355h0a114.96,114.96,0,0,0-8.767,7.612,11.737,11.737,0,0,1-2.137,2.149c-1.457,1.27-3.106,2.707-2.961,3.76a1.3,1.3,0,0,0,.85.935,22.673,22.673,0,0,0,3.368.243c.307,0,.564,0,.811-.012,7.287-.5,12.065-2.528,14.608-6.2a5,5,0,0,0-.426-4.6,7.747,7.747,0,0,0-5.346-3.884Zm44.365,4.59v0a5.257,5.257,0,0,0-1.1-2.345c-5.306-7.929-14.1-14.441-26.146-19.357-7.311-3.124-15.326-3.72-23.078-4.3l-.037,0c-.8-.059-1.619-.12-2.426-.183a18.1,18.1,0,0,0-2.687-.325c-2.264-.172-4.829-.367-5.9-1.744a2.794,2.794,0,0,1-.437-2.31c.7-2.319,2.523-4.024,4.284-5.673a23.036,23.036,0,0,0,2.412-2.485,31.869,31.869,0,0,0-4.031-.251,48.475,48.475,0,0,0-15.983,3.072,15.481,15.481,0,0,1-3.227,1.29c-2.351.759-4.782,1.543-5.055,3.408a29.5,29.5,0,0,1,5.853,7.644,18.186,18.186,0,0,1,2.183,9.276,13.79,13.79,0,0,1-4.9,10.1,16.185,16.185,0,0,1-10.554,4.134,13.142,13.142,0,0,1-4.473-.768,9.694,9.694,0,0,1-3.543-2.038,8.277,8.277,0,0,1-2.356-3.358,4.936,4.936,0,0,1,.59-4.6c3.354-3.8,8.486-4.362,11.247-4.362a21.552,21.552,0,0,1,2.891.2,4.069,4.069,0,0,0,1.256.281c.31,0,.492-.1.529-.283.09-.441-.684-1.347-1.779-1.81a23.1,23.1,0,0,1-3.122-2.169l0,0h0c-2.027-1.573-4.124-3.2-6.546-3.2a5.645,5.645,0,0,0-1.794.3,27.548,27.548,0,0,0-10.388,9.38,13.253,13.253,0,0,0-1.534,10.516,60.589,60.589,0,0,1-4.7-4.663,77.07,77.07,0,0,1-12.59-19.057,60.721,60.721,0,0,0,25-12.664c6.191-5.007,10.742-11.662,15.143-18.1l.007-.01c.645-.943,1.226-1.793,1.813-2.642.477-.821,2.981-4.918,5.5-4.918,1.018,0,1.9.689,2.608,2.049a12.15,12.15,0,0,1,2.015,5.027,19.93,19.93,0,0,0,.786,2.817c3.947-5.1,6.324-11.008,7.705-19.162a16.317,16.317,0,0,1,.393-2.944l0-.011c.391-2.032.794-4.134-.241-5.359a39.569,39.569,0,0,1-9.3,1.37,17.271,17.271,0,0,1-7.095-1.382c-4.43-1.766-7.659-5.969-8.639-11.242a17.056,17.056,0,0,1,.3-7.66,13.945,13.945,0,0,1,3.9-6.524,8.433,8.433,0,0,1,6.065-2.612A5.861,5.861,0,0,1-11857,61.47a10.1,10.1,0,0,1,.46,7.739,21.2,21.2,0,0,1-3.849,7c-.842.789-.936,1.163-.866,1.338.051.129.208.2.456.2a4.029,4.029,0,0,0,1.959-.716,27.66,27.66,0,0,1,3.629-1.67c2.344-.946,4.768-1.924,6.288-3.922.62-7.186-.546-13.046-3.467-17.418a11.389,11.389,0,0,0-9.778-5.019,13.071,13.071,0,0,0-4.7.873,36.121,36.121,0,0,0-18.583,16.9c-4.562,9.055-4.486,20.126.236,34.84a22.535,22.535,0,0,0,1.138,3.339c.907,2.273,1.846,4.621,1.081,7.04-2.324,3.933-6.877,6.693-13.531,8.2a7.723,7.723,0,0,1-2.314.354,7.341,7.341,0,0,1-4.254-1.328,6.244,6.244,0,0,1-2.487-3.772,32.852,32.852,0,0,1-1.136-12.808,65.477,65.477,0,0,1,2.591-12.691,31.3,31.3,0,0,1,1.022-3.446l0-.012c.719-2.123,1.461-4.318,1.249-6.349a52.707,52.707,0,0,0-12.211,14.765,68.837,68.837,0,0,1,3.891-12.727,62.683,62.683,0,0,1,15.975-22.665,62.455,62.455,0,0,1,20.714-12.367,69.057,69.057,0,0,1,23.515-4.025,76.174,76.174,0,0,1,15.771,1.669c1.23.261,2.476.557,3.7.88a61.178,61.178,0,0,0-2.571,16.2c-.459,13.484,5.028,26.347,9.86,36.046.2.534.52,1.2.827,1.843,1.028,2.155,2.307,4.834,1.456,6.487a3.012,3.012,0,0,1-2.332,1.417,5.053,5.053,0,0,1-1.405.19,12.927,12.927,0,0,1-4.139-.943l-.251-.088a11.446,11.446,0,0,0-3.446-.851,3.068,3.068,0,0,0-.618.059c2.5,5.827,7.046,10.581,10.73,14.071a24.651,24.651,0,0,1,3.01,2.535l0,.005h0c2.072,1.926,4.216,3.917,6.374,3.917a3.35,3.35,0,0,0,.648-.063,31.234,31.234,0,0,1,3.485-8.594,18.1,18.1,0,0,1,6.5-6.489,13.146,13.146,0,0,1,6.829-1.859,16.6,16.6,0,0,1,10.576,3.992,13.683,13.683,0,0,1,5.056,9.958,7.616,7.616,0,0,1-1.848,5.823,5.368,5.368,0,0,1-4.014,1.973,5.051,5.051,0,0,1-1.466-.223,20.525,20.525,0,0,1-9.713-9.863c-.088-1.5-.362-1.728-.519-1.728a.288.288,0,0,0-.2.11,4.275,4.275,0,0,0-.586,2.618,28.261,28.261,0,0,1-.372,3.812c-.339,2.373-.689,4.826.12,7.027,3.353,2.993,7.834,4.416,11.363,5.322a17.731,17.731,0,0,0,2.57.381,11.777,11.777,0,0,0,1.449.087,13.041,13.041,0,0,0,10.628-5.619,95.16,95.16,0,0,1-3.7,23.59,59.032,59.032,0,0,1-4.806,11.63Zm-114.633-80.21h0c-2.561,2.547-4.373,6.176-5.387,10.785-.472,3.148-1.185,7.906,1.95,10.386a8.441,8.441,0,0,0,2.705.42,9.846,9.846,0,0,0,6.171-2.1,99.848,99.848,0,0,0-1.9-10.172,15.611,15.611,0,0,1-.9-3.7l0-.011c-.411-2.482-.836-5.048-2.639-5.608Zm172.363,78.042c-1.511,0-4.635-1.714-8.59-3.885-1.03-.567-2.387-1.31-3.779-2.052-5.213-2.763-11.867-5.934-17.1-5.934h-.059l-.062,0c-3.388.033-8.13,2.183-11.512,3.98-3.666,1.949-6.566,3.91-6.595,3.929l0-.018a43.048,43.048,0,0,1,3.737-6.661,23.4,23.4,0,0,1,4.112-4.67,8.778,8.778,0,0,1,5.1-2.287c.122-.006.249-.009.378-.009,3.317,0,7.861,2.082,12.277,4.331.562.287,1.193.613,1.989,1.027l.007,0c3.429,1.776,6.387,3.308,7.863,3.308a1.038,1.038,0,0,0,.76-.243,1.246,1.246,0,0,0,.333-.979c-.039-1.423-1.494-3.98-4.1-7.2a72.209,72.209,0,0,0-8.174-8.471,33.167,33.167,0,0,0-14.15-6.828,4.777,4.777,0,0,1,3.93-1.766c2.569,0,5.6,1.506,9.008,4.475,4.237,3.695,10.472,9.229,15.663,14.609,5.847,6.058,9.154,10.668,9.83,13.7.153.711.095,1.175-.181,1.42A.99.99,0,0,1-11723.273,166.274Zm-51.546-60.359c-6.779-11.969-20.258-17-30.37-19.105a29.58,29.58,0,0,0-3.706-.72c-2.822-.426-5.74-.866-7.764-3a14.736,14.736,0,0,1-1.691-7.729,27.519,27.519,0,0,1,1.557-7.871,7.375,7.375,0,0,1,7.036-5.831,6.868,6.868,0,0,1,2.317.407,34.238,34.238,0,0,1,11.35,5.824,91.3,91.3,0,0,1,9.588,8.569c.986,1.513,1.941,3.115,2.838,4.76a84.493,84.493,0,0,1,6.132,14.429,101.051,101.051,0,0,1,2.716,10.265Zm-29.373-35.675a3.991,3.991,0,0,0-3.146,1.537,10.137,10.137,0,0,0-1.768,7.475,148.844,148.844,0,0,0,16.833,5.49,4.88,4.88,0,0,0,1.729.45.852.852,0,0,0,.8-.365c.417-.706-.306-2.235-.773-3.083-3.28-6.423-8.111-10.609-13.256-11.484C-11803.916,70.246-11804.056,70.239-11804.192,70.239Zm-110.673,3.462a3.719,3.719,0,0,1-.609-.051,5.059,5.059,0,0,1-.789-.2c2.169-2.724,9.337-11.976,10.451-16.71.276-1.142.2-1.887-.228-2.278a1.525,1.525,0,0,0-1.057-.315,15,15,0,0,0-4.012,1.01h-.011a18.335,18.335,0,0,1-5.259,1.261,2.867,2.867,0,0,1-2.27-.846,5.342,5.342,0,0,1-1-3.845,21.351,21.351,0,0,1,.906-4.992,45.867,45.867,0,0,1,2.3-6.165c-.024-.055-2.468-5.561-3.932-5.877a.628.628,0,0,0-.126-.012.528.528,0,0,0-.36.141,1.223,1.223,0,0,0-.307.5c-1.026,2.743-2.9,12.521-1.87,19.018.483,3.023,2.12,3.188,3.7,3.346l.056.006a3.538,3.538,0,0,1,2.148.681c.627.59.861,1.653.738,3.347-.152,2.088-1.2,5.1-3.2,9.212-3.34-4.042-5.8-12.293-6.273-21.02a43.783,43.783,0,0,1,.831-11.784c.855-3.763,2.254-6.54,4.157-8.254,1.879-1.691,4.742-2.785,8.51-3.254a34.558,34.558,0,0,1,4.257-.249,48.841,48.841,0,0,1,7.378.594,54.389,54.389,0,0,1,11.661,3.119,27.049,27.049,0,0,1,8.6,5.07,26.98,26.98,0,0,1-8.186,1.864c-.1,0-.2,0-.288-.006-1.7-.051-2.729-.4-3.251-1.084a3.594,3.594,0,0,1-.459-2.239v-.015c.012-1.6.023-3.248-2.938-4.043a38.585,38.585,0,0,0-9.354-.994,47.3,47.3,0,0,0-9.755.867,1.256,1.256,0,0,0-.528.252.541.541,0,0,0-.181.468c.158,1.452,4.892,4.213,5.432,4.524l0,0a48.06,48.06,0,0,1,6.369-1.645,24.468,24.468,0,0,1,4.124-.408c.3,0,.6.01.937.03a5.364,5.364,0,0,1,3.716,1.4c1.482,1.64.06,4.722-1.2,7.44l0,.007c-.965,2.1-1.876,4.077-1.219,4.971a1.7,1.7,0,0,0,1.456.522,5.835,5.835,0,0,0,.786-.057c3.12-.4,9.454-3.445,16.941-8.155a4.964,4.964,0,0,1,.162.97c.093,1.529-.826,3.107-2.891,4.965a66.527,66.527,0,0,1-6.423,4.781l-.012.009-.02.013-.009,0-.015.012-.009.006-.1.072-.3.208-.1.069c-.064.047-.131.092-.188.132l-.075.052a83.17,83.17,0,0,0-8.534,6.5l-.1.087a90.923,90.923,0,0,0-7.887,8.462l-.01.012-.022.027-.012.015-.057.063a67.164,67.164,0,0,1-5.476,5.97C-11911.988,72.934-11913.483,73.7-11914.865,73.7Zm80.281-32.336a2.645,2.645,0,0,1-1.06-.363c-.4-.2-1.453-2.387-1.705-5.232a12.456,12.456,0,0,1,.633-5.34,11.071,11.071,0,0,1,3.866-5.151c4.7-3.541,18.917-5.67,31.46-7.549,11-1.648,20.5-3.071,21.3-5.067a.7.7,0,0,0-.084-.681c-.73-1.126-4.511-2.263-10.645-3.2A189.011,189.011,0,0,0-11811.2,7c-2.437-.086-4.789-.129-6.99-.129a84.9,84.9,0,0,0-16.59,1.246c-4.129.9-7.958,5.912-11.706,15.311-1.172,2.928-2.166,5.878-2.965,8.249l-.007.02-.061.181-.008.024c-1.114,3.309-1.92,5.7-2.408,5.7a.187.187,0,0,1-.135-.069c-.667-.738.44-7.634,2.521-15.7,2.375-9.2,5.93-19.38,8.782-20.363,2.825-.974,6.842-1.468,11.938-1.468,10.946,0,27.216,2.33,44.637,6.393,14.671,3.423,26.8,7.317,28.843,9.26a.1.1,0,0,1,.039.081.115.115,0,0,1-.049.087c-.655.592-8.2,1.179-17.759,1.922l-.106.008h-.019c-16.556,1.284-39.229,3.043-47.248,6.236-8.57,3.41-13.015,7.714-13.588,13.159a16.585,16.585,0,0,0-.036,2.523v.011c.033.777.058,1.338-.159,1.566A.408.408,0,0,1-11834.584,41.365Z" transform="translate(13475.523 2405.634)" fill="url(#radial-gradient)"/>
    <path id="Subtraction_33" data-name="Subtraction 33" d="M-11852.465,144.931a2.222,2.222,0,0,1-.291-.021c-1.9-.253-4.92-2.041-8.965-5.314-3.593-2.906-7.335-6.445-9.838-8.853-2.231-2.15-3.325-4.1-3.25-5.8a2.885,2.885,0,0,1,.887-2.032,20.455,20.455,0,0,0,4.963,8.352,44.561,44.561,0,0,0,5.569,4.515c2.089,1.416,3.741,2.2,4.652,2.2a.823.823,0,0,0,.673-.259c.511-.627-.81-2.711-2.339-5.124l0-.007c-1.785-2.816-4-6.32-4.094-8.746a4.859,4.859,0,0,1,.629-2.437,9.577,9.577,0,0,1,3.325,3.2,8.347,8.347,0,0,0-.15,2.1c.3,3.9,3.618,8.865,6.039,12.487l0,.007c1.818,2.719,3.255,4.867,2.762,5.519A.671.671,0,0,1-11852.465,144.931Zm-93.736-12.258a.065.065,0,0,1-.046-.024c-.746-.659-2.126-3.43-3.785-7.6-1.735-4.362-3.555-9.674-5.123-14.958a145.1,145.1,0,0,1-4-16.633c-.957-5.68-1.1-9.928-.425-12.627.477-1.9,6.989-4.591,9.768-5.658,4.764-1.829,9.893-3.317,11.434-3.317a.711.711,0,0,1,.391.074.1.1,0,0,1,.05.1c-.036.308-1.446.925-3.4,1.778-1.45.634-3.253,1.423-5.035,2.322-5.583,2.813-8.459,5.439-8.793,8.028-.4,3.1-.186,8.41.582,14.576,1.13,9.089,3.352,18.9,4.971,18.9a.418.418,0,0,0,.19-.047c1.187-.605,1.551-6.524,1.974-13.378v-.017c.481-7.821,1.027-16.685,2.952-19.768a6.994,6.994,0,0,1,6.209-3.336,5.894,5.894,0,0,1,3.319.77c.25.4.328.646.254.788-.1.186-.453.2-.989.227a10.255,10.255,0,0,0-1.555.159c-3.32.647-5.73,3.614-7.367,9.073-1.534,5.111-1.4,19.164-1.3,29.425.059,5.964.1,10.674-.227,11.111A.068.068,0,0,1-11946.2,132.672Zm85.948-9.359v0a17.368,17.368,0,0,0-2.671-3.317,23.377,23.377,0,0,1,6.123-4.859,43.1,43.1,0,0,0-3.45,8.176Zm-9.091-8.022v0c-7.126-3.757-15.513-4.239-22.023-4.239-.3,0-.612,0-.925,0a57.544,57.544,0,0,1-10.888-.923,21.181,21.181,0,0,1-9.792-4.508,5.821,5.821,0,0,1-2.422-3.736,5.417,5.417,0,0,1,.813-4.117,7.817,7.817,0,0,1,1.938-1.954,4.776,4.776,0,0,1,2.575-.98,2.221,2.221,0,0,1,1.745.808c3.9,5.807,11.059,9.8,20.163,11.243,7.541.82,16.238,2.012,24.018,5.791a7.348,7.348,0,0,1,1.508.719,55.879,55.879,0,0,1-6.711,1.892Zm8.33-2.5h0a38.758,38.758,0,0,0-6.613-4.229c-.394-.215-.81-.443-1.218-.67-.757-.376-1.561-.77-2.205-1.086-6.242-3.061-12.7-6.227-17.753-11.208a21.476,21.476,0,0,1-3.354-4.175,6.885,6.885,0,0,1-.945-5.093,2.347,2.347,0,0,1,2.2-1.262,10.237,10.237,0,0,1,3.7,1.08l.02.008c.384.165.747.32,1.073.441a2.272,2.272,0,0,0,.987.393.232.232,0,0,0,.248-.144c.114-.32-.346-1.075-.966-1.582-2.859-3.309-5.518-4.917-8.127-4.917a6.261,6.261,0,0,0-1.471.177c-7.051,2.6-12.807,4.988-18.112,7.515-.306.164-.621.331-.929.494l-.14.074c-3.688,1.951-7.5,3.969-9.412,7.721a4.519,4.519,0,0,0-.309,3.011,48.763,48.763,0,0,1-6.7-11.1A47.851,47.851,0,0,1-11934.53,76c2.333-1.272,4.587-2.8,6.766-4.268l.022-.015c1.357-.917,2.762-1.865,4.164-2.738,5.933-3.6,11.8-6.859,18.395-7.292.16-.014.33-.021.5-.021,1.585,0,3.709.561,4.627,1.794a2.269,2.269,0,0,1,.332,2.106,7.772,7.772,0,0,1-2.909,2.925,7.624,7.624,0,0,0-2.294,2.095c3.847-.392,6.648-1.291,8.814-2.831,2.18-1.422,2.511-3.918,2.831-6.331.073-.552.142-1.074.234-1.592.2-1.595.436-3.22.662-4.791l0-.015c.845-5.856,1.718-11.911,1.077-17.906-.342-3.423-2-7.181-5.635-7.466q-.212,0-.425,0c-.725,0-1.464.027-2.2.081a47.433,47.433,0,0,1,6.281-.417,48.69,48.69,0,0,1,9.475.936,48.794,48.794,0,0,1,9.235,2.809c-3.288,8.192-4.529,15.97-3.687,23.119q.072.432.143.871v.006a20.247,20.247,0,0,0,1.622,6.045l.348.2.346.093c2.458-.588,2.77-3.689,3-5.953q.019-.191.038-.372c-.052-2.648-.37-5.329-.679-7.922v-.019a54.062,54.062,0,0,1-.529-11.867,9.767,9.767,0,0,1,.186-2.064l0-.027c.08-.54.171-1.152.215-1.681,1.119.5,2.225,1.038,3.285,1.609.039,2.164.206,4.374.367,6.511l0,.065,0,.041c.194,2.568.4,5.224.376,7.813a55.654,55.654,0,0,1-.781,9.148,18.944,18.944,0,0,1-3.575,8.333,3.441,3.441,0,0,1-2.974,1.8,2.558,2.558,0,0,1-1.722-.622,2.736,2.736,0,0,1-.838-1.926,7.187,7.187,0,0,1-.424-2.548v-.008c-.08-1.141-.155-2.218-.475-2.218-.161,0-.371.271-.644.829-.039.133-.079.266-.119.4l-.053.178c-.891,2.977-1.811,6.055-.828,9.032a15.171,15.171,0,0,0,4.651,4.672c.674.505,1.372,1.027,2.017,1.579,1.354.987,2.7,2.029,3.994,3.037,4.4,3.415,8.945,6.946,14.347,8.737a12.682,12.682,0,0,0,4.067.892,5.844,5.844,0,0,0,.967-.078c2.595-.583,3.616-3.134,4.519-5.385.176-.442.357-.9.55-1.328a27.65,27.65,0,0,0,1.98-9.951,58.789,58.789,0,0,1,.706,17.226c-.655,5.4-2.248,9.912-4.605,13.041-2.514,3.337-6.747,6.249-12.244,8.42ZM-11887.5,89.5a1.391,1.391,0,0,0-1.042.36,1.807,1.807,0,0,0-.4,1.329c.861,2.889,3.733,4.338,6.267,5.617q.362.182.71.36,1.146.5,2.351,1.02c5.415,2.337,11.014,4.752,15.633,8.62a3.307,3.307,0,0,0,1.5.889.163.163,0,0,0,.16-.08c.065-.131,0-.478-.677-1.394-6-7.672-13.1-13.091-20.538-15.671a11.569,11.569,0,0,1-1.346-.413A8.962,8.962,0,0,0-11887.5,89.5Zm-19.972-25.176a3,3,0,0,0-1.112.226c-3.828,1.053-6.994,3.5-10.055,5.871l-.007.005c-1.471,1.138-2.991,2.314-4.562,3.317a38.689,38.689,0,0,1-6.283,3.449c-1.411.664-2.867,1.349-4.233,2.135a1.253,1.253,0,0,0,1,.357,7.168,7.168,0,0,0,1.318-.178h.007a6.342,6.342,0,0,1,1.07-.153c6.909-1.411,16.861-4.108,23.483-11.219a2.033,2.033,0,0,0,1.481-2.234A2.089,2.089,0,0,0-11907.467,64.321Zm67.221,28.843v0a26.686,26.686,0,0,1,1.483-4.491c.927-2.112,2.506-4.748,4.766-5.307a6.208,6.208,0,0,1,1.483-.159,28.267,28.267,0,0,1,7.064,1.393l.983.288a22.326,22.326,0,0,0,4.775,1.108c.415,0,.678-.087.8-.267a.777.777,0,0,0,.086-.634c-.405-1.815-5.221-5.7-9.29-8.058a20.324,20.324,0,0,0-9.325-2.474h-.066a3.176,3.176,0,0,1,3.041-1.614,10.771,10.771,0,0,1,5.131,1.731c7.254,4.207,17.095,10.252,18.8,14.167.177.411.2.7.058.886a.874.874,0,0,1-.732.239,24.369,24.369,0,0,1-5.317-1.369l-.1-.033c-.573-.183-1.166-.373-1.777-.563a35.414,35.414,0,0,0-9.726-1.967,10.48,10.48,0,0,0-2.086.192c-3.876.793-9.8,6.682-10.048,6.933Zm-15.361-11.364a5.2,5.2,0,0,1-.89-.077c-1.619-.105-3.825-1.143-4.528-2.521a2.157,2.157,0,0,1,.16-2.252c2.82-6.762,2.655-14.96-.453-22.492-2.461-5.59-4.973-11.568-6.271-17.791,1.165.729,2.3,1.509,3.371,2.318.527.4,1.055.818,1.567,1.252.147.647.312,1.283.486,1.892,1.254,4.71,3.673,8.993,6.013,13.135l0,.007c.886,1.568,1.8,3.189,2.639,4.809,2.4,5.13,4.687,11.174,3.407,17.1A5.7,5.7,0,0,1-11855.607,81.8Zm-79.2-8.171v0a44.441,44.441,0,0,1-.17-5.372c6.074-4.436,10.208-11.079,12.789-15.689,3.651-6.325,8.167-13.3,15.569-15.987a5.148,5.148,0,0,1,2.468-.627,5.336,5.336,0,0,1,4.852,3.17,6.23,6.23,0,0,1,.7,4.962,2.389,2.389,0,0,1-1.651,1.54c-6.778.5-13.576,4.311-19.142,10.733-.514.666-1.035,1.348-1.54,2.008l-.207.271c-3.846,5.037-7.821,10.246-12.85,14.307-.259.226-.534.456-.819.683Zm-3.633-17.213a2.978,2.978,0,0,1-.416-.032c.994-1.909,4.249-8.367,4.368-11.366.03-.725-.1-1.169-.405-1.357a.764.764,0,0,0-.4-.1,6.862,6.862,0,0,0-2.588,1.109l-.016.009a8.563,8.563,0,0,1-3.558,1.439,1.565,1.565,0,0,1-.964-.3,3.3,3.3,0,0,1-1.06-2.216,13.185,13.185,0,0,1-.042-3.134,28.5,28.5,0,0,1,.67-4.011l0,0c-.223-.315-2.2-3.079-3.078-3.1a.341.341,0,0,0-.278.135.759.759,0,0,0-.124.339,30.827,30.827,0,0,0,1.105,11.757c.524,1.44,1.3,1.634,1.99,1.634.216,0,.437-.02.649-.04l.034,0c.2-.017.39-.034.572-.034a1.45,1.45,0,0,1,.813.2c.449.282.718.9.844,1.942a17.515,17.515,0,0,1-.858,5.965c-2.5-2.062-4.969-6.777-6.281-12.012a26.879,26.879,0,0,1-.885-7.247,9.57,9.57,0,0,1,1.546-5.494,9.517,9.517,0,0,1,4.779-2.978,26.717,26.717,0,0,1,7.1-1.165c.455-.018.917-.027,1.375-.027a33.1,33.1,0,0,1,6.067.546,16.644,16.644,0,0,1,5.812,2.062,15.87,15.87,0,0,1-4.92,2.126,5.647,5.647,0,0,1-.9.083,1.727,1.727,0,0,1-1.2-.359,2.189,2.189,0,0,1-.54-1.291V29.49l0-.017c-.183-.968-.371-1.969-2.261-2.1-.3-.021-.622-.032-.955-.032a32.3,32.3,0,0,0-10.651,2.208.789.789,0,0,0-.291.216.324.324,0,0,0-.054.3c.253.823,3.222,1.9,3.814,2.1l.013,0,.04-.022a28.972,28.972,0,0,1,3.635-1.728,13.413,13.413,0,0,1,3.023-.823,6.087,6.087,0,0,1,.739-.048,2.744,2.744,0,0,1,1.681.46c1.089.82.594,2.85.157,4.642l0,.018c-.34,1.385-.661,2.691-.153,3.161a.806.806,0,0,0,.564.185,2.821,2.821,0,0,0,.85-.167c1.847-.611,5.328-3.208,9.313-6.947a2.932,2.932,0,0,1,.213.57c.238.915-.133,1.98-1.167,3.35a41.724,41.724,0,0,1-3.355,3.679l-.008.008,0,.006-.007.007-.179.182-.028.029c-.062.064-.126.129-.191.194a51.473,51.473,0,0,0-4.41,4.951l-.051.066a56.588,56.588,0,0,0-3.827,6.136l-.007.013a41.3,41.3,0,0,1-2.618,4.266c-1.041,1.382-1.977,2.035-2.944,2.056Zm7.072-3.946h0a38.466,38.466,0,0,1,4.253-7.139,38.518,38.518,0,0,1,8.149-7.994,40.992,40.992,0,0,1,9.908-5.259,70.55,70.55,0,0,0-12.786,8.407C-11926.257,43.934-11929.136,48.479-11931.371,52.47Zm38.16-25.166a2.235,2.235,0,0,1-.57-.1,5.924,5.924,0,0,1-1.656-2.987,6.987,6.987,0,0,1,1.5-6.878c2.434-2.7,10.809-5.673,18.2-8.294l.006,0c6.472-2.3,12.061-4.278,12.313-5.583a.426.426,0,0,0-.1-.365c-.415-.5-2.06-.77-4.757-.77a103.794,103.794,0,0,0-14.686,1.369c-6.145.963-11.31,2.223-14.171,3.459-2.395,1.031-4.127,4.519-5.3,10.664-.376,1.976-.636,3.922-.844,5.485V23.3c-.29,2.179-.5,3.753-.806,3.753a.121.121,0,0,1-.072-.028c-.491-.369-.634-4.672-.325-9.8.354-5.871,1.309-12.478,2.928-13.414C-11895.8.5-11881.839,0-11874.025,0c12.751,0,24.223,1.243,25.962,2.354a.067.067,0,0,1,.034.043.078.078,0,0,1-.02.059c-.329.438-4.864,1.69-10.605,3.276l-.016,0c-9.891,2.731-23.437,6.472-27.924,9.353-4.795,3.08-6.984,6.215-6.692,9.586a10.158,10.158,0,0,0,.276,1.539c.12.5.2.833.075.99A.33.33,0,0,1-11893.211,27.3Z" transform="translate(13257.418 2424.799)" fill="url(#radial-gradient)"/>
    <path id="Turtle_1" data-name="Turtle 1" d="M330.417,392.057c-9.369-8.291-35.819-11.924-35.819-11.924s25.008-11.61,35.819-2.816,16.854,41.969,22.276,41.757,6.249-23.19,4.332-38.941S345.65,352.3,345.65,352.3s12.07-3.042,14.913,20.42,6.652,61.067,0,72.865c-.692,1.23-1.379,1.791-2.07,1.791C352.557,447.383,346.19,406.014,330.417,392.057ZM143.626,445.589c-6.652-11.8-2.844-49.4,0-72.865s14.913-20.42,14.913-20.42-9.459,12.077-11.374,27.827-1.09,38.729,4.332,38.94,11.468-32.961,22.278-41.754,35.816,2.814,35.816,2.814-26.447,3.636-35.816,11.927C158,406.014,151.633,447.383,145.7,447.38,145,447.379,144.319,446.819,143.626,445.589ZM225.354,374.4a129.607,129.607,0,0,1-27.167-15.272,191.481,191.481,0,0,1-26.35-23.066,218.217,218.217,0,0,1-23.29-28.9,53.507,53.507,0,0,1,17.346,2.658c7.418,2.206,18.089,6.144,37.458,13.292,3.335,1.233,7.115,2.628,11.2,4.132,17.019,6.271,24.473,8.582,30.675,9.515a57.776,57.776,0,0,0,8.573.717c12.635,0,19.8-5.859,25.572-20.9,5-13.043,2.426-30.479-6.894-46.644-9.395-16.291-23.333-27.349-37.284-29.578a18.928,18.928,0,0,0-2.966-.264c-1.906,0-3.1.426-3.286,1.166-.2.8.843,1.874,2.863,2.934a31.325,31.325,0,0,1,10.458,8.549,23.311,23.311,0,0,1,4.7,10.793,22.676,22.676,0,0,1-1.166,11.237,29.232,29.232,0,0,1-7.007,10.7c-6.767,6.758-16.723,10.332-28.794,10.332a78.581,78.581,0,0,1-25.413-4.593,113.672,113.672,0,0,1-26.8-13.589,149.486,149.486,0,0,1-20.768-17.792,105.738,105.738,0,0,1-7.862-8.79c-2.067-2.649-3.213-4.632-3.318-5.727a.94.94,0,0,1,.211-.784A4.317,4.317,0,0,1,129,243.8c3,0,7.883,1.007,14.127,2.916a217.756,217.756,0,0,1,21.492,8.027,4.433,4.433,0,0,0,1.623.438c.38,0,.611-.135.676-.391.191-.79-1.239-2.523-3.6-3.75-1.979-1.025-8.7-5.671-14.98-10.353-11.211-8.361-19.229-12.088-25.992-12.088a16.8,16.8,0,0,0-3.539.37c-.241-3.037-.364-6.073-.364-9.028a147.3,147.3,0,0,1,2.7-27.968,150.919,150.919,0,0,1,19.96-50.844,148.722,148.722,0,0,1,16.2-21.483,141.307,141.307,0,0,1,19.631-17.921,131.631,131.631,0,0,1,22.531-13.668,122.82,122.82,0,0,1,24.9-8.711,118.274,118.274,0,0,1,53.463,0,122.832,122.832,0,0,1,24.9,8.711,131.443,131.443,0,0,1,22.531,13.668,141.545,141.545,0,0,1,19.631,17.921,148.8,148.8,0,0,1,16.2,21.483,151.053,151.053,0,0,1,19.959,50.844,147.377,147.377,0,0,1,2.7,27.968c0,15.125-3.143,31.111-9.337,47.508-1.971-5.988-4.038-13.113-6.325-21.786-6.544-24.817-9.939-37.369-12.773-45.237s-5.021-10.82-9.01-15.251c-6.4-7.107-15.185-10.867-25.417-10.867-19.768,0-39.786,13.668-49.815,34.007-2.064,4.182-3.267,10.878-3.219,17.906s1.342,13.454,3.456,17.187c1.821,3.2,3.292,4.9,4.26,4.9a.773.773,0,0,0,.584-.27c.61-.652.822-2.532.61-5.43a20.661,20.661,0,0,1,5.5-15.73,21.777,21.777,0,0,1,7.409-5.189,23.881,23.881,0,0,1,9.487-1.912c.117,0,.231,0,.352,0a39.687,39.687,0,0,1,19.969,5.789,54.711,54.711,0,0,1,16,14.96,76.309,76.309,0,0,1,8.952,16.194,89.772,89.772,0,0,1,5.339,18.8,88.516,88.516,0,0,1-2.288,40.324c-3.413,4.564-7.048,9.046-10.8,13.322-3.125-3.556-6.24-12.455-9.271-26.444-1.163-5.372-2.088-7.983-2.829-7.983-1.122,0-1.794,6.088-2.062,18.614-.313,14.67.559,22.379,3.113,27.493a191.2,191.2,0,0,1-18.625,16.079,148.283,148.283,0,0,1-19.149,12.329,101.227,101.227,0,0,1-18.9,7.894,63.537,63.537,0,0,1-17.855,2.784C243.182,379.931,234.523,378.072,225.354,374.4Zm81.226-80.125c3.2,2.156,5.707,3.248,7.439,3.248A2.483,2.483,0,0,0,316.2,296.5c.646-.934.829-2.5.535-4.667a41.152,41.152,0,0,0-2.317-8.35c-1.438-3.88-2.347-10.347-2.37-16.873s.84-11.463,2.259-12.878a5.052,5.052,0,0,0,1.257-4.505,15.5,15.5,0,0,0-3.827-7.313,29.061,29.061,0,0,0-8.379-6.614,10.038,10.038,0,0,0-4.411-1.38,2.165,2.165,0,0,0-1.991.9c-.5.837-.291,2.2.588,3.841,1.967,3.674,1.395,10.438-1.534,18.088-5.277,13.783-.73,29.918,10.576,37.531v0ZM170.934,241.855c-2.406,2.023-3.381,3.6-3.063,4.96.449,1.93,3.557,3.507,10.076,5.116a54.933,54.933,0,0,1,14.649,5.806,67.326,67.326,0,0,1,13.289,10.4c5.082,4.984,8.752,7.019,12.677,7.019,2.394,0,5.06-.775,8.388-2.437a15.507,15.507,0,0,0,3.812-2.5,3.005,3.005,0,0,0,1.146-2.3c-.12-1.377-1.8-2.561-4.989-3.515a21.535,21.535,0,0,1-8.423-4.966c-1.671-1.859-5.185-5.827-7.833-8.849a38.764,38.764,0,0,0-27.569-12.49C178.058,238.1,173.852,239.4,170.934,241.855Zm66.23-161.692a20.151,20.151,0,0,0-2.394,5.1c-2.749,8.083-5.657,14.05-9.419,19.346s-8.667,10.314-15.895,16.271c-26.521,21.854-39.6,32.973-46.979,41.105s-8.628,12.793-8.628,20.156c0,5.1,2.284,10.94,6.607,16.885a67.01,67.01,0,0,0,17.431,16.171c7.845,5.134,12.013,6.684,26.221,9.765a61.169,61.169,0,0,0,12.961,1.366c14,0,26.664-4.52,33.058-11.795,3.339-3.8,4.917-6.479,4.438-7.536q-.22-.484-1-.485a10.917,10.917,0,0,0-4.174,1.407,26.8,26.8,0,0,1-12.012,2.946,24.893,24.893,0,0,1-7.131-1.049,27.149,27.149,0,0,1-6.529-2.958,32.725,32.725,0,0,1-10.35-10.514,37.381,37.381,0,0,1-4.907-26.773,38.851,38.851,0,0,1,3.283-9.718,62.538,62.538,0,0,1,11.73-16.35,76.515,76.515,0,0,1,16.917-12.779,96.152,96.152,0,0,1,21.16-8.685,116.856,116.856,0,0,1,24.477-4.059c.426-.026.84-.038,1.23-.038a9.37,9.37,0,0,1,3.785.635,2.975,2.975,0,0,1,1.745,1.794c1.113,3.477-4.394,10.053-14.37,17.166-7.751,5.524-10.641,8.079-10.312,9.11.119.37.672.549,1.691.549,1.485,0,3.024-.537,3.436-1.2s6.076-3.107,12.632-5.451c7.489-2.676,13.489-5.654,17.839-8.855,4.3-3.166,6.931-6.505,7.818-9.927.98-3.8-.193-7.624-3.492-11.378a18.507,18.507,0,0,0-10.547-6.124c-4.681-1.113-11.078-1.565-22.079-1.565-.676,0-1.384,0-2.105.006-1.736.009-3.569.014-5.229.014a113.076,113.076,0,0,1-12.667-.467c-3.228-.4-5.362-1.1-6.928-2.294a10.349,10.349,0,0,1-3.419-5.442,80.957,80.957,0,0,1-2.132-9.918c-.7-3.959-1.906-6.138-3.39-6.138C238.768,78.46,237.968,79.032,237.164,80.163ZM273.493,152.3c-2,0-4.287,1.6-6.605,4.637-2.437,3.193-6.761,6.626-11.862,9.419a42.785,42.785,0,0,1-14.754,5.145c-5.692.637-9.561,2.394-11.824,5.372-2.183,2.869-2.835,6.811-2,12.056a11.49,11.49,0,0,0,1.184,4.085,2.253,2.253,0,0,0,2.095,1.137c1.348,0,2.461-.441,2.487-.978a3.312,3.312,0,0,1,1.4-2.252,14.308,14.308,0,0,1,3.627-2.076,39.4,39.4,0,0,1,11.486-2.614c11.315-.928,20.614-5.254,24.872-11.565a26.955,26.955,0,0,0,4.438-11.254c.476-3.4.117-6.549-.99-8.628A4.04,4.04,0,0,0,273.493,152.3Zm127.6-32.168c-21.217-7.859-31.008-3.269-36.1,1.322-4.531,4.088-5.336,8.176-7.151,3.469-.689-1.786,6.186-20.341,24.051-18.776,20.946,1.839,83.076,53.476,91.013,49.593,5.014-2.456-15.1-26.7-36.92-47.869-12.567-12.188-25.774-23.39-34.891-28.591-8.585-4.9-23.114.329-36.172,6.776C351.039,92.9,338.969,101.2,338.969,98.962c0-4.279,52.386-40.929,62.125-36.8C435.24,76.65,503.207,179.037,504.188,191.654c.013.153-.062.226-.218.226C499.426,191.88,425.753,129.263,401.094,120.128ZM0,191.652c.984-12.614,68.951-115,103.095-129.489,9.739-4.129,62.125,32.52,62.125,36.8,0,2.235-12.067-6.059-25.95-12.911-13.058-6.447-27.59-11.674-36.175-6.776-9.115,5.2-22.323,16.4-34.89,28.591-21.824,21.166-41.934,45.413-36.918,47.869,7.937,3.883,70.063-47.754,91.01-49.593,17.865-1.565,24.74,16.99,24.054,18.776-1.818,4.708-2.623.62-7.157-3.469-5.09-4.591-14.885-9.181-36.1-1.322C78.437,129.263,4.765,191.881.221,191.878.064,191.878-.01,191.8,0,191.652ZM213.384,72.592c-5.352,0-8.705-1.093-10.556-3.439a9.623,9.623,0,0,1-.863-1.3c6.552-1.093,28.525-5.054,36.188-10.367,1.847-1.284,2.693-2.441,2.584-3.539-.211-2.115-4.037-3.759-8.091-5.5-5.254-2.261-11.213-4.823-11.213-9.052,0-2.088,1.172-4.361,3.483-6.755a40.833,40.833,0,0,1,7.662-5.932,88.994,88.994,0,0,1,11.146-5.824c.035-.112,3.6-11.072,1.921-13.386a1,1,0,0,0-.849-.435,2.387,2.387,0,0,0-1.072.32,82.083,82.083,0,0,0-13,9.531c-4.326,3.741-10.259,9.4-13.956,15.1-3.184,4.913-1.063,7.248.983,9.507,1.09,1.2,2.118,2.332,2.241,3.792.141,1.639-.884,3.451-3.225,5.7-2.882,2.773-8.218,5.713-16.314,8.99.211-5.054,2.079-11.366,5.4-18.259a103.163,103.163,0,0,1,12.558-19.636A83.666,83.666,0,0,1,234.644,6.414a41.59,41.59,0,0,1,8.414-4.7,19.627,19.627,0,0,1,15.956-.041,41.123,41.123,0,0,1,8.306,4.593A82.658,82.658,0,0,1,283.4,21.648,104.3,104.3,0,0,1,295.967,41c3.362,6.811,5.336,13.1,5.712,18.206-7.033-2.96-11.745-5.642-14.4-8.2-2.338-2.25-3.363-4.062-3.226-5.7.124-1.46,1.154-2.593,2.241-3.792,2.051-2.259,4.168-4.594.984-9.507-3.7-5.706-9.631-11.363-13.954-15.1a82.07,82.07,0,0,0-13-9.53,2.387,2.387,0,0,0-1.072-.32,1.008,1.008,0,0,0-.852.435c-1.683,2.323,1.886,13.275,1.924,13.386A89.476,89.476,0,0,1,271.467,26.7a40.845,40.845,0,0,1,7.66,5.932c2.311,2.394,3.482,4.667,3.482,6.755,0,4.229-5.956,6.79-11.211,9.052-4.052,1.745-7.879,3.389-8.09,5.5-.112,1.1.733,2.256,2.583,3.539,4.95,3.43,17.837,7.2,34.475,10.073a9.735,9.735,0,0,1-1.02,1.595c-1.806,2.291-5.125,3.357-10.443,3.357a128.509,128.509,0,0,1-15.334-1.442l-1.807-.238a159.213,159.213,0,0,0-20.426-1.677h-.249a174.385,174.385,0,0,0-22.3,1.968,127.145,127.145,0,0,1-15.4,1.471Z" transform="translate(1111.945 2835.48) rotate(-45)" fill="url(#radial-gradient)"/>
  </g>
</svg>
