<svg id="Twitter" xmlns="http://www.w3.org/2000/svg" width="28.374" height="23.015" viewBox="0 0 28.374 23.015">
  <path id="Path_2" data-name="Path 2" d="M46.985,25.015c10.719,0,16.552-8.828,16.552-16.552V7.675a12.813,12.813,0,0,0,2.837-3,13.086,13.086,0,0,1-3.31.946,6.133,6.133,0,0,0,2.522-3.153A14.459,14.459,0,0,1,61.96,3.892,5.63,5.63,0,0,0,57.7,2a5.922,5.922,0,0,0-5.832,5.832,3.074,3.074,0,0,0,.158,1.261,16.3,16.3,0,0,1-11.98-6.148,6.037,6.037,0,0,0-.788,3,6.263,6.263,0,0,0,2.522,4.887,5.314,5.314,0,0,1-2.68-.788h0a5.761,5.761,0,0,0,4.729,5.675,4.86,4.86,0,0,1-1.576.158,2.683,2.683,0,0,1-1.1-.158,5.972,5.972,0,0,0,5.517,4.1,11.9,11.9,0,0,1-7.251,2.522A4.364,4.364,0,0,1,38,22.177a14.879,14.879,0,0,0,8.985,2.837" transform="translate(-38 -2)" fill="#e9f1f2" fill-rule="evenodd"/>
</svg>
