<svg xmlns="http://www.w3.org/2000/svg" xmlns:xlink="http://www.w3.org/1999/xlink" viewBox="0 0 1920 1576" preserveAspectRatio="none">
  <defs>
    <clipPath id="clip-path">
      <rect id="Rectangle_87" data-name="Rectangle 87" width="1920" height="1576" transform="translate(0 774)" fill="#fff" stroke="#707070" stroke-width="1"/>
    </clipPath>
    <linearGradient id="linear-gradient" x1="0.468" y1="0.69" x2="0.471" y2="-0.045" gradientUnits="objectBoundingBox">
      <stop offset="0" stop-color="#010554"/>
      <stop offset="1" stop-color="#003eac"/>
    </linearGradient>
    <radialGradient id="radial-gradient" cx="0.418" cy="-0.164" r="0.642" gradientTransform="matrix(0.998, 0.07, -0.154, 2.197, -0.005, 0.016)" gradientUnits="objectBoundingBox">
      <stop offset="0" stop-color="#7393ff"/>
      <stop offset="1" stop-color="#0a1197"/>
    </radialGradient>
    <radialGradient id="radial-gradient-2" cx="0.603" cy="0.254" r="1.343" gradientTransform="matrix(0.168, -0.986, 0.306, 0.052, 0.424, 0.836)" gradientUnits="objectBoundingBox">
      <stop offset="0" stop-color="#f4b1ff"/>
      <stop offset="1" stop-color="#5544f3"/>
    </radialGradient>
  </defs>
  <g id="waves1" transform="translate(0 -774)" clip-path="url(#clip-path)">
    <path id="extend-wave" d="M-3.237-138.038s130.41,39.149,286.729,36.125,398.815-74.019,398.815-74.019,19.7,34.59,244.951,25.8,409.519-70.121,658.236-53.114S1922.125-82.108,1922.125-82.108,1920,1.9,1920,1062.537L-2.535,1061.8Z" transform="translate(1 1287)" fill="url(#linear-gradient)"/>
    <path id="path6121-0-3" d="M-8070.035-3963.055l-641.943-2.28S-9093.569-3730-9412.3-3658.7s-578.473,0-578.473,0v56.373s-16.3,68.446,295.315,44.037c131.5-10.3,388.59-75.36,388.59-75.36s90.316,24.375,274.906,15.383c76.113-3.708,235.827-25.806,299.412-28.648,111.506-4.985,221.089-24.2,313.784-11.784,218.674,29.28,348.728,119.572,348.728,119.572l2.481-63.387Z" transform="translate(9989.895 4739.169)" fill="url(#radial-gradient)"/>
    <path id="Path_2" data-name="Path 2" d="M478.521,1224.815c-296.51,44.4-479.946,0-479.946,0v-90.088s177.684,128.549,498.209,59.5S1291,868.829,1291,868.829s385.013-19.329,613.934,1.364c4.927.445,14.928,2.263,14.928,2.263v144.109s-6.043-1.487-9.575-2.282C1798.941,989.213,1471.663,896.274,1371,911.7s-.582,91.24,136.633,164.295,412.229,127.923,412.229,127.923v56.194s-180.239-107.541-435.272-121.356c-23.346-1.265-296.475,35.843-522.09,55.467s-236.637-13.4-298.794-23.507,105.187-34.876,105.187-34.876-54.9,27.755-9.032,34.876,130.242.083,173.875,0c195.1-.373,482.429-39.179,514.328-74.649,44.182-49.128-234.338-104.713-297.065-100.95C956.5,1006.785,775.031,1180.411,478.521,1224.815Z" transform="translate(0 -55.998)" fill="url(#radial-gradient-2)"/>
  </g>
</svg>
