<svg xmlns="http://www.w3.org/2000/svg" xmlns:xlink="http://www.w3.org/1999/xlink"  preserveAspectRatio="none" width="1932.401" height="1936.826" viewBox="0 0 1932.401 1936.826">
  <defs>
    <linearGradient id="linear-gradient" x1="0.362" y1="-0.272" x2="0.315" y2="0.973" gradientUnits="objectBoundingBox">
      <stop offset="0" stop-color="#6d22cf"/>
      <stop offset="0.519" stop-color="#4949d2"/>
      <stop offset="1" stop-color="#9861d9"/>
    </linearGradient>
    <linearGradient id="linear-gradient-2" x1="0.5" x2="0.249" y2="0.609" gradientUnits="objectBoundingBox">
      <stop offset="0" stop-color="#f4b1ff"/>
      <stop offset="1" stop-color="#1900ff"/>
    </linearGradient>
    <radialGradient id="radial-gradient" cx="0.738" cy="0" r="0.985" gradientTransform="scale(1 2.137)" gradientUnits="objectBoundingBox">
      <stop offset="0" stop-color="#f4b1ff"/>
      <stop offset="1" stop-color="#978cff"/>
    </radialGradient>
    <linearGradient id="linear-gradient-3" x1="0.709" y1="1.202" x2="0.528" y2="-0.044" gradientUnits="objectBoundingBox">
      <stop offset="0" stop-color="#7b309c"/>
      <stop offset="1" stop-color="#2851df"/>
    </linearGradient>
    <radialGradient id="radial-gradient-2" cx="0.416" cy="0.264" r="0.521" gradientTransform="matrix(0.993, 0.116, -0.247, 2.114, 0.072, -0.38)" gradientUnits="objectBoundingBox">
      <stop offset="0" stop-color="#ff58ff"/>
      <stop offset="0.692" stop-color="#ff90fb"/>
      <stop offset="1" stop-color="#5687e5"/>
    </radialGradient>
    <radialGradient id="radial-gradient-3" cx="0.414" cy="0.396" r="0.5" gradientUnits="objectBoundingBox">
      <stop offset="0" stop-color="#ffd9f1"/>
      <stop offset="1" stop-color="#5687e5" stop-opacity="0"/>
    </radialGradient>
    <radialGradient id="radial-gradient-4" cx="0.418" cy="-0.164" r="0.642" gradientTransform="matrix(0.998, 0.07, -0.154, 2.197, -0.005, 0.016)" gradientUnits="objectBoundingBox">
      <stop offset="0" stop-color="#7393ff"/>
      <stop offset="1" stop-color="#0a1197"/>
    </radialGradient>
    <radialGradient id="radial-gradient-5" cx="0.603" cy="0.254" r="1.343" gradientTransform="matrix(0.168, -0.986, 0.306, 0.052, 0.424, 0.836)" gradientUnits="objectBoundingBox">
      <stop offset="0" stop-color="#f4b1ff"/>
      <stop offset="1" stop-color="#5544f3"/>
    </radialGradient>
    <linearGradient id="linear-gradient-4" x1="0.468" y1="0.69" x2="0.471" y2="-0.045" gradientUnits="objectBoundingBox">
      <stop offset="0" stop-color="#010554"/>
      <stop offset="1" stop-color="#003eac"/>
    </linearGradient>
  </defs>
  <g id="waves" transform="translate(5.723 -412.71)">
    <g id="Illustration" transform="translate(-754.757 412.71)">
      <path id="path6121-0-3" d="M2337.89,127.072c-166.423,42.128-400.025-131.3-400.025-131.3s-28.687,94.355-297.4,190.052-484.53-7-484.53-7-61.988,87.358-164.4,131.22-245.251,44.23-245.251,44.23l3.5,200.293L1944.366,368.238,2667.982,625.7Z" transform="matrix(1, 0.017, -0.017, 1, 13.785, 107.238)" fill="url(#linear-gradient)"/>
      <path id="Path_4" data-name="Path 4" d="M1195.778,569.755s20.146,9.046-33.444,58.547S838.182,777.314,838.182,777.314s324.152,14.318,324.152-75.222,95.333-23.333,95.333-23.333S1193.451,630.274,1209,628.3c84.5-10.719,196,71.6,196,71.6l-147.33-88.886Z" transform="translate(754.757 -432.344)" fill="url(#linear-gradient-2)"/>
      <path id="Path_3" data-name="Path 3" d="M421.112,796.667S354.409,884.958,249,925-.525,958.616-.525,958.616v34.2s94.277.571,199.686-36.609,179.3-96.885,221.95-112.873c73.917-27.708,236.555,0,236.555,0Z" transform="translate(754.757 -460.712)" fill="url(#radial-gradient)"/>
      <path id="path6121-0-3-2" data-name="path6121-0-3" d="M-8070.1-4178.1s-6.011-2.709-9.082-4.11c-46.121-21.033-74.662-36.624-74.662-36.624s-120.639,110.412-525.643,215.873-614.687,37.629-614.687,37.629-173.777,186.166-347.557,257.462-348.5,14.567-348.5,14.567v226.24s217.659-13.882,519.941-70.314c219.021-40.889,480.257-112.862,736.087-113.077,236.547-.2,454.925,26.761,648.641,63.066,5.557,1.041,17.052,3.233,17.052,3.233Z" transform="translate(10744.651 4218.836)" fill="url(#linear-gradient-3)"/>
      <path id="Path_1" data-name="Path 1" d="M1834.242,439.394s-99.3,66.021-290.909,139.732c-53.6,20.617-222.891,61.772-222.891,61.772s-90.908,24.417-132.564,38.719c-119.7,41.1-442.539,216.6-442.539,216.6s439.865-216.319,288.9-198.753-329.091-17.844-329.091-17.844S545.5,888.863,326.667,947.414c-110.142,29.47-213.291,30.5-299.218,23.271-9.881-.831-29.438-2.854-29.438-2.854v115.589s36.521,19.1,79.414,27.1c102.3,19.071,289.693,18.263,277.137,0-2.285-3.324-11.958-5.839-26.872-8.118C261.432,1092.274,92,1087.324,27.2,1037.465c-79.215-60.952,176.274-17.724,357.037-71.681S692.164,823.721,812.121,793.709C1184.288,700.6,302.25,1086.1,566.667,1009.538c28.857-8.355,178.108-61.3,314.7-86.308s208.455-9.313,240.442-27.016c54.773-30.313-366.118,47.395-334.754,0s345.825-176.3,451.431-176.3,260.606,73.79,260.606,73.79l421.537,68.509v32.776s-165.215,35.319-140.932,32.269c46.97-5.9-242.273-135.291-280.606-207.344s-60.606-92.536,191.818,0c88.5,32.445,161.4,39.377,218.936,34.686,3.4-.277,10.522-1.012,10.522-1.012l-.328-66.03s-5.536-.465-8.419-.711c-113.53-9.709-254.435-26.692-295.559-53.106-72.273-46.421,24.341-107.782,163.636-121.967,20.366-2.074,42.672-2.521,66.237-1.758,20.993.68,43.078,2.368,65.278,4.734,2.9.309,9.329,1.036,9.329,1.036l-.05-43.485-4.985-1.9Z" transform="translate(754.757 -416.046)" fill="url(#radial-gradient-2)"/>
      <path id="Path_236" data-name="Path 236" d="M1834.242,439.394s-99.3,66.021-290.909,139.732c-53.6,20.617-222.891,61.772-222.891,61.772s-90.908,24.417-132.564,38.719c-119.7,41.1-442.539,216.6-442.539,216.6s439.865-216.319,288.9-198.753-329.091-17.844-329.091-17.844S545.5,888.863,326.667,947.414c-110.142,29.47-213.291,30.5-299.218,23.271-9.881-.831-29.438-2.854-29.438-2.854v115.589s36.521,19.1,79.414,27.1c102.3,19.071,289.693,18.263,277.137,0-2.285-3.324-11.958-5.839-26.872-8.118C261.432,1092.274,92,1087.324,27.2,1037.465c-79.215-60.952,176.274-17.724,357.037-71.681S692.164,823.721,812.121,793.709C1184.288,700.6,302.25,1086.1,566.667,1009.538c28.857-8.355,178.108-61.3,314.7-86.308s208.455-9.313,240.442-27.016c54.773-30.313-366.118,47.395-334.754,0s345.825-176.3,451.431-176.3,260.606,73.79,260.606,73.79l421.537,68.509v32.776s-165.215,35.319-140.932,32.269c46.97-5.9-242.273-135.291-280.606-207.344s-60.606-92.536,191.818,0c88.5,32.445,161.4,39.377,218.936,34.686,3.4-.277,10.522-1.012,10.522-1.012l-.328-66.03s-5.536-.465-8.419-.711c-113.53-9.709-254.435-26.692-295.559-53.106-72.273-46.421,24.341-107.782,163.636-121.967,20.366-2.074,42.672-2.521,66.237-1.758,20.993.68,43.078,2.368,65.278,4.734,2.9.309,9.329,1.036,9.329,1.036l-.05-43.485-4.985-1.9Z" transform="translate(754.757 -416.046)" fill="url(#radial-gradient-3)"/>
      <path id="path6121-0-3-3" data-name="path6121-0-3" d="M-8070.035-3963.055l-641.943-2.28S-9093.569-3730-9412.3-3658.7s-578.473,0-578.473,0v56.373s-16.3,68.446,295.315,44.037c131.5-10.3,388.59-75.36,388.59-75.36s90.316,24.375,274.906,15.383c76.113-3.708,235.827-25.806,299.412-28.648,111.506-4.985,221.089-24.2,313.784-11.784,218.674,29.28,348.728,119.572,348.728,119.572l2.481-63.387Z" transform="translate(10744.651 4326.459)" fill="url(#radial-gradient-4)"/>
      <path id="Path_2" data-name="Path 2" d="M478.521,1224.815c-296.51,44.4-479.946,0-479.946,0v-90.088s177.684,128.549,498.209,59.5S1291,868.829,1291,868.829s385.013-19.329,613.934,1.364c4.927.445,14.928,2.263,14.928,2.263v144.109s-6.043-1.487-9.575-2.282C1798.941,989.213,1471.663,896.274,1371,911.7s-.582,91.24,136.633,164.295,412.229,127.923,412.229,127.923v56.194s-180.239-107.541-435.272-121.356c-23.346-1.265-296.475,35.843-522.09,55.467s-236.637-13.4-298.794-23.507,105.187-34.876,105.187-34.876-54.9,27.755-9.032,34.876,130.242.083,173.875,0c195.1-.373,482.429-39.179,514.328-74.649,44.182-49.128-234.338-104.713-297.065-100.95C956.5,1006.785,775.031,1180.411,478.521,1224.815Z" transform="translate(754.757 -468.709)" fill="url(#radial-gradient-5)"/>
      <path id="Path_8" data-name="Path 8" d="M-3.237-138.038s130.41,39.149,286.729,36.125,398.815-74.019,398.815-74.019,19.7,34.59,244.951,25.8,409.519-70.121,658.236-53.114S1922.125-82.108,1922.125-82.108,1920,1.9,1920,1062.537L-2.535,1061.8Z" transform="translate(755.757 874.29)" fill="url(#linear-gradient-4)"/>
    </g>
  </g>
</svg>
