<svg xmlns="http://www.w3.org/2000/svg" xmlns:xlink="http://www.w3.org/1999/xlink" viewBox="0 0 139.446 597.497">
  <defs>
    <radialGradient id="radial-gradient" cx="0.643" cy="0.56" r="0.554" gradientTransform="translate(0 0)" gradientUnits="objectBoundingBox">
      <stop offset="0" stop-color="#002586" stop-opacity="0.561"/>
      <stop offset="0.251" stop-color="#002a8d" stop-opacity="0.341"/>
      <stop offset="0.569" stop-color="#052b8b" stop-opacity="0.133"/>
      <stop offset="0.992" stop-color="#082c8a" stop-opacity="0"/>
      <stop offset="1" stop-color="#003eac"/>
    </radialGradient>
  </defs>
  <g id="what-bubbles" transform="translate(-1639.218 -1279.001)">
    <ellipse class="bubble-flow" id="Ellipse_6" data-name="Ellipse 6" cx="33.283" cy="35.943" rx="33.283" ry="35.943" transform="translate(1639.218 1279.001)" fill="url(#radial-gradient)"/>
    <ellipse class="bubble-flow" id="Ellipse_7" data-name="Ellipse 7" cx="19.366" cy="18.861" rx="19.366" ry="18.861" transform="translate(1725.268 1420.035)" fill="url(#radial-gradient)"/>
    <ellipse class="bubble-flow" id="Ellipse_8" data-name="Ellipse 8" cx="22.824" cy="23.751" rx="22.824" ry="23.751" transform="translate(1660.769 1504.907)" fill="url(#radial-gradient)"/>
    <ellipse class="bubble-flow" id="Ellipse_9" data-name="Ellipse 9" cx="13.141" cy="13.971" rx="13.141" ry="13.971" transform="translate(1718.584 1552.395)" fill="url(#radial-gradient)"/>
    <ellipse class="bubble-flow" id="Ellipse_10" data-name="Ellipse 10" cx="10.216" cy="9.67" rx="10.216" ry="9.67" transform="translate(1680.985 1631.841)" fill="url(#radial-gradient)"/>
    <ellipse class="bubble-flow" id="Ellipse_6-2" data-name="Ellipse 6" cx="22.126" cy="23.894" rx="22.126" ry="23.894" transform="translate(1761.539 1700.076) rotate(-159)" fill="url(#radial-gradient)"/>
    <ellipse class="bubble-flow" id="Ellipse_7-2" data-name="Ellipse 7" cx="12.874" cy="12.539" rx="12.874" ry="12.539" transform="translate(1682.673 1745.904) rotate(-159)" fill="url(#radial-gradient)"/>
    <ellipse class="bubble-flow" id="Ellipse_8-2" data-name="Ellipse 8" cx="15.173" cy="15.79" rx="15.173" ry="15.79" transform="translate(1700.153 1820.013) rotate(-159)" fill="url(#radial-gradient)"/>
    <ellipse class="bubble-flow" id="Ellipse_9-2" data-name="Ellipse 9" cx="8.736" cy="9.288" rx="8.736" ry="9.288" transform="translate(1657.617 1823.573) rotate(-159)" fill="url(#radial-gradient)"/>
    <ellipse class="bubble-flow" id="Ellipse_10-2" data-name="Ellipse 10" cx="6.792" cy="6.428" rx="6.792" ry="6.428" transform="translate(1664.075 1876.497) rotate(-159)" fill="url(#radial-gradient)"/>
  </g>
</svg>
